<svg xmlns="http://www.w3.org/2000/svg" viewBox="0 0 1024 1024"><title>3d-polys</title><path d="M1024,96A95.99949,95.99949,0,0,0,837.49121,64H602.50879a95.99876,95.99876,0,0,0-181.01758,0H186.50879A95.99952,95.99952,0,1,0,64,186.509V421.491A95.9991,95.9991,0,0,0,64,602.509V837.49121A95.99949,95.99949,0,1,0,186.50879,960H421.49121a95.99876,95.99876,0,0,0,181.01758,0H837.49121A95.99949,95.99949,0,1,0,960,837.49121V602.509A95.9991,95.9991,0,0,0,960,421.491V186.509A96.16213,96.16213,0,0,0,1024,96ZM928,960a32,32,0,1,1,32-32A31.99971,31.99971,0,0,1,928,960Zm-90.50879-64H602.50879A96.47275,96.47275,0,0,0,544,837.49121V602.509A96.47313,96.47313,0,0,0,602.50879,544H837.49121A96.47313,96.47313,0,0,0,896,602.509V837.49121A96.47275,96.47275,0,0,0,837.49121,896ZM544,928a32,32,0,1,1-32-32A32,32,0,0,1,544,928ZM64,928a32,32,0,1,1,32,32A31.99971,31.99971,0,0,1,64,928Zm64-90.50879V602.509A96.47313,96.47313,0,0,0,186.50879,544H421.49121A96.47313,96.47313,0,0,0,480,602.509V837.49121A96.47275,96.47275,0,0,0,421.49121,896H186.50879A96.47275,96.47275,0,0,0,128,837.49121ZM96,64A32,32,0,1,1,64,96,31.99986,31.99986,0,0,1,96,64Zm90.50879,64H421.49121A96.47313,96.47313,0,0,0,480,186.509V421.491A96.47313,96.47313,0,0,0,421.49121,480H186.50879A96.47313,96.47313,0,0,0,128,421.491V186.509A96.47313,96.47313,0,0,0,186.50879,128ZM480,96a32,32,0,1,1,32,32A31.99986,31.99986,0,0,1,480,96Zm64,416a32,32,0,1,1-32-32A31.99986,31.99986,0,0,1,544,512ZM96,480a32,32,0,1,1-32,32A31.99986,31.99986,0,0,1,96,480Zm832,64a32,32,0,1,1,32-32A31.99986,31.99986,0,0,1,928,544Zm-90.50879-64H602.50879A96.47313,96.47313,0,0,0,544,421.491V186.509A96.47313,96.47313,0,0,0,602.50879,128H837.49121A96.47313,96.47313,0,0,0,896,186.509V421.491A96.47313,96.47313,0,0,0,837.49121,480ZM960,96a32,32,0,1,1-32-32A31.99986,31.99986,0,0,1,960,96Z"/></svg>