<svg xmlns="http://www.w3.org/2000/svg" viewBox="0 0 1088 1024"><path d="M0,902.17578l288,108,256-96,256,96,288-108V537.85645L832,441.4563V122.25684L544,13.80664,256,122.25684V441.4563L0,537.85645Zm768,27.64844-192-72V606.17627l192,71.99951ZM512,606.17627V857.82422l-192,72V678.17578ZM288,621.82422,122.96991,559.9375,288,497.793,453.03009,559.9375Zm544,308V678.17578l192-71.99951V857.82422Zm-32-308L634.96991,559.9375,800,497.793,965.03,559.9375ZM576,513.42383V262.57617l192-71.99951V441.42383ZM544,206.22461,378.96991,144.33789,544,82.19336l165.03,62.14453ZM320,190.57666l192,71.99951V513.42383l-192-72ZM256,678.17578V929.82422l-192-72V606.17627Z"/></svg>