<svg xmlns="http://www.w3.org/2000/svg" viewBox="0 0 960 1024" role="img"><path d="M304 192a96 96 0 10-96-96 96.109 96.109 0 0096 96zm0-128a32 32 0 11-32 32 32 32 0 0132-32zm560 720a96 96 0 10-96-96 96.109 96.109 0 0096 96zm0-128a32 32 0 11-32 32 32 32 0 0132-32zm48-432a96 96 0 10-96 96 96.109 96.109 0 0096-96zm-96-32a32 32 0 11-32 32 32 32 0 0132-32zm-400 832a96 96 0 10-96-96 96.109 96.109 0 0096 96zm0-128a32 32 0 11-32 32 32 32 0 0132-32zM0 576a96 96 0 1096-96 96.109 96.109 0 00-96 96zm96 32a32 32 0 1132-32 32 32 0 01-32 32zm480-128a96 96 0 10-96 96 96.109 96.109 0 0096-96zm-96 32a32 32 0 1132-32 32 32 0 01-32 32z"/></svg>