<svg xmlns="http://www.w3.org/2000/svg" viewBox="0 0 1024 1024" role="img"><path d="M1026.05 512l-3.866-10.632q-.12-.34-.246-.676l-96.949-266.608A95.964 95.964 0 10789.917 99.01L523.307 2.062q-.335-.127-.675-.246L512-2.05l-10.632 3.866q-.34.12-.676.246L234.084 99.011A95.964 95.964 0 1099.01 234.083L2.062 500.693q-.127.335-.246.675L-2.05 512l3.866 10.632q.12.34.246.676l96.949 266.609a95.964 95.964 0 10135.072 135.072l266.61 96.949q.335.127.675.246L512 1026.05l10.632-3.866q.34-.12.676-.246l266.609-96.949a95.964 95.964 0 10135.072-135.072l96.949-266.61q.127-.335.246-.675zM864 128a32 32 0 11-32 32 32 32 0 0132-32zm-704 0a32 32 0 11-32 32 32 32 0 0132-32zm0 768a32 32 0 1132-32 32 32 0 01-32 32zm704 0a32 32 0 1132-32 32 32 0 01-32 32zm0-128a96.109 96.109 0 00-96 96c0 .286.008.57.01.855L544 946.314V928a32 32 0 00-64 0v18.314l-224.01-81.459c.002-.285.01-.569.01-.855a96.109 96.109 0 00-96-96c-.286 0-.57.008-.855.01L77.686 544H96a32 32 0 000-64H77.686l81.459-224.01c.285.002.569.01.855.01a96.109 96.109 0 0096-96c0-.286-.008-.57-.01-.855L480 77.686V96a32 32 0 0064 0V77.686l224.01 81.459c-.002.285-.01.569-.01.855a96.109 96.109 0 0096 96c.286 0 .57-.008.855-.01L946.314 480H928a32 32 0 000 64h18.314l-81.459 224.01c-.285-.002-.569-.01-.855-.01z"/><path d="M512 658.285a32 32 0 00-32 32v118.858a32 32 0 0064 0V690.285a32 32 0 00-32-32zm0-292.571a32 32 0 0032-32V214.856a32 32 0 00-64 0v118.858a32 32 0 0032 32zM571.429 480H544v-27.429a32 32 0 00-64 0V480h-27.429a32 32 0 000 64H480v27.429a32 32 0 1064 0V544h27.429a32 32 0 100-64zm237.715 0H690.286a32 32 0 100 64h118.858a32 32 0 100-64zm-475.429 0H214.857a32 32 0 100 64h118.858a32 32 0 000-64z"/></svg>