<svg xmlns="http://www.w3.org/2000/svg" viewBox="0 0 1024 1024"><path d="M928,768a96.08939,96.08939,0,0,0-18.49707,1.79517L585.56885,221.59937a96,96,0,1,0-147.1377,0L114.49707,769.79517A96.002,96.002,0,1,0,186.50879,896H837.49121A95.99964,95.99964,0,1,0,928,768Zm0,128a32,32,0,1,1,32-32A32,32,0,0,1,928,896ZM64,864a32,32,0,1,1,32,32A32,32,0,0,1,64,864Zm105.56885-61.59937,323.93408-548.1958a96.19284,96.19284,0,0,0,36.99414,0l323.93408,548.1958A96.01,96.01,0,0,0,837.49121,832H186.50879A96.01,96.01,0,0,0,169.56885,802.40063ZM544,160a32,32,0,1,1-32-32A31.99986,31.99986,0,0,1,544,160Z"/></svg>