<svg xmlns="http://www.w3.org/2000/svg" viewBox="0 0 1024 1024"><title>3d-subd</title><path d="M1026.04981,512l-3.86621-10.63184q-.11938-.33984-.24561-.676L924.98926,234.0835A95.96359,95.96359,0,1,0,789.9165,99.01074L523.30762,2.062q-.33545-.12671-.67578-.24561L512-2.0498,501.36816,1.81641q-.33984.11938-.67578.24561L234.0835,99.01074A95.96359,95.96359,0,1,0,99.01074,234.0835L2.062,500.69214q-.12671.33618-.24561.676L-2.0498,512l3.86621,10.63184q.11938.33984.24561.676L99.01074,789.9165A95.96359,95.96359,0,1,0,234.0835,924.98926L500.69238,1021.938q.33545.12671.67578.24561L512,1026.04981l10.63184-3.86621q.33984-.11938.67578-.24561L789.9165,924.98926A95.96359,95.96359,0,1,0,924.98926,789.9165L1021.938,523.30786q.12671-.33618.24561-.676ZM864,128a32,32,0,1,1-32,32A31.99986,31.99986,0,0,1,864,128Zm-704,0a32,32,0,1,1-32,32A31.99986,31.99986,0,0,1,160,128Zm0,768a32,32,0,1,1,32-32A32,32,0,0,1,160,896Zm704,0a32,32,0,1,1,32-32A32,32,0,0,1,864,896Zm0-128a96.10874,96.10874,0,0,0-96,96c0,.28613.0083.57031.01074.85547L544,946.314V928a32,32,0,0,0-64,0v18.314l-224.01074-81.4585c.00244-.28516.01074-.56934.01074-.85547a96.10874,96.10874,0,0,0-96-96c-.28613,0-.57031.0083-.85547.01074L77.686,544H96a32,32,0,0,0,0-64H77.686l81.4585-224.01074c.28516.00244.56934.01074.85547.01074a96.10874,96.10874,0,0,0,96-96c0-.28613-.0083-.57007-.01074-.85547L480,77.686V96a32,32,0,0,0,64,0V77.686l224.01074,81.4585c-.00244.2854-.01074.56934-.01074.85547a96.10874,96.10874,0,0,0,96,96c.28613,0,.57031-.0083.85547-.01074L946.314,480H928a32,32,0,0,0,0,64h18.314l-81.4585,224.01074C864.57031,768.0083,864.28613,768,864,768Z"/><path d="M512,658.28516a32.00033,32.00033,0,0,0-32,32V809.14258a32,32,0,0,0,64,0V690.28516A32.00033,32.00033,0,0,0,512,658.28516Z"/><path d="M512,365.71387a32.00033,32.00033,0,0,0,32-32V214.85645a32,32,0,0,0-64,0V333.71387A32.00033,32.00033,0,0,0,512,365.71387Z"/><path d="M571.42871,480H544V452.57129a32,32,0,0,0-64,0V480H452.57129a32,32,0,0,0,0,64H480v27.42871a32,32,0,1,0,64,0V544h27.42871a32,32,0,1,0,0-64Z"/><path d="M809.14355,480H690.28613a32,32,0,1,0,0,64H809.14355a32,32,0,1,0,0-64Z"/><path d="M333.71484,480H214.85742a32,32,0,1,0,0,64H333.71484a32,32,0,0,0,0-64Z"/></svg>