<svg xmlns="http://www.w3.org/2000/svg" viewBox="0 0 1024 1024"><path d="M928,192a96.06152,96.06152,0,0,0-83.30542,48.32935L318.77686,144.708a95.99954,95.99954,0,1,0-142.44751,98.59741L80.708,769.22314a95.98794,95.98794,0,1,0,107.86938,69.35645L408.00781,685.93213a95.80775,95.80775,0,0,0,120.75073-7.12793l80.31592,42.83545a96.16121,96.16121,0,1,0,30.16724-56.44409l-80.31616-42.83521a96.0017,96.0017,0,1,0-187.50293,11.06006L151.99219,786.06787a96.22558,96.22558,0,0,0-8.32129-5.373l95.62183-525.918a96.24155,96.24155,0,0,0,68.0127-47.106L833.22314,303.292A96.00121,96.00121,0,1,0,928,192Zm0,128a32,32,0,1,1,32-32A32,32,0,0,1,928,320ZM224,192a32,32,0,1,1,32-32A32,32,0,0,1,224,192ZM64,864a32,32,0,1,1,32,32A31.99986,31.99986,0,0,1,64,864ZM496,608a32,32,0,1,1-32-32A32,32,0,0,1,496,608ZM672,736a32,32,0,1,1,32,32A32,32,0,0,1,672,736Z"/></svg>