<svg xmlns="http://www.w3.org/2000/svg" viewBox="0 0 960 1024"><path d="M304,192a96,96,0,1,0-96-96A96.10874,96.10874,0,0,0,304,192Zm0-128a32,32,0,1,1-32,32A32,32,0,0,1,304,64Z"/><path d="M864,784a96,96,0,1,0-96-96A96.10874,96.10874,0,0,0,864,784Zm0-128a32,32,0,1,1-32,32A32.00018,32.00018,0,0,1,864,656Z"/><path d="M912,224a96,96,0,1,0-96,96A96.10874,96.10874,0,0,0,912,224Zm-96-32a32,32,0,1,1-32,32A32.00018,32.00018,0,0,1,816,192Z"/><path d="M416,1024a96,96,0,1,0-96-96A96.10874,96.10874,0,0,0,416,1024Zm0-128a32,32,0,1,1-32,32A31.99986,31.99986,0,0,1,416,896Z"/><path d="M0,576a96,96,0,1,0,96-96A96.10874,96.10874,0,0,0,0,576Zm96,32a32,32,0,1,1,32-32A32,32,0,0,1,96,608Z"/><path d="M576,480a96,96,0,1,0-96,96A96.10874,96.10874,0,0,0,576,480Zm-96,32a32,32,0,1,1,32-32A32,32,0,0,1,480,512Z"/></svg>