<svg xmlns="http://www.w3.org/2000/svg" viewBox="0 0 1024 1024"><path d="M589.60986,610.58984A28.44507,28.44507,0,1,1,618.06006,639.03,28.47885,28.47885,0,0,1,589.60986,610.58984Z"/><path d="M746.93994,219.99a28.44006,28.44006,0,1,1,28.43994,28.43994A28.47673,28.47673,0,0,1,746.93994,219.99Z"/><path d="M960,0H64A63.995,63.995,0,0,0,0,64V960a63.995,63.995,0,0,0,64,64H960a63.995,63.995,0,0,0,64-64V64A63.995,63.995,0,0,0,960,0ZM274.41992,779.52H748.76A28.336,28.336,0,0,0,777.07007,751.21v-283.8A28.33594,28.33594,0,0,0,748.76,439.1001H465.99a28.34221,28.34221,0,0,0-28.31006,28.30981v90.53A28.34227,28.34227,0,0,0,465.99,586.25h97.6001a59.67481,59.67481,0,1,1,0,48.83008H465.99a77.22753,77.22753,0,0,1-77.13989-77.14014v-90.53A77.22748,77.22748,0,0,1,465.99,390.27H748.76a77.221,77.221,0,0,1,77.13989,77.13989v283.8A77.21876,77.21876,0,0,1,748.76,828.33984H274.41992A77.21679,77.21679,0,0,1,197.29,751.21V272.79a77.217,77.217,0,0,1,77.12988-77.13013h446.49a59.67,59.67,0,1,1,0,48.82007h-446.49A28.35077,28.35077,0,0,0,246.1001,272.79V751.21A28.35077,28.35077,0,0,0,274.41992,779.52Z"/></svg>
