<svg xmlns="http://www.w3.org/2000/svg" viewBox="0 0 1024 1024" role="img"><path d="M331.345 477.914a57.846 57.846 0 1081.806 0 57.845 57.845 0 00-81.806 0zm54.537 68.172l-40.903-40.903 13.635-13.634 40.903 40.902z"/><path d="M960 0H64A64 64 0 000 64v896a64 64 0 0064 64h896a64 64 0 0064-64V64a64 64 0 00-64-64zM719.923 757.418a19.282 19.282 0 01-27.268 0L508.59 573.354 324.528 757.418a19.282 19.282 0 01-27.269 0L133.647 593.806a19.282 19.282 0 010-27.269l184.064-184.063 102.257-102.257a19.282 19.282 0 0127.269 0l177.246 177.246L822.181 655.16zm170.43-170.43l-34.086 34.087L535.86 300.668l34.086-34.086a19.282 19.282 0 0127.268 0L890.353 559.72a19.282 19.282 0 010 27.269z"/></svg>