<svg xmlns="http://www.w3.org/2000/svg" viewBox="0 0 1280 1024"><title>logo-chec</title><path d="M535.23636,120.70649a32,32,0,0,0-45.25483,0L14.80577,595.88225a32,32,0,0,0,0,45.25483l271.529,271.529a32,32,0,0,0,45.25483,0L637.05974,607.196,942.52987,912.66609a32,32,0,0,0,45.25483,0l169.70563-169.70563Zm-56.56854,463.862a96,96,0,1,1,0-135.7645A95.99991,95.99991,0,0,1,478.66782,584.56854ZM784.138,98.07908l486.48947,486.48947a32,32,0,0,1,0,45.25483l-56.56854,56.56854-531.7443-531.7443,56.56854-56.56854A32,32,0,0,1,784.138,98.07908Zm-350.725,463.862-67.88225-67.88225,22.62742-22.62742,67.88225,67.88225Z"/></svg>