<svg xmlns="http://www.w3.org/2000/svg" viewBox="0 0 1024 1024"><path d="M331.34521,477.91406a57.84569,57.84569,0,1,0,81.80615,0A57.84535,57.84535,0,0,0,331.34521,477.91406Zm54.53711,68.17188-40.90283-40.90308,13.63428-13.63428,40.90283,40.90283Z"/><path d="M960,0H64A64,64,0,0,0,0,64V960a64,64,0,0,0,64,64H960a64,64,0,0,0,64-64V64A64,64,0,0,0,960,0ZM719.92334,757.41772a19.28173,19.28173,0,0,1-27.26855,0L508.59131,573.35449l-184.063,184.06323a19.28232,19.28232,0,0,1-27.269,0L133.64746,593.80591a19.28218,19.28218,0,0,1,0-27.26855L317.71094,382.47388,419.96826,280.21655a19.28173,19.28173,0,0,1,27.26855,0L624.4834,457.46265,822.18066,655.1604Zm170.4292-170.429L856.2666,621.07471,535.85986,300.668,569.9458,266.582a19.28218,19.28218,0,0,1,27.26855,0L890.35254,559.72021A19.28218,19.28218,0,0,1,890.35254,586.98877Z"/></svg>