<svg xmlns="http://www.w3.org/2000/svg" viewBox="0 0 1024 1024" role="img"><path d="M1024 494.89v34.262c-.341 1.877-.725 3.712-.939 5.547-1.706 14.933-2.858 29.909-5.29 44.714a369.62 369.62 0 01-50.176 134.144 377.515 377.515 0 01-155.52 143.36 359.34 359.34 0 01-119.98 35.968c-9.258 1.11-18.56 2.091-27.818 3.115H304.555c-1.835-.341-3.627-.853-5.462-1.024a302.593 302.593 0 01-104.448-25.515q-108.608-48.32-161.749-156.33A311.382 311.382 0 013.029 612.01L0 586.325v-33.28a48.667 48.667 0 00.981-5.546 310.87 310.87 0 0119.67-92.8q45.824-120.32 159.488-178.304a308.352 308.352 0 01124.928-32.854 341.248 341.248 0 0164.128 3.03 8.021 8.021 0 006.058-2.006 379.648 379.648 0 01104.875-77.226 362.368 362.368 0 01120.533-36.182c9.984-1.152 19.926-2.133 29.867-3.157h30.72c1.963.299 4.01.683 5.973.896 15.232 1.835 30.507 2.987 45.568 5.547a357.12 357.12 0 01131.115 50.602 379.307 379.307 0 01141.61 158.422 373.761 373.761 0 0135.414 122.112c1.11 9.77 2.048 19.541 3.072 29.312M451.413 273.024c.64.853.811 1.237 1.067 1.365a410.955 410.955 0 0160.16 36.992c1.195.854 4.181.512 5.632-.426 52.139-33.579 108.672-45.184 169.387-34.219 59.52 10.71 107.946 40.96 144.938 89.259 41.899 54.613 57.899 116.48 46.336 185.173-7.765 46.08-25.941 87.467-56.746 122.07-56.32 63.146-126.848 89.258-209.835 78.207-51.072-6.826-95.147-29.226-131.67-66.73C433.836 636.587 386.646 588.8 339.67 540.8c-6.272-6.4-13.226-11.52-22.229-12.672a35.243 35.243 0 00-36.864 20.48c-6.059 12.8-5.29 27.307 7.893 40.448 52.352 52.31 104.278 105.045 156.587 157.44a257.09 257.09 0 0028.757 24.832c38.23 28.203 81.323 43.819 128 50.09 36.608 4.95 72.96 3.84 109.014-4.351 68.778-15.744 125.78-51.414 170.666-106.539a307.755 307.755 0 0067.243-156.587 312.021 312.021 0 00-2.773-100.693c-10.411-54.187-32.982-102.741-69.12-144.085C807.808 230.4 720.98 195.243 617.685 203.05a284.33 284.33 0 00-112.682 33.706 297.046 297.046 0 00-53.547 36.267M426.155 823.04q-2.142-1.996-4.267-4.01c-21.376-20.566-42.923-40.96-64.085-61.825a17.195 17.195 0 00-13.654-5.845c-21.418.512-42.88.597-64-4.267-105.002-24.106-165.973-140.202-127.274-242.346 30.506-80.598 115.029-129.622 198.357-114.518 37.333 6.784 70.144 22.87 97.024 51.072 32.853 34.475 66.645 67.926 99.84 102.016 7.51 7.766 16.213 11.307 26.667 9.814 13.482-1.963 24.277-8.534 29.141-22.016 4.779-13.227 2.475-25.814-7.381-36.011-34.816-35.84-68.822-72.619-105.046-106.965-70.272-66.603-153.088-86.443-244.736-58.112-123.221 38.101-195.37 167.509-167.21 295.21C105.216 741.59 205.269 823.211 322.347 823.34h98.09c1.622 0 3.243-.17 5.718-.299"/></svg>