<svg xmlns="http://www.w3.org/2000/svg" viewBox="0 0 960 1024"><defs><style>.a{fill:#df3132;}</style></defs><title>logo-marxco</title><path class="a" d="M151.48486,844.75873c181.43359,181.43378,475.59595,181.434,657.02979.00037s181.43408-475.59576.00049-657.0296c11.5-16.34,20.01489-40.31952,20.085-58.87952C695.7,84.62,612.74-48.12,480,18.25,347.26-48.12,264.3,84.62,131.3999,128.85c.07007,18.56,8.58545,42.53912,20.08545,58.87915C-29.94849,369.16272-29.94873,663.32489,151.48486,844.75873ZM235.18994,786.73,272.88721,720H687.11377L724.8,786.71C585.85986,912.65,373.72,912.33,235.18994,786.73ZM327.12012,624,480,353.38,632.88062,624Zm-163.05-290.16C231.54,216.98,353.8999,151.58,479.78,151.38c125.86987.2,248.23,65.6,315.7,182.46,68.68994,118.97,62.75,260.55-3.3,370.53L479.78,151.38,167.37012,704.37C101.33008,594.39,95.37988,452.81,164.07007,333.84Z"/></svg>