<svg xmlns="http://www.w3.org/2000/svg" viewBox="0 0 1024 1024"><path d="M510.98384.036q172.57473,0,345.15346.02778c96.92982.0873,166.88593,67.64346,167.23121,164.63638q1.23821,347.12214-.01986,694.24825c-.369,96.06831-69.51563,164.34274-165.56446,164.60069q-347.13776.91662-694.27539.01187C68.59893,1023.31488.2897,954.21908.18653,859.71826Q-.19444,511.62.18256,163.49379C.27782,69.01281,69.50772.17489,163.84612.06775Q337.415-.12868,510.98384.036ZM389.06459,610.29146h.47226c0,42.98451-1.42865,86.02455.32542,128.92974,2.87317,70.2903,37.70044,120.04075,104.01749,143.89808C565.7249,908.96874,635.0421,896.286,701.68856,862.27782c7.86154-4.01588,9.59975-9.23819,9.48863-17.25415-.373-27.10342,0-54.22271-.18651-81.33406-.14285-20.99622-17.00883-31.00426-35.83525-20.97242-22.19958,11.82548-45.29209,20.88111-70.03155,25.74629-53.83227,10.58346-80.39319-9.58339-81.02422-64.05218-.877-75.3737-.01587-150.77119-.56751-226.15283-.08332-11.70644,3.90894-14.08347,14.64759-13.92474,39.01.57939,78.03195.28175,117.04992.20239,20.75507-.04366,31.11677-10.32548,31.23182-30.95267q.17267-31.74433,0-63.48073c-.11511-21.34939-9.687-30.94867-31.25961-31.02409-39.018-.13491-78.03994-.41668-117.04992.21032-10.89342.1746-15.1913-2.22223-14.61986-13.98029.96832-19.78986-.53572-39.70272.55558-59.48465.68656-12.516-3.65892-18.54382-15.15558-23.532-11.43714-4.96036-17.52872-1.42859-25.31088,6.2937Q396.31295,335.152,308.11176,420.81349c-8.66712,8.389-13.87774,17.31364-8.46079,27.46055,5.08757,9.53183,12.98484,17.67477,26.78319,16.57952,15.77068-1.25,31.7755.53176,47.574-.55952,12.09987-.83334,15.63974,2.53574,15.39368,15.07155C388.5328,522.997,389.06459,566.65614,389.06459,610.29146ZM310.67149,321.76108c40.3871.05159,73.54363-32.57172,73.77779-72.58795.23017-39.32575-33.81929-72.94906-73.84524-72.91731-38.96244.02381-71.865,32.87331-72.1785,72.05223C238.09616,289.14571,270.12169,321.70553,310.67149,321.76108Z"/></svg>