<svg xmlns="http://www.w3.org/2000/svg" viewBox="0 0 1024 1024"><path d="M960,0H64A63.995,63.995,0,0,0,0,64V960a63.995,63.995,0,0,0,64,64H960a63.995,63.995,0,0,0,64-64V64A63.995,63.995,0,0,0,960,0ZM222.88261,204.78916c.33045-41.75724,35.39434-76.76778,76.91688-76.78912,42.66273-.04267,78.95267,35.79947,78.70756,77.70554-.24563,42.65232-35.58636,77.418-78.63315,77.36468C256.65695,283.01691,222.53082,248.31523,222.88261,204.78916ZM716.61314,859.14254c-71.03378,36.24727-144.91361,49.761-221.4787,22.2111-70.682-25.42976-107.79208-78.452-110.8619-153.36513-1.86511-45.72163-.34086-91.59261-.34086-137.41026h-.51155c0-46.49988-.56463-93.03151.3622-139.53114.26644-13.36486-3.50644-16.95664-16.40242-16.072-16.839,1.17246-33.90183-.73532-50.70912.5969-14.69707,1.1722-23.11659-7.5031-28.54174-17.67063-5.77642-10.8071-.22377-20.3244,9.01641-29.26613q94.161-91.12373,187.05438-183.54794c8.2915-8.23842,14.78242-12.00037,26.97482-6.71417,12.25641,5.31821,16.8817,11.74486,16.15679,25.07771-1.16153,21.09146.43713,42.3112-.59638,63.40293-.60782,12.53352,3.9748,15.08061,15.58123,14.89951,41.57614-.67157,83.16269-.37313,124.74924-.22377,22.98857.07442,33.19878,10.306,33.31587,33.06035q.192,33.82755,0,67.65536c-.11709,21.98681-11.1693,32.943-33.28412,32.99634-41.58655.08535-83.1731.3942-124.74872-.22377-11.44667-.17069-15.69884,2.366-15.6135,14.84617.586,80.33823-.331,160.69754.6073,241.02484.67131,58.05272,28.97835,79.54931,86.34908,68.26292,26.367-5.17952,50.98649-14.8355,74.6469-27.433,20.05769-10.68975,38.03744-.032,38.18679,22.34926.20243,28.893-.203,57.79694.20243,86.67954C726.84468,849.29505,724.99,854.85811,716.61314,859.14254Z"/></svg>