<svg xmlns="http://www.w3.org/2000/svg" viewBox="0 0 1024 1024" role="img"><path d="M370.61 427.6H172.67L512 868.57zm282.78 0L512 868.57 851.33 427.6zm-480.72 0L512 868.57 370.61 427.6zM960 0H64A63.995 63.995 0 000 64v896a63.995 63.995 0 0064 64h896a63.995 63.995 0 0064-64V64a63.995 63.995 0 00-64-64zm-76.11 592.55L512 868.57 140.11 592.55a29.919 29.919 0 01-10.71-32.99l43.27-131.96 84.83-262.21c4.72-13.28 23.57-13.28 28.28 0l84.83 262.21h282.78l84.83-262.21c4.71-13.28 23.56-13.28 28.27 0l84.84 262.21 43.27 131.96a29.919 29.919 0 01-10.71 32.99zM653.39 427.6L512 868.57 851.33 427.6zm-480.72 0L512 868.57 370.61 427.6zm197.94 0H172.67L512 868.57zm0 0H172.67L512 868.57z"/></svg>