<svg xmlns="http://www.w3.org/2000/svg" viewBox="0 0 1024 1024"><title>logo-gumroad-square</title><path d="M810.04053,229.36035a32.74719,32.74719,0,1,0-32.74707-32.74707A32.78446,32.78446,0,0,0,810.04053,229.36035Z"/><path d="M629.15137,678.46484a32.74719,32.74719,0,1,0-32.74731-32.74707A32.7842,32.7842,0,0,0,629.15137,678.46484Z"/><path d="M960,0H64A64,64,0,0,0,0,64V960a64,64,0,0,0,64,64H960a64,64,0,0,0,64-64V64A64,64,0,0,0,960,0ZM234.03833,839.86182h545.395A32.59155,32.59155,0,0,0,811.988,807.30737v-326.304a32.5916,32.5916,0,0,0-32.55469-32.55469H454.30322a32.5916,32.5916,0,0,0-32.55469,32.55469V585.09424a32.59155,32.59155,0,0,0,32.55469,32.55444H566.52588a68.61328,68.61328,0,1,1,0,56.13818H454.30322a88.79314,88.79314,0,0,1-88.69287-88.69263V481.00342a88.79319,88.79319,0,0,1,88.69287-88.69287H779.43335A88.793,88.793,0,0,1,868.126,481.00342v326.304A88.79293,88.79293,0,0,1,779.43335,896h-545.395a88.79283,88.79283,0,0,1-88.69214-88.69263V257.23682a88.79283,88.79283,0,0,1,88.69214-88.69263H747.415a68.61316,68.61316,0,1,1,0,56.13794H234.03833a32.59134,32.59134,0,0,0-32.5542,32.55469V807.30737A32.59129,32.59129,0,0,0,234.03833,839.86182Z"/></svg>