<svg xmlns="http://www.w3.org/2000/svg" viewBox="0 0 960 1024"><title>logo-gumroad</title><path d="M824.74463,338.99219H407.748A113.88169,113.88169,0,0,0,293.99512,452.74512v133.502A113.88169,113.88169,0,0,0,407.748,700h143.9314a88,88,0,1,0,0-72H407.748a41.80045,41.80045,0,0,1-41.75293-41.75293v-133.502A41.80045,41.80045,0,0,1,407.748,410.99219H824.74463a41.80045,41.80045,0,0,1,41.75293,41.75293v418.502A41.80045,41.80045,0,0,1,824.74463,913H125.24707a41.8,41.8,0,0,1-41.75244-41.75293V165.75293A41.8,41.8,0,0,1,125.24707,124H783.67944a88,88,0,1,0,0-72H125.24707A113.88159,113.88159,0,0,0,11.49463,165.75293V871.24707A113.88159,113.88159,0,0,0,125.24707,985H824.74463A113.88169,113.88169,0,0,0,938.49756,871.24707v-418.502A113.88169,113.88169,0,0,0,824.74463,338.99219ZM590,664a42,42,0,1,1,42,42A42.04765,42.04765,0,0,1,590,664ZM822,88a42,42,0,1,1,42,42A42.04765,42.04765,0,0,1,822,88Z"/></svg>