<svg xmlns="http://www.w3.org/2000/svg" viewBox="0 0 1024 1024"><path d="M370.60986,427.6H172.66992L512,868.57007Zm282.78027,0L512,868.57007,851.33008,427.6Zm-480.72021,0L512,868.57007,370.60986,427.6ZM960,0H64A63.995,63.995,0,0,0,0,64V960a63.99512,63.99512,0,0,0,64,64H960a63.99512,63.99512,0,0,0,64-64V64A63.995,63.995,0,0,0,960,0ZM883.89014,592.55,512,868.57007,140.10986,592.55a29.9186,29.9186,0,0,1-10.71-32.99L172.66992,427.6,257.5,165.39c4.72-13.28,23.57007-13.28,28.28,0L370.60986,427.6H653.39014L738.22,165.39c4.71-13.28,23.56006-13.28,28.27,0L851.33008,427.6l43.27,131.96008A29.9186,29.9186,0,0,1,883.89014,592.55ZM653.39014,427.6,512,868.57007,851.33008,427.6Zm-480.72021,0L512,868.57007,370.60986,427.6Zm197.93994,0H172.66992L512,868.57007Zm0,0H172.66992L512,868.57007Z"/></svg>