<svg xmlns="http://www.w3.org/2000/svg" viewBox="0 0 1280 1024" role="img"><path d="M593.592 254.473c-26.453 22.4 156.958-24.426 138.665 66.08-17.707 87.092-193.064-18.294-385.222-9.387-85.012 3.893-162.878 28.266-212.53 88.959 51.892-59.093 154.718-45.013 127.891-4.32C199.891 490.524 82.346 422.31 0 607.802c9.867-21.333 36.533-63.786 151.625-81.386 84.585-12.906 224.743-.853 269.543 69.173 49.279 77.012-200.478 68.265-62.24 83.892 191.625 21.653 335.943 176.53 523.353 176.584 242.664 0 395.835-123.945 397.702-327.782 3.36-369.222-485.38-443.62-686.391-273.81zm360.955 402.875c-63.732-1.76-128.211-27.306-179.41-52.266-126.132-61.6-178.025-82.826-178.025-85.759 0-3.573 75.732 25.813 203.357-42.08 73.76-39.199 76.373-73.438 154.132-80.265 92.265-8.106 157.97 60.266 157.97 132.158 0 71.946-65.172 130.825-158.024 128.212z"/></svg>