<svg xmlns="http://www.w3.org/2000/svg" viewBox="0 0 1024 1024" role="img"><path d="M589.61 610.59a28.445 28.445 0 1128.45 28.44 28.479 28.479 0 01-28.45-28.44zm157.33-390.6a28.44 28.44 0 1128.44 28.44 28.477 28.477 0 01-28.44-28.44z"/><path d="M960 0H64A63.995 63.995 0 000 64v896a63.995 63.995 0 0064 64h896a63.995 63.995 0 0064-64V64a63.995 63.995 0 00-64-64zM274.42 779.52h474.34a28.336 28.336 0 0028.31-28.31v-283.8a28.336 28.336 0 00-28.31-28.31H465.99a28.342 28.342 0 00-28.31 28.31v90.53a28.342 28.342 0 0028.31 28.31h97.6a59.675 59.675 0 110 48.83h-97.6a77.228 77.228 0 01-77.14-77.14v-90.53a77.227 77.227 0 0177.14-77.14h282.77a77.221 77.221 0 0177.14 77.14v283.8a77.219 77.219 0 01-77.14 77.13H274.42a77.217 77.217 0 01-77.13-77.13V272.79a77.217 77.217 0 0177.13-77.13h446.49a59.67 59.67 0 110 48.82H274.42a28.35 28.35 0 00-28.32 28.31v478.42a28.35 28.35 0 0028.32 28.31z"/></svg>