<svg xmlns="http://www.w3.org/2000/svg" viewBox="0 0 1024 1024" role="img"><path d="M510.984.036q172.575 0 345.153.028c96.93.087 166.886 67.643 167.232 164.636q1.238 347.122-.02 694.248c-.37 96.069-69.516 164.343-165.565 164.601q-347.138.917-694.275.012C68.599 1023.315.289 954.219.187 859.718Q-.194 511.62.183 163.494C.278 69.013 69.508.174 163.846.068Q337.415-.13 510.984.036zm-121.92 610.255h.473c0 42.985-1.429 86.025.325 128.93 2.873 70.29 37.7 120.041 104.018 143.898 71.845 25.85 141.162 13.167 207.809-20.841 7.861-4.016 9.6-9.238 9.488-17.254-.373-27.104 0-54.223-.186-81.334-.143-20.997-17.01-31.005-35.836-20.973-22.2 11.826-45.292 20.881-70.031 25.746-53.832 10.584-80.393-9.583-81.024-64.052-.877-75.373-.016-150.77-.568-226.153-.083-11.706 3.91-14.083 14.648-13.924 39.01.58 78.032.281 117.05.202 20.755-.044 31.116-10.325 31.231-30.953q.173-31.744 0-63.48c-.115-21.35-9.687-30.949-31.26-31.024-39.017-.135-78.04-.417-117.049.21-10.893.175-15.191-2.222-14.62-13.98.968-19.79-.536-39.703.556-59.485.686-12.516-3.66-18.544-15.156-23.532-11.437-4.96-17.529-1.429-25.31 6.294q-87.31 86.566-175.51 172.227c-8.667 8.39-13.878 17.314-8.461 27.461 5.088 9.532 12.985 17.675 26.783 16.58 15.77-1.25 31.776.531 47.574-.56 12.1-.833 15.64 2.536 15.394 15.072-.87 43.631-.337 87.29-.337 130.925zm-78.393-288.53c40.388.052 73.544-32.572 73.778-72.588.23-39.326-33.819-72.949-73.845-72.917-38.962.024-71.865 32.873-72.178 72.052-.33 40.838 31.696 73.398 72.245 73.453z"/></svg>