<svg xmlns="http://www.w3.org/2000/svg" viewBox="0 0 960 1024" role="img"><path d="M151.485 844.759c181.433 181.434 475.596 181.434 657.03 0s181.434-475.596 0-657.03c11.5-16.34 20.015-40.319 20.085-58.879C695.7 84.62 612.74-48.12 480 18.25c-132.74-66.37-215.7 66.37-348.6 110.6.07 18.56 8.585 42.54 20.085 58.88-181.433 181.433-181.434 475.595 0 657.029zm83.705-58.029L272.887 720h414.227l37.686 66.71c-138.94 125.94-351.08 125.62-489.61.02zM327.12 624L480 353.38 632.88 624zM164.07 333.84c67.47-116.86 189.83-182.26 315.71-182.46 125.87.2 248.23 65.6 315.7 182.46 68.69 118.97 62.75 260.55-3.3 370.53l-312.4-552.99-312.41 552.99c-66.04-109.98-71.99-251.56-3.3-370.53z" class="a"/></svg>