<svg xmlns="http://www.w3.org/2000/svg" viewBox="0 0 1024 1024" role="img"><path d="M960 0H64A63.995 63.995 0 000 64v896a63.995 63.995 0 0064 64h896a63.995 63.995 0 0064-64V64a63.995 63.995 0 00-64-64zM222.883 204.79c.33-41.758 35.394-76.769 76.916-76.79 42.663-.043 78.953 35.8 78.708 77.706-.246 42.652-35.586 77.418-78.633 77.364-43.217-.053-77.343-34.755-76.991-78.28zm493.73 654.353c-71.034 36.247-144.913 49.76-221.479 22.21-70.682-25.43-107.792-78.451-110.861-153.364-1.866-45.722-.341-91.593-.341-137.41h-.512c0-46.5-.564-93.032.362-139.532.267-13.365-3.506-16.957-16.402-16.072-16.84 1.173-33.902-.735-50.71.597-14.696 1.172-23.116-7.503-28.541-17.67-5.776-10.808-.224-20.325 9.016-29.267q94.161-91.123 187.055-183.548c8.291-8.238 14.782-12 26.975-6.714 12.256 5.318 16.881 11.745 16.156 25.078-1.161 21.091.438 42.311-.596 63.403-.608 12.533 3.975 15.08 15.581 14.9 41.576-.672 83.163-.374 124.75-.224 22.988.074 33.198 10.306 33.315 33.06q.192 33.827 0 67.655c-.117 21.987-11.169 32.943-33.284 32.997-41.586.085-83.173.394-124.748-.224-11.447-.17-15.7 2.366-15.614 14.846.586 80.338-.33 160.698.607 241.025.672 58.053 28.979 79.55 86.35 68.263 26.366-5.18 50.986-14.836 74.646-27.433 20.058-10.69 38.038-.032 38.187 22.349.203 28.893-.203 57.797.203 86.68.117 8.547-1.738 14.11-10.115 18.395z"/></svg>