<svg xmlns="http://www.w3.org/2000/svg" viewBox="0 0 1024 1024"><path d="M342.50321,803.92257c0,4.129-4.74839,7.43227-10.73548,7.43227-6.81291.61933-11.5613-2.68385-11.5613-7.43227,0-4.129,4.74839-7.43227,10.73548-7.43227C337.13546,795.871,342.50321,799.17414,342.50321,803.92257Zm-64.20646-9.29032c-1.44515,4.129,2.68388,8.87739,8.87743,10.11612,5.36775,2.06452,11.5613,0,12.8-4.129s-2.68388-8.87739-8.87743-10.73551c-5.36775-1.44519-11.35484.61933-12.8,4.74836Zm91.25161-3.5097c-5.98708,1.44519-10.11612,5.36775-9.49679,10.11612.61936,4.129,5.98708,6.81288,12.18063,5.36775,5.98708-1.44519,10.11612-5.36775,9.49679-9.49679C381.10963,793.18706,375.53544,790.50315,369.54836,791.12254ZM505.39355,0C219.04516,0,0,217.39355,0,503.74194,0,732.69676,144.10323,928.61933,349.93548,997.57422c26.42581,4.74836,35.71614-11.5613,35.71614-24.98066,0-12.8-.61936-83.40644-.61936-126.76128,0,0-144.51613,30.96774-174.86451-61.52256,0,0-23.53549-60.07743-57.39355-75.5613,0,0-47.27742-32.41293,3.30322-31.79354,0,0,51.40645,4.129,79.69032,53.26449,45.21289,79.69034,120.98063,56.77419,150.50324,43.14837,4.74839-33.03226,18.16775-55.9484,33.03226-69.57422-115.40644-12.8-231.84517-29.52256-231.84517-228.129,0-56.77419,15.69032-85.26452,48.72258-121.6-5.36774-13.41935-22.91613-68.74839,5.36774-140.18065C284.69676,200.46451,384,269.62582,384,269.62582a487.72255,487.72255,0,0,1,259.30324,0s99.30324-69.36774,142.45161-55.74194c28.2839,71.6387,10.73551,126.76128,5.36775,140.18063,33.03226,36.54193,53.26449,65.03226,53.26449,121.6,0,199.22581-121.6,215.12254-237.00643,228.129,18.99357,16.30966,35.09677,47.27741,35.09677,95.79354,0,69.57422-.61933,155.6645-.61933,172.59356,0,13.41935,9.49679,29.729,35.7161,24.98066C884.02583,928.61933,1024,732.69676,1024,503.74194,1024,217.39355,791.74194,0,505.39355,0ZM200.671,712.0516c-2.68388,2.06452-2.06452,6.81288,1.44515,10.73551,3.30322,3.30324,8.05162,4.74836,10.73548,2.06452,2.68388-2.06452,2.06452-6.81288-1.44515-10.73551C208.10322,710.81288,203.35482,709.36775,200.671,712.0516ZM178.37418,695.329c-1.44515,2.68385.61936,5.98708,4.74839,8.0516,3.30322,2.06452,7.43225,1.44519,8.87743-1.44519,1.44515-2.68385-.61936-5.98708-4.74839-8.0516C183.12257,692.6451,179.81935,693.26449,178.37418,695.329Zm66.89033,73.49679c-3.30322,2.68385-2.06452,8.87739,2.68388,12.8,4.74839,4.74836,10.73548,5.36775,13.41935,2.06452,2.68388-2.68385,1.44515-8.87739-2.68388-12.8C254.14193,766.14195,247.94838,765.52256,245.26451,768.82579ZM221.729,738.47738c-3.30322,2.06452-3.30322,7.43227,0,12.18063s8.87743,6.81288,11.56129,4.74836c3.30322-2.68385,3.30322-8.0516,0-12.8-2.89033-4.74836-8.25806-6.81288-11.56129-4.129Z"/></svg>