<svg xmlns="http://www.w3.org/2000/svg" viewBox="0 0 1216 1024"><title>logo-upwork</title><path d="M991.82232,239.50063c-148.30811-29.37191-292.45294,65.07263-325.39351,211.74883-64.737-95.40527-112.59192-207.58555-132.08164-293.30681l-137.51459.00313V514.88426a129.6588,129.6588,0,0,1-259.31761,0V157.94579H0V520.1162C0,667.67191,119.61792,787.28964,267.17354,787.28964c147.556,0,267.17363-119.61773,267.17363-267.17344V463.91173c24.146,57.20083,55.52617,113.69724,95.43576,163.27916L547.37081,1023.1774H692.44569l59.81162-287.45082a394.51807,394.51807,0,0,0,131.47183,49.502c151.068,27.95375,297.07338-68.12241,326.91811-218.8249C1240.492,415.71652,1142.52472,269.34517,991.82232,239.50063Zm77.42519,298.553c-14.65518,73.96339-86.0567,119.57679-160.46241,107.40719-43.34128-7.09156-85.46219-29.35662-124.94476-61.48885l17.53776-84.2726c14.65517-73.97869,86.48372-136.76362,160.46241-122.10835A136.54,136.54,0,0,1,1069.24751,538.05362Z"/></svg>