<svg xmlns="http://www.w3.org/2000/svg" viewBox="0 0 1216 1024" role="img"><path d="M991.822 239.5C843.514 210.13 699.37 304.574 666.43 451.25c-64.737-95.406-112.592-207.586-132.082-293.307l-137.514.003v356.938a129.659 129.659 0 01-259.318 0V157.946H0v362.17C0 667.672 119.618 787.29 267.174 787.29c147.556 0 267.173-119.618 267.173-267.174v-56.204c24.146 57.2 55.526 113.697 95.436 163.279l-82.412 395.986h145.075l59.811-287.45a394.518 394.518 0 00131.472 49.502c151.068 27.953 297.074-68.123 326.918-218.825 29.845-150.687-68.122-297.059-218.825-326.903zm77.426 298.554c-14.656 73.963-86.057 119.576-160.463 107.407-43.341-7.092-85.462-29.357-124.945-61.489l17.538-84.273c14.655-73.978 86.484-136.763 160.463-122.108a136.54 136.54 0 01107.407 160.463z"/></svg>