<svg xmlns="http://www.w3.org/2000/svg" viewBox="0 0 1024 1024" role="img"><path d="M759.88 960H264.16a38.6 38.6 0 01-38.48-38.48V554.8a38.598 38.598 0 0138.48-38.48h46.56v-59.28c0-111 90.32-201.28 201.28-201.28s201.28 90.32 201.28 201.28v59.28h46.56a38.598 38.598 0 0138.48 38.48v366.72A38.6 38.6 0 01759.84 960zM537.12 757.12a50.957 50.957 0 10-50.24 0v49.68a25.12 25.12 0 1050.24 0zm-110.96-240.8h171.72v-59.28a85.84 85.84 0 00-171.68 0v59.28zm-212.28-54.64H94.28a35.12 35.12 0 110-70.24h119.6a35.12 35.12 0 010 70.24zm84.28-188.16a34.8 34.8 0 01-22.28-8l-94.6-77.8a35.14 35.14 0 0144.64-54.28l94.6 77.8a35.12 35.12 0 01-22.36 62.24zM512 190.8a35.12 35.12 0 01-35.12-35.12V35.12a35.12 35.12 0 1170.24 0v120.56A35.12 35.12 0 01512 190.8zm213.84 82.72a35.08 35.08 0 01-22.36-62.24l94.6-77.8a35.14 35.14 0 1144.64 54.28l-94.6 77.8a35.04 35.04 0 01-22.28 8zm203.88 188.16H808.96a35.12 35.12 0 010-70.24h120.76a35.12 35.12 0 010 70.24z"/></svg>