<svg xmlns="http://www.w3.org/2000/svg" viewBox="0 0 1024 1024"><title>logo-upwork-s</title><path d="M777.83679,512.10266c-8.07214,40.73907-47.4,65.86285-88.38269,59.15985-23.87231-3.906-47.07251-16.16962-68.81946-33.868l9.65979-46.4173c8.072-40.74744,47.63525-75.32935,88.38257-67.25726A75.20629,75.20629,0,0,1,777.83679,512.10266ZM1024,64V960a64,64,0,0,1-64,64H64A64,64,0,0,1,0,960V64A64,64,0,0,1,64,0H960A64,64,0,0,1,1024,64ZM735.19092,347.65979A153.20716,153.20716,0,0,0,555.96436,464.291c-35.6571-52.54919-62.01562-114.33807-72.75049-161.55334l-75.743.00177V499.341a71.416,71.416,0,0,1-142.832,0V302.73944H188.89551V502.22278a147.15918,147.15918,0,0,0,294.31836,0V471.26532c13.29956,31.50623,30.58374,62.62445,52.56592,89.93414L490.38721,779.30872h79.90723L603.23865,620.9809a217.30031,217.30031,0,0,0,72.41467,27.26569c83.20825,15.39691,163.62793-37.52185,180.06641-120.52869A153.214,153.214,0,0,0,735.19092,347.65979Z"/></svg>