<svg xmlns="http://www.w3.org/2000/svg" viewBox="0 0 1024 1024" role="img"><path d="M660.489 512A148.489 148.489 0 11512 363.511 148.489 148.489 0 01660.489 512zM520.95 892.898q17.143-.511 33.902-2.6a5.319 5.319 0 015.16 5.244 232.494 232.494 0 01-15.607 57.91 274.929 274.929 0 01-29.297 52.751 7.011 7.011 0 00-1.535 2.602 10.416 10.416 0 00-.512 3.582 10.864 10.864 0 002.644 7.42 12.583 12.583 0 006.738 4.179 7.984 7.984 0 004.648-1.066l1.62-1.066a839.13 839.13 0 0096.078-63.07 801.714 801.714 0 0086.695-76.76 769.045 769.045 0 0075.096-90.32 831.634 831.634 0 0062.644-103.88 366.633 366.633 0 0028.785-71.642 350.686 350.686 0 0013.049-78.807l-.17-.011q.83-12.575.834-25.364c0-209.715-178.958-380.898-388.672-380.898q-17.143.511-33.902 2.6a5.319 5.319 0 01-5.16-5.244 232.494 232.494 0 0115.607-57.91 274.929 274.929 0 0129.297-52.751 7.011 7.011 0 001.535-2.602 10.416 10.416 0 00.512-3.582 10.864 10.864 0 00-2.644-7.42 12.583 12.583 0 00-6.738-4.179 7.984 7.984 0 00-4.648 1.066l-1.62 1.066a839.13 839.13 0 00-96.077 63.07 801.714 801.714 0 00-86.696 76.76 769.045 769.045 0 00-75.096 90.32 831.634 831.634 0 00-62.644 103.88 366.633 366.633 0 00-28.784 71.642 350.686 350.686 0 00-13.05 78.807l.17.011q-.83 12.575-.834 25.364c0 209.715 178.958 380.898 388.672 380.898z"/></svg>