<svg xmlns="http://www.w3.org/2000/svg" viewBox="0 0 832 1024" role="img"><path d="M64 1024h704a64 64 0 0064-64V258.745L573.255 0H64A64 64 0 000 64v896a64 64 0 0064 64zM560 77.255L754.745 272H624a64 64 0 01-64-64zM64 64h432v144a128.145 128.145 0 00128 128h144v624H64z"/><path d="M510.4 376H273.167l-66.016 132.033 102.812 44.063L222.06 640l87.904 87.905-104.689 44.866L274.412 888h252.421L651.01 639.645zm90.366 264L408 708.035v-136.07zm1.976-22.86l-190.26-122.309 81.54-81.54zM476.686 408l-80.267 80.267H252.811L292.944 408zM354.301 553.012L392 566.318v147.364l-37.7 13.306L267.314 640zm42.762 238.721L487.037 856H292.529l-38.56-64.267zm16.955-7.551l190.027-122.16-95.014 190.026z"/></svg>