<svg xmlns="http://www.w3.org/2000/svg" viewBox="0 0 832 1024"><title>doc-ae</title><path d="M262.01758,695.168H363.77832L381.44238,752h62.59277L346.88184,476.28613H280.44922L182.14453,752h60.67285Zm50.68848-156.67383h.76758l34.17676,109.05664H277.37793Z"/><path d="M554.624,757.376c34.94434,0,75.64844-16.12793,89.85645-65.28027h-55.2959c-4.22461,14.5918-19.584,22.27246-34.56055,22.27246-43.39258,0-46.46387-34.56055-48-49.9209H646.78516v-9.59961c0-93.3125-55.68066-112.5127-96.001-112.5127-89.47266,0-97.9209,78.71973-97.9209,103.2959C452.86328,729.72754,497.02344,757.376,554.624,757.376Zm-4.6084-170.88086c17.28027,0,38.40039,9.9834,41.47266,43.00781H508.16016C511.23145,602.623,524.67188,586.49512,550.01563,586.49512Z"/><path d="M64,1024H768a64,64,0,0,0,64-64V258.74512L573.25488,0H64A64,64,0,0,0,0,64V960A64,64,0,0,0,64,1024ZM560,77.25488,754.74512,272H624a64,64,0,0,1-64-64ZM64,64.00024V64H496V208A128.14493,128.14493,0,0,0,624,336H768V960H64Z"/></svg>