<svg xmlns="http://www.w3.org/2000/svg" viewBox="0 0 832 1024" role="img"><path d="M262.018 695.168h101.76L381.442 752h62.593l-97.153-275.714h-66.433L182.145 752h60.672zm50.688-156.674h.768l34.176 109.057h-70.272zm241.918 218.882c34.944 0 75.648-16.128 89.856-65.28h-55.295c-4.225 14.592-19.584 22.272-34.561 22.272-43.393 0-46.464-34.56-48-49.92h140.161v-9.6c0-93.313-55.68-112.513-96-112.513-89.473 0-97.922 78.72-97.922 103.296 0 84.097 44.16 111.745 101.761 111.745zm-4.608-170.88c17.28 0 38.4 9.983 41.472 43.007H508.16c3.071-26.88 16.512-43.008 41.856-43.008z"/><path d="M64 1024h704a64 64 0 0064-64V258.745L573.255 0H64A64 64 0 000 64v896a64 64 0 0064 64zM560 77.255L754.745 272H624a64 64 0 01-64-64zM64 64h432v144a128.145 128.145 0 00128 128h144v624H64z"/></svg>