<svg xmlns="http://www.w3.org/2000/svg" viewBox="0 0 832 1024"><title>doc-affinity-designer</title><path d="M573.25488,0H64A64,64,0,0,0,0,64V960a64,64,0,0,0,64,64H768a64,64,0,0,0,64-64V258.74512ZM768,959.99976V960H64V64H496V208A128.14493,128.14493,0,0,0,624,336H768ZM624,272a64,64,0,0,1-64-64V77.25488L754.74512,272Z"/><path d="M704.64026,817.41211,454.40955,384h-64.208l-48.53467,84.04907L362.403,508.9,257.0177,691.42957l-60.27124,27.63049L127.35974,839.255l31.449,56.74084L158.80627,896H659.25867ZM386.32214,728.99048H598.16443l47.14746,81.66187H434.49695Zm202.60449-16H461.9447l-33.45752-57.95007,63.491-109.96985Zm-145.45728,0h-48.4397l24.21973-41.95007ZM454.40955,480l28.33105,49.07056L419.24939,639.04028h0l-51.93262,89.9502h.42944l55.27856,93.70325L437.63513,848H241.9447Z"/></svg>