<svg xmlns="http://www.w3.org/2000/svg" viewBox="0 0 832 1024"><path d="M64,1024H768a64,64,0,0,0,64-64V258.74512L573.25488,0H64A64,64,0,0,0,0,64V960A64,64,0,0,0,64,1024ZM560,77.25488,754.74512,272H624a64,64,0,0,1-64-64ZM64,64.00024V64H496V208A128.14493,128.14493,0,0,0,624,336H768V960H64Z"/><path d="M510.3999,376H273.167L207.15088,508.033l102.8125,44.0625L222.05859,640l87.90479,87.90454-104.689,44.8667L274.41162,888H526.833L651.01025,639.64478Zm90.36572,264L408,708.03491V571.96509Zm1.97607-22.85913L412.48291,494.8313l81.53955-81.53955ZM476.686,408l-80.2666,80.2666H252.811L292.94434,408ZM354.30078,553.01245,392,566.31812V713.68188l-37.69922,13.30566L267.31348,640ZM397.063,791.7334,487.03662,856H292.5293l-38.55957-64.2666Zm16.95508-7.55176L604.04492,662.02148,509.03125,852.04834Z"/></svg>