<svg xmlns="http://www.w3.org/2000/svg" viewBox="0 0 832 1024" role="img"><path d="M573.255 0H64A64 64 0 000 64v896a64 64 0 0064 64h704a64 64 0 0064-64V258.745zM768 960H64V64h432v144a128.145 128.145 0 00128 128h144zM624 272a64 64 0 01-64-64V77.255L754.745 272z"/><path d="M168.093 697.889a7.751 7.751 0 006.853-4.044L345.16 395.969A8 8 0 00338.215 384H192a32 32 0 00-32 32v273.875a7.94 7.94 0 008.093 8.014zM296.858 416L192 599.5V416zM640 384H388.595a8 8 0 00-6.91 3.969L164.359 760.527A31.998 31.998 0 00160 776.651V864a32 32 0 0032 32h448a32 32 0 0032-32V416a32 32 0 00-32-32zm0 320H500.773L422.01 567.58 509.525 416H640zm-176.178 0H398.83a32 32 0 01-27.746-47.943l32.452-56.478zM192 776.651L402.38 416h70.194L297.06 720l83.138 144H192zM417.149 864l-73.901-128H640v128z"/></svg>