<svg xmlns="http://www.w3.org/2000/svg" viewBox="0 0 832 1024"><path d="M573.25488,0H64A64,64,0,0,0,0,64V960a64,64,0,0,0,64,64H768a64,64,0,0,0,64-64V258.74512ZM768,959.99976V960H64V64H496V208A128.14493,128.14493,0,0,0,624,336H768ZM624,272a64,64,0,0,1-64-64V77.25488L754.74512,272Z"/><path d="M168.09253,697.88892a7.75126,7.75126,0,0,0,6.85352-4.04431L345.1604,395.96912A7.99993,7.99993,0,0,0,338.2146,384H192a32,32,0,0,0-32,32V689.87549A7.94,7.94,0,0,0,168.09253,697.88892ZM296.85815,416,192.00049,599.50085,192,416Z"/><path d="M640,384H388.595a7.99954,7.99954,0,0,0-6.91016,3.969L164.35913,760.52734A31.99814,31.99814,0,0,0,160,776.65112V864a32,32,0,0,0,32,32H640a32,32,0,0,0,32-32V416A32,32,0,0,0,640,384Zm0,320H500.77295L422.0105,567.57922,509.5249,416H640Zm-176.17773,0H398.82886A32,32,0,0,1,371.083,656.05737l32.45215-56.47815ZM192,776.65112,402.38013,416h70.19434L297.06006,720l83.13843,144H192ZM417.14893,864,343.2478,736H640V864Z"/></svg>