<svg xmlns="http://www.w3.org/2000/svg" viewBox="0 0 832 1024" role="img"><path d="M64 1024h704a64 64 0 0064-64V258.745L573.255 0H64A64 64 0 000 64v896a64 64 0 0064 64zM560 77.255L754.745 272H624a64 64 0 01-64-64zM64 64h432v144a128.145 128.145 0 00128 128h144v624H64z"/><path d="M324.202 658.353a53.087 53.087 0 1126.759-98.882l-.017-.063c36.662 21.378 60.703 15.048 82.082-21.613l.016.06a53.114 53.114 0 1119.084 72.477l.017.063c-36.662-21.378-60.703-15.048-82.082 21.614l-.016-.061a53.018 53.018 0 01-45.843 26.405zm159.588-30.506a39.8 39.8 0 00-34.252 19.55l-.014-.053c-15.59 26.238-32.915 30.648-59.153 15.057l.014.054a39.848 39.848 0 1013.878 54.52l.013.053c15.59-26.237 32.916-30.647 59.153-15.057l-.013-.053a39.842 39.842 0 1020.374-74.071zm-74.737 113.339a26.086 26.086 0 1026.085 26.085 26.086 26.086 0 00-26.085-26.085z"/><path d="M416 384c-141.385 0-256 114.615-256 256s114.615 256 256 256 256-114.615 256-256-114.615-256-256-256zm0 464c-114.875 0-208-93.125-208-208s93.125-208 208-208 208 93.125 208 208-93.125 208-208 208z"/></svg>