<svg xmlns="http://www.w3.org/2000/svg" viewBox="0 0 832 1024"><title>doc-id</title><rect x="269.88965" y="476.28613" width="57.60059" height="275.71387"/><path d="M509.89063,574.207h-.76855C500.6748,561.15039,484.5459,542.335,449.98633,542.335c-44.92871,0-84.86523,34.55957-84.86523,105.21582,0,56.06445,25.34473,109.8252,86.0166,109.8252,22.27246,0,46.08105-8.06445,59.13672-31.10449h.76855V752h52.6084V476.28613H509.89063Zm-45.3125,139.00879c-34.56055,0-44.16016-37.63281-44.16016-61.82422,0-32.25684,11.51953-62.59277,45.69629-62.59277,36.86426,0,46.08008,33.02441,46.08008,65.66406C512.19434,684.7998,498.75488,713.21582,464.57813,713.21582Z"/><path d="M832,960V258.74512L573.25488,0H64A64,64,0,0,0,0,64V960a64,64,0,0,0,64,64H768A64,64,0,0,0,832,960ZM560,77.25488,754.74512,272H624a64,64,0,0,1-64-64ZM64,960V64H496V208A128.14493,128.14493,0,0,0,624,336H768V960H64Z"/></svg>