<svg xmlns="http://www.w3.org/2000/svg" viewBox="0 0 832 1024" role="img"><path d="M64 1024h704a64 64 0 0064-64V258.745L573.255 0H64A64 64 0 000 64v896a64 64 0 0064 64zM560 77.255L754.745 272H624a64 64 0 01-64-64zM64 64h432v144a128.145 128.145 0 00128 128h144v624H64z"/><path d="M656.604 794.948V485.052L416 381.936 175.396 485.052v309.896L416 898.065zm-33.208-273.767v251.87L432.604 854.82V602.95zm-224 333.638l-190.792-81.767V521.18l190.792 81.767zM234.151 496L416 418.064 597.849 496 416 573.936z"/></svg>