<svg xmlns="http://www.w3.org/2000/svg" viewBox="0 0 832 1024" role="img"><path d="M704 0H64A63.995 63.995 0 000 64v896a63.995 63.995 0 0064 64h704a63.995 63.995 0 0064-64V128A128.003 128.003 0 00704 0zm32 960a32.036 32.036 0 01-32 32h-8.58a63.683 63.683 0 008.58-32V510.52a31.964 31.964 0 0110.93-24.08L736 468zm10.14-585.92l-73.36 64.19A96.02 96.02 0 00640 510.52V960H64V64h128v48a15.996 15.996 0 0016 16h64a15.996 15.996 0 0016-16V64h416a64.072 64.072 0 0164 64v197.92a63.994 63.994 0 01-21.86 48.16zM800 960a32.036 32.036 0 01-32 32h-8.58a63.683 63.683 0 008.58-32V440c4-3.83 26.12-21.92 32-29.43zM208 192h64a15.996 15.996 0 0116 16v32a15.996 15.996 0 01-16 16h-64a15.996 15.996 0 01-16-16v-32a15.996 15.996 0 0116-16zm0 128h64a15.996 15.996 0 0116 16v32a15.996 15.996 0 01-16 16h-64a15.996 15.996 0 01-16-16v-32a15.996 15.996 0 0116-16zm114.97 204.32A15.993 15.993 0 00307.4 512H272a15.996 15.996 0 0016-16v-32a15.996 15.996 0 00-16-16h-64a15.996 15.996 0 00-16 16v48s-31.54 110.39-31.99 190.26c-.31 53.19 42.17 97.4 95.36 97.74A96.002 96.002 0 00352 704c0-51.95-21.09-146.08-29.03-179.68zM256 752a48 48 0 1148-48 48 48 0 01-48 48zm80-560h-64a15.996 15.996 0 01-16-16v-32a15.996 15.996 0 0116-16h64a15.996 15.996 0 0116 16v32a15.996 15.996 0 01-16 16zm-64 64h64a15.996 15.996 0 0116 16v32a15.996 15.996 0 01-16 16h-64a15.996 15.996 0 01-16-16v-32a15.996 15.996 0 0116-16zm80 144v32a15.996 15.996 0 01-16 16h-64a15.996 15.996 0 01-16-16v-32a15.996 15.996 0 0116-16h64a15.996 15.996 0 0116 16z"/></svg>