<svg xmlns="http://www.w3.org/2000/svg" viewBox="0 0 832 1024" role="img"><path d="M64 1024h704a64 64 0 0064-64V258.745L573.255 0H64A64 64 0 000 64v896a64 64 0 0064 64zM560 77.255L754.745 272H624a64 64 0 01-64-64zM64 64h432v144a128.145 128.145 0 00128 128h144v624H64z"/><rect width="96" height="80" x="368" y="816" rx="16" ry="16"/><path d="M416 784.002c44-6.665 93.728-41.703 129.903-88.44C585.947 643.827 608 581.84 608 521.02c0-34.219-11.685-62.992-34.73-85.52-53.361-52.16-149.598-51.61-157.27-51.483-7.672-.127-103.909-.678-157.27 51.483-23.045 22.527-34.73 51.3-34.73 85.52 0 60.82 22.053 122.808 62.097 174.543C322.272 742.299 372 777.337 416 784.002zm134.965-325.575C567.811 474.926 576 495.394 576 521c0 94.31-57.65 173.324-114.524 210.274C504.906 661.557 528 587.24 528 544c0-50.624-8.375-88-30.272-115.607 19.397 6.292 38.67 15.767 53.237 30.034zM432 421.526c19.903 7.257 33.553 16.813 43.06 29.885C489.346 471.054 496 500.475 496 544c0 23.117-8.544 58.28-22.855 94.058A486.334 486.334 0 01432 718.128zm-75.06 29.885c9.507-13.072 23.157-22.628 43.06-29.885v296.602a486.334 486.334 0 01-41.145-80.07C344.544 602.279 336 567.118 336 544c0-43.525 6.654-72.946 20.94-92.589zm-75.905 7.016c14.567-14.267 33.84-23.742 53.237-30.034C312.375 456 304 493.376 304 544c0 43.24 23.095 117.557 66.524 187.274C313.65 694.324 256 615.31 256 521c0-25.606 8.189-46.074 25.035-62.573z"/></svg>