<svg xmlns="http://www.w3.org/2000/svg" viewBox="0 0 832 1024"><path d="M573.25488,0H64A64,64,0,0,0,0,64V960a64,64,0,0,0,64,64H768a64,64,0,0,0,64-64V258.74512ZM768,959.99976V960H64V64H496V208A128.14493,128.14493,0,0,0,624,336H768ZM624,272a64,64,0,0,1-64-64V77.25488L754.74512,272Z"/><path d="M176.00488,656.00048h-.00977a16,16,0,1,1,.00977,0Z"/><path d="M224,672.00048a15.99985,15.99985,0,0,1-16-16v-32a16,16,0,0,1,32,0v32A15.99985,15.99985,0,0,1,224,672.00048Z"/><path d="M272,688.00048a15.99985,15.99985,0,0,1-16-16v-64a16,16,0,0,1,32,0v64A15.99985,15.99985,0,0,1,272,688.00048Z"/><path d="M320,752.00048a15.99985,15.99985,0,0,1-16-16v-192a16,16,0,0,1,32,0v192A15.99985,15.99985,0,0,1,320,752.00048Z"/><path d="M368,720.00048a15.99985,15.99985,0,0,1-16-16v-128a16,16,0,0,1,32,0v128A15.99985,15.99985,0,0,1,368,720.00048Z"/><path d="M416,752.00048a15.99985,15.99985,0,0,1-16-16v-192a16,16,0,0,1,32,0v192A15.99985,15.99985,0,0,1,416,752.00048Z"/><path d="M464,864.00048a15.99985,15.99985,0,0,1-16-16v-416a16,16,0,0,1,32,0v416A15.99985,15.99985,0,0,1,464,864.00048Z"/><path d="M512,768.00048a15.99985,15.99985,0,0,1-16-16v-224a16,16,0,0,1,32,0v224A15.99985,15.99985,0,0,1,512,768.00048Z"/><path d="M560,704.00048a15.99985,15.99985,0,0,1-16-16v-96a16,16,0,0,1,32,0v96A15.99985,15.99985,0,0,1,560,704.00048Z"/><path d="M608,672.00048a15.99985,15.99985,0,0,1-16-16v-32a16,16,0,0,1,32,0v32A15.99985,15.99985,0,0,1,608,672.00048Z"/><path d="M656.00488,656.00048h-.00977a16,16,0,1,1,.00977,0Z"/></svg>
