<svg xmlns="http://www.w3.org/2000/svg" viewBox="0 0 832 1024"><path d="M768,1024a64,64,0,0,0,64-64V258.74512L573.25488,0H64A64,64,0,0,0,0,64V960a64,64,0,0,0,64,64ZM560,77.25488,754.74512,272H624a64,64,0,0,1-64-64ZM64,64.00024V64H496V208A128.14493,128.14493,0,0,0,624,336H768V960H64Z"/><path d="M416,896c106.03882,0,192-85.96118,192-192a191.27209,191.27209,0,0,0-48.905-128H678.71436a32,32,0,0,0,0-64H431.85693a32.267,32.267,0,0,0-4.61621.33594c-.18726-.01074-.37354-.02515-.561-.0354l84.57764-84.57788a31.99969,31.99969,0,1,0-45.25488-45.25391L291.44824,557.02344a32.24817,32.24817,0,0,0-3.041,3.52026c-.1355.12061-.272.24023-.40723.36133V441.28613a32,32,0,0,0-64,0V688.14258a32.26441,32.26441,0,0,0,.33594,4.61621C224.12109,696.47949,224,700.22534,224,704,224,810.03882,309.96118,896,416,896Zm0-64A128,128,0,1,1,544,704,128.00008,128.00008,0,0,1,416,832Z"/><circle cx="416" cy="704" r="64"/></svg>