<svg xmlns="http://www.w3.org/2000/svg" viewBox="0 0 832 1024" role="img"><path d="M573.255 0H64A64 64 0 000 64v896a64 64 0 0064 64h704a64 64 0 0064-64V258.745zM768 960H64V64h432v144a128.145 128.145 0 00128 128h144zM624 272a64 64 0 01-64-64V77.255L754.745 272z"/><path d="M215.776 894.856c-17.644 0-34.081-8.386-48.138-24.979-7.397-8.731-21.521-32.33 7.002-62.804 18.132-19.372 51.215-39.356 98.33-59.398 17.088-7.269 35.83-14.414 55.554-21.214 11.95-25.157 23.453-52.839 34.015-82.225 7.045-19.6 13.317-39.034 18.73-57.813-32.308-50.643-50.49-97.924-50.185-132.756.305-34.877 18.546-58.65 51.364-66.941l3.919 15.512-3.92-15.512c20.98-5.303 38.673 3.78 47.326 24.29 14.558 34.504 4.245 103.266-13.8 169.958 9.143 13.503 19.314 27.233 30.397 40.95a585.61 585.61 0 0055.885 60.253c19.987-3.247 38.83-5.544 56.12-6.82 48.357-3.565 80.406 1.018 97.978 14.012 8.495 6.282 26.209 24.457 7.262 57.465-15.35 26.74-42.547 36.38-76.584 27.146-24.627-6.681-52.721-22.869-83.502-48.112q-5.58-4.575-11.185-9.48c-21.784 3.952-44.778 8.966-68.074 14.887-25.303 6.431-49.759 13.57-72.722 21.137-7.069 14.276-14.311 27.786-21.643 40.346-26.09 44.69-51.912 75.09-76.752 90.355-12.77 7.848-25.354 11.742-37.377 11.743zm91.108-126.46c-51.63 20.083-91.24 41.696-108.881 60.544-12.128 12.958-8.26 17.524-5.95 20.251 13.243 15.632 26.505 17.624 44.346 6.659 21.561-13.25 46.312-44.51 70.485-87.454zm228.068-58.555c22.247 16.878 43.126 28.553 60.458 33.256 25.654 6.958 35.094-2.86 40.452-12.195 6.805-11.854 3.592-14.231 1.465-15.803-4.982-3.684-22.424-11.824-76.598-7.828-8.153.601-16.771 1.462-25.777 2.57zm-130.477-89.767a975.7 975.7 0 01-11.822 34.986c-7.212 20.065-14.912 39.547-22.963 58.145a1131.363 1131.363 0 0146.698-12.943c16.12-4.097 31.932-7.75 47.282-10.929-14.442-14.625-28.652-30.54-42.191-47.298q-8.885-10.996-17.004-21.96zM393.916 417.16a15.397 15.397 0 00-3.63.592c-18.636 4.708-27.026 15.871-27.203 36.196-.201 22.95 10.436 54.221 29.484 88.921 12.586-54.993 16.01-99.768 7.723-119.412-2.036-4.825-3.775-6.297-6.374-6.297z"/></svg>