<svg xmlns="http://www.w3.org/2000/svg" viewBox="0 0 832 1024"><title>doc-affinity-photo</title><path d="M573.25488,0H64A64,64,0,0,0,0,64V960a64,64,0,0,0,64,64H768a64,64,0,0,0,64-64V258.74512ZM768,959.99976V960H64V64H496V208A128.14493,128.14493,0,0,0,624,336H768ZM624,272a64,64,0,0,1-64-64V77.25488L754.74512,272Z"/><path d="M704.6402,817.41211,454.40948,384H390.2016l-48.53479,84.04907L362.40289,508.9,257.01764,691.42957,196.7464,719.06006,127.3598,839.255l31.44885,56.7406L158.80609,896H659.25861ZM379.30792,610.07971l42.10815,72.933H337.2Zm65.86377,114.07947-14.51758,25.14551H401.61749l-14.51758-25.14551,14.51758-25.14648h29.03625Zm18.47559,0v-.00012L529.511,610.07959l80.38159,139.2251H449.12921Zm-26.61072,86.49316-26.18127-45.34766h208.2749l26.18164,45.34766ZM440.12384,848H315.60028l62.26184-107.84082Zm80.14954-253.92041L454.40961,708.15894,388.54547,594.07971,454.40948,480ZM327.96246,699.0127h55.18018L297.12506,848H241.94452Z"/></svg>