<svg xmlns="http://www.w3.org/2000/svg" viewBox="0 0 832 1024"><path d="M640,384.00048H388.595a8,8,0,0,0-6.91034,3.969L164.359,760.52782A32.00048,32.00048,0,0,0,160,776.6516v87.34888a32,32,0,0,0,32,32H640a32,32,0,0,0,32-32v-448A32,32,0,0,0,640,384.00048Zm0,365.027-192.2735-333.027H640ZM318.13855,560.414l34.94519-59.906L562.94635,864.00048H493.41406Zm138.325,303.58643h-69.532L264.62268,652.1555l34.94537-59.90637ZM191.99988,776.6516l54.05231-92.661L349.981,864.00048H192Zm407.897,87.34888L371.65424,468.673l30.72565-52.67249H410.776L640,813.02757v50.9729Z"/><path d="M168.09241,697.88939a7.751,7.751,0,0,0,6.85345-4.04431l170.2146-297.87549a8,8,0,0,0-6.94586-11.96912H192a32.00006,32.00006,0,0,0-32,32V689.876A7.94,7.94,0,0,0,168.09241,697.88939ZM296.85822,416.00048,192.00055,599.50121,192,416.00048Z"/><path d="M573.25488.00048H64a64,64,0,0,0-64,64v896a64,64,0,0,0,64,64H768a64,64,0,0,0,64-64V258.74559ZM768,960.00023v.00024H64v-896H496v144a128.14493,128.14493,0,0,0,128,128H768ZM624,272.00048a64,64,0,0,1-64-64V77.25536L754.74512,272.00048Z"/></svg>
