<svg xmlns="http://www.w3.org/2000/svg" viewBox="0 0 832 1024"><title>doc-resolve</title><path d="M64,1024H768a64,64,0,0,0,64-64V258.74512L573.25488,0H64A64,64,0,0,0,0,64V960A64,64,0,0,0,64,1024ZM560,77.25488,754.74512,272H624a64,64,0,0,1-64-64ZM64,64.00024V64H496V208A128.14493,128.14493,0,0,0,624,336H768V960H64Z"/><path d="M416,384c-141.38477,0-256,114.615-256,256S274.61523,896,416,896,672,781.385,672,640,557.38477,384,416,384Zm0,464c-114.87512,0-208-93.12456-208-208s93.12488-208,208-208,208,93.12456,208,208S530.87512,848,416,848Z"/><path d="M479.2112,756.13913c-28.55322-16.48521-44.13074-66.839-52.87117-99.45875,32.61971-8.74043,84.01617-20.42681,112.56938-3.9416A59.69822,59.69822,0,1,1,479.2112,756.13913ZM271.23952,734.28807a59.69822,59.69822,0,0,0,81.54928,21.85106c28.55322-16.48521,44.13074-66.839,52.87117-99.45875-32.61971-8.74043-84.01617-20.42681-112.56938-3.9416A59.69822,59.69822,0,0,0,271.23952,734.28807ZM416,483.55556a59.69822,59.69822,0,0,0-59.69822,59.69822c0,32.97041,35.81893,71.63786,59.69822,95.51715,23.87929-23.87929,59.69822-62.54673,59.69822-95.51715A59.69822,59.69822,0,0,0,416,483.55556Z"/></svg>