<svg xmlns="http://www.w3.org/2000/svg" viewBox="0 0 832 1024"><path d="M64,1024H768a64,64,0,0,0,64-64V258.74512L573.25488,0H64A64,64,0,0,0,0,64V960A64,64,0,0,0,64,1024ZM560,77.25488,754.74512,272H624a64,64,0,0,1-64-64ZM64,64.00024V64H496V208A128.14493,128.14493,0,0,0,624,336H768V960H64Z"/><path d="M324.20187,658.35333a53.08685,53.08685,0,1,1,26.75891-98.88258l-.01659-.06318c36.66182,21.37884,60.70287,15.04835,82.08154-21.613l.01609.061a53.11362,53.11362,0,1,1,19.084,72.47645l.01676.06335c-36.66148-21.37867-60.7027-15.04851-82.08154,21.6133l-.01609-.061A53.018,53.018,0,0,1,324.20187,658.35333Zm159.58847-30.50679a39.80031,39.80031,0,0,0-34.2525,19.5504l-.01341-.05262c-15.59034,26.23719-32.91578,30.6474-59.15314,15.05706l.01358.05346a39.84839,39.84839,0,1,0,13.87788,54.52087l.01341.05246c15.59034-26.23719,32.91594-30.64724,59.15314-15.05689l-.01358-.05363a39.8423,39.8423,0,1,0,20.37462-74.0711ZM409.05272,741.18585a26.08552,26.08552,0,1,0,26.08552,26.08552A26.08553,26.08553,0,0,0,409.05272,741.18585Z"/><path d="M416,384c-141.38477,0-256,114.615-256,256S274.61523,896,416,896,672,781.385,672,640,557.38477,384,416,384Zm0,464c-114.87512,0-208-93.12456-208-208s93.12488-208,208-208,208,93.12456,208,208S530.87512,848,416,848Z"/></svg>