<svg xmlns="http://www.w3.org/2000/svg" viewBox="0 0 832 1024" role="img"><path d="M640 384H388.595a8 8 0 00-6.91 3.97L164.359 760.527A32 32 0 00160 776.652V864a32 32 0 0032 32h448a32 32 0 0032-32V416a32 32 0 00-32-32zm0 365.027L447.726 416H640zM318.139 560.414l34.945-59.906L562.946 864h-69.532zM456.464 864h-69.532l-122.31-211.845 34.946-59.906zM192 776.652l54.052-92.661L349.981 864H192zM599.897 864L371.654 468.673l30.726-52.672h8.396L640 813.028V864zM168.092 697.89a7.751 7.751 0 006.854-4.045L345.16 395.97a8 8 0 00-6.945-11.97H192a32 32 0 00-32 32v273.876a7.94 7.94 0 008.092 8.013zM296.858 416L192.001 599.501l-.001-183.5z"/><path d="M573.255 0H64A64 64 0 000 64v896a64 64 0 0064 64h704a64 64 0 0064-64V258.746zM768 960H64V64h432v144a128.145 128.145 0 00128 128h144zM624 272a64 64 0 01-64-64V77.255L754.745 272z"/></svg>