<svg xmlns="http://www.w3.org/2000/svg" viewBox="0 0 832 1024" role="img"><path d="M64 1024h704a64 64 0 0064-64V258.745L573.255 0H64A64 64 0 000 64v896a64 64 0 0064 64zM560 77.255L754.745 272H624a64 64 0 01-64-64zM64 64h432v144a128.145 128.145 0 00128 128h144v624H64z"/><path d="M416 384c-141.385 0-256 114.615-256 256s114.615 256 256 256 256-114.615 256-256-114.615-256-256-256zm0 464c-114.875 0-208-93.125-208-208s93.125-208 208-208 208 93.125 208 208-93.125 208-208 208z"/><path d="M479.211 756.14c-28.553-16.486-44.13-66.84-52.871-99.46 32.62-8.74 84.016-20.426 112.57-3.941a59.698 59.698 0 11-59.699 103.4zM271.24 734.287a59.698 59.698 0 0081.549 21.851c28.553-16.485 44.13-66.839 52.871-99.459-32.62-8.74-84.016-20.426-112.57-3.941a59.698 59.698 0 00-21.85 81.55zM416 483.556a59.698 59.698 0 00-59.698 59.698c0 32.97 35.819 71.638 59.698 95.517 23.88-23.88 59.698-62.547 59.698-95.517A59.698 59.698 0 00416 483.556z"/></svg>