<svg xmlns="http://www.w3.org/2000/svg" viewBox="0 0 832 1024"><path d="M64,1024H768a64,64,0,0,0,64-64V258.74512L573.25488,0H64A64,64,0,0,0,0,64V960A64,64,0,0,0,64,1024ZM560,77.25488,754.74512,272H624a64,64,0,0,1-64-64ZM64,64.00024V64H496V208A128.14493,128.14493,0,0,0,624,336H768V960H64Z"/><rect x="368" y="816" width="96" height="80" rx="16" ry="16"/><path d="M416,784.002c44-6.66479,93.72778-41.70264,129.90283-88.43994C585.94678,643.82666,608,581.83936,608,521.019c0-34.21875-11.68506-62.99219-34.73-85.51953-53.36108-52.16113-149.59814-51.61084-157.27-51.4834-7.67187-.12744-103.90894-.67773-157.27,51.4834C235.68506,458.02686,224,486.80029,224,521.019c0,60.82031,22.05322,122.80762,62.09717,174.543C322.27222,742.29932,372,777.33716,416,784.002Zm134.96533-325.5752C567.811,474.92578,576,495.39355,576,521c0,94.30981-57.6499,173.32446-114.52368,210.27393C504.90527,661.55713,528,587.24048,528,544c0-50.624-8.375-88-30.27246-115.60742C517.12451,434.68457,536.39844,444.15967,550.96533,458.42676ZM432,421.52563c19.90332,7.25757,33.55322,16.81348,43.06006,29.8855C489.34619,471.05371,496,500.47461,496,544c0,23.11719-8.54395,58.2793-22.85547,94.05762A486.33352,486.33352,0,0,1,432,718.12842Zm-75.06006,29.8855c9.50684-13.072,23.15674-22.62793,43.06006-29.8855V718.12842a486.33351,486.33351,0,0,1-41.14453-80.0708C344.54395,602.2793,336,567.11719,336,544,336,500.47461,342.65381,471.05371,356.93994,451.41113Zm-75.90527,7.01563c14.56689-14.26709,33.84082-23.74219,53.23779-30.03418C312.375,456,304,493.376,304,544c0,43.24048,23.09473,117.55713,66.52368,187.27393C313.6499,694.32446,256,615.30981,256,521,256,495.39355,264.189,474.92578,281.03467,458.42676Z"/></svg>