<svg xmlns="http://www.w3.org/2000/svg" viewBox="0 0 832 1024" role="img"><path d="M303.873 652.543h66.049c74.112 0 87.936-62.977 87.936-87.937 0-54.144-32.256-88.32-85.632-88.32H246.273V752h57.6zm0-128.64h45.696c35.713 0 50.689 11.135 50.689 38.016 0 12.288 0 43.008-43.008 43.008h-53.377zM543.875 645.63c0-22.655 7.68-48.767 49.536-48.767a100.457 100.457 0 0115.36.768v-54.528a94.206 94.206 0 00-10.368-.768c-32.64 0-44.928 19.968-56.064 40.704h-.769v-35.328h-51.456V752h53.761z"/><path d="M768 1024a64 64 0 0064-64V258.745L573.255 0H64A64 64 0 000 64v896a64 64 0 0064 64zM560 77.255L754.745 272H624a64 64 0 01-64-64zM64 64h432v144a128.145 128.145 0 00128 128h144v624H64z"/></svg>