<svg xmlns="http://www.w3.org/2000/svg" viewBox="0 0 832 1024"><title>doc-obj</title><path d="M64,1024H768a64,64,0,0,0,64-64V258.74512L573.25488,0H64A64,64,0,0,0,0,64V960A64,64,0,0,0,64,1024ZM560,77.25488,754.74512,272H624a64,64,0,0,1-64-64ZM64,64.00024V64H496V208A128.14493,128.14493,0,0,0,624,336H768V960H64Z"/><path d="M656.604,794.94824V485.05151L416,381.93555l-240.604,103.116V794.94824L416,898.0647ZM623.396,521.18066V773.05176L432.604,854.81934V602.94849Zm-224,333.63867L208.604,773.05176V521.18066l190.792,81.76782ZM234.15137,496,416,418.06445,597.84863,496,416,573.93555Z"/></svg>