<svg xmlns="http://www.w3.org/2000/svg" viewBox="0 0 832 1024"><path d="M64,1024H768a64,64,0,0,0,64-64V258.74512L573.25488,0H64A64,64,0,0,0,0,64V960A64,64,0,0,0,64,1024ZM560,77.25488,754.74512,272H624a64,64,0,0,1-64-64ZM64,64.00024V64H496V208A128.14493,128.14493,0,0,0,624,336H768V960H64Z"/><path d="M598.75293,896c60.59326,0,105.8479-31.5874,105.8479-88.99121,0-53.45557-30.52417-77.29785-84.89087-100.53271l-15.94556-6.834c-27.48706-11.99707-39.33228-19.74194-39.33228-38.87671,0-15.49,11.84521-27.33521,30.52441-27.33521,18.37524,0,30.22046,7.74512,41.15454,27.33521l49.81079-31.89087c-20.957-37.05444-50.1145-51.17773-90.81348-51.17773-56.94849,0-93.54736,36.447-93.54736,84.43555,0,52.08862,30.52441,76.84229,76.69043,96.43237l15.94556,6.83374c29.30957,12.90845,46.62183,20.65332,46.62183,42.52148,0,18.37524-17.00855,31.5874-43.43262,31.5874-31.43555,0-49.35522-16.553-63.02295-38.87671l-52.08862,30.0686C500.95361,867.75366,539.375,896,598.75293,896Z"/><path d="M351.97705,896c56.64453,0,95.52124-30.2207,95.52124-96.43262h0V581.34155H383.56421v217.3147c0,32.043-13.36377,40.24365-34.3208,40.24365-22.02,0-31.13159-15.03442-41.15454-32.80225L256,837.533C271.186,869.57593,300.79932,896,351.97705,896Z"/></svg>