<svg xmlns="http://www.w3.org/2000/svg" viewBox="0 0 832 1024" role="img"><path d="M768 1024a64 64 0 0064-64V258.745L573.255 0H64A64 64 0 000 64v896a64 64 0 0064 64zM560 77.255L754.745 272H624a64 64 0 01-64-64zM64 64h432v144a128.145 128.145 0 00128 128h144v624H64z"/><path d="M416 896c106.039 0 192-85.961 192-192a191.272 191.272 0 00-48.905-128h119.62a32 32 0 000-64H431.856a32.267 32.267 0 00-4.616.336c-.188-.01-.374-.025-.561-.035l84.577-84.578a32 32 0 10-45.255-45.254L291.448 557.023a32.248 32.248 0 00-3.04 3.52c-.136.121-.273.24-.408.362V441.286a32 32 0 00-64 0v246.857a32.264 32.264 0 00.336 4.616A194.72 194.72 0 00224 704c0 106.039 85.961 192 192 192zm0-64a128 128 0 11128-128 128 128 0 01-128 128z"/><circle cx="416" cy="704" r="64"/></svg>