<svg xmlns="http://www.w3.org/2000/svg" viewBox="0 0 832 1024" role="img"><path d="M269.89 476.286h57.601V752H269.89zm240 97.921h-.768c-8.447-13.057-24.576-31.872-59.136-31.872-44.928 0-84.865 34.56-84.865 105.216 0 56.064 25.345 109.825 86.017 109.825 22.272 0 46.08-8.064 59.136-31.104h.769V752h52.608V476.286h-53.76zm-45.312 139.009c-34.56 0-44.16-37.633-44.16-61.824 0-32.257 11.52-62.593 45.696-62.593 36.865 0 46.08 33.024 46.08 65.664 0 30.337-13.44 58.753-47.616 58.753z"/><path d="M832 960V258.745L573.255 0H64A64 64 0 000 64v896a64 64 0 0064 64h704a64 64 0 0064-64zM560 77.255L754.745 272H624a64 64 0 01-64-64zM64 960V64h432v144a128.145 128.145 0 00128 128h144v624H64z"/></svg>