<svg xmlns="http://www.w3.org/2000/svg" viewBox="0 0 832 1024"><title>doc-fbx</title><path d="M64,1024H768a64,64,0,0,0,64-64V258.74512L573.25488,0H64A64,64,0,0,0,0,64V960A64,64,0,0,0,64,1024ZM560,77.25488,754.74512,272H624a64,64,0,0,1-64-64ZM64,64.00024V64H496V208A128.14493,128.14493,0,0,0,624,336H768V960H64Z"/><path d="M440,568V533.481l156.85889-17.42871L544.74463,411.824l-131.71-37.63159L248,465.87842V833.27979L439.416,897.3l.53369-176.64917,124.27734-46.604L590.73877,568ZM408,413.59595V504.8396l-79.6543,8.85034-41.88086-32.57422ZM371.77441,675.5896l36.49219-56.76587v72.98462ZM408,575.64331l-61.543-47.86694L408,520.93823Zm-16.792,7.20874L280,577.73877V535.1604l43.6543-4.85034ZM280,593.75488l121.76221,5.59863L356.98,669.0144,280,634.801Zm144-90.69312V410.606l98.41846,28.11938,25.29541,50.59058ZM305.543,516.22363,280,519.06177V496.35669ZM280,652.31006l68.22559,30.32251L280,788.76123ZM363.02,689.208l44.96436,19.98413-.43408,143.70776L284.291,811.675Zm60.71338,3.3479V600H549.75391l-12.49609,49.98438Z"/></svg>