<svg xmlns="http://www.w3.org/2000/svg" viewBox="0 0 832 1024" role="img"><path d="M573.255 0H64A64 64 0 000 64v896a64 64 0 0064 64h704a64 64 0 0064-64V258.745zM768 960H64V64h432v144a128.145 128.145 0 00128 128h144zM624 272a64 64 0 01-64-64V77.255L754.745 272z"/><path d="M640 384H388.595a8 8 0 00-6.91 3.969L164.359 760.527A32 32 0 00160 776.651V864a32 32 0 0032 32h448a32 32 0 0032-32V416a32 32 0 00-32-32zM393.748 640l27.126-46.983h54.252L502.252 640l-27.126 46.983h-54.252zm92.376 224H264.42l110.851-192zM456.65 561.017H317.787l67.783-116.2zM409.876 416H631.58L520.728 608zM640 465.414V689.32l-127.923-2.336zM192 776.651l107.12-183.634h84.803L227.47 864H192zM523.074 864L439.35 718.983H640V864zM168.092 697.889a7.751 7.751 0 006.854-4.044L345.16 395.969A8 8 0 00338.215 384H192a32 32 0 00-32 32v273.875a7.94 7.94 0 008.092 8.014zM296.858 416L192 599.5V416z"/></svg>