<svg xmlns="http://www.w3.org/2000/svg" viewBox="0 0 832 1024" role="img"><path d="M64 1024h704a64 64 0 0064-64V258.745L573.255 0H64A64 64 0 000 64v896a64 64 0 0064 64zM560 77.255L754.745 272H624a64 64 0 01-64-64zM64 64h432v144a128.145 128.145 0 00128 128h144v624H64z"/><path d="M440 568v-34.519l156.859-17.429-52.114-104.228-131.71-37.632L248 465.878V833.28l191.416 64.02.534-176.65 124.277-46.603L590.739 568zm-32-154.404v91.244l-79.654 8.85-41.881-32.574zM371.774 675.59l36.493-56.766v72.984zM408 575.643l-61.543-47.867L408 520.938zm-16.792 7.21L280 577.738V535.16l43.654-4.85zM280 593.754l121.762 5.599-44.782 69.66L280 634.801zm144-90.693v-92.456l98.418 28.12 25.296 50.59zm-118.457 13.162L280 519.062v-22.705zM280 652.31l68.226 30.323L280 788.76zm83.02 36.898l44.964 19.984-.434 143.708-123.259-41.225zm60.713 3.348V600h126.02l-12.495 49.984z"/></svg>