<svg xmlns="http://www.w3.org/2000/svg" viewBox="0 0 832 1024"><title>doc-ai</title><path d="M329.9873,476.28613,231.68262,752h60.67285l19.2002-56.832H413.31641L430.98047,752h62.59277L396.41992,476.28613ZM326.916,647.55078l35.32813-109.05664h.76758l34.17676,109.05664Z"/><rect x="527.74121" y="547.71094" width="53.76074" height="204.28906"/><rect x="527.74121" y="473.59766" width="53.76074" height="49.9209"/><path d="M64,0A64,64,0,0,0,0,64V960a64,64,0,0,0,64,64H768a64,64,0,0,0,64-64V258.74512L573.25488,0ZM768,959.99976V960H64V64H496V208A128.14493,128.14493,0,0,0,624,336H768ZM624,272a64,64,0,0,1-64-64V77.25488L754.74512,272Z"/></svg>