<svg xmlns="http://www.w3.org/2000/svg" viewBox="0 0 832 1024"><path d="M336.32227,476.28613H210.37012V752h57.59961V652.543h66.04883c74.1123,0,87.93652-62.97656,87.93652-87.93652C421.95508,510.46191,389.69922,476.28613,336.32227,476.28613ZM321.34668,604.92676h-53.377V523.90234H313.666c35.71289,0,50.68848,11.13574,50.68848,38.0166C364.35449,574.207,364.35449,604.92676,321.34668,604.92676Z"/><path d="M508.73535,603.00684c0-8.832,3.83984-19.96777,33.02441-19.96777,29.18359,0,33.792,13.82422,36.0957,26.87988h52.6084c-4.22363-57.60059-51.84082-67.584-91.77637-67.584-63.74512,0-82.56055,38.39941-82.56055,68.35254,0,76.416,126.7207,50.6875,126.7207,84.86426,0,7.67969-6.52832,21.12012-34.17676,21.12012-33.792,0-44.54395-12.67187-44.54395-29.95215h-55.2959C450.36621,741.248,500.6709,757.376,547.13574,757.376c31.87207,0,89.47266-10.752,89.47266-70.27246C636.6084,611.83887,508.73535,635.26367,508.73535,603.00684Z"/><path d="M832,960V258.74512L573.25488,0H64A64,64,0,0,0,0,64V960a64,64,0,0,0,64,64H768A64,64,0,0,0,832,960ZM560,77.25488,754.74512,272H624a64,64,0,0,1-64-64ZM64,960V64H496V208A128.14493,128.14493,0,0,0,624,336H768V960H64Z"/></svg>