<svg xmlns="http://www.w3.org/2000/svg" viewBox="0 0 832 1024"><title>doc-archive</title><path d="M704,0H64A63.99512,63.99512,0,0,0,0,64V960a63.99512,63.99512,0,0,0,64,64H768a63.99508,63.99508,0,0,0,64-64V128A128.00317,128.00317,0,0,0,704,0Zm32,960a32.03611,32.03611,0,0,1-32,32h-8.58A63.68334,63.68334,0,0,0,704,960V510.52a31.96426,31.96426,0,0,1,10.93-24.08008L736,468Zm10.14-585.92L672.78,438.27A96.01957,96.01957,0,0,0,640,510.52V960H64V64H192v48a15.99564,15.99564,0,0,0,16,16h64a15.9956,15.9956,0,0,0,16-16V64H704a64.07207,64.07207,0,0,1,64,64V325.91992A63.99381,63.99381,0,0,1,746.14,374.08ZM800,960a32.03611,32.03611,0,0,1-32,32h-8.58A63.68334,63.68334,0,0,0,768,960V440c4-3.83008,26.12-21.92,32-29.42993ZM208,192h64a15.99552,15.99552,0,0,1,16,16v32a15.9956,15.9956,0,0,1-16,16H208a15.99564,15.99564,0,0,1-16-16V208A15.99556,15.99556,0,0,1,208,192Zm0,128h64a15.99552,15.99552,0,0,1,16,16v32a15.9956,15.9956,0,0,1-16,16H208a15.99564,15.99564,0,0,1-16-16V336A15.99556,15.99556,0,0,1,208,320ZM322.97,524.32007A15.99256,15.99256,0,0,0,307.4,512H272a15.9956,15.9956,0,0,0,16-16V464a15.99552,15.99552,0,0,0-16-16H208a15.99556,15.99556,0,0,0-16,16v48s-31.54,110.39-31.99,190.26c-.31,53.18994,42.17,97.3999,95.36,97.74A96.00164,96.00164,0,0,0,352,704C352,652.05,330.91,557.91992,322.97,524.32007ZM256,752a48,48,0,1,1,48-48A47.99956,47.99956,0,0,1,256,752Zm80-560H272a15.99564,15.99564,0,0,1-16-16V144a15.99556,15.99556,0,0,1,16-16h64a15.99552,15.99552,0,0,1,16,16v32A15.9956,15.9956,0,0,1,336,192Zm-64,64h64a15.99552,15.99552,0,0,1,16,16v32a15.9956,15.9956,0,0,1-16,16H272a15.99564,15.99564,0,0,1-16-16V272A15.99556,15.99556,0,0,1,272,256Zm80,144v32a15.9956,15.9956,0,0,1-16,16H272a15.99564,15.99564,0,0,1-16-16V400a15.99556,15.99556,0,0,1,16-16h64A15.99552,15.99552,0,0,1,352,400Z"/></svg>