<svg xmlns="http://www.w3.org/2000/svg" viewBox="0 0 832 1024"><title>doc-pr</title><path d="M303.873,652.543h66.04883c74.1123,0,87.93652-62.97656,87.93652-87.93652,0-54.14453-32.25586-88.32031-85.63281-88.32031H246.27344V752H303.873Zm0-128.64062h45.69629c35.71289,0,50.68848,11.13574,50.68848,38.0166,0,12.28809,0,43.00781-43.00781,43.00781H303.873Z"/><path d="M543.875,645.63086c0-22.65625,7.67969-48.76758,49.53613-48.76758a100.457,100.457,0,0,1,15.36035.76758V543.10254a94.20623,94.20623,0,0,0-10.36816-.76758c-32.64062,0-44.92871,19.96777-56.06445,40.7041h-.76855V547.71094H490.11426V752H543.875Z"/><path d="M768,1024a64,64,0,0,0,64-64V258.74512L573.25488,0H64A64,64,0,0,0,0,64V960a64,64,0,0,0,64,64ZM560,77.25488,754.74512,272H624a64,64,0,0,1-64-64ZM64,64.00024V64H496V208A128.14493,128.14493,0,0,0,624,336H768V960H64Z"/></svg>