<svg xmlns="http://www.w3.org/2000/svg" viewBox="0 0 832 1024" role="img"><path d="M336.322 476.286H210.37V752h57.6v-99.457h66.049c74.112 0 87.936-62.977 87.936-87.937 0-54.144-32.256-88.32-85.633-88.32zm-14.975 128.64H267.97v-81.024h45.696c35.713 0 50.688 11.136 50.688 38.017 0 12.288 0 43.008-43.007 43.008zm187.388-1.919c0-8.832 3.84-19.968 33.025-19.968 29.183 0 33.792 13.824 36.095 26.88h52.609c-4.224-57.6-51.841-67.584-91.777-67.584-63.745 0-82.56 38.4-82.56 68.352 0 76.416 126.72 50.688 126.72 84.865 0 7.68-6.528 21.12-34.176 21.12-33.792 0-44.544-12.672-44.544-29.952H448.83c1.535 54.528 51.84 70.656 98.305 70.656 31.872 0 89.472-10.752 89.472-70.272 0-75.265-127.873-51.84-127.873-84.097z"/><path d="M832 960V258.745L573.255 0H64A64 64 0 000 64v896a64 64 0 0064 64h704a64 64 0 0064-64zM560 77.255L754.745 272H624a64 64 0 01-64-64zM64 960V64h432v144a128.145 128.145 0 00128 128h144v624H64z"/></svg>