<svg xmlns="http://www.w3.org/2000/svg" viewBox="0 0 832 1024"><path d="M573.25488,0H64A64,64,0,0,0,0,64V960a64,64,0,0,0,64,64H768a64,64,0,0,0,64-64V258.74512ZM768,959.99976V960H64V64H496V208A128.14493,128.14493,0,0,0,624,336H768ZM624,272a64,64,0,0,1-64-64V77.25488L754.74512,272Z"/><path d="M640,384H388.595a7.99989,7.99989,0,0,0-6.91028,3.969L164.35913,760.52734A31.99937,31.99937,0,0,0,160,776.65112V864a32,32,0,0,0,32,32H640a32,32,0,0,0,32-32V416A32,32,0,0,0,640,384ZM393.7478,640.00024l27.126-46.98364h54.25269l27.12573,46.98315-27.126,46.98364H420.87354ZM486.12366,864H264.42114L375.27246,672.00024ZM456.65112,561.0166H317.78687l67.78271-116.1991ZM409.87646,416H631.579L520.72754,607.99976ZM640,465.41431V689.31921L512.07666,686.9834ZM192,776.65112,299.12012,593.0166h84.80322L227.47046,864H192ZM523.07422,864,439.34888,718.9834H640V864Z"/><path d="M168.09241,697.88892a7.75113,7.75113,0,0,0,6.85352-4.04431l170.2146-297.87549A8,8,0,0,0,338.2146,384H192a32,32,0,0,0-32,32V689.87549A7.94,7.94,0,0,0,168.09241,697.88892ZM296.85828,416,192.00049,599.50073,192,416Z"/></svg>