<svg xmlns="http://www.w3.org/2000/svg" viewBox="0 0 832 1024" role="img"><path d="M573.255 0H64A64 64 0 000 64v896a64 64 0 0064 64h704a64 64 0 0064-64V258.745zM768 960H64V64h432v144a128.145 128.145 0 00128 128h144zM624 272a64 64 0 01-64-64V77.255L754.745 272z"/><path d="M176.005 656h-.01a16 16 0 11.01 0zM224 672a16 16 0 01-16-16v-32a16 16 0 0132 0v32a16 16 0 01-16 16zm48 16a16 16 0 01-16-16v-64a16 16 0 0132 0v64a16 16 0 01-16 16zm48 64a16 16 0 01-16-16V544a16 16 0 0132 0v192a16 16 0 01-16 16zm48-32a16 16 0 01-16-16V576a16 16 0 0132 0v128a16 16 0 01-16 16zm48 32a16 16 0 01-16-16V544a16 16 0 0132 0v192a16 16 0 01-16 16zm48 112a16 16 0 01-16-16V432a16 16 0 0132 0v416a16 16 0 01-16 16zm48-96a16 16 0 01-16-16V528a16 16 0 0132 0v224a16 16 0 01-16 16zm48-64a16 16 0 01-16-16v-96a16 16 0 0132 0v96a16 16 0 01-16 16zm48-32a16 16 0 01-16-16v-32a16 16 0 0132 0v32a16 16 0 01-16 16zm48.005-16h-.01a16 16 0 11.01 0z"/></svg>