<svg xmlns="http://www.w3.org/2000/svg" viewBox="0 0 1024 1024" role="img"><path d="M406.993 450.765h113.34q30.28 0 45.159 2.524a66.393 66.393 0 0126.625 10.528 65.488 65.488 0 0119.578 21.318 57.759 57.759 0 017.83 29.845 60.477 60.477 0 01-35.848 55.34q23.318 6.786 35.849 23.144 12.53 16.36 12.53 38.46a75.823 75.823 0 01-8.093 33.847 68.183 68.183 0 01-22.1 26.277q-14.01 9.834-34.544 12.095-12.88 1.394-62.126 1.74h-98.2zm51.51 42.462v58.994h45.124q30.104 0 37.414-.87 13.223-1.566 20.796-9.137 7.57-7.57 7.57-19.925 0-11.832-6.526-19.23-6.526-7.394-19.403-8.962-7.66-.868-44.028-.87zm0 101.455V662.9h59.045q27.841 0 35.327-1.566a31.924 31.924 0 0018.707-10.18q7.22-8.093 7.222-21.666 0-11.486-5.568-19.49-5.572-8.003-16.098-11.66-10.53-3.655-45.68-3.655zm478.001-421.088l-84.085 145.64a429.037 429.037 0 00-286.253-165.268l84.085-145.64a15.007 15.007 0 0120.5-5.493l260.26 150.261a15.007 15.007 0 015.493 20.5z"/><path d="M804.635 578.324c0 161.618-131.017 292.635-292.635 292.635S219.365 739.942 219.365 578.324 350.382 285.69 512 285.69s292.635 131.017 292.635 292.634zM512 195.648c-211.346 0-382.676 171.33-382.676 382.676S300.654 961 512 961s382.676-171.33 382.676-382.676S723.346 195.648 512 195.648z"/></svg>