<svg xmlns="http://www.w3.org/2000/svg" viewBox="0 0 1024 1024" role="img"><path d="M960 0H64A63.995 63.995 0 000 64v896a63.995 63.995 0 0064 64h896a63.995 63.995 0 0064-64V64a63.995 63.995 0 00-64-64zM274.71 669.469q-11.65-21.315-11.319-48.947a272.883 272.883 0 017.664-58.941l84.58-353.606L458.845 192l-92.567 383.535a120.065 120.065 0 00-2.994 21.976 34.913 34.913 0 003.67 17.652q3.994 7.666 13.644 12.312 9.663 4.677 26.977 5.994l-19.983 81.918v.034q-47.295 0-74.254-12.326-26.974-12.312-38.628-33.626zm485.822-174.424q0 48.62-15.989 88.912-15.985 40.3-44.228 69.585-28.319 29.301-67.922 45.614-39.628 16.306-86.236 16.32a259.433 259.433 0 01-45.283-4L470.903 832h-98.548l110.543-460.79a581.336 581.336 0 0160.928-14.32 409.918 409.918 0 0174.254-6.325q37.279 0 64.253 11.32 26.984 11.329 44.324 30.963a126.454 126.454 0 0125.64 45.96 185.802 185.802 0 018.318 56.265zM605.464 433.8a189.938 189.938 0 00-39.952 4.001L518.89 631.58q11.31 2.68 27.964 2.67 25.97 0 47.277-9.657a104.188 104.188 0 0036.296-26.977q14.982-17.31 23.314-41.621 8.309-24.304 8.326-53.603 0-28.618-12.657-48.608-12.654-19.98-43.946-19.983z"/></svg>