<svg xmlns="http://www.w3.org/2000/svg" viewBox="0 0 1248 1024" role="img"><path d="M589.978 824.332c3.004 2.537 6.214 5.074 9.373 7.56A382.744 382.744 0 01386.677 896C174.52 896.052 2.599 724.13 2.599 512.026 2.599 299.973 174.519 128 386.625 128a382.31 382.31 0 01212.57 64.108 79.26 79.26 0 00-8.543 7.767 413.047 413.047 0 00-.674 624.457zM861.375 128a382.056 382.056 0 00-212.57 64.108 79.26 79.26 0 018.544 7.767 413.047 413.047 0 01.673 624.457c-3.004 2.537-6.214 5.074-9.373 7.56A382.491 382.491 0 00861.323 896c212.157.052 384.078-171.87 384.078-383.974 0-212.001-171.92-384.026-384.026-384.026zM624 210.336c-4.971 3.883-9.787 7.767-14.5 11.962a382.577 382.577 0 00-132.099 289.728c0 115.788 51.11 219.354 132.1 289.728 4.66 4.143 9.58 8.182 14.499 12.014 4.971-3.832 9.787-7.871 14.5-12.014 80.937-70.374 132.099-173.94 132.099-289.728a382.577 382.577 0 00-132.1-289.728c-4.66-4.143-9.528-8.079-14.499-11.962z"/></svg>