<svg xmlns="http://www.w3.org/2000/svg" viewBox="0 0 736 1024" role="img"><path d="M23.99 740.29Q7.1 709.39 7.58 669.33q.48-40.065 11.11-85.45L141.31 71.24l149.63-23.16-134.2 556.03a174.068 174.068 0 00-4.34 31.86q-.495 14.475 5.32 25.59 5.79 11.115 19.78 17.85 14.01 6.78 39.11 8.69l-28.97 118.76v.05q-68.565 0-107.65-17.87-39.105-17.85-56-48.75zm704.32-252.87q0 70.485-23.18 128.9-23.175 58.425-64.12 100.88-41.055 42.48-98.47 66.13-57.45 23.64-125.02 23.66a376.112 376.112 0 01-65.65-5.8l-43.45 174.73H165.55l160.26-668.03q38.58-11.58 88.33-20.76 49.71-9.165 107.65-9.17 54.045 0 93.15 16.41 39.12 16.425 64.26 44.89 25.095 28.5 37.17 66.63 12.045 38.145 12.06 81.57zM503.5 398.63a275.362 275.362 0 00-57.92 5.8l-67.59 280.93q16.395 3.885 40.54 3.87 37.65 0 68.54-14a151.049 151.049 0 0052.62-39.11q21.72-25.095 33.8-60.34 12.045-35.235 12.07-77.71 0-41.49-18.35-70.47-18.345-28.965-63.71-28.97z"/></svg>