<svg xmlns="http://www.w3.org/2000/svg" viewBox="0 0 1024 1024" role="img"><path d="M930.96 387.4c-6 1.304-11.476 8.868-8.868 15.127 39.642 146.048-2.608 302.267-109.275 408.935A428.19 428.19 0 01394.493 918.39c-6.259-2.608-14.083 2.608-15.126 8.867-2.608 5.998 2.608 13.822 8.867 15.126a448.259 448.259 0 00559.938-545.855c-3.13-7.824-10.953-11.736-17.213-9.128zM253.14 877.705c2.607 1.043 4.954 2.608 7.823 2.608 3.651 0 7.564-1.043 9.91-5.216 3.913-5.999 2.609-13.823-2.607-17.474a422.858 422.858 0 11589.93-589.408c3.912 5.216 11.475 7.824 17.734 2.608 6.26-3.652 7.824-11.476 2.609-17.474a409.045 409.045 0 00-48.249-58.42c-175.023-173.014-460.807-173.014-635.83 0-173.172 174.554-173.172 460.235 0 634.789a448.798 448.798 0 0058.68 47.987zm536.466-778.75c66.243-23.993 114.23-25.558 137.441-2.608 25.559 25.298 22.95 79.805-8.867 153.35a1029.854 1029.854 0 01-142.397 229.766c-3.912 5.216-3.912 14.083 2.608 17.995 2.608 1.043 5.216 2.608 7.824 2.608 3.651 0 7.824-1.043 9.91-5.216a1102.418 1102.418 0 00146.57-236.285c35.73-85.02 35.73-147.352 2.608-179.952-30.513-31.818-87.89-31.818-165.347-4.173-6.26 2.608-10.171 10.171-7.824 16.691 3.651 6.52 11.214 10.432 17.474 7.824zm-289.75 678.08c-3.911-5.215-13.04-6.258-17.995-2.607a1033.787 1033.787 0 01-231.069 143.44c-73.806 30.514-128.835 32.86-153.872 8.867-22.95-22.69-22.95-72.241 2.608-137.18 2.608-6.26-1.043-14.084-7.824-16.692-5.999-2.608-13.822 1.043-16.43 7.824-29.47 76.154-27.906 133.27 3.65 165.087 16.692 16.691 39.643 23.993 68.591 23.993 30.775 0 68.59-8.867 112.144-26.862a1071.662 1071.662 0 00237.85-147.352c6.26-5.738 7.303-13.562 2.347-18.256zm248.021-166.39c5.999-7.824 11.476-15.126 14.866-23.993l10.432-26.602a28.654 28.654 0 00-6.52-29.47c-7.824-7.824-18.778-11.476-29.47-7.824l-27.645 7.824c-9.128 2.608-17.995 7.824-25.82 14.083l-81.369 65.982a14.647 14.647 0 01-13.823 3.912l-68.59-6.259a26.011 26.011 0 00-19.039 5.216l-11.474 7.824c-13.04 8.607-15.127 25.298-7.825 37.816l34.426 39.381c-5.998 6.26-9.91 15.126-8.867 23.994 2.608 10.17 10.171 19.038 19.038 27.905l5.216 4.955c8.607 10.172 17.735 17.735 27.645 21.647 2.608 0 3.912 1.304 6.26 1.304a24.604 24.604 0 0017.734-7.824l36.773 35.469 1.303 1.304a27.935 27.935 0 0016.692 5.216 29.248 29.248 0 0021.646-10.432l8.868-9.91a31.447 31.447 0 006.259-19.04l-3.912-71.198c0-4.955 1.304-9.91 5.216-13.822zm-182.299 139.79c-3.912-1.305-9.91-7.825-14.866-14.084l-5.216-4.955c-6.259-6.26-12.779-12.78-12.779-15.127l57.376-36.512c2.608-1.304 3.912-2.868 6.26-2.868 3.912 0 5.998 1.043 8.867 3.912 3.912 3.912 3.912 9.91 1.043 15.126zm93.106-79.806c-7.824 8.868-13.04 20.604-11.736 31.818l2.608 68.33v1.304l-8.607 9.91a4.039 4.039 0 01-2.608 1.304l-38.076-36.773 26.601-36.773c10.171-13.822 8.868-34.425-2.608-48.248a36.628 36.628 0 00-46.944-5.216l-38.077 25.559-34.425-39.381c0-1.304 0-2.608 1.304-2.608l11.475-7.824h1.304l68.59 6.26c11.476 1.042 23.994-2.609 32.861-10.172l81.37-66.243a83.681 83.681 0 0116.691-8.868l27.906-7.824a5.061 5.061 0 013.912 1.304c1.043 1.044 1.043 2.608 1.043 3.912l-8.867 26.602c-2.608 6.26-5.216 11.736-10.171 16.691z"/></svg>