<svg xmlns="http://www.w3.org/2000/svg" viewBox="0 0 1024 1024"><path d="M959.9999,0H64A63.995,63.995,0,0,0,0,64V959.9999a63.995,63.995,0,0,0,64,64H959.9999a63.995,63.995,0,0,0,64-64V64A63.995,63.995,0,0,0,959.9999,0ZM274.7104,669.46854Q263.06,648.15441,263.39123,620.52219a272.88279,272.88279,0,0,1,7.66334-58.94135l84.58019-353.60568L458.84562,191.9999,366.27793,575.535a120.06489,120.06489,0,0,0-2.99367,21.97609,34.91337,34.91337,0,0,0,3.66967,17.65159q3.99388,7.6665,13.64375,12.3125,9.66375,4.67675,26.97692,5.99409L387.592,715.38672v.03467q-47.29451,0-74.25427-12.32634Q286.364,690.78267,274.7104,669.46854Zm485.82189-174.4233q0,48.619-15.98909,88.91186-15.98525,40.30026-44.22826,69.58469-28.31851,29.30138-67.922,45.61468-39.62764,16.306-86.23561,16.32017a259.4327,259.4327,0,0,1-45.2836-4.00083L470.90288,832h-98.548L482.89813,371.2102A581.33555,581.33555,0,0,1,543.826,356.89036a409.91827,409.91827,0,0,1,74.2541-6.32525q37.27889,0,64.25244,11.31934,26.984,11.32925,44.32485,30.96376a126.45438,126.45438,0,0,1,25.63909,45.95993,185.80174,185.80174,0,0,1,8.31867,56.26477Zm-155.06821-61.2451a189.93827,189.93827,0,0,0-39.95168,4.00092L518.89047,631.57911q11.30888,2.68013,27.96351,2.66958,25.96988,0,47.27718-9.65692A104.18827,104.18827,0,0,0,630.427,597.61485q14.98188-17.30988,23.31434-41.62126,8.30838-24.30388,8.32567-53.60227,0-28.61851-12.65742-48.60826Q636.75572,433.80368,605.46408,433.80014Z"/></svg>