<svg xmlns="http://www.w3.org/2000/svg" viewBox="0 0 736 1024"><path d="M23.99,740.29q-16.89-30.90015-16.40991-70.96.47974-40.06494,11.10986-85.4502L141.31006,71.24023,290.93994,48.08008,156.74,604.10986a174.068,174.068,0,0,0-4.34009,31.85986q-.49475,14.47559,5.32007,25.59033,5.79016,11.1145,19.78,17.8501,14.01013,6.78,39.10986,8.68994L187.64014,806.85986v.05029q-68.56531,0-107.65015-17.87012Q40.88489,771.19019,23.99,740.29ZM728.31006,487.41992q0,70.48535-23.18018,128.8999Q681.95532,674.74512,641.01,717.2002q-41.05481,42.47974-98.47,66.12988Q485.09,806.96973,417.52,806.99023a376.11224,376.11224,0,0,1-65.6499-5.80029l-43.4502,174.73H165.55l160.26-668.02979q38.58-11.58032,88.33008-20.76025Q463.85,277.96509,521.79,277.96q54.045,0,93.1499,16.41016,39.12012,16.42456,64.26,44.88965,25.09534,28.5,37.17017,66.63037,12.04468,38.14453,12.06006,81.56982ZM503.5,398.62988a275.36249,275.36249,0,0,0-57.91992,5.80029L377.99,685.35986q16.3949,3.8855,40.54,3.87012,37.64978,0,68.54-14a151.04867,151.04867,0,0,0,52.61987-39.10986q21.72-25.095,33.8-60.34033,12.045-35.23462,12.07007-77.71,0-41.4895-18.3501-70.46973Q548.865,398.635,503.5,398.62988Z"/></svg>