<svg xmlns="http://www.w3.org/2000/svg" viewBox="0 0 1024 1024"><title>finance-litecoin</title><path d="M512,1024c282.77,0,512-229.23022,512-512S794.77,0,512,0C229.23047,0,0,229.23022,0,512S229.23047,1024,512,1024Zm0-960c247.42383,0,448,200.57642,448,448S759.42383,960,512,960C264.57666,960,64,759.42358,64,512S264.57666,64,512,64Z"/><path d="M512,896c212.07715,0,384-171.92261,384-384S724.07715,128,512,128,128,299.92261,128,512,299.92285,896,512,896ZM308.80518,521.78l53.00244-18.67017L436.59521,224h160L538.47949,440.89014,609.14893,416,592,480l-70.66943,24.89014L485.12793,640h256l-25.72266,96h-416l45.25391-168.89014L291.65625,585.78Z"/></svg>