<?xml version="1.0" standalone="no"?>
<!DOCTYPE svg PUBLIC "-//W3C//DTD SVG 1.1//EN" "http://www.w3.org/Graphics/SVG/1.1/DTD/svg11.dtd" >
<svg xmlns="http://www.w3.org/2000/svg">
<defs>
  <font id="Marxco Icons CS" horiz-adv-x="3120">
    <font-face font-family="Marxco Icons CS"
      units-per-em="1024" ascent="896"
      descent="128" />
    <missing-glyph horiz-adv-x="0" />
    <glyph glyph-name="3d-edges"
      unicode="&#xF109;"
      horiz-adv-x="1024" d="M928 704A96.06151999999999 96.06151999999999 0 0 1 844.69458 655.67065L318.77686 751.292A95.99954 95.99954 0 1 1 176.32935 652.6945900000001L80.708 126.7768600000001A95.98793999999998 95.98793999999998 0 1 1 188.57738 57.4204100000001L408.00781 210.06787A95.80775 95.80775 0 0 1 528.75854 217.1958L609.07446 174.3603499999999A96.16121 96.16121 0 1 1 639.2417 230.8044399999999L558.9255400000001 273.6396499999999A96.0017 96.0017 0 1 1 371.4226100000001 262.5795899999999L151.99219 109.93213A96.22558 96.22558 0 0 1 143.6709 115.3051300000001L239.29273 641.2231300000001A96.24155 96.24155 0 0 1 307.30543 688.3291300000001L833.22314 592.7080000000001A96.00121 96.00121 0 1 1 928 704zM928 576A32 32 0 1 0 960 608A32 32 0 0 0 928 576zM224 704A32 32 0 1 0 256 736A32 32 0 0 0 224 704zM64 32A32 32 0 1 0 96 0A31.999859999999998 31.999859999999998 0 0 0 64 32zM496 288A32 32 0 1 0 464 320A32 32 0 0 0 496 288zM672 160A32 32 0 1 0 704 128A32 32 0 0 0 672 160z" />
    <glyph glyph-name="3d-polys"
      unicode="&#xF10A;"
      horiz-adv-x="1024" d="M1024 800A95.99949000000001 95.99949000000001 0 0 1 837.49121 832H602.50879A95.99876 95.99876 0 0 1 421.49121 832H186.50879A95.99952 95.99952 0 1 1 64 709.491V474.509A95.9991 95.9991 0 0 1 64 293.491V58.50879A95.99949000000001 95.99949000000001 0 1 1 186.50879 -64H421.49121A95.99876 95.99876 0 0 1 602.5087900000001 -64H837.49121A95.99949000000001 95.99949000000001 0 1 1 960 58.50879V293.491A95.9991 95.9991 0 0 1 960 474.509V709.491A96.16213 96.16213 0 0 1 1024 800zM928 -64A32 32 0 1 0 960 -32A31.99971 31.99971 0 0 0 928 -64zM837.49121 0H602.50879A96.47275 96.47275 0 0 1 544 58.50879V293.491A96.47313 96.47313 0 0 1 602.50879 352H837.49121A96.47313 96.47313 0 0 1 896 293.491V58.50879A96.47275 96.47275 0 0 1 837.49121 0zM544 -32A32 32 0 1 0 512 0A32 32 0 0 0 544 -32zM64 -32A32 32 0 1 0 96 -64A31.99971 31.99971 0 0 0 64 -32zM128 58.50879V293.491A96.47313 96.47313 0 0 1 186.50879 352H421.49121A96.47313 96.47313 0 0 1 480 293.491V58.50879A96.47275 96.47275 0 0 1 421.49121 0H186.50879A96.47275 96.47275 0 0 1 128 58.50879zM96 832A32 32 0 1 0 64 800A31.999859999999998 31.999859999999998 0 0 0 96 832zM186.50879 768H421.49121A96.47313 96.47313 0 0 1 480 709.491V474.509A96.47313 96.47313 0 0 1 421.49121 416H186.50879A96.47313 96.47313 0 0 1 128 474.509V709.491A96.47313 96.47313 0 0 1 186.50879 768zM480 800A32 32 0 1 0 512 768A31.999859999999998 31.999859999999998 0 0 0 480 800zM544 384A32 32 0 1 0 512 416A31.999859999999998 31.999859999999998 0 0 0 544 384zM96 416A32 32 0 1 0 64 384A31.999859999999998 31.999859999999998 0 0 0 96 416zM928 352A32 32 0 1 0 960 384A31.999859999999998 31.999859999999998 0 0 0 928 352zM837.49121 416H602.50879A96.47313 96.47313 0 0 1 544 474.509V709.491A96.47313 96.47313 0 0 1 602.50879 768H837.49121A96.47313 96.47313 0 0 1 896 709.491V474.509A96.47313 96.47313 0 0 1 837.49121 416zM960 800A32 32 0 1 0 928 832A31.999859999999998 31.999859999999998 0 0 0 960 800z" />
    <glyph glyph-name="3d-subd"
      unicode="&#xF10B;"
      horiz-adv-x="1024" d="M1026.04981 384L1022.1836 394.63184Q1022.06422 394.97168 1021.9379899999998 395.30784L924.98926 661.9165A95.96359000000001 95.96359000000001 0 1 1 789.9165 796.9892600000001L523.30762 893.938Q522.97217 894.06471 522.63184 894.18361L512 898.0498L501.36816 894.18359Q501.02832 894.06421 500.69238 893.93798L234.0835 796.9892600000001A95.96359000000001 95.96359000000001 0 1 1 99.01074 661.9165L2.062 395.30786Q1.93529 394.97168 1.81639 394.63186L-2.0498 384L1.81641 373.36816Q1.93579 373.02832 2.06202 372.69216L99.01074 106.0835A95.96359000000001 95.96359000000001 0 1 1 234.0835 -28.9892599999999L500.69238 -125.938Q501.02783 -126.06471 501.36816 -126.18361L512 -130.04981L522.63184 -126.1835999999999Q522.97168 -126.06422 523.30762 -125.9379899999999L789.9165 -28.9892599999999A95.96359000000001 95.96359000000001 0 1 1 924.98926 106.0835L1021.938 372.69214Q1022.06471 373.02832 1022.18361 373.3681400000001zM864 768A32 32 0 1 0 832 736A31.999859999999998 31.999859999999998 0 0 0 864 768zM160 768A32 32 0 1 0 128 736A31.999859999999998 31.999859999999998 0 0 0 160 768zM160 0A32 32 0 1 0 192 32A32 32 0 0 0 160 0zM864 0A32 32 0 1 0 896 32A32 32 0 0 0 864 0zM864 128A96.10874 96.10874 0 0 1 768 32C768 31.71387 768.0083 31.4296900000001 768.01074 31.14453L544 -50.314V-32A32 32 0 0 1 480 -32V-50.314L255.98926 31.1445C255.9917 31.42966 256 31.71384 256 31.99997A96.10874 96.10874 0 0 1 160 127.99997C159.71387 127.99997 159.42969 127.99167 159.14453 127.9892299999999L77.686 352H96A32 32 0 0 1 96 416H77.686L159.1445 640.0107399999999C159.42966 640.0083 159.71384 640 159.99997 640A96.10874 96.10874 0 0 1 255.99997 736C255.99997 736.28613 255.99167 736.57007 255.98923 736.85547L480 818.314V800A32 32 0 0 1 544 800V818.314L768.0107399999999 736.8555C768.0083 736.5701 767.9999999999999 736.28616 767.9999999999999 736.00003A96.10874 96.10874 0 0 1 863.9999999999999 640.00003C864.2861299999998 640.00003 864.5703099999998 640.00833 864.8554699999999 640.01077L946.314 416H928A32 32 0 0 1 928 352H946.314L864.8555 127.9892600000001C864.57031 127.9917 864.28613 128 864 128zM512 237.71484A32.00033 32.00033 0 0 1 480 205.71484V86.8574200000001A32 32 0 0 1 544 86.8574200000001V205.71484A32.00033 32.00033 0 0 1 512 237.71484zM512 530.28613A32.00033 32.00033 0 0 1 544 562.28613V681.14355A32 32 0 0 1 480 681.14355V562.28613A32.00033 32.00033 0 0 1 512 530.28613zM571.42871 416H544V443.42871A32 32 0 0 1 480 443.42871V416H452.57129A32 32 0 0 1 452.57129 352H480V324.57129A32 32 0 1 1 544 324.57129V352H571.42871A32 32 0 1 1 571.42871 416zM809.14355 416H690.28613A32 32 0 1 1 690.28613 352H809.14355A32 32 0 1 1 809.14355 416zM333.71484 416H214.85742A32 32 0 1 1 214.85742 352H333.71484A32 32 0 0 1 333.71484 416z" />
    <glyph glyph-name="3d-tris"
      unicode="&#xF10C;"
      horiz-adv-x="1024" d="M928 128A96.08939 96.08939 0 0 1 909.50293 126.20483L585.56885 674.40063A96 96 0 1 1 438.43115 674.40063L114.49707 126.20483A96.002 96.002 0 1 1 186.50879 0H837.49121A95.99964 95.99964 0 1 1 928 128zM928 0A32 32 0 1 0 960 32A32 32 0 0 0 928 0zM64 32A32 32 0 1 0 96 0A32 32 0 0 0 64 32zM169.56885 93.59937L493.50293 641.79517A96.19284000000002 96.19284000000002 0 0 1 530.49707 641.79517L854.43115 93.59937A96.01 96.01 0 0 1 837.49121 64H186.50879A96.01 96.01 0 0 1 169.56885 93.59937zM544 736A32 32 0 1 0 512 768A31.999859999999998 31.999859999999998 0 0 0 544 736z" />
    <glyph glyph-name="3d-verts"
      unicode="&#xF10D;"
      horiz-adv-x="960" d="M304 704A96 96 0 1 1 208 800A96.10874 96.10874 0 0 1 304 704zM304 832A32 32 0 1 0 272 800A32 32 0 0 0 304 832zM864 112A96 96 0 1 1 768 208A96.10874 96.10874 0 0 1 864 112zM864 240A32 32 0 1 0 832 208A32.00018 32.00018 0 0 0 864 240zM912 672A96 96 0 1 1 816 576A96.10874 96.10874 0 0 1 912 672zM816 704A32 32 0 1 0 784 672A32.00018 32.00018 0 0 0 816 704zM416 -128A96 96 0 1 1 320 -32A96.10874 96.10874 0 0 1 416 -128zM416 0A32 32 0 1 0 384 -32A31.999859999999998 31.999859999999998 0 0 0 416 0zM0 320A96 96 0 1 1 96 416A96.10874 96.10874 0 0 1 0 320zM96 288A32 32 0 1 0 128 320A32 32 0 0 0 96 288zM576 416A96 96 0 1 1 480 320A96.10874 96.10874 0 0 1 576 416zM480 384A32 32 0 1 0 512 416A32 32 0 0 0 480 384z" />
    <glyph glyph-name="3d-voxels"
      unicode="&#xF10E;"
      horiz-adv-x="1088" d="M0 -6.17578L288 -114.17578L544 -18.17578L800 -114.17578L1088 -6.17578V358.14355L832 454.5437V773.74316L544 882.19336L256 773.74316V454.5437L0 358.14355zM768 -33.8242200000001L576 38.1757799999999V289.82373L768 217.82422zM512 289.82373V38.17578L320 -33.82422V217.82422zM288 274.1757800000001L122.96991 336.0625L288 398.207L453.03009 336.0625zM832 -33.82422V217.82422L1024 289.82373V38.17578zM800 274.1757800000001L634.96991 336.0625L800 398.207L965.03 336.0625zM576 382.5761700000001V633.42383L768 705.42334V454.57617zM544 689.77539L378.9699100000001 751.66211L544 813.80664L709.03 751.66211zM320 705.42334L512 633.42383V382.5761700000001L320 454.57617zM256 217.82422V-33.82422L64 38.17578V289.82373z" />
    <glyph glyph-name="badge-designed-with"
      unicode="&#xEE4D;"
      horiz-adv-x="3120" d="M3069.638 762.62073H3111.46857V538.52667H3069.638V641.01239H3011.0751299999997V538.52667H2969.2445599999996V762.62073H3011.0751299999997V673.87773H3069.638zM3111.46857 254.2392V194.188C3111.46857 81.9408099999999 3103.04957 0.0026399999999 2973.96747 0.0026399999999S2836.46637 81.9408099999999 2836.46637 194.1879999999999V254.2392C2839.83649 361.4312 2848.25237 441.12683 2973.96747 441.12683S3108.10162 361.43121 3111.46857 254.2392zM2973.96747 377.70862C2912.23438 377.70862 2917.28327 304.18634 2917.28327 271.6347100000001V154.89929C2917.28327 120.1051 2920.08961 63.42084 2973.96747 63.42084C3030.09107 63.42084 3030.6517400000002 121.22638 3030.6517400000002 161.63636V269.39215C3030.65173 303.06506 3032.33679 377.70862 2973.96747 377.70862zM1313.87219 235.71613C1308.25952 208.2165600000001 1305.4531200000001 180.1563200000001 1301.52551 138.625H1300.40112C1297.0341799999999 171.17664 1292.54589 203.72827 1285.80883 235.71613L1243.7168299999998 431.0258800000001H1118.56543V10.10358H1197.1367200000002V142.55258C1197.1367200000002 226.1758100000001 1195.4516600000002 309.7989800000001 1190.4028300000002 393.4222100000001H1193.2091000000003L1275.7078800000002 10.10355H1323.4124700000002L1407.5963100000001 393.4222100000001H1408.7207C1403.6687000000002 309.7989800000001 1401.9836400000002 226.1758100000001 1401.9836400000002 142.55258V10.10358H1480.5578600000001V431.02588H1355.96411zM1657.61059 762.62073H1615.78V538.52667H1657.61057zM1416.46777 571.39508H1340.57666V640.41327H1410.49512V673.28174H1340.57666V729.75226H1416.46777V762.62073H1298.74609V538.52667H1416.4677700000002zM1947.49035 10.10358H1868.916V431.02588H2017.64256C2085.55198 431.02588 2137.18431 407.45388 2137.18431 330.00403C2137.18431 283.9844999999999 2125.39831 235.7161299999999 2072.64159 228.4215099999999V227.30023C2119.22496 221.1237799999999 2133.2567000000004 191.3816499999999 2133.2567000000004 150.9716799999999C2133.2567000000004 133.5729999999999 2131.0109700000003 30.3085899999999 2150.0915400000004 17.9619099999999V10.1035699999999H2063.6621000000005C2054.1218200000003 37.0425699999998 2055.8068800000005 88.6747399999999 2055.2461000000003 116.7380899999998C2054.68238 142.5525999999999 2055.2461000000003 177.9105799999999 2028.3071000000004 185.7689699999999C2006.9777500000005 191.9423099999999 1983.9695700000004 191.3816399999998 1961.51877 191.3816399999998H1947.49033zM1947.49035 253.1148100000001H2009.22335C2035.0411 254.7998700000001 2055.24606 271.6347100000001 2055.24606 313.72663C2055.24606 360.87063 2035.60177 368.72901 2005.85641 369.28963H1947.49032zM1767.86963 533.15C1783.10863 534.3420799999999 1798.9438499999999 540.9169999999999 1807.30981 564.22416H1807.90905V538.52671H1839.28124V658.93982H1769.66393V626.0713499999999H1798.64574C1799.53974 592.3088399999999 1791.77282 566.91248 1767.86962 566.91248C1739.18578 566.91248 1737.69262 597.0894800000001 1737.69262 615.61292V677.7612300000001C1737.69262 695.09265 1735.0012100000001 734.23492 1767.86962 734.23492C1796.2553599999999 733.03973 1797.7485299999998 715.1123 1798.3477699999999 692.40429H1840.17528C1839.87718 701.36645 1840.17528 710.62969 1838.08605 719.59496C1828.52477 758.43609 1803.72435 767.69939 1767.86962 767.9973600000001C1700.9406199999999 767.9973600000001 1696.4579999999999 725.5676100000001 1694.66686 668.50108V636.52977C1694.66687 576.77179 1699.14636 533.15 1767.86963 533.15zM1720.7566299999999 116.73813H1628.7143899999999L1607.94877 10.10361H1523.76493L1624.2229300000001 431.02591H1730.2969300000002L1825.7061100000003 10.10361H1741.5191100000004zM1708.4067799999998 178.47128L1687.0804899999998 298.0130899999999C1683.1528799999999 317.65744 1681.4678199999998 336.738 1679.22527 356.3823499999999C1678.6614299999999 365.9226899999999 1677.54021 375.4629799999999 1676.41899 384.4425899999999H1675.2944799999998C1674.1732599999998 375.4629799999999 1673.0520499999998 365.9226899999999 1672.4882099999998 356.3823499999999C1670.2456599999998 336.7379999999999 1668.5605999999998 317.6574399999999 1664.6328599999997 298.0130899999999L1641.0609599999998 178.47128zM1580.81311 597.68866C1580.81311 617.10919 1576.33044 630.55396 1561.98852 644.5979C1550.33813 655.95038 1524.9385900000002 672.68262 1511.1958000000002 681.3499C1498.0490700000003 689.7129 1487.2926000000002 696.28783 1487.2926000000002 713.3181000000001C1487.2926000000002 728.55717 1496.2547600000003 734.23497 1510.2986000000003 734.23497C1533.3047000000004 734.23497 1535.0990200000003 714.51323 1534.7978700000003 694.49351H1575.1352700000002C1574.8372700000002 716.6055700000001 1576.6316100000001 767.99742 1510.0007500000002 767.99742C1465.7798000000003 767.99742 1444.2668600000002 747.08061 1444.2668600000002 708.83542A62.22539 62.22539 0 0 1 1455.0232100000003 674.4769C1472.0534800000003 652.0669 1499.2441600000002 639.81729 1521.0552100000002 622.7839C1531.8115600000003 615.31497 1537.7873900000002 606.3528100000001 1537.7873900000002 593.2060200000001C1537.7873900000002 576.17575 1529.4211800000003 566.9125 1511.7917800000002 566.9125C1491.1760600000002 566.9125 1484.6011100000003 582.74758 1485.4983200000001 604.5585000000001V617.70526H1443.66775V601.271C1443.66775 561.23468 1461.5951200000002 533.1500000000001 1511.79175 533.1500000000001C1552.72839 533.15 1580.81311 555.25891 1580.81311 597.68866zM2853.60272 538.52666H2895.43329V729.75226H2944.13684V762.62073H2804.60114V729.75226H2853.60273zM1195.9528799999998 538.52666H1118.5654299999999V762.62073H1205.81226C1215.97266 762.62073 1236.2872599999998 758.13813 1249.13599 737.22125C1258.69727 721.68414 1261.38868 696.88379 1261.38868 659.8369700000001C1261.38868 615.61291 1261.38868 564.52215 1227.02711 544.50244C1217.76379 539.12268 1206.41138 538.52667 1195.95288 538.52667zM1178.6215799999998 571.39507C1215.9726499999997 571.39507 1218.3630399999997 591.1137000000001 1218.3630399999997 655.95037C1218.3630399999997 708.83537 1212.9831599999998 729.75225 1187.8847699999997 729.75225H1160.3961199999997V571.39508zM2657.43713 377.70862C2696.1620399999997 377.70862 2693.35571 327.19769 2696.72271 300.25873H2774.1726C2774.73321 310.92029 2773.61193 321.58502 2772.49066 332.24973C2766.87799 404.08695 2727.5924 440.00553 2657.43713 441.12681C2531.7220399999997 441.12681 2523.30298 361.43119 2519.93603 254.2391800000001V194.188C2519.93603 81.9408099999999 2528.3550299999997 0.0026399999999 2657.43713 0.0026399999999C2744.99113 0.0026399999999 2770.8055999999997 58.92946 2774.73321 135.81864C2775.29699 143.6770399999999 2775.8576599999997 152.09287 2776.4182699999997 159.9512699999999H2697.2865C2695.6014400000004 133.01227 2700.6535000000003 63.4208099999999 2657.4371300000003 63.4208099999999C2603.5592 63.4208099999999 2600.7528700000003 120.1050799999998 2600.7528700000003 154.8992599999998V271.6347C2600.75287 304.18634 2595.704 377.70862 2657.43713 377.70862zM2778.90057 762.62073H2737.06994V538.52667H2778.90057zM2567.64282 538.52667L2582.58075 626.9685C2587.06342 650.57366 2588.55658 674.47686 2591.54602 698.38006H2592.1420200000002C2595.13146 674.47686 2596.62469 650.57366 2601.1072900000004 626.9685L2617.83953 538.52667H2668.03625L2709.56884 762.6207300000001H2666.24194L2649.5097 640.41327C2646.52337 621.29071 2644.72906 602.16815 2643.2359 583.0455900000001C2642.6399 577.66894 2642.33874 572.2891200000001 2641.74274 566.91247H2641.1436200000003C2638.1572300000003 595.59631 2636.0649500000004 624.28015 2631.8803100000005 646.6870700000001L2609.4733900000006 762.6207200000001H2574.8137800000004L2554.496 646.68707C2550.31143 624.28015 2548.2190800000003 595.59631 2544.93472 566.91247H2544.3356000000003C2544.0376000000006 572.2891199999999 2543.7396000000003 577.66894 2543.1404700000003 583.04559C2541.6472400000002 602.16815 2539.85611 621.29071 2536.8666000000003 640.41327L2518.04208 762.62073H2474.7182900000003L2517.4460700000004 538.52667zM1922.95166 580.65527C1922.95166 598.5827 1922.0545600000005 620.9926700000001 1920.85938 643.4027100000001C1919.66431 666.11078 1917.87305 688.81879 1916.37989 707.34222H1916.9759600000004C1926.83521 672.08654 1935.80055 644.8958700000001 1946.85496 618.30438L1979.42222 538.52667H2023.0471000000005V762.62073H1981.21653V718.69782C1981.21653 698.6781100000001 1982.11053 677.1652300000001 1983.3088100000004 655.6523500000001C1984.5009500000003 634.1394700000001 1985.99716 612.32856 1987.4903300000003 592.0108700000001H1986.8912100000005C1976.7338600000005 628.46168 1967.7686500000004 655.05634 1957.0153600000003 681.04871L1924.4448000000004 762.62071H1881.12107V538.52667H1922.9516400000005zM2180.22156 571.39508H2104.32739V640.41327H2174.24267V673.28174H2104.32739V729.75226H2180.22156V762.62073H2062.49683V538.52667H2180.22156zM2267.94513 10.10358L2302.73932 87.55347C2313.96466 112.80738 2326.3113200000003 138.0644 2329.67832 166.12464H2330.80277A244.65687999999997 244.65687999999997 0 0 1 2347.0769999999998 112.80738L2391.97525 10.10358H2481.77176L2377.38287 223.36951L2478.40472 431.0258800000001H2389.72949L2359.42358 359.74933C2348.76202 335.0560900000001 2335.85158 310.3596800000001 2333.60907 282.86011H2331.924C2331.36333 301.9437899999999 2324.0656 318.2181099999999 2316.771 335.6166999999999L2274.1184700000003 431.0258799999999H2186.0038500000005L2285.3438500000007 223.3695099999999L2182.07623 10.10358zM2291.67877 538.5266799999999H2214.29138V762.62073H2301.5380800000003C2311.6953700000004 762.62073 2332.01623 758.13813 2344.86187 737.22125C2354.42315 721.68414 2357.1115 696.88379 2357.1115 659.8369700000001C2357.1115 615.61291 2357.1115 564.52215 2322.75292 544.50244C2313.48969 539.12268 2302.13409 538.52667 2291.67877 538.52667zM2274.34741 571.39509C2311.69541 571.39509 2314.08569 591.11372 2314.08569 655.95039C2314.08569 708.83539 2308.7090399999997 729.75227 2283.61069 729.75227H2256.122V571.39508zM821.72168 767.15C688.82153 811.38 605.86157 944.12 473.12158 877.75C340.38158 944.12 257.42158 811.38 124.52148 767.15C124.59155 748.59 133.10693 724.61088 144.60693 708.27085C-36.82691 526.83726 -36.82715 232.67509 144.60644 51.24125S620.20239 -130.1927499999999 801.6362300000001 51.2408800000001S983.07031 526.83664 801.6367200000001 708.27048C813.13672 724.61053 821.65161 748.59 821.72168 767.15zM228.31152 109.27L266.009 176H680.23535L717.92163 109.29C578.98145 -16.65 366.84155 -16.33 228.31152 109.27zM320.2417 272L473.12158 542.62L626.00244 272zM785.30151 191.63L472.90161 744.62L160.4917 191.63C94.4517 301.61 88.50147 443.19 157.1917 562.16C224.6617 679.02 347.02153 744.42 472.9017 744.62C598.77157 744.42 721.1317 679.02 788.6016999999999 562.16C857.2915 443.19 851.35156 301.61 785.30151 191.63z" />
    <glyph glyph-name="cult-hindu-swastika"
      unicode="&#xF555;"
      horiz-adv-x="1024" d="M1014.82555 -89.28285A59.20514 59.20514 0 0 0 933.11679 -107.6894500000001C903.82229 -89.1662000000001 881.79652 -57.3582700000001 871.83596 -35.7471600000001C861.91853 -14.2330900000002 859.89525 12.0402099999999 858.27975 44.1520099999999C858.01998 49.3072699999999 857.77589 54.1772699999999 857.5092500000001 57.3837499999999C854.8889800000001 88.8907499999998 856.9554 137.1525499999998 858.7787000000001 179.7326999999998C859.45901 195.6258799999998 860.1010900000001 210.6368099999998 860.33145 221.6217599999998C860.46281 227.8602199999998 860.66376 235.0171999999998 860.87845 242.5947599999997C861.6636500000001 270.4198299999997 862.72627 308.1093999999997 861.00196 329.8097599999998A8.45387 8.45387 0 0 1 856.66033 332.9907599999998C845.28133 334.7189799999998 792.34947 335.3355699999999 691.49989 330.0166099999998C640.5038900000001 327.3269799999998 597.96437 324.2182899999998 568.9561100000001 321.5989999999998C571.3173400000001 293.0963099999998 573.6421100000001 258.8737299999998 575.6197700000001 223.3059999999998C581.8572500000001 111.1215099999998 582.3366100000002 41.2436699999998 577.0450900000002 15.6153999999998A125.09971 125.09971 0 0 0 537.4370900000002 -52.7528100000002C518.362 -69.794 495.09224 -80.41726 471.9117 -82.6630699999999C443.3897 -85.4274399999999 401.1741600000001 -84.23641 367.25375 -83.2796599999999C359.89775 -83.0718399999999 352.9496 -82.8757899999999 347.14049 -82.7542299999999C334.86158 -82.4964199999999 319.22327 -81.8268899999999 302.66649 -81.1181499999999C265.51313 -79.5271499999999 219.2736199999999 -77.5499499999998 195.19712 -79.5497099999999C190.06049 -79.9771099999999 184.25138 -80.2692299999999 178.10212 -80.5780199999999C169.03949 -81.0348299999999 148.28023 -82.0778399999999 140.61547 -84.0050199999999C133.65647 -87.61537 123.17836 -96.06435 120.42575 -100.4187199999999A59.224669999999996 59.224669999999996 0 0 0 20.31036 -37.11661C38.83361 -7.8221100000001 70.64154 14.20366 92.25265 24.16422C113.76672 34.08165 140.04002 36.10493 172.15182 37.72043C177.30708 37.9802 182.17708 38.22429 185.38356 38.4909299999999C216.8925 41.1111999999999 265.15236 39.0447799999999 307.73251 37.2214799999999C323.62569 36.54117 338.63662 35.8990899999999 349.62157 35.66873C355.86003 35.53737 363.0170100000001 35.33642 370.5945700000001 35.12173C398.4186600000001 34.33751 436.1082300000001 33.2748899999999 457.80957 34.9982199999999A8.45387 8.45387 0 0 1 460.99057 39.33985C462.71781 50.71691 463.33538 103.64973 458.01642 204.4993099999999C455.32728 255.49462 452.21835 298.03483 449.59856 327.0438199999999C421.09587 324.6828199999999 386.87403 322.3581099999999 351.30675 320.3804099999999C290.57875 317.0034099999999 242.24639 315.3143599999999 206.62128 315.3143599999999C176.43473 315.3143599999999 155.37159 316.5269599999998 143.61614 318.9541199999999A125.11134 125.11134 0 0 0 75.24695 358.5630599999999C58.20587 377.6382099999999 47.58264 400.9089299999999 45.33684 424.0884799999999C42.57247 452.6124799999998 43.7635 494.8269999999998 44.72025 528.7464299999998C44.92807 536.1024299999998 45.12412 543.0505799999999 45.24568 548.8596899999998C45.50349 561.1385999999998 46.17302 576.7769099999998 46.88176 593.3336899999998C48.47276 630.4870499999998 50.45192 676.7255799999998 48.4502 700.8030599999998C48.0228 705.9396899999998 47.73068 711.7487999999998 47.42189 717.8980599999998C46.96508 726.9606899999999 45.92207 747.7199499999998 43.99489 755.3847099999998C40.38454 762.3437099999999 31.93556 772.8218199999998 27.58119 775.5744299999998A59.224669999999996 59.224669999999996 0 0 0 90.88321 875.68982C120.17771 857.16657 142.20348 825.35864 152.16404 803.74753C162.08147 782.23346 164.10475 755.96016 165.72025 723.84836C165.98002 718.6931 166.22411 713.8231000000001 166.49075 710.61662C169.11102 679.10962 167.0446 630.84782 165.2213 588.26767C164.54099 572.37449 163.89891 557.36356 163.66855 546.37861C163.53719 540.14015 163.33624 532.98317 163.12155 525.40561C162.33635 497.58054 161.27373 459.89097 162.99804 438.19061A8.46042 8.46042 0 0 1 167.33967 435.00861C178.72167 433.27941 231.65641 432.6638 332.49815 437.98374C383.49415 440.67288 426.03465 443.78181 455.04389 446.4016C452.6826600000001 474.90428 450.3578900000001 509.12687 448.3802300000001 544.69439C442.1427500000001 656.87888 441.6633900000001 726.75671 446.9549100000001 752.38499A125.09971 125.09971 0 0 0 486.56291 820.7532C505.638 837.79439 528.90776 848.4176199999999 552.0883 850.66343C580.6123 853.42682 622.82682 852.23579 656.74625 851.28002C664.10225 851.0722 671.0504000000001 850.87615 676.85951 850.75459C689.13842 850.49678 704.77673 849.82725 721.33351 849.11851C758.4878500000001 847.52651 804.72932 845.54737 828.8028800000001 847.55007C833.93951 847.97747 839.7486200000001 848.26959 845.8978800000001 848.57838C854.9605100000001 849.03519 875.7197700000002 850.0782 883.38453 852.00538C890.34353 855.61573 900.82164 864.06471 903.57425 868.41908A59.224669999999996 59.224669999999996 0 1 0 1003.68964 805.117C985.16639 775.8225 953.35846 753.79673 931.74735 743.83617C910.2332800000001 733.9187400000001 883.9599800000001 731.89546 851.8481800000001 730.2799600000001C846.6929200000001 730.02019 841.8229200000001 729.7761 838.6164400000001 729.50946C807.1075000000001 726.88919 758.8476400000002 728.95463 716.2674900000002 730.77891C700.3743100000002 731.45922 685.3633800000002 732.1013 674.3784300000002 732.33166C668.1399700000002 732.46302 660.9829900000002 732.6639700000001 653.4054300000003 732.8786600000001C625.5803600000003 733.66386 587.8898100000002 734.72648 566.1904300000002 733.00217A8.45387 8.45387 0 0 1 563.0094300000002 728.6605400000001C561.2821900000001 717.28348 560.6646200000001 664.3506600000001 565.9835800000002 563.50108C568.6727200000001 512.5055199999999 571.7819000000002 469.96508 574.4016800000002 440.95608C602.9046100000002 443.31708 637.1266800000002 445.64228 672.6932400000002 447.61998C784.8806700000002 453.85746 854.7545800000001 454.33682 880.3848200000002 449.0453A125.09971 125.09971 0 0 0 948.7530300000002 409.4373C965.7941100000002 390.36215 976.4173400000002 367.09241 978.6631400000002 343.91188C981.4275100000002 315.38788 980.2364800000003 273.17336 979.2797300000002 239.25393C979.0719100000002 231.89793 978.8758600000002 224.9497799999999 978.7543000000002 219.14067C978.4964900000002 206.86176 977.8269600000002 191.22345 977.1182200000002 174.66667C975.5272200000002 137.5133099999999 973.5480600000002 91.27478 975.5497800000002 67.1972999999999C975.9771800000002 62.06067 976.2693000000002 56.2515599999999 976.5780900000002 50.1022999999999C977.0349000000002 41.0396699999999 978.0779100000002 20.2804099999998 980.0050900000002 12.61565C983.6154400000001 5.65665 992.0644200000002 -4.82146 996.4187900000002 -7.57407A59.224999999999994 59.224999999999994 0 0 0 1014.82555 -89.28285zM728.82087 236.44153A52.19761999999999 52.19761999999999 0 1 1 781.01849 184.2439099999999A52.19769 52.19769 0 0 1 728.82087 236.44153zM364.44135 167.17931A52.19761999999999 52.19761999999999 0 1 1 312.2437300000001 114.98169A52.19769 52.19769 0 0 1 364.44135 167.17931zM295.17913 531.55883A52.19761999999999 52.19761999999999 0 1 1 242.98151 583.75645A52.19769 52.19769 0 0 1 295.17913 531.55883zM659.55865 600.82105A52.19761999999999 52.19761999999999 0 1 1 711.75627 653.01867A52.19769 52.19769 0 0 1 659.55865 600.82105z" />
    <glyph glyph-name="cult-jack-o-lantern"
      unicode="&#xF556;"
      horiz-adv-x="1024" d="M953.38989 585.64014C931.19995 621.79004 905.03979 650.41014 875.61989 670.67993C843.5498 692.79 809.1499 704 773.37988 704A168.95081999999996 168.95081999999996 0 0 1 721.70988 695.8501C694.95988 711.8798899999999 666.66996 720 637.37988 720A157.72794 157.72794 0 0 1 577.45988 708.05A116.59944000000002 116.59944000000002 0 0 1 544 729.16943V800A32.00015 32.00015 0 0 0 597.15625 824.00879A32.0002 32.0002 0 0 1 639.50879 871.99121A96.00057999999999 96.00057999999999 0 0 1 480 800V730.17749C468.54736 725.93726 456.32837 718.98267 443.92 708.05005A157.72794 157.72794 0 0 1 384 720C354.71 720 326.42 711.87988 299.67 695.8501A168.95081999999996 168.95081999999996 0 0 1 248 704C212.23 704 177.83008 692.79 145.76 670.67993C116.34009 650.41016 90.17993 621.79 67.99 585.64014C24.15 514.18994 0 419.8501 0 320S24.15 125.81006 67.99 54.35986C90.17994 18.20996 116.3401 -10.41014 145.76 -30.6801399999999C177.83008 -52.79 212.23 -64 248 -64A171.19511 171.19511 0 0 1 316.8 -49.37988C316.9599100000001 -49.2998 317.10994 -49.22998 317.2700000000001 -49.1601499999999A158.47183 158.47183 0 0 1 384 -64C409 -64 433.5 -57.96973 456.92 -46.10986C477 -59.75 495.86 -63.77 510.68994 -63.99023C525.51994 -63.77002 544.37988 -59.75 564.45984 -46.10986C587.87984 -57.96972 612.37984 -64 637.37984 -64A158.47183 158.47183 0 0 1 704.10984 -49.16016C704.2698399999999 -49.2299800000001 704.4199 -49.29981 704.57984 -49.37989A171.19511 171.19511 0 0 1 773.37988 -64C809.1498799999999 -64 843.5498 -52.79 875.61988 -30.6801799999999C905.0398 -10.41018 931.19996 18.20996 953.38988 54.35982C997.22988 125.81002 1021.37988 220.14982 1021.37988 319.99996S997.22986 514.18994 953.38989 585.64014zM248 0C201.8501 0 157.3 31.18994 122.54 87.83984C84.79 149.35986 64 231.81006 64 320S84.79 490.64014 122.54 552.16016C154.49 604.21997 194.70992 634.76001 236.83 639.3701599999999A335.01563 335.01563 0 0 1 209.20988 598.57016C167.16 525.78 144 429.68994 144 328S167.16 130.22 209.21 57.4301800000001A315.22988 315.22988 0 0 1 251.09013 0.0498100000001C250.06006 0.02 249.03 0 248 0zM637.37988 0A92.55645000000001 92.55645000000001 0 0 0 610.25988 4.12988A31.99965 31.99965 0 0 1 554.1698799999999 34.12011C545.61988 21.68017 528.76988 0.9999899999999 510.6898799999999 0.04003C492.6098799999999 1.00003 475.7599499999999 21.68017 467.2098799999999 34.12011A31.99965 31.99965 0 0 1 411.1198799999999 4.12988A92.55645000000001 92.55645000000001 0 0 0 384 0C288.6001 0 208 150.21 208 328S288.6001 656 384 656A90.55165 90.55165 0 0 0 402.07007 654.16016C375.7843 607.99829 355.95 542.1001 345.28 468.6001A32.00159 32.00159 0 1 1 408.62 459.41016C418.06006 524.41016 435.2 581.82007 456.89 621.07007C474.32005 652.6200699999999 493.85008 671.05007 510.68993 671.95996C527.52977 671.05005 547.0598 652.62012 564.48986 621.07007C586.17992 581.82007 603.3198600000001 524.41016 612.75986 459.41016A32.00159 32.00159 0 1 1 676.09986 468.6001C665.42994 542.1001 645.59571 607.99829 619.3098600000001 654.16016A90.55165 90.55165 0 0 0 637.37988 656C732.77978 656 813.37988 505.79 813.37988 328S732.77979 0 637.37988 0zM898.83988 87.83984C864.07983 31.18994 819.52979 0 773.37988 0C772.34988 0 771.3198199999999 0.02 770.2897899999999 0.0498A315.22987 315.22987 0 0 1 812.1699199999999 57.43017C854.21985 130.21996 877.37992 226.3100500000001 877.37992 327.9999900000001S854.21992 525.77999 812.1699199999999 598.57006A335.01563 335.01563 0 0 1 784.5497999999999 639.37006C826.6699199999999 634.75995 866.8898899999999 604.21991 898.8397999999999 552.16006C936.5897999999999 490.6400600000001 957.3797999999998 408.1898500000001 957.3797999999998 319.9999000000001S936.58984 149.35986 898.83984 87.83984zM473.34519 354.24122A8.0038 8.0038 0 0 0 475.95355 339.29814C406.00139 301.41111 286.49251 291.015 272 320C241.0912 381.81759 255.97758 439.85307 265.77076 465.78452A7.992849999999999 7.992849999999999 0 0 0 279.81736 467.5078A237.58435999999998 237.58435999999998 0 0 1 352 400C403.19258 369.28445 447.8334500000001 358.2240000000001 473.34519 354.24122zM672 400A237.58435999999998 237.58435999999998 0 0 1 744.18264 467.5078A7.992849999999999 7.992849999999999 0 0 0 758.22924 465.78452C768.02242 439.85307 782.9088 381.81759 752 320C737.50749 291.015 617.99861 301.41111 548.04645 339.29814A8.0038 8.0038 0 0 0 550.65481 354.24122C576.16655 358.2240000000001 620.80742 369.28445 672 400zM591.99512 73.99707A31.93861 31.93861 0 0 0 574.0961900000001 79.47461L512 121.3916000000001L449.90381 79.4746A31.999000000000002 31.999000000000002 0 0 0 411.36328 81.54L365.74219 120.03512L337.75049 101.374A32.00035 32.00035 0 0 0 302.2494900000001 154.626L350.2494900000001 186.626A31.998640000000005 31.998640000000005 0 0 0 388.6367 184.45705L434.14744 146.05471L494.09617 186.52248A32.0012 32.0012 0 0 0 529.9037900000001 186.52248L589.85252 146.05471L635.36328 184.457A32.0016 32.0016 0 0 0 673.75049 186.62595L721.75049 154.62595A32.00035 32.00035 0 0 0 686.24949 101.37395L658.25779 120.03508L612.63672 81.54A31.965869999999995 31.965869999999995 0 0 0 591.99512 73.99707zM651.0991200000001 207.99707A32.39412 32.39412 0 0 0 647.6909200000001 208.17773A32.0002 32.0002 0 0 0 619.2378000000001 243.36914C619.7265700000002 247.9873 620.2085000000001 253.0293000000001 620.71094 258.7832A32.00017 32.00017 0 0 0 684.46875 253.21679C683.93164 247.0683499999999 683.4126 241.64257 682.88232 236.6308499999999A32.0063 32.0063 0 0 0 651.09912 207.99707zM372.9008800000001 207.99707A32.004 32.004 0 0 0 341.1176800000001 236.63086C340.5874100000001 241.64258 340.0683600000001 247.06836 339.5312500000001 253.2168000000001A32.00017 32.00017 0 0 0 403.2890600000001 258.7832100000001C403.7915000000001 253.0293000000001 404.2734400000001 247.9873100000001 404.7622000000001 243.3691500000001A32.0002 32.0002 0 0 0 376.3090800000001 208.1777400000001A32.39412 32.39412 0 0 0 372.90088 207.99707z" />
    <glyph glyph-name="cult-kolowrot"
      unicode="&#xF557;"
      horiz-adv-x="1024" d="M944.53955 109.85254A511.8792 511.8792 0 0 1 1021.75293 432H627.88232L838.13281 642.25049A414.69082 414.69082 0 0 0 912.7417 496.00024H1011.70313A511.88138 511.88138 0 0 1 838.50879 778.39111L560 499.88232V797.22119A414.68737 414.68737 0 0 0 716.1709 746.563L786.1474599999999 816.5395599999999A511.88464 511.88464 0 0 1 464 893.75342V499.88232L253.74976 710.1328100000001A414.6903899999999 414.6903899999999 0 0 0 400 784.74146V883.70312A511.8835399999999 511.8835399999999 0 0 1 117.60889 710.509L396.11768 432H98.77881A414.68737 414.68737 0 0 0 149.437 588.1709000000001L79.46045 658.14746A511.88583 511.88583 0 0 1 2.24658 336H396.11768L185.86743 125.75A414.68319 414.68319 0 0 0 111.25879 272H12.29688A511.88338000000005 511.88338000000005 0 0 1 185.49121 -10.39111L464 268.1179200000001V-29.22119A414.68991 414.68991 0 0 0 307.82886 21.437L237.8525400000001 -48.5395599999999A511.8792 511.8792 0 0 1 560 -125.75293V268.1179200000001L770.25049 57.8671900000001A414.694 414.694 0 0 0 624 -16.7417L624.00024 -115.70313A511.88138 511.88138 0 0 1 906.39111 57.49121L627.88232 336H925.22119A414.68737 414.68737 0 0 0 874.563 179.8291000000001z" />
    <glyph glyph-name="cult-orthodox"
      unicode="&#xF558;"
      horiz-adv-x="784" d="M784 384L784 528L464 528L464 640L624 640L624 784L464 784L464 896L320 896L320 784L160 784L160 640L320 640L320 528L0 528L0 384L320 384L320 281.043L208 320L208 176L320 137.043L320 -128L464 -128L464 86.957L576 48L576 192L464 230.957L464 384L784 384z" />
    <glyph glyph-name="cult-satanism"
      unicode="&#xF559;"
      horiz-adv-x="1024" d="M953.5837 240.5143500000001H472.12259L456.72059 287.90517H807.73849L677.02867 382.86469L692.4306700000001 430.26515L953.58367 240.5143500000001zM512 73.04693L403.5244 406.87587L363.21263 377.5923800000001L512 -80.31132L611.74783 226.692H561.91839L512 73.04693zM216.26151 287.90517L500.24124 494.23292L459.92935 523.51665L70.4163 240.5143500000001H393.22672L377.82472 287.90517zM338.83591 452.62784L379.1476800000001 481.91133L329.2294100000001 635.56633L613.209 429.23855L628.60111 476.6392499999999L239.08821 759.64131zM694.77058 635.5663099999999L586.30486 301.72749H636.1343L784.91179 759.64131L523.75879 569.89051L564.07065 540.607zM496.07176 -79.8473C311.61176 -73.4993000000001 141.97908 43.3616999999999 75.90704 225.5197000000001L25.14704 225.5190100000001C95.51186 9.3502400000001 296.0751 -128.0796399999999 511.76204 -128.1368299999999zM65.93291 255.812C14.96891 433.2055000000001 73.69097 630.64782 226.5161100000001 749.7760000000001L210.82974 798.05138C26.98494 664.33064 -41.74119 431.1155 24.85535 225.96736zM252.24361 768.62278C405.20612 871.90994 611.131 877.075 771.65421 768.5423L812.71954 798.37886C628.73239 931.90366 385.69407 925.19866 211.16605 798.46733zM797.52882 749.898C943.02882 636.33951 1011.57539 442.08938 957.95902 255.8843100000001L999.02516 226.0488700000001C1069.15964 442.2924800000001 987.67983 671.3637000000001 813.21905 798.18757zM948.2229 225.51465C885.18433 52.04443 721.62354 -73.1738299999999 527.96362 -79.72217L512.27856 -127.998C739.6111999999999 -127.8769100000001 932.29223 20.4019 998.99756 225.5147z" />
    <glyph glyph-name="cult-skull"
      unicode="&#xF55A;"
      horiz-adv-x="832" d="M804.79395 678.9609399999999C786.43213 716.83203 758.22608 747.84473 720.9599499999999 771.1357399999999C654.52148 812.66016 557.61816 832 416 832S177.47852 812.66016 111.04 771.1357399999999C73.77389 747.84474 45.56783 716.83203 27.206 678.9609399999999C8.89893 641.20312 0 597.05664 0 544C0 510.02246 4.18945 476.52148 8.24121 444.123C12.23145 412.21875 16 382.0850000000001 16 352C16 279.80859 31.92578 211.7324200000001 60.84424 160.31348C77.25781 131.12793 97.42924 108.0624800000001 120.79737 91.75684A151.60137 151.60137 0 0 1 180.22462 66.6142600000001L188.90382 -7.44922A64.00648 64.00648 0 0 1 252.46875 -64H579.53125A64.00648 64.00648 0 0 1 643.09619 -7.44922L651.77539 66.6142600000001A151.60137 151.60137 0 0 1 711.20264 91.75684C734.5708 108.0625 754.7421899999999 131.12793 771.15577 160.31348C800.07422 211.7324200000001 816 279.80859 816 352C816 382.0850000000001 819.76855 412.21875 823.75879 444.123C827.81055 476.52148 832 510.02246 832 544C832 597.05664 823.10107 641.20312 804.79395 678.9609399999999zM760.25342 452.06445C756.1958 419.62012 752 386.07129 752 352C752 291.50684 738.6499 233.0752 715.373 191.68652C691.60645 149.42676 660.52783 128 623 128H594.53125L579.53125 0H528V128H448V0H384V128H304V0H252.46924L237.46875 128H209C171.47217 128 140.39355 149.4267600000001 116.627 191.68652C93.3501 233.0752 80 291.50684 80 352C80 386.07129 75.8042 419.62012 71.74658 452.06445C67.7627 483.91992 64 514.00879 64 544C64 627.4140600000001 89.72559 682.34277 144.96 716.8642600000001C200.01465 751.2734399999999 288.67285 768 416 768S631.98535 751.2734399999999 687.04 716.8642600000001C742.27441 682.34277 768 627.4140600000001 768 544C768 514.00879 764.2373 483.91992 760.25342 452.06445zM592 480C569.86774 472.62256 533.46625 455.15552 512 448C464 432 448 416 464 368S512 288 576 288C656 288 704 304 704 384C704 496 640 496 592 480zM423.58947 298.47377A7.974630000000001 7.974630000000001 0 0 1 408.41053 298.47377L383.179 222.00321C375.7114900000001 199.37157 392.38593 176 415.99994 176H416.00006C439.61406 176 456.2884799999999 199.37153 448.82106 222.0033100000001zM320 448C298.53375 455.15552 262.13232 472.62256 240 480C192 496 128 496 128 384C128 304 176 288 256 288C320 288 352 320 368 368S368 432 320 448z" />
    <glyph glyph-name="dev-git-square"
      unicode="&#xF429;"
      horiz-adv-x="1024" d="M1024 832V-64A64 64 0 0 0 960 -128H64A64 64 0 0 0 0 -64V832A64 64 0 0 0 64 896H960A64 64 0 0 0 1024 832zM320.22859 172.57143C347.88575 172.57143 387.65716 167.77143 387.65716 131.65716C387.65716 96.2285899999999 355.88575 88.68576 325.94287 88.68576C297.82858 88.68576 255.3143 93.2571899999999 255.3143 129.82862S291.2 172.5715 320.22859 172.5715zM263.77145 439.08573C263.77145 405.25715 278.85716 384 314.74289 384C350.17146 384 363.2 406.85714 363.2 440C363.42861 518.62856 263.77145 519.54286 263.77145 439.08573zM473.14286 572.11429C445.02857 561.14285 414.85715 552.9142899999999 384.22859 552.9142899999999C296.22859 603.42859 176.91431 550.85716 176.91431 439.77143C176.91431 398.62857 203.42859 341.7142700000001 244.57145 327.9999800000001V326.3999800000001C213.94288 312.9142800000001 205.48574 243.88568 246.17145 218.97141V217.37141C201.6 202.7428200000001 172.34288 174.4 172.34288 125.48563C172.34288 41.3713700000001 251.88574 18.05706 321.82862 18.05706C406.62862 18.05706 469.94291 48.68562 469.94291 142.1713199999999C469.94291 257.37132 305.14291 214.85701 305.14291 277.25705C305.14291 299.1999199999999 317.02862 307.88561 337.3715 311.99993C405.02866 324.5713599999999 447.54292 377.37137 447.54292 446.17135A97.27222 97.27222 0 0 1 440.91436 480.45706A304.89912 304.89912 0 0 1 473.14295 489.3713299999999V572.11419zM602.9714 568H512.4571C515.42854 543.7714100000001 514.9714 242.0571299999999 512.4571 212.57143H602.9714C600.4571 241.82854 600.22852 544.2285899999999 602.9714 568zM613.25711 689.82858C613.25711 720.45715 590.39997 749.71429 558.17138 749.71429C525.48566 749.71429 501.94279 721.14286 501.94279 689.82858C501.94279 658.74285 525.9427900000001 630.62858 558.17138 630.62858C589.48569 630.62858 613.25711 659.20001 613.25711 689.82858zM851.65709 568H768.45709C768.45709 590.4 767.54282 612.8 770.97139 635.42857H678.4C681.3714 618.74285 680.9143 604.34284 680.9143 568H641.82854V490.5143C669.02854 494.85714 669.4857 492.1143 680.91427 492.1143V490.5143H680V347.2000000000001C680 276.1142700000001 690.28571 207.3142600000001 777.6 207.3142600000001C802.05717 207.3142600000001 830.17143 211.4285200000001 851.88571 223.3142600000001V303.3142600000001C838.85711 294.3999900000001 820.1143000000001 289.8285600000002 804.1143 289.8285600000002C773.9428399999999 289.8285600000002 768.6857299999999 319.3142600000001 768.6857299999999 343.3142600000001V492.34281C820.5714699999999 492.34281 851.88573 490.74281 851.88573 490.74281V568z" />
    <glyph glyph-name="dev-js-square"
      unicode="&#xF42A;"
      horiz-adv-x="1024" d="M1024 832V-64A64 64 0 0 0 960 -128H64A64 64 0 0 0 0 -64V832A64 64 0 0 0 64 896H960A64 64 0 0 0 1024 832zM568.66945 134.77552V439.77146H479.31433V136.049C479.31433 91.26531 460.63677 79.8041 431.34697 79.8041C400.57146 79.8041 387.8367600000001 100.81633 373.82858 125.64901L301.02858 81.71429C322.25306 36.9306 363.64081 0 435.16734 0C514.3347 0 568.66941 42.23673 568.66941 134.77552zM780.06527 0C864.751 0 928 44.1470000000001 928 124.37553C928 199.0857000000001 885.33876 232.40818 809.35511 264.8816300000001L787.06939 274.4326300000002C748.653 291.2000000000001 732.098 302.02449 732.098 328.7673600000001C732.098 350.4163600000001 748.65314 366.9714400000001 774.75924 366.9714400000001C800.44089 366.9714400000001 816.9959699999999 356.1469400000001 832.2776299999999 328.7673600000001L901.89394 373.3387300000001C872.60417 425.1265100000001 831.85312 444.8652900000001 774.97151 444.8652900000001C695.3796699999999 444.8652900000001 644.22863 393.9265100000001 644.22863 326.8571000000001C644.22863 254.0571000000001 686.88987 219.4611600000001 751.4123099999999 192.08158L773.6980299999999 182.53058C814.6613399999999 164.4897599999999 838.8572499999999 153.66526 838.8572499999999 123.102C838.8572499999999 97.4204199999999 815.0857899999999 78.95508 778.15519 78.95508C734.22047 78.95508 709.1755899999999 102.08976 690.07355 133.2897899999999L617.27355 91.26532C643.37962 39.47757 697.07756 0 780.06533 0z" />
    <glyph glyph-name="doc-3ds"
      unicode="&#xF16D;"
      horiz-adv-x="832" d="M64 -128H768A64 64 0 0 1 832 -64V637.25488L573.25488 896H64A64 64 0 0 1 0 832V-64A64 64 0 0 1 64 -128zM560 818.74512L754.74512 624H624A64 64 0 0 0 560 688zM64 831.99976V832H496V688A128.14493 128.14493 0 0 1 624 560H768V-64H64zM510.3999 520H273.167L207.15088 387.967L309.9633800000001 343.9045L222.05859 256L309.9633800000001 168.09546L205.27438 123.22876L274.4116200000001 8H526.833L651.01025 256.3552200000001zM600.76562 256L408 187.96509V324.03491zM602.7416900000001 278.8591300000001L412.48291 401.1687L494.02246 482.70825zM476.686 488L396.4194 407.7334H252.811L292.94434 488zM354.30078 342.9875500000001L392 329.68188V182.31812L354.3007800000001 169.01246L267.3134800000001 256zM397.063 104.2666L487.03662 40H292.5293L253.96973 104.2666zM414.01808 111.81836L604.04492 233.97852L509.03125 43.95166z" />
    <glyph glyph-name="doc-ae"
      unicode="&#xF16E;"
      horiz-adv-x="832" d="M262.01758 200.832H363.77832L381.44238 144H444.0351500000001L346.88184 419.71387H280.4492200000001L182.14453 144H242.81738zM312.70606 357.5058300000001H313.47364L347.6504 248.4491900000001H277.37793zM554.624 138.624C589.56834 138.624 630.27244 154.75193 644.48045 203.90427H589.1845500000001C584.9599400000001 189.31247 569.6005500000001 181.63181 554.624 181.63181C511.23142 181.63181 508.16013 216.19236 506.624 231.55271H646.78516V241.1523199999999C646.78516 334.4648199999999 591.1045 353.6650199999999 550.78416 353.6650199999999C461.3115 353.6650199999999 452.86326 274.9452899999999 452.86326 250.36912C452.86328 166.27246 497.02344 138.624 554.624 138.624zM550.0156000000001 309.50486C567.29587 309.50486 588.4159900000001 299.5214600000001 591.4882600000001 266.4970500000001H508.16016C511.23145 293.377 524.67188 309.50488 550.01563 309.50488zM64 -128H768A64 64 0 0 1 832 -64V637.25488L573.25488 896H64A64 64 0 0 1 0 832V-64A64 64 0 0 1 64 -128zM560 818.74512L754.74512 624H624A64 64 0 0 0 560 688zM64 831.99976V832H496V688A128.14493 128.14493 0 0 1 624 560H768V-64H64z" />
    <glyph glyph-name="doc-afdesign"
      unicode="&#xF16F;"
      horiz-adv-x="832" d="M573.25488 896H64A64 64 0 0 1 0 832V-64A64 64 0 0 1 64 -128H768A64 64 0 0 1 832 -64V637.25488zM768 -63.99976V-64H64V832H496V688A128.14493 128.14493 0 0 1 624 560H768zM624 624A64 64 0 0 0 560 688V818.74512L754.74512 624zM704.64026 78.58789L454.40955 512H390.20155L341.66688 427.95093L362.403 387.1L257.0177 204.57043L196.74646 176.93994L127.35974 56.745L158.80874 0.00416L158.80627 0H659.25867zM386.32214 167.00952H598.16443L645.3118900000001 85.3476499999999H434.4969500000001zM588.9266299999999 183.00952H461.9447L428.48718 240.95959L491.97818 350.9294399999999zM443.46935 183.00952H395.02965L419.24938 224.9595899999999zM454.40955 416L482.7406 366.92944L419.24939 256.95972H419.24939L367.31677 167.00952H367.74621L423.02477 73.3062699999999L437.63513 48H241.9447z" />
    <glyph glyph-name="doc-afphoto"
      unicode="&#xF170;"
      horiz-adv-x="832" d="M573.25488 896H64A64 64 0 0 1 0 832V-64A64 64 0 0 1 64 -128H768A64 64 0 0 1 832 -64V637.25488zM768 -63.99976V-64H64V832H496V688A128.14493 128.14493 0 0 1 624 560H768zM624 624A64 64 0 0 0 560 688V818.74512L754.74512 624zM704.6402 78.58789L454.40948 512H390.2016L341.66681 427.95093L362.40289 387.1L257.01764 204.57043L196.7464 176.93994L127.3598 56.745L158.80865 0.0044L158.80609 0H659.25861zM379.30792 285.92029L421.4160700000001 212.98729H337.2zM445.17169 171.84082L430.65411 146.6953100000001H401.61749L387.09991 171.8408200000001L401.61749 196.9873000000001H430.65374zM463.64728 171.84082V171.8409400000001L529.511 285.92041L609.8925899999999 146.69531H449.12921zM437.03656 85.34766L410.85529 130.6953200000001H619.1301900000001L645.3118300000001 85.34766zM440.12384 48H315.60028L377.86212 155.84082zM520.27338 301.92041L454.40961 187.84106L388.54547 301.92029L454.40948 416zM327.96246 196.9873H383.1426400000001L297.12506 48H241.94452z" />
    <glyph glyph-name="doc-ai"
      unicode="&#xF171;"
      horiz-adv-x="832" d="M329.9873 419.71387L231.68262 144H292.35547L311.55567 200.832H413.31641L430.9804700000001 144H493.5732400000001L396.41992 419.71387zM326.916 248.44922L362.24413 357.50586H363.01171L397.18847 248.44922zM527.74121 348.28906H581.5019500000001V144H527.7412100000001V348.2890600000001zM527.74121 422.40234H581.5019500000001V372.48144H527.7412100000001V422.4023400000001zM64 896A64 64 0 0 1 0 832V-64A64 64 0 0 1 64 -128H768A64 64 0 0 1 832 -64V637.25488L573.25488 896zM768 -63.99976V-64H64V832H496V688A128.14493 128.14493 0 0 1 624 560H768zM624 624A64 64 0 0 0 560 688V818.74512L754.74512 624z" />
    <glyph glyph-name="doc-archive"
      unicode="&#xF172;"
      horiz-adv-x="832" d="M704 896H64A63.99512000000001 63.99512000000001 0 0 1 0 832V-64A63.99512000000001 63.99512000000001 0 0 1 64 -128H768A63.995079999999994 63.995079999999994 0 0 1 832 -64V768A128.00317 128.00317 0 0 1 704 896zM736 -64A32.03611 32.03611 0 0 0 704 -96H695.42A63.68334 63.68334 0 0 1 704 -64V385.48A31.96426 31.96426 0 0 0 714.93 409.5600800000001L736 428zM746.14 521.92L672.78 457.73A96.01957 96.01957 0 0 1 640 385.48V-64H64V832H192V784A15.995639999999998 15.995639999999998 0 0 1 208 768H272A15.995600000000001 15.995600000000001 0 0 1 288 784V832H704A64.07207 64.07207 0 0 0 768 768V570.08008A63.99381 63.99381 0 0 0 746.14 521.9200000000001zM800 -64A32.03611 32.03611 0 0 0 768 -96H759.42A63.68334 63.68334 0 0 1 768 -64V456C772 459.83008 794.12 477.92 800 485.42993zM208 704H272A15.99552 15.99552 0 0 0 288 688V656A15.995600000000001 15.995600000000001 0 0 0 272 640H208A15.995639999999998 15.995639999999998 0 0 0 192 656V688A15.995559999999998 15.995559999999998 0 0 0 208 704zM208 576H272A15.99552 15.99552 0 0 0 288 560V528A15.995600000000001 15.995600000000001 0 0 0 272 512H208A15.995639999999998 15.995639999999998 0 0 0 192 528V560A15.995559999999998 15.995559999999998 0 0 0 208 576zM322.9700000000001 371.67993A15.992559999999997 15.992559999999997 0 0 1 307.4 384H272A15.995600000000001 15.995600000000001 0 0 1 288 400V432A15.99552 15.99552 0 0 1 272 448H208A15.995559999999998 15.995559999999998 0 0 1 192 432V384S160.46 273.61 160.01 193.74C159.7 140.55006 202.18 96.3401 255.37 96A96.00164000000001 96.00164000000001 0 0 1 352 192C352 243.9500000000001 330.9100000000001 338.08008 322.9700000000001 371.67993zM256 144A48 48 0 1 0 304 192A47.99956 47.99956 0 0 0 256 144zM336 704H272A15.995639999999998 15.995639999999998 0 0 0 256 720V752A15.995559999999998 15.995559999999998 0 0 0 272 768H336A15.99552 15.99552 0 0 0 352 752V720A15.995600000000001 15.995600000000001 0 0 0 336 704zM272 640H336A15.99552 15.99552 0 0 0 352 624V592A15.995600000000001 15.995600000000001 0 0 0 336 576H272A15.995639999999998 15.995639999999998 0 0 0 256 592V624A15.995559999999998 15.995559999999998 0 0 0 272 640zM352 496V464A15.995600000000001 15.995600000000001 0 0 0 336 448H272A15.995639999999998 15.995639999999998 0 0 0 256 464V496A15.995559999999998 15.995559999999998 0 0 0 272 512H336A15.99552 15.99552 0 0 0 352 496z" />
    <glyph glyph-name="doc-blank"
      unicode="&#xF173;"
      horiz-adv-x="832" d="M64 896A64 64 0 0 1 0 832V-64A64 64 0 0 1 64 -128H768A64 64 0 0 1 832 -64V637.25488L573.25488 896zM768 -63.99976V-64H64V832H496V688A128.14493 128.14493 0 0 1 624 560H768zM624 624A64 64 0 0 0 560 688V818.74512L754.74512 624z" />
    <glyph glyph-name="doc-blend"
      unicode="&#xF174;"
      horiz-adv-x="832" d="M768 -128A64 64 0 0 1 832 -64V637.25488L573.25488 896H64A64 64 0 0 1 0 832V-64A64 64 0 0 1 64 -128zM560 818.74512L754.74512 624H624A64 64 0 0 0 560 688zM64 831.99976V832H496V688A128.14493 128.14493 0 0 1 624 560H768V-64H64zM416 0C522.03882 0 608 85.96118 608 192A191.27209 191.27209 0 0 1 559.095 320H678.71436A32 32 0 0 1 678.71436 384H431.85693A32.267 32.267 0 0 1 427.24072 383.66406C427.05346 383.6748 426.86718 383.68921 426.67972 383.69946L511.2573599999999 468.2773399999999A31.999690000000005 31.999690000000005 0 1 1 466.0024799999999 513.53125L291.44824 338.97656A32.24817 32.24817 0 0 1 288.40724 335.4563C288.27174 335.3356899999999 288.13524 335.21607 288.00001 335.09497V454.71387A32 32 0 0 1 224.00001 454.71387V207.8574200000001A32.26441 32.26441 0 0 1 224.33595 203.24121C224.12109 199.52051 224 195.7746600000001 224 192C224 85.96118 309.96118 0 416 0zM416 64A128 128 0 1 0 544 192A128.00008 128.00008 0 0 0 416 64zM352 192A64 64 0 0 1 480 192A64 64 0 0 1 352 192" />
    <glyph glyph-name="doc-corel"
      unicode="&#xF175;"
      horiz-adv-x="832" d="M64 -128H768A64 64 0 0 1 832 -64V637.25488L573.25488 896H64A64 64 0 0 1 0 832V-64A64 64 0 0 1 64 -128zM560 818.74512L754.74512 624H624A64 64 0 0 0 560 688zM64 831.99976V832H496V688A128.14493 128.14493 0 0 1 624 560H768V-64H64zM384 80H448A16 16 0 0 0 464 64V16A16 16 0 0 0 448 0H384A16 16 0 0 0 368 16V64A16 16 0 0 0 384 80zM416 111.9980000000001C460 118.6627900000001 509.72778 153.70064 545.90283 200.43794C585.94678 252.1733400000001 608 314.16064 608 374.981C608 409.19975 596.31494 437.97319 573.27 460.50053C519.90892 512.66166 423.67186 512.1113700000001 416 511.98393C408.32813 512.1113700000001 312.09106 512.66166 258.73 460.50053C235.68506 437.97314 224 409.19971 224 374.981C224 314.1606900000001 246.05322 252.17338 286.09717 200.438C322.27222 153.70068 372 118.66284 416 111.9980000000001zM550.96533 437.5732000000001C567.811 421.0742200000001 576 400.60645 576 375C576 280.6901900000001 518.3501 201.67554 461.47632 164.7260699999999C504.90527 234.44287 528 308.75952 528 352C528 402.624 519.625 440 497.72754 467.60742C517.12451 461.31543 536.39844 451.84033 550.96533 437.57324zM432 474.47437C451.90332 467.2168 465.55322 457.66089 475.06006 444.5888700000001C489.34619 424.94629 496 395.52539 496 352C496 328.88281 487.45605 293.7207 473.14453 257.94238A486.3335200000001 486.3335200000001 0 0 0 432 177.87158zM356.93994 444.5888700000001C366.44678 457.66087 380.09668 467.2168 400 474.47437V177.87158A486.33351 486.33351 0 0 0 358.85547 257.94238C344.54395 293.7207 336 328.88281 336 352C336 395.52539 342.65381 424.94629 356.93994 444.58887zM281.03467 437.5732400000001C295.60156 451.8403300000001 314.87549 461.31543 334.27246 467.60742C312.375 440 304 402.624 304 352C304 308.75952 327.0947300000001 234.44287 370.52368 164.7260699999999C313.6499 201.67554 256 280.6901900000001 256 375C256 400.60645 264.189 421.0742200000001 281.03467 437.57324z" />
    <glyph glyph-name="doc-fbx"
      unicode="&#xF176;"
      horiz-adv-x="832" d="M64 -128H768A64 64 0 0 1 832 -64V637.25488L573.25488 896H64A64 64 0 0 1 0 832V-64A64 64 0 0 1 64 -128zM560 818.74512L754.74512 624H624A64 64 0 0 0 560 688zM64 831.99976V832H496V688A128.14493 128.14493 0 0 1 624 560H768V-64H64zM440 328V362.519L596.85889 379.9477100000001L544.74463 484.176L413.03463 521.80759L248 430.12158V62.72021L439.416 -1.3L439.94969 175.3491700000001L564.22703 221.9531700000001L590.73877 328zM408 482.40405V391.1604L328.3457 382.31006L286.46484 414.88428zM371.77441 220.4104L408.2666 277.17627V204.19165zM408 320.35669L346.457 368.22363L408 375.06177zM391.208 313.1479499999999L280 318.26123V360.8396L323.6543 365.68994zM280 302.2451200000001L401.76221 296.6464900000001L356.98 226.9856L280 261.199zM424 392.9382400000001V485.394L522.41846 457.27462L547.7138699999999 406.6840400000001zM305.543 379.7763700000001L280 376.93823V399.64331zM280 243.68994L348.22559 213.36743L280 107.2387700000001zM363.02 206.792L407.98436 186.80787L407.55028 43.10011L284.291 84.3250000000001zM423.73338 203.4441000000001V296H549.75391L537.25782 246.01562z" />
    <glyph glyph-name="doc-fusion"
      unicode="&#xF177;"
      horiz-adv-x="832" d="M64 -128H768A64 64 0 0 1 832 -64V637.25488L573.25488 896H64A64 64 0 0 1 0 832V-64A64 64 0 0 1 64 -128zM560 818.74512L754.74512 624H624A64 64 0 0 0 560 688zM64 831.99976V832H496V688A128.14493 128.14493 0 0 1 624 560H768V-64H64zM324.20187 237.64667A53.086850000000005 53.086850000000005 0 1 0 350.96078 336.52925L350.94419 336.5924299999999C387.60601 315.21359 411.64706 321.5440799999999 433.02573 358.20543L433.0418200000001 358.14443A53.11362 53.11362 0 1 0 452.12582 285.66798L452.14258 285.60463C415.4811000000001 306.9832999999999 391.43988 300.6531399999999 370.06104 263.99133L370.04495 264.05233A53.018 53.018 0 0 0 324.20187 237.64667zM483.79034 268.15346A39.80031 39.80031 0 0 1 449.53784 248.6030600000001L449.52443 248.6556800000001C433.93409 222.41849 416.60865 218.0082800000001 390.37129 233.5986200000001L390.38487 233.5451600000001A39.84839000000001 39.84839000000001 0 1 1 404.26275 179.0242900000001L404.27616 178.9718300000001C419.8665000000001 205.20902 437.1921 209.6190700000001 463.4293 194.02872L463.41572 194.08235A39.8423 39.8423 0 1 1 483.79034 268.15345zM409.05272 154.8141500000001A26.085519999999995 26.085519999999995 0 1 1 435.13824 128.7286300000001A26.08553 26.08553 0 0 1 409.05272 154.8141500000001zM416 512C274.61523 512 160 397.385 160 256S274.61523 0 416 0S672 114.615 672 256S557.38477 512 416 512zM416 48C301.12488 48 208 141.12456 208 256S301.12488 464 416 464S624 370.8754400000001 624 256S530.87512 48 416 48z" />
    <glyph glyph-name="doc-id"
      unicode="&#xF178;"
      horiz-adv-x="832" d="M269.88965 419.71387H327.4902400000001V144H269.88965V419.71387zM509.89063 321.793H509.12208C500.6748 334.84961 484.5459 353.665 449.98633 353.665C405.05762 353.665 365.1211 319.10543 365.1211 248.44918C365.1211 192.38473 390.46583 138.62398 451.1377 138.62398C473.41016 138.62398 497.21875 146.6884299999999 510.27442 169.72847H511.04297V144H563.6513699999999V419.71387H509.89063zM464.57813 182.78421C430.01758 182.78421 420.41797 220.41702 420.41797 244.60843C420.41797 276.86527 431.9375 307.2012 466.1142599999999 307.2012C502.9785199999999 307.2012 512.1943399999999 274.17679 512.1943399999999 241.5371399999999C512.19434 211.2002 498.75488 182.78418 464.57813 182.78418zM832 -64V637.25488L573.25488 896H64A64 64 0 0 1 0 832V-64A64 64 0 0 1 64 -128H768A64 64 0 0 1 832 -64zM560 818.74512L754.74512 624H624A64 64 0 0 0 560 688zM64 -64V832H496V688A128.14493 128.14493 0 0 1 624 560H768V-64H64z" />
    <glyph glyph-name="doc-js"
      unicode="&#xF179;"
      horiz-adv-x="832" d="M64 -128H768A64 64 0 0 1 832 -64V637.25488L573.25488 896H64A64 64 0 0 1 0 832V-64A64 64 0 0 1 64 -128zM560 818.74512L754.74512 624H624A64 64 0 0 0 560 688zM64 831.99976V832H496V688A128.14493 128.14493 0 0 1 624 560H768V-64H64zM598.75293 0C659.34619 0 704.60083 31.5874 704.60083 88.99121C704.60083 142.44678 674.07666 166.2890600000001 619.7099599999999 189.52392L603.7643999999999 196.3579199999999C576.2773399999999 208.3549899999999 564.4321199999999 216.0998599999999 564.4321199999999 235.2346299999999C564.4321199999999 250.72463 576.2773299999999 262.5698399999999 594.9565299999999 262.5698399999999C613.3317699999999 262.5698399999999 625.1769899999999 254.8247199999999 636.1110699999999 235.2346299999999L685.9218599999999 267.1254999999999C664.9648599999999 304.1799399999999 635.8073599999999 318.3032299999999 595.1083799999999 318.3032299999999C538.1598899999999 318.3032299999999 501.5610199999999 281.8562299999999 501.5610199999999 233.8676799999999C501.5610199999999 181.7790599999999 532.0854299999999 157.0253899999998 578.2514499999999 137.4353099999999L594.1970099999999 130.6015699999998C623.5065799999999 117.6931199999998 640.8188399999999 109.9482499999998 640.8188399999999 88.0800899999998C640.8188399999999 69.7048499999999 623.8102899999999 56.4926899999998 597.3862199999999 56.4926899999998C565.9506699999998 56.4926899999998 548.0309999999998 73.0456899999998 534.3632699999998 95.3693999999998L482.2746499999998 65.3007999999999C500.95361 28.24634 539.375 0 598.75293 0zM351.97705 0C408.62158 0 447.49829 30.2207 447.49829 96.43262H447.49829V314.65845H383.56421V97.34375C383.56421 65.30075 370.20044 57.1001 349.24341 57.1001C327.22341 57.1001 318.11182 72.13452 308.08887 89.90235L256 58.467C271.186 26.42407 300.79932 0 351.97705 0z" />
    <glyph glyph-name="doc-obj"
      unicode="&#xF17A;"
      horiz-adv-x="832" d="M64 -128H768A64 64 0 0 1 832 -64V637.25488L573.25488 896H64A64 64 0 0 1 0 832V-64A64 64 0 0 1 64 -128zM560 818.74512L754.74512 624H624A64 64 0 0 0 560 688zM64 831.99976V832H496V688A128.14493 128.14493 0 0 1 624 560H768V-64H64zM656.604 101.05176V410.94849L416 514.0644500000001L175.396 410.9484500000001V101.05176L416 -2.0647zM623.396 374.81934V122.9482400000001L432.604 41.18066V293.05151zM399.396 41.18067L208.604 122.9482400000001V374.81934L399.396 293.05152zM234.15137 400L416 477.93555L597.84863 400L416 322.06445z" />
    <glyph glyph-name="doc-pr"
      unicode="&#xF17B;"
      horiz-adv-x="832" d="M303.873 243.457H369.92183C444.03413 243.457 457.85835 306.43356 457.85835 331.39352C457.85835 385.53805 425.60249 419.71383 372.22554 419.71383H246.27344V144H303.873zM303.873 372.09762H349.56929C385.28218 372.09762 400.25777 360.96188 400.25777 334.08102C400.25777 321.79293 400.25777 291.07321 357.24996 291.07321H303.873zM543.875 250.36914C543.875 273.02539 551.55469 299.13672 593.41113 299.13672A100.457 100.457 0 0 0 608.77148 298.36914V352.89746A94.20623 94.20623 0 0 1 598.40332 353.66504C565.7627 353.66504 553.47461 333.69727 542.33887 312.96094H541.57032V348.28906H490.11426V144H543.875zM768 -128A64 64 0 0 1 832 -64V637.25488L573.25488 896H64A64 64 0 0 1 0 832V-64A64 64 0 0 1 64 -128zM560 818.74512L754.74512 624H624A64 64 0 0 0 560 688zM64 831.99976V832H496V688A128.14493 128.14493 0 0 1 624 560H768V-64H64z" />
    <glyph glyph-name="doc-ps"
      unicode="&#xF17C;"
      horiz-adv-x="832" d="M336.32227 419.71387H210.37012V144H267.96973V243.457H334.01856C408.13086 243.457 421.95508 306.43356 421.95508 331.39352C421.95508 385.53809 389.6992200000001 419.71387 336.32227 419.71387zM321.34668 291.0732400000001H267.96968V372.09766H313.666C349.37889 372.09766 364.35448 360.96192 364.35448 334.08106C364.35449 321.793 364.35449 291.0732400000001 321.34668 291.0732400000001zM508.73535 292.99316C508.73535 301.82516 512.57519 312.96093 541.75976 312.96093C570.94335 312.96093 575.5517600000001 299.13671 577.85546 286.08105H630.46386C626.24023 343.68164 578.62304 353.6650500000001 538.6874899999999 353.6650500000001C474.9423699999999 353.6650500000001 456.1269399999999 315.2656400000001 456.1269399999999 285.3125100000001C456.1269399999999 208.89651 582.8476399999998 234.6250100000001 582.8476399999998 200.4482500000002C582.8476399999998 192.7685600000001 576.3193199999998 179.3281300000001 548.6708799999999 179.3281300000001C514.8788799999999 179.3281300000001 504.1269299999999 192.0000000000001 504.1269299999999 209.2802800000001H448.8310299999999C450.36621 154.752 500.6709 138.624 547.13574 138.624C579.0078100000001 138.624 636.6084000000001 149.376 636.6084000000001 208.8964600000001C636.6084 284.16113 508.73535 260.73633 508.73535 292.99316zM832 -64V637.25488L573.25488 896H64A64 64 0 0 1 0 832V-64A64 64 0 0 1 64 -128H768A64 64 0 0 1 832 -64zM560 818.74512L754.74512 624H624A64 64 0 0 0 560 688zM64 -64V832H496V688A128.14493 128.14493 0 0 1 624 560H768V-64H64z" />
    <glyph glyph-name="doc-resolve"
      unicode="&#xF17D;"
      horiz-adv-x="832" d="M64 -128H768A64 64 0 0 1 832 -64V637.25488L573.25488 896H64A64 64 0 0 1 0 832V-64A64 64 0 0 1 64 -128zM560 818.74512L754.74512 624H624A64 64 0 0 0 560 688zM64 831.99976V832H496V688A128.14493 128.14493 0 0 1 624 560H768V-64H64zM416 512C274.61523 512 160 397.385 160 256S274.61523 0 416 0S672 114.615 672 256S557.38477 512 416 512zM416 48C301.12488 48 208 141.12456 208 256S301.12488 464 416 464S624 370.8754400000001 624 256S530.87512 48 416 48zM479.2112 139.86087C450.65798 156.34608 435.08046 206.6998699999999 426.34003 239.31962C458.95974 248.06005 510.3562 259.7464300000001 538.90941 243.26122A59.69822 59.69822 0 1 0 479.2112 139.86087zM271.2395200000001 161.7119300000001A59.69822 59.69822 0 0 1 352.7888000000001 139.8608700000001C381.3420200000001 156.3460800000002 396.9195400000001 206.6998700000002 405.6599700000001 239.3196200000001C373.0402600000001 248.0600500000001 321.6438000000001 259.7464300000002 293.09059 243.2612200000001A59.69822 59.69822 0 0 1 271.2395200000001 161.7119300000001zM416 412.44444A59.69822 59.69822 0 0 1 356.30178 352.74622C356.30178 319.77581 392.1207100000001 281.10836 416 257.22907C439.8792900000001 281.10836 475.69822 319.7758 475.69822 352.74622A59.69822 59.69822 0 0 1 416 412.44444z" />
    <glyph glyph-name="finance-dash-circle"
      unicode="&#xEFDD;"
      horiz-adv-x="1024" d="M512 -128C794.77 -128 1024 101.23022 1024 384S794.77 896 512 896C229.23047 896 0 666.76978 0 384S229.23047 -128 512 -128zM304.61035 604.1677199999999H799.98828C860.7856400000001 604.1677199999999 894.0581000000001 554.88159 874.30371 494.08398L802.7666 273.9160000000001C783.0122100000001 213.1183900000001 717.71191 163.83226 656.9145500000001 163.83226H161.53711L197.30518 273.9160000000001H644.521L716.0581099999999 494.0840000000001H268.84229zM175.29735 432.16162H443.627L412.32964 335.8383799999999H144z" />
    <glyph glyph-name="finance-dash"
      unicode="&#xEFDE;"
      horiz-adv-x="1280" d="M521.09 467.759L54.43 467.759L0 300.24L466.66 300.24L521.09 467.759zM1145.68141 192.5497800000001L1270.0932799999998 575.4501700000001C1304.4484999999997 681.1852800000001 1246.5839999999998 766.9003700000001 1140.8488999999997 766.9003700000001H279.32252L217.117 575.4501700000001H994.8836L870.47145 192.5497800000001H92.70485L30.49879 1.09959H892.02516C997.76 1.09959 1111.32594 86.81467 1145.68141 192.5497800000001z" />
    <glyph glyph-name="finance-emercoin"
      unicode="&#xEFDF;"
      horiz-adv-x="1184" d="M352 624L352 528L544 528L544 432L352 432L352 336L640 336L640 528L736 528L736 240L352 240L352 144L832 144L832 624L736 624L352 624zM297.18994 896L1.58643 384L297.18995 -128H888.39648L1184 384L888.39648 896zM832.9707 -32H352.6157L112.4375 384L352.61572 800H832.97072L1073.1487200000001 384z" />
    <glyph glyph-name="finance-etherium"
      unicode="&#xEFE0;"
      horiz-adv-x="640" d="M320.402 894.675L320.402 896L320 895.337L319.598 896L319.598 894.675L0 368L320 176L640 368L320.402 894.675zM0 320L320 -128L640 320L320 128L0 320z" />
    <glyph glyph-name="finance-litecoin"
      unicode="&#xEFE1;"
      horiz-adv-x="1024" d="M512 -128C794.77 -128 1024 101.23022 1024 384S794.77 896 512 896C229.23047 896 0 666.76978 0 384S229.23047 -128 512 -128zM512 832C759.42383 832 960 631.42358 960 384S759.42383 -64 512 -64C264.57666 -64 64 136.57642 64 384S264.57666 832 512 832zM512 0C724.07715 0 896 171.92261 896 384S724.07715 768 512 768S128 596.0773899999999 128 384S299.92285 0 512 0zM308.80518 374.2200000000001L361.80762 392.89017L436.59521 672H596.59521L538.47949 455.10986L609.14893 480L592 416L521.33057 391.1098600000001L485.12793 256H741.12793L715.40527 160H299.40527L344.65918 328.89014L291.65625 310.2200000000001z" />
    <glyph glyph-name="gem-oval"
      unicode="&#xF5B9;"
      horiz-adv-x="736" d="M683.605 241.20337L638.54736 264.1570000000001L702.3457000000001 342.6135400000001A497.21167 497.21167 0 0 0 683.605 241.20337zM289.38525 78.8479L368.00825 118.8999L446.62109 78.856L368 -17.8291zM107.78225 516.54883L107.78567 516.55567V516.55L107.78225 516.54585zM446.61475 689.1521L367.99175 649.1001L289.3765200000001 689.1411L368 785.8291zM616.14063 287.3227500000001L583.57129 384.01L616.13429 480.685L694.75537 384zM457.2959 109.33057L403.25781 136.85669L479.67773 175.78662zM278.7143600000001 109.32471L256.3300800000001 175.78052L332.7563500000001 136.85474zM278.7036200000001 658.66553L332.7412200000001 631.14258L256.3222700000001 592.21358zM169.31152 434.126L146.93115 500.57009L200.96142 528.09719zM200.97021 239.8884499999999L146.92821 267.4133499999999L169.31249 333.87453zM241.729 219.12891L186.19531 384.00049L241.72168 548.86279L367.99316 613.188L494.271 548.87109L549.8051800000001 384.00879L494.27832 219.13721L368.00684 154.812zM457.28564 658.67529L479.66992 592.21948L403.24365 631.14526zM535.03076 528.11129L589.07129 500.58688L566.6875 434.13232zM566.68945 333.88424L589.07617 267.4260000000001L535.0366200000001 239.89914zM596.21435 532.86031L520.42871 571.46L486.564 672H596.21436zM475.78564 704L475.77783 704.00977L475.80615 704zM260.20605 704H260.19335L260.2080000000001 704.00488H260.21435zM249.42822 672L215.563 571.45L139.78566 532.84331V672zM119.86328 480.68213L152.42871 384L119.86523 287.31567L41.24463 384zM107.78564 251.4500000000001V251.44438L107.78222 251.4512200000001V251.4541500000001zM139.78564 235.1397000000001L215.57129 196.54L249.436 96H139.78564zM260.21436 64L260.22217 63.99023L260.19385 64zM475.78174 63.99512V63.99536L475.78564 64H475.80664L475.79199 63.99512zM486.57227 96L520.437 196.55L596.21434 235.14961V96zM628.21436 251.4500000000001L628.22266 251.4600000000001L628.21436 251.4436400000001zM702.3457 425.38647L638.54736 503.843L683.605 526.79663A497.21167 497.21167 0 0 0 702.3457 425.38647zM673.36182 557.49194L628.2143599999999 534.49243V646.88916A441.99347 441.99347 0 0 0 673.36182 557.49194zM582.46143 704H492.65771L511.55078 760.08569A337.6962 337.6962 0 0 0 582.46143 704zM482.80323 774.98608L463.83936 718.69091L399.16992 798.21875A280.28077 280.28077 0 0 0 482.80322 774.98608zM336.83008 798.21875L272.1606500000001 718.69092L253.1967800000001 774.98609A280.28077 280.28077 0 0 0 336.83008 798.21875zM224.44922 760.08569L243.34229 704H153.53857A337.6962 337.6962 0 0 0 224.44922 760.08569zM107.78564 534.49243L62.63818 557.49194A441.99347 441.99347 0 0 0 107.78564 646.88916zM52.395 526.79663L97.45264 503.843L33.6543 425.38647A497.21167 497.21167 0 0 0 52.395 526.79663zM33.6543 342.61353L97.45264 264.1570000000001L52.395 241.20337A497.21167 497.21167 0 0 0 33.6543 342.61353zM62.63818 210.50806L107.78564 233.50757V121.1108400000001A441.99347 441.99347 0 0 0 62.63818 210.50806zM153.53857 64H243.34228L224.44921 7.91431A337.6962 337.6962 0 0 0 153.53857 64zM253.19677 -6.98608L272.16064 49.30909L336.83007 -30.21874A280.28077 280.28077 0 0 0 253.19678 -6.98608zM399.16991 -30.21875L463.83934 49.30908L482.80321 -6.98609A280.28077 280.28077 0 0 0 399.16992 -30.21875zM511.5507699999999 7.91431L492.65771 64H582.46142A337.6962 337.6962 0 0 0 511.55078 7.91431zM628.21436 233.50757L673.3618200000001 210.50806A441.99347 441.99347 0 0 0 628.21436 121.1108400000001zM0 384C0 136.57643 164.75921 -64 368 -64S736 136.57643 736 384S571.24079 832 368 832S0 631.4235699999999 0 384z" />
    <glyph glyph-name="gem-pear"
      unicode="&#xF5BA;"
      horiz-adv-x="608" d="M608 528C608 571.24609 600.42188 612.2090000000001 585.47559 649.749A282.45762 282.45762 0 0 1 425.749 809.47559C388.209 824.42187 347.24609 832 304 832S219.791 824.42187 182.251 809.47559A282.45762 282.45762 0 0 1 22.52441 649.749C7.57813 612.2090000000001 0 571.24609 0 528C0 449.377 15.50293 369.46191 46.0791 290.47461Q54.60083 268.45984 64.69385 246.54273L64.12403 241.98438L66.96339 241.62938A896.42452 896.42452 0 0 1 146.92872 104.77338C219.30957 2.2334 290.751 -57.78711 293.75684 -60.292L304 -68.82715L314.24316 -60.2919899999999C317.24902 -57.78711 388.69043 2.2334000000001 461.07129 104.7734400000001A896.42452 896.42452 0 0 1 541.03662 241.6294400000001L543.87598 241.9844400000001L543.30616 246.5427900000001Q553.3718299999999 268.4506300000001 561.9209099999999 290.4746700000001C592.49707 369.46191 608 449.377 608 528zM503.375 237.5756800000001L406.91113 189.34375L430.22461 294.25391L499.335 340.32764L510.373 252.02393Q506.92041 244.70593 503.375 237.5756800000001zM304 -3.4284699999999L245.74609 148.03223L304 159.6831100000001L362.25391 148.03223zM97.62646 252.0188000000001L108.665 340.32764L177.77535 294.25391L201.08883 189.34375L104.624 237.5761700000001Q101.08276 244.7066700000001 97.62646 252.0188000000001zM401.53222 311.7629400000001L304 200.29736L206.46777 311.76294L160.71094 479.53711L204.90674 612.12427L304 654.59277L403.09326 612.12426L447.28906 479.5371zM345.80664 671.49023L375.08691 683.20214L386.79882 653.92214zM221.20117 653.92212L232.91308 683.20212L262.19335 671.49021zM138.12158 512.96069L104.1792 555.38869L163.57861 589.33132zM140.63428 431.53003L165.32028 341.01563L115.9487 373.93018zM273.75537 186.26803L236.22119 178.76119L221.20752 246.32247zM386.79248 246.32247L371.77881 178.76119L334.24463 186.26803zM467.36572 431.53L492.05127 373.9301499999999L442.67969 341.0156zM469.87842 512.96066L444.42142 589.3312699999999L503.82083 555.3886399999999zM512 587.5708L428.7832 635.12329L407.63232 688H512zM304 689.23242L248.86621 711.28589L304 788.4729L359.13379 711.2859zM179.2168 635.12329L96 587.5708V688H200.36768zM80 534.38721L125.51758 477.49121L92.49414 400.43652L36.05273 479.45337zM515.50586 400.43652L482.48242 477.49121L528 534.38721L571.94727 479.45337zM575.9834 525.6333L544 565.6123V664.25586C564.63818 625.10132 576 579.00635 576 528C576 527.2092299999999 575.98682 526.4231 575.9834 525.6333zM504.00781 720H422.627L459.4312 756.8042A245.47762999999998 245.47762999999998 0 0 0 504.00781 720zM430.33447 772.9614300000001L386.042 728.66895L336.21533 798.42578C370.4541 795.06714 402.0625 786.34521 430.33447 772.96143zM271.78467 798.42578L221.958 728.66895L177.66552 772.96143C205.9375 786.34521 237.5459 795.06714 271.78467 798.42578zM148.56885 756.8042L185.373 720H103.99219A245.47762999999998 245.47762999999998 0 0 0 148.56885 756.8042zM64 664.25586V565.6123L32.0166 525.6333C32.01318 526.4231 32 527.2092299999999 32 528C32 579.00635 43.36182 625.10132 64 664.25586zM43.34619 414.1884800000001L79.34912 363.78418L72.752 311.00977A668.16561 668.16561 0 0 0 43.34619 414.1884800000001zM131.04248 188.5905800000001L204.43311 151.8952700000001L188.01711 102.6472700000001Q180.56545 112.6279800000001 173.07131 123.22662C159.33545 142.68555 145.03809 164.56909 131.04248 188.5905800000001zM211.63037 72.2951700000001L225.07568 112.6316000000001L263.20313 13.5C247.93457 29.5546900000001 230.25391 49.29395 211.63037 72.29517zM344.8139600000001 13.5451700000001L382.9243100000001 112.6316000000001L396.36719 72.303C377.7627 49.33276 360.08691 29.60547 344.814 13.54517zM435.4511700000001 123.9687500000001Q427.7109400000001 112.9809600000001 419.9824200000001 102.6491700000001L403.5668900000001 151.8952600000001L476.957 188.59033C463.13037 164.8584 449.01563 143.22412 435.45117 123.96875zM528.65088 363.7841800000001L564.65332 414.1875000000001A668.29419 668.29419 0 0 0 535.24756 311.0115000000001z" />
    <glyph glyph-name="gem-round"
      unicode="&#xF5BB;"
      horiz-adv-x="896" d="M838.28516 239.6670000000001L780.25586 263.70582L862.269 345.71924A411.59617000000003 411.59617000000003 0 0 0 838.28516 239.6670000000001zM347.4580000000001 77.2468300000001L448.00977 118.8999L548.54977 77.2549L448 -23.29517zM127.99512 516.5517600000001L128 516.56348V516.55L127.99512 516.54487zM548.542 690.75317L447.99023 649.1001L347.44678 690.74194L448 791.29517zM754.75293 283.45825L713.1001 384.01L754.7451 484.54979L855.29492 384zM563.24072 105.8064000000001L489.81836 136.2190000000001L593.65088 179.231zM332.77246 105.8003000000001L302.3588900000001 179.2241300000001L406.19873 136.2168zM332.7587900000001 662.1892200000001L406.1796900000001 631.7802800000001L302.3496100000001 588.76928zM200.21777 425.811L169.80908 499.2236L243.22168 529.63766zM243.23193 238.3486000000001L169.80566 268.75973L200.21875 342.18917zM285.041 221.03271L217.53613 384L285.03222 546.9590000000001L447.99072 614.4636399999999L610.959 546.96729L678.4638799999999 384.00879L610.96729 221.0410000000001L448.0092900000001 153.5363600000001zM563.2275199999999 662.1997099999999L593.6406099999999 588.77613L489.80127 631.7832000000001zM652.7695199999999 529.6508799999999L726.1938399999999 499.2404799999999L695.7812399999999 425.81836zM695.7832 342.19873L726.1997 268.77222L652.77587 238.35889zM736 529.81519L635.4502 571.46L593.80469 672H736zM580.5498 704L580.54052 704.0095200000001L580.56347 704zM315.43994 704H315.43652L315.44824 704.00488H315.4497zM302.186 672L260.54 571.45L160 529.79736V672zM141.252 484.54687L182.8999 384L141.25439 283.45093L40.70508 384zM128 251.4500000000001V251.4365700000001L127.99512 251.4482900000001V251.4551300000001zM160 238.1848600000001L260.5498 196.54L302.19531 96H160zM315.4502 64L315.45948 63.9904800000001L315.43652 64zM580.54493 63.99512L580.5498 64H580.56347L580.5517500000001 63.99512zM593.81494 96L635.46 196.55L736 238.19507V96zM768 251.4500000000001L768.00977 251.4600000000001L768 251.43652zM862.269 422.2808100000001L780.25582 504.2942400000001L838.28512 528.33306A411.59617000000003 411.59617000000003 0 0 0 862.269 422.28076zM826.01025 557.8855L768 533.85474V649.833A413.39487 413.39487 0 0 0 826.01025 557.8855zM713.833 704H597.85449L621.88574 762.01A413.39791 413.39791 0 0 0 713.833 704zM592.333 774.28516L568.2944299999999 716.25586L486.28076 798.269A411.58149 411.58149 0 0 0 592.333 774.28516zM409.71924 798.269L327.70557 716.25582L303.667 774.28516A411.58149 411.58149 0 0 0 409.71924 798.269zM274.11424 762.01L298.14551 704H182.167A413.39791 413.39791 0 0 0 274.11426 762.01zM128 649.833V533.85474L69.98975 557.8855A413.39487 413.39487 0 0 0 128 649.833zM57.71484 528.333L115.74414 504.29418L33.731 422.28076A411.59616000000005 411.59616000000005 0 0 0 57.71484 528.3330000000001zM33.731 345.71924L115.74418 263.7058100000001L57.71484 239.6670000000001A411.59616000000005 411.59616000000005 0 0 0 33.731 345.71924zM69.98975 210.1145L128 234.14526V118.167A413.39487 413.39487 0 0 0 69.98975 210.1145zM182.167 64H298.14551L274.11426 5.99A413.39791 413.39791 0 0 0 182.167 64zM303.6670000000001 -6.28516L327.70557 51.74414L409.71924 -30.269A411.58149 411.58149 0 0 0 303.667 -6.28516zM486.28076 -30.269L568.29443 51.74418L592.3330000000001 -6.28512A411.58149 411.58149 0 0 0 486.28076 -30.269zM621.88576 5.99L597.85449 64H713.833A413.39791 413.39791 0 0 0 621.88574 5.99zM768 118.167V234.14526L826.01025 210.1145A413.39487 413.39487 0 0 0 768 118.167zM0 384C0 136.57643 200.57643 -64 448 -64S896 136.57643 896 384S695.42357 832 448 832S0 631.4235699999999 0 384z" />
    <glyph glyph-name="grafx-alpha"
      unicode="&#xF0A5;"
      horiz-adv-x="1024" d="M960 896H64A64 64 0 0 1 0 832V-64A64 64 0 0 1 64 -128H960A64 64 0 0 1 1024 -64V832A64 64 0 0 1 960 896zM960 -64H512V127.8012700000001C370.50537 127.8012700000001 255.80127 242.5053700000001 255.80127 384.0000000000001S370.5053700000001 640.1987300000001 512 640.1987300000001V832H960zM768.19873 384C768.19873 525.49463 653.4946299999999 640.1987300000001 511.9999999999999 640.1987300000001V127.8012700000001C653.49463 127.8012700000001 768.19873 242.50537 768.19873 384z" />
    <glyph glyph-name="grafx-bezier"
      unicode="&#xF0A6;"
      horiz-adv-x="1024" d="M928 752A96.06425 96.06425 0 0 1 844.342 703.0407700000001C802.51363 704.42477 750.89473 698.45361 697.77437 673.50586Q645.5598299999999 648.98328 602.77657 605.73386L640.87252 720.02219A48.05093 48.05093 0 1 1 610.5213200000001 730.15964L543.85742 530.168A552.759 552.759 0 0 1 516.25427 479.90067C514.84326 479.9624 513.426 480 512 480A95.95365000000001 95.95365000000001 0 0 1 448.30383 312.24243C410.03564 234.96948 360.3193300000001 181.50171 299.88383 152.83105C265.94401 136.7312000000001 229.25395 128.67211 190.52995 128.7788000000001A96.05682 96.05682 0 1 1 179.65458 64.95312Q185.16958 64.77075 190.90531 64.7666C230.5684 64.7676 277.77738 71.74023 326.22562 94.49414Q378.44016 119.01672 421.22342 162.2661400000001L383.12744 47.978A48.05139 48.05139 0 1 1 413.47864 37.8403L480.14258 237.832A552.759 552.759 0 0 1 507.74573 288.09933C509.15674 288.0376 510.574 288 512 288A95.95365000000001 95.95365000000001 0 0 1 575.69617 455.75757C613.96436 533.03052 663.6806700000001 586.49829 724.11617 615.16895C758.05587 631.2688 794.74679 639.3252 833.4703 639.21973A96.00346 96.00346 0 1 1 928 752zM640 784A16 16 0 1 0 624 768A15.999929999999999 15.999929999999999 0 0 0 640 784zM128 112A32 32 0 1 0 96 144A31.999940000000002 31.999940000000002 0 0 0 128 112zM384 -16A16 16 0 1 0 400 0A16.00009 16.00009 0 0 0 384 -16zM512 352A32 32 0 1 0 544 384A31.999940000000002 31.999940000000002 0 0 0 512 352zM928 624A32 32 0 1 0 960 656A31.999940000000002 31.999940000000002 0 0 0 928 624z" />
    <glyph glyph-name="grafx-cmy"
      unicode="&#xF0A7;"
      horiz-adv-x="960" d="M799.77563 244.37451C886.64929 301.59375 944 399.98657 944 511.79C944 688.52108 800.7312 831.79 624 831.79A318.63459 318.63459 0 0 1 480 797.61731A318.63459 318.63459 0 0 1 336 831.79C159.2688 831.79 16 688.52108 16 511.79C16 399.98653 73.35071 301.59371 160.22437 244.37447C166.23877 72.93335 307.092 -64.21 480 -64.21S793.76123 72.93335 799.77563 244.37451zM845.7 639.79C907.68 532.44991 883.0701200000001 398.88 793.56011 319.9399000000001A320.26067 320.26067 0 0 1 655.82011 523.18001A320.24459 320.24459 0 0 1 544 755.02C656.79 792.24 783.98 746.7 845.7 639.79zM734.76 281.01A255.21700000000004 255.21700000000004 0 0 0 544 268.62A319.76393 319.76393 0 0 1 649.56006 447.62A255.984 255.984 0 0 0 734.76 281.01zM480.01 723.46A256.09 256.09 0 0 0 588.01 557.05A319.81869 319.81869 0 0 1 372.02 557.03A255.64476999999997 255.64476999999997 0 0 0 480.01 723.46zM114.3 639.79C176.02 746.7 303.21 792.24 416 755.02A320.24459 320.24459 0 0 1 304.17993 523.1800000000001A320.26067 320.26067 0 0 1 166.43993 319.93989C76.92993 398.88 52.32007 532.45 114.3 639.79zM310.39 447.62A319.779 319.779 0 0 1 415.96 268.62A255.21422 255.21422 0 0 0 225.2 281.01A256.01609 256.01609 0 0 0 310.39 447.62zM480 -0.21C354.06006 -0.21 249.37 90.7299399999999 227.99 210.52A320.15379 320.15379 0 0 1 480 226.01A320.15379 320.15379 0 0 1 732.01 210.52C710.63 90.73 605.93994 -0.21 480 -0.21z" />
    <glyph glyph-name="grafx-cubic-spline"
      unicode="&#xF0A8;"
      horiz-adv-x="1280" d="M1184 192C1183.78552 192 1183.57269 191.99316 1183.35858 191.9917L1036.8230600000002 597.7827A95.98022000000002 95.98022000000002 0 1 1 885.491 704H394.509A95.99077 95.99077 0 1 1 243.177 597.78271L96.64136 191.9917C96.42725 191.99316 96.21448 192 96 192A96.1071 96.1071 0 1 1 156.823 170.2172900000001L171.23731 210.1337900000001A749.416 749.416 0 0 0 231.23531 293.7822300000001C342.59033 427.96387 480.11914 496 640 496C799.54932 496 936.85693 428.22949 1048.1084 294.57129A747.77283 747.77283 0 0 0 1108.80023 210.03L1123.1770000000001 170.21726A95.94943 95.94943 0 1 1 1184 192zM1184 64A32 32 0 1 0 1216 96A32 32 0 0 0 1184 64zM976 704A32 32 0 1 0 944 672A32 32 0 0 0 976 704zM304 704A32 32 0 1 0 272 672A31.999940000000002 31.999940000000002 0 0 0 304 704zM96 64A32 32 0 1 0 128 96A31.999940000000002 31.999940000000002 0 0 0 96 64zM900.52979 460.96C821.10254 505.44434 733.44727 528 640 528S458.89746 505.44434 379.47021 460.96C317.73046 426.38187 260.90942 378.58524 210.49658 318.85209L303.35864 576.0083C303.57275 576.00684 303.78564 576 304 576A96.16256 96.16256 0 0 1 394.509 640H885.491A96.16256 96.16256 0 0 1 976 576C976.21442 576 976.42725 576.00684 976.64136 576.0083L1069.50336 318.85205C1019.09058 378.58521 962.26947 426.38184 900.52979 460.96z" />
    <glyph glyph-name="grafx-dimensions"
      unicode="&#xF0A9;"
      horiz-adv-x="1024" d="M767.90625 610.32764C767.88672 610.59912 767.87109 610.87064 767.84473 611.14164C767.81446 611.45316 767.77246 611.7607800000001 767.7334000000001 612.0698600000001C767.70703 612.27445 767.68555 612.4795300000001 767.6552800000001 612.68412C767.6064500000001 613.0195699999999 767.54591 613.35112 767.4863300000001 613.68312C767.4550800000001 613.86085 767.4267600000001 614.03912 767.3916 614.21632C767.32519 614.55323 767.2490200000001 614.88575 767.17187 615.21876C767.13187 615.39356 767.09472 615.56837 767.05078 615.74269C766.97168 616.06447 766.88278 616.38283 766.7929700000001 616.70021C766.7402400000001 616.88771 766.6894500000001 617.0747200000001 766.6337900000001 617.26121C766.54492 617.5561299999999 766.44824 617.84715 766.3505900000001 618.13865C766.2802800000002 618.3486499999999 766.2119200000001 618.55906 766.1377000000001 618.76853C766.0449300000001 619.02683 765.9462900000001 619.2822 765.8477000000001 619.5375300000001C765.7549300000002 619.77776 765.6621500000001 620.0175300000001 765.5645000000002 620.2557899999999C765.4727000000001 620.47552 765.3760200000002 620.6923099999999 765.2803200000002 620.9096C765.1621600000002 621.17767 765.0439900000002 621.44524 764.9180200000002 621.71087C764.8311100000002 621.89398 764.7393100000002 622.0741499999999 764.6484900000002 622.2557899999999C764.5029800000002 622.54779 764.3564900000001 622.83979 764.2012200000001 623.12879C764.1201700000001 623.28016 764.0342200000001 623.4281100000001 763.9512200000001 623.57801C763.7783700000001 623.88612 763.6055200000002 624.19373 763.4219200000001 624.49744C763.3428200000001 624.62928 763.2588300000001 624.75818 763.1777800000001 624.88855C762.9844200000001 625.20007 762.78911 625.51013 762.5830500000001 625.8158000000001C762.4990500000001 625.9408000000001 762.4102 626.0623800000001 762.3252400000001 626.18641C762.1152400000001 626.48866 761.9053200000001 626.7904100000001 761.6846200000001 627.0868C761.5869600000001 627.21864 761.4834500000001 627.34559 761.3828600000002 627.47596C761.1680200000002 627.75575 760.9531700000001 628.03602 760.7275900000002 628.30996C760.5957500000002 628.4701200000001 760.4570800000002 628.6244100000001 760.3223200000002 628.78213C760.1192000000002 629.0199200000001 759.9190000000002 629.25967 759.7070900000002 629.49307C759.4873600000002 629.73526 759.2578700000003 629.96866 759.0313100000002 630.20401C758.8955700000001 630.34463 758.7666600000002 630.4891700000001 758.6279900000002 630.6278400000001C758.4942000000002 630.76163 758.3545500000001 630.8861400000001 758.2188100000002 631.017C757.9776000000002 631.2494200000001 757.7393200000001 631.4833100000001 757.4922500000002 631.7079200000001C757.2637300000002 631.91492 757.0283800000002 632.1112400000001 756.7959600000003 632.31046C756.6328700000003 632.45011 756.4736900000003 632.5931700000001 756.3086600000003 632.72892C756.0381500000003 632.95109 755.7627600000003 633.16251 755.4863900000003 633.37492C755.3526000000003 633.4784400000001 755.2207700000002 633.58492 755.0850200000002 633.68644C754.7920200000002 633.90373 754.4951800000002 634.11076 754.1973200000002 634.3172999999999C754.0693900000002 634.40617 753.9424400000003 634.4979599999999 753.8125500000002 634.58488C753.5117700000002 634.78752 753.2061000000002 634.9794099999999 752.8994600000002 635.17082C752.7646900000002 635.25482 752.6309100000002 635.34172 752.4941900000002 635.42424C752.1943900000002 635.60442 751.8916500000003 635.77531 751.5879400000002 635.94524C751.4336400000002 636.03118 751.2813000000002 636.1195600000001 751.1250500000002 636.2030500000001C750.8398900000002 636.35637 750.5518100000002 636.5009 750.2637200000003 636.64446C750.0781700000002 636.73675 749.8945800000002 636.83046 749.7080600000003 636.91887C749.4453600000003 637.0433800000001 749.1807200000003 637.1600800000001 748.9160600000002 637.27727C748.6953600000003 637.37444 748.4756300000003 637.4725800000001 748.2529700000002 637.56536C748.0176200000002 637.6625300000001 747.7812900000002 637.75336 747.5439700000003 637.84466C747.2861600000003 637.9447600000001 747.0273700000002 638.04486 746.7656500000003 638.1381200000001C746.5596000000003 638.21185 746.3515900000003 638.27972 746.1435800000003 638.34906C745.8496300000003 638.4472000000001 745.5566700000003 638.5443700000001 745.2588100000003 638.63422C745.0752200000003 638.6894 744.8896700000003 638.7396900000001 744.7051000000002 638.79145C744.3847900000003 638.88178 744.0654500000003 638.9711400000001 743.7412300000002 639.0517C743.5683800000002 639.0947000000001 743.3955300000002 639.13129 743.2217000000002 639.17133C742.8877000000002 639.24848 742.5537000000002 639.32514 742.2158400000002 639.3915400000001C742.0390800000002 639.4262100000001 741.8623200000002 639.45454 741.6865400000002 639.4862700000001C741.3525400000002 639.54584 741.0195400000001 639.6059 740.6836100000002 639.6552200000001C740.4795100000001 639.6854900000001 740.2754100000002 639.70698 740.0722800000002 639.7328600000001C739.7627100000002 639.77241 739.4531400000002 639.8144 739.1416200000002 639.84468C738.8711100000003 639.87105 738.5996200000002 639.8866800000001 738.3291200000002 639.9062C738.0801200000002 639.92427 737.8320500000002 639.9476999999999 737.5820500000002 639.95991Q736.7910500000002 639.99873 736.0000500000002 639.99991H608A32 32 0 0 1 608 575.99991H658.74414L320 237.25586V288A32 32 0 0 1 256 288V160A32.00033 32.00033 0 0 1 288 128H416A32 32 0 0 1 416 192H365.25586L704 530.74414V480A32 32 0 0 1 768 480V608Q768 608.7909999999999 767.96 609.582C767.94824 609.832 767.9248 610.0790999999999 767.90625 610.32764zM128 0H896V768H128zM192 704H832V64H192zM160 896A31.99971 31.99971 0 0 1 128 864V800H192V864A31.99971 31.99971 0 0 1 160 896zM864 896A32 32 0 0 1 832 864V800H896V864A32 32 0 0 1 864 896zM832 -96A32 32 0 0 1 896 -96V-32H832zM128 -96A32 32 0 0 1 192 -96V-32H128zM0 32A31.99971 31.99971 0 0 1 32 0H96V64H32A31.99971 31.99971 0 0 1 0 32zM992 64H928V0H992A32 32 0 0 1 992 64zM992 768H928V704H992A32 32 0 0 1 992 768zM0 736A31.99971 31.99971 0 0 1 32 704H96V768H32A31.99971 31.99971 0 0 1 0 736z" />
    <glyph glyph-name="grafx-dpi"
      unicode="&#xF0AA;"
      horiz-adv-x="864" d="M672 800A96 96 0 0 1 864 800A96 96 0 0 1 672 800M576 592A80 80 0 0 1 736 592A80 80 0 0 1 576 592M704 416A64 64 0 0 1 832 416A64 64 0 0 1 704 416M480 416A64 64 0 0 1 608 416A64 64 0 0 1 480 416M256 416A64 64 0 0 1 384 416A64 64 0 0 1 256 416M32 416A64 64 0 0 1 160 416A64 64 0 0 1 32 416M736 160A32 32 0 0 1 800 160A32 32 0 0 1 736 160M512 160A32 32 0 0 1 576 160A32 32 0 0 1 512 160M288 160A32 32 0 0 1 352 160A32 32 0 0 1 288 160M64 160A32 32 0 0 1 128 160A32 32 0 0 1 64 160M352 592A80 80 0 0 1 512 592A80 80 0 0 1 352 592M128 592A80 80 0 0 1 288 592A80 80 0 0 1 128 592M608 272A48 48 0 0 1 704 272A48 48 0 0 1 608 272M384 272A48 48 0 0 1 480 272A48 48 0 0 1 384 272M160 272A48 48 0 0 1 256 272A48 48 0 0 1 160 272M640 48A16 16 0 0 1 672 48A16 16 0 0 1 640 48M416 48A16 16 0 0 1 448 48A16 16 0 0 1 416 48M192 48A16 16 0 0 1 224 48A16 16 0 0 1 192 48M448 800A96 96 0 0 1 640 800A96 96 0 0 1 448 800M224 800A96 96 0 0 1 416 800A96 96 0 0 1 224 800M0 800A96 96 0 0 1 192 800A96 96 0 0 1 0 800M431.999 0A16.00017 16.00017 0 0 1 415.999 -16V-127.999H447.999V-16A16.00017 16.00017 0 0 1 431.999 0zM351.999 -63.999A16.00017 16.00017 0 0 1 335.999 -79.999V-127.999H367.999V-79.999A16.00017 16.00017 0 0 1 351.999 -63.999zM271.999 -63.999A16.00017 16.00017 0 0 1 255.999 -79.999V-127.999H287.999V-79.999A16.00017 16.00017 0 0 1 271.999 -63.999zM191.999 -63.999A16.00017 16.00017 0 0 1 175.999 -79.999V-127.999H207.999V-79.999A16.00017 16.00017 0 0 1 191.999 -63.999zM111.999 -63.999A16.00017 16.00017 0 0 1 95.999 -79.999V-127.999H127.999V-79.999A16.00017 16.00017 0 0 1 111.999 -63.999zM31.999 0A16.00017 16.00017 0 0 1 15.999 -16V-127.999H47.999V-16A16.00017 16.00017 0 0 1 31.999 0zM832 0A16.00017 16.00017 0 0 1 816 -16V-127.999H848V-16A16.00017 16.00017 0 0 1 832 0zM752 -63.999A16.00017 16.00017 0 0 1 736 -79.999V-127.999H768V-79.999A16.00017 16.00017 0 0 1 752 -63.999zM672 -63.999A16.00017 16.00017 0 0 1 656 -79.999V-127.999H688V-79.999A16.00017 16.00017 0 0 1 672 -63.999zM592 -63.999A16.00017 16.00017 0 0 1 576 -79.999V-127.999H608V-79.999A16.00017 16.00017 0 0 1 592 -63.999zM512 -63.999A16.00017 16.00017 0 0 1 496 -79.999V-127.999H528V-79.999A16.00017 16.00017 0 0 1 512 -63.999z" />
    <glyph glyph-name="grafx-height"
      unicode="&#xF0AB;"
      horiz-adv-x="768" d="M704 896H64A64 64 0 0 1 0 832V-64A64 64 0 0 1 64 -128H704A63.99973000000001 63.99973000000001 0 0 1 768 -64V832A63.99973000000001 63.99973000000001 0 0 1 704 896zM704 -64H64V832H704zM310.62793 214.62793A32.00073 32.00073 0 0 1 265.37207 169.37207L361.37207 73.37207A32.00248 32.00248 0 0 1 406.62793 73.37207L502.62793 169.37207A32.00073 32.00073 0 0 1 457.37207 214.62793L416 173.25537V594.7446299999999L457.37207 553.3720699999999A32.00073 32.00073 0 0 1 502.62793 598.6279299999999L406.62793 694.6279299999999A32.00248 32.00248 0 0 1 361.37207 694.6279299999999L265.37207 598.6279299999999A32.00073 32.00073 0 0 1 310.62793 553.3720699999999L352 594.7446299999999V173.25537z" />
    <glyph glyph-name="grafx-layers"
      unicode="&#xF0AC;"
      horiz-adv-x="1024" d="M1024 592A64.0008 64.0008 0 0 1 983.40186 651.56836L535.4018599999999 827.56836A64.00409 64.00409 0 0 1 488.5981499999999 827.56836L40.5981499999999 651.56836A64.00045 64.00045 0 0 1 40.5981499999999 532.43164L153.69678 488L40.59814 443.56836A64.00045 64.00045 0 0 1 40.59814 324.43164L153.69678 280L40.59814 235.56836A64.00045 64.00045 0 0 1 40.59814 116.43164L488.59814 -59.56836A64.00409 64.00409 0 0 1 535.40185 -59.56836L983.40185 116.43164A64.00045 64.00045 0 0 1 983.40185 235.56836L870.30322 280L983.40185 324.43164A64.00045 64.00045 0 0 1 983.40185 443.56836L870.30322 488L983.40185 532.43164A64.0008 64.0008 0 0 1 1024 592zM488.59814 148.43164A64.00409 64.00409 0 0 1 535.40185 148.43164L782.78808 245.61914L960 176L512 0L64 176L241.21191 245.61914zM512 208L64 384L241.21191 453.61914L488.59814 356.43164A64.00409 64.00409 0 0 1 535.40185 356.43164L782.78808 453.61914L960 384zM512 416L64 592L512 768L960 592z" />
    <glyph glyph-name="grafx-ppi"
      unicode="&#xF0AD;"
      horiz-adv-x="960" d="M8 128H56A8 8 0 0 0 64 120V72A8 8 0 0 0 56 64H8A8 8 0 0 0 0 72V120A8 8 0 0 0 8 128zM136 128H184A8 8 0 0 0 192 120V72A8 8 0 0 0 184 64H136A8 8 0 0 0 128 72V120A8 8 0 0 0 136 128zM264 128H312A8 8 0 0 0 320 120V72A8 8 0 0 0 312 64H264A8 8 0 0 0 256 72V120A8 8 0 0 0 264 128zM392 128H440A8 8 0 0 0 448 120V72A8 8 0 0 0 440 64H392A8 8 0 0 0 384 72V120A8 8 0 0 0 392 128zM520 128H568A8 8 0 0 0 576 120V72A8 8 0 0 0 568 64H520A8 8 0 0 0 512 72V120A8 8 0 0 0 520 128zM648 128H696A8 8 0 0 0 704 120V72A8 8 0 0 0 696 64H648A8 8 0 0 0 640 72V120A8 8 0 0 0 648 128zM776 128H824A8 8 0 0 0 832 120V72A8 8 0 0 0 824 64H776A8 8 0 0 0 768 72V120A8 8 0 0 0 776 128zM904 128H952A8 8 0 0 0 960 120V72A8 8 0 0 0 952 64H904A8 8 0 0 0 896 72V120A8 8 0 0 0 904 128zM16 384H176A16 16 0 0 0 192 368V208A16 16 0 0 0 176 192H16A16 16 0 0 0 0 208V368A16 16 0 0 0 16 384zM272 384H432A16 16 0 0 0 448 368V208A16 16 0 0 0 432 192H272A16 16 0 0 0 256 208V368A16 16 0 0 0 272 384zM528 384H688A16 16 0 0 0 704 368V208A16 16 0 0 0 688 192H528A16 16 0 0 0 512 208V368A16 16 0 0 0 528 384zM784 384H944A16 16 0 0 0 960 368V208A16 16 0 0 0 944 192H784A16 16 0 0 0 768 208V368A16 16 0 0 0 784 384zM544 896H928A32 32 0 0 0 960 864V480A32 32 0 0 0 928 448H544A32 32 0 0 0 512 480V864A32 32 0 0 0 544 896zM32 896H416A32 32 0 0 0 448 864V480A32 32 0 0 0 416 448H32A32 32 0 0 0 0 480V864A32 32 0 0 0 32 896zM480 0A16.00017 16.00017 0 0 1 464 -16V-127.999H496V-16A16.00017 16.00017 0 0 1 480 0zM400 -63.999A16.00017 16.00017 0 0 1 384 -79.999V-127.999H416V-79.999A16.00017 16.00017 0 0 1 400 -63.999zM320 -63.999A16.00017 16.00017 0 0 1 304 -79.999V-127.999H336V-79.999A16.00017 16.00017 0 0 1 320 -63.999zM240 -63.999A16.00017 16.00017 0 0 1 224 -79.999V-127.999H256V-79.999A16.00017 16.00017 0 0 1 240 -63.999zM160 -63.999A16.00017 16.00017 0 0 1 144 -79.999V-127.999H176V-79.999A16.00017 16.00017 0 0 1 160 -63.999zM80 0A16.00017 16.00017 0 0 1 64 -16V-127.999H96V-16A16.00017 16.00017 0 0 1 80 0zM880.001 0A16.00017 16.00017 0 0 1 864.001 -16V-127.999H896.001V-16A16.00017 16.00017 0 0 1 880.001 0zM800.001 -63.999A16.00017 16.00017 0 0 1 784.001 -79.999V-127.999H816.001V-79.999A16.00017 16.00017 0 0 1 800.001 -63.999zM720.001 -63.999A16.00017 16.00017 0 0 1 704.001 -79.999V-127.999H736.001V-79.999A16.00017 16.00017 0 0 1 720.001 -63.999zM640.001 -63.999A16.00017 16.00017 0 0 1 624.001 -79.999V-127.999H656.001V-79.999A16.00017 16.00017 0 0 1 640.001 -63.999zM560.001 -63.999A16.00017 16.00017 0 0 1 544.001 -79.999V-127.999H576.001V-79.999A16.00017 16.00017 0 0 1 560.001 -63.999z" />
    </font>
</defs>
</svg>
