<svg xmlns="http://www.w3.org/2000/svg" viewBox="0 0 1024 1024"><title>grafx-resolution</title><path d="M960,0H64A64.00012,64.00012,0,0,0,0,64V960a64,64,0,0,0,64,64H960a63.99973,63.99973,0,0,0,64-64V64A63.99981,63.99981,0,0,0,960,0Zm0,960H64V64H960Z"/><path d="M416,544h64v64a32,32,0,0,0,64,0V544h64a32,32,0,0,0,0-64H544V416a32,32,0,0,0-64,0v64H416a32,32,0,0,0,0,64Z"/><path d="M720,336a31.89615,31.89615,0,0,0,22.627-9.373L832,237.25391V288a32,32,0,0,0,64,0V160c0-.05762-.00391-.11426-.00391-.17163-.00293-.46863-.0127-.93713-.03613-1.40527-.0127-.27075-.03809-.53833-.05762-.80737-.01855-.25049-.0332-.50122-.05762-.75134-.03125-.32776-.0752-.65173-.11621-.97644-.02441-.188-.04492-.37622-.07227-.56372-.05078-.34985-.11328-.6958-.17578-1.04175-.0293-.16333-.05566-.32715-.08789-.49023-.06836-.34937-.14746-.69482-.22754-1.04-.03711-.16187-.07129-.324-.11133-.48535-.083-.335-.17578-.666-.26953-.99683-.04883-.17334-.0957-.34692-.14746-.51953-.09277-.30884-.19434-.614-.2959-.91895-.06543-.1958-.12988-.39185-.19922-.58667-.09766-.27417-.20215-.54492-.30762-.81567-.08594-.22363-.17187-.44751-.26367-.66968-.09863-.2373-.20312-.47144-.30664-.70605-.11133-.25-.2207-.49976-.33789-.74744-.09668-.20349-.19824-.40369-.29883-.60474-.13574-.27136-.27148-.5426-.416-.81091-.09375-.17529-.19336-.34741-.29-.52075-.15918-.28369-.31836-.56714-.4873-.84692-.09668-.16064-.19824-.31763-.29785-.4762-.17676-.2821-.35254-.56409-.53906-.84167-.10742-.1604-.2207-.31665-.33105-.4751-.18652-.2666-.37109-.53369-.56641-.7959-.13281-.1792-.27344-.353-.41016-.52954-.17969-.23206-.35742-.4657-.54492-.69385-.19531-.23779-.39941-.46777-.60059-.69971-.14062-.16089-.27539-.32459-.41895-.48328q-1.06934-1.18066-2.251-2.25134c-.16309-.14746-.33105-.2854-.49512-.429-.22852-.198-.4541-.39819-.6875-.58984-.23437-.1925-.47363-.37451-.71094-.55933-.1709-.13159-.33789-.2666-.51074-.3949-.27051-.20129-.5459-.39233-.82031-.58386-.14941-.10376-.29687-.21045-.44727-.31177-.28711-.19275-.5791-.37573-.87109-.55823-.14844-.0929-.2959-.18823-.44629-.27881-.28906-.17444-.583-.33984-.877-.50427-.16309-.09119-.32422-.18433-.48828-.27271-.28027-.15027-.56348-.29236-.84766-.43372-.1875-.09387-.375-.18921-.56543-.27954-.26172-.12415-.52637-.24109-.791-.35767-.21973-.097-.43848-.19495-.66113-.28723-.2373-.09851-.47754-.19019-.7168-.28271-.25488-.09839-.50879-.19714-.7666-.28931-.21289-.07593-.42676-.14563-.64062-.2168-.28711-.09583-.57422-.19116-.86426-.27893-.19238-.058-.38574-.11011-.5791-.16443-.31152-.08765-.623-.17456-.9375-.25305-.18457-.04578-.37012-.08545-.55469-.12781-.32129-.074-.64355-.14783-.96875-.21191-.19336-.03833-.38867-.06958-.583-.10425-.31543-.05615-.63086-.1134-.94922-.16016-.22656-.03345-.4541-.05811-.68066-.08667-.28711-.03589-.57227-.075-.86133-.10327-.30957-.0304-.61816-.04907-.92773-.07056-.21094-.0144-.41895-.03479-.63086-.04517q-.80566-.03992-1.61328-.04028H736a32,32,0,0,0,0,64h50.74609l-89.373,89.373A32,32,0,0,0,720,336Z"/><path d="M128.04,865.5769c.0127.27075.03809.53833.05762.80737.01855.25049.03271.50122.05713.75134.03174.32776.07568.65173.11719.97644.02441.188.04395.37622.07178.56372.05127.34985.11328.6958.17578,1.04175.0293.16333.05566.32715.0874.49023.06885.34937.14746.69482.22754,1.04.0376.16187.07178.324.11182.48535.0835.335.17578.666.269.99683.04932.17334.0957.34692.14795.51953.09277.30884.19434.614.29639.91895.06543.1958.12891.39185.19824.58667.09814.27417.20264.54492.30811.81567.08643.22363.17188.44751.26367.66968.09863.2373.20313.47144.30713.70605.11035.25.22021.49976.33789.74744.09619.20349.19824.40369.29883.60474.13574.27136.27148.5426.41553.81091.09375.17529.19287.34741.29.52075.15918.28369.31885.56714.4873.84692.09668.16064.19824.31763.29736.4762.17676.2821.35352.56409.53955.84167.10791.1604.2207.31665.33105.4751.186.2666.37109.53369.56641.7959.13281.1792.27295.353.41016.52954.18018.23206.35742.4657.54492.69385.19531.23779.39941.46777.60107.69971.14014.16089.2749.32458.41846.48328q1.06934,1.18066,2.25146,2.25134c.1626.14746.33008.2854.49512.429.22754.198.45361.39819.687.58984.23291.19177.47168.373.709.55713.1709.13269.33936.26855.51318.39771.26807.19946.541.38867.814.57861.15186.10584.30176.21448.45557.31763.28369.19067.57227.37158.86084.55212.15234.09509.30273.1925.45605.285.28711.17261.57715.33606.86768.49878.166.093.33105.188.49854.27808.27637.14819.55518.28809.83447.42749.19336.09644.38525.19434.58057.28687.25586.12122.51367.23511.772.34912.22656.1001.45215.20093.68115.2959.23047.09546.46289.18433.69531.27417.26221.10156.52441.20313.79.2981.20361.07251.40869.1394.61377.20764.2959.09888.5918.19714.8916.28772.18213.05481.36523.104.54785.15552.32178.09082.644.18079.97021.26172.17041.04248.3418.079.5127.11841.33594.07764.67188.1543,1.01123.22119.17627.03467.35254.06274.52881.09448.3335.05981.6665.12,1.00342.16943.20313.02979.40723.05151.61084.07764.31006.03931.61865.08118.93115.11157.27051.02661.5415.04211.8125.06177.24854.01782.49609.04126.74658.05347q.79028.039,1.582.04H288a32,32,0,0,0,0-64H237.25391l89.373-89.373A31.99934,31.99934,0,0,0,281.373,697.373L192,786.74609V736a32,32,0,0,0-64,0V864c0,.05762.00391.11426.00439.17163C128.00684,864.64026,128.01709,865.10876,128.04,865.5769Z"/></svg>