<svg xmlns="http://www.w3.org/2000/svg" viewBox="0 0 1024 1024" role="img"><path d="M928 144a96.064 96.064 0 00-83.658 48.96c-41.828-1.385-93.447 4.586-146.568 29.534q-52.214 24.523-94.997 67.772l38.096-114.288a48.05 48.05 0 10-30.352-10.138l-66.664 199.992a552.759 552.759 0 00-27.603 50.267A97.27 97.27 0 00512 416a95.954 95.954 0 00-63.696 167.758c-38.268 77.273-87.985 130.74-148.42 159.41-33.94 16.1-70.63 24.16-109.354 24.053a96.057 96.057 0 10-10.875 63.826q5.515.182 11.25.186c39.663 0 86.872-6.973 135.32-29.727q52.215-24.523 94.998-67.772l-38.096 114.288a48.051 48.051 0 1030.352 10.138l66.664-199.992a552.759 552.759 0 0027.603-50.267c1.41.061 2.828.099 4.254.099a95.954 95.954 0 0063.696-167.758c38.268-77.273 87.985-130.74 148.42-159.411 33.94-16.1 70.63-24.156 109.354-24.05A96.003 96.003 0 10928 144zm-288-32a16 16 0 11-16 16 16 16 0 0116-16zM128 784a32 32 0 11-32-32 32 32 0 0132 32zm256 128a16 16 0 1116-16 16 16 0 01-16 16zm128-368a32 32 0 1132-32 32 32 0 01-32 32zm416-272a32 32 0 1132-32 32 32 0 01-32 32z"/></svg>