<svg xmlns="http://www.w3.org/2000/svg" viewBox="0 0 1024 1024"><title>grafx-layers</title><path d="M1024,304a64.0008,64.0008,0,0,0-40.59814-59.56836l-448-176a64.00409,64.00409,0,0,0-46.80371,0l-448,176a64.00045,64.00045,0,0,0,0,119.13672L153.69678,408,40.59814,452.43164a64.00045,64.00045,0,0,0,0,119.13672L153.69678,616,40.59814,660.43164a64.00045,64.00045,0,0,0,0,119.13672l448,176a64.00409,64.00409,0,0,0,46.80371,0l448-176a64.00045,64.00045,0,0,0,0-119.13672L870.30322,616l113.09863-44.43164a64.00045,64.00045,0,0,0,0-119.13672L870.30322,408l113.09863-44.43164A64.0008,64.0008,0,0,0,1024,304ZM488.59814,747.56836a64.00409,64.00409,0,0,0,46.80371,0l247.38623-97.1875L960,720,512,896,64,720l177.21191-69.61914ZM512,688,64,512l177.21191-69.61914,247.38623,97.1875a64.00409,64.00409,0,0,0,46.80371,0l247.38623-97.1875L960,512Zm0-208L64,304,512,128,960,304Z"/></svg>