<svg xmlns="http://www.w3.org/2000/svg" viewBox="0 0 864 1024" role="img"><circle cx="768" cy="96" r="96"/><circle cx="656" cy="304" r="80"/><circle cx="768" cy="480" r="64"/><circle cx="544" cy="480" r="64"/><circle cx="320" cy="480" r="64"/><circle cx="96" cy="480" r="64"/><circle cx="768" cy="736" r="32"/><circle cx="544" cy="736" r="32"/><circle cx="320" cy="736" r="32"/><circle cx="96" cy="736" r="32"/><circle cx="432" cy="304" r="80"/><circle cx="208" cy="304" r="80"/><circle cx="656" cy="624" r="48"/><circle cx="432" cy="624" r="48"/><circle cx="208" cy="624" r="48"/><circle cx="656" cy="848" r="16"/><circle cx="432" cy="848" r="16"/><circle cx="208" cy="848" r="16"/><circle cx="544" cy="96" r="96"/><circle cx="320" cy="96" r="96"/><circle cx="96" cy="96" r="96"/><path d="M431.999 896a16 16 0 00-16 16v111.999h32V912a16 16 0 00-16-16zm-80 63.999a16 16 0 00-16 16v48h32v-48a16 16 0 00-16-16zm-80 0a16 16 0 00-16 16v48h32v-48a16 16 0 00-16-16zm-80 0a16 16 0 00-16 16v48h32v-48a16 16 0 00-16-16zm-80 0a16 16 0 00-16 16v48h32v-48a16 16 0 00-16-16zm-80-63.999a16 16 0 00-16 16v111.999h32V912a16 16 0 00-16-16zM832 896a16 16 0 00-16 16v111.999h32V912a16 16 0 00-16-16zm-80 63.999a16 16 0 00-16 16v48h32v-48a16 16 0 00-16-16zm-80 0a16 16 0 00-16 16v48h32v-48a16 16 0 00-16-16zm-80 0a16 16 0 00-16 16v48h32v-48a16 16 0 00-16-16zm-80 0a16 16 0 00-16 16v48h32v-48a16 16 0 00-16-16z"/></svg>