<svg xmlns="http://www.w3.org/2000/svg" viewBox="0 0 1024 1024" role="img"><path d="M960 0H64A64 64 0 000 64v896a64 64 0 0064 64h896a64 64 0 0064-64V64a64 64 0 00-64-64zm0 960H64V64h896z"/><path d="M416 544h64v64a32 32 0 0064 0v-64h64a32 32 0 000-64h-64v-64a32 32 0 00-64 0v64h-64a32 32 0 000 64zm304-208a31.896 31.896 0 0022.627-9.373L832 237.254V288a32 32 0 0064 0V160c0-.058-.004-.114-.004-.172a32.126 32.126 0 00-.036-1.405c-.013-.27-.038-.538-.058-.807-.018-.25-.033-.501-.057-.752-.032-.327-.075-.651-.116-.976-.025-.188-.045-.376-.073-.564-.05-.35-.113-.696-.176-1.042-.029-.163-.055-.327-.087-.49-.069-.35-.148-.695-.228-1.04-.037-.162-.071-.324-.111-.485a31.002 31.002 0 00-.27-.997c-.049-.173-.096-.347-.147-.52a32.502 32.502 0 00-.296-.918c-.066-.196-.13-.392-.2-.587a29.753 29.753 0 00-.307-.816c-.086-.223-.172-.447-.264-.67-.098-.237-.203-.47-.306-.705-.112-.25-.221-.5-.338-.748a28.318 28.318 0 00-.3-.605 30.083 30.083 0 00-.415-.81c-.094-.176-.193-.348-.29-.521-.16-.284-.318-.567-.487-.847-.097-.16-.199-.318-.298-.476-.177-.283-.353-.565-.54-.842-.107-.16-.22-.317-.33-.475-.187-.267-.371-.534-.567-.796-.133-.18-.273-.353-.41-.53-.18-.232-.357-.465-.545-.693-.195-.238-.4-.468-.6-.7-.141-.161-.276-.325-.42-.483q-1.069-1.181-2.25-2.252c-.163-.147-.331-.285-.495-.429-.229-.198-.455-.398-.688-.59-.234-.192-.474-.374-.71-.559-.172-.132-.339-.267-.512-.395-.27-.201-.546-.392-.82-.584-.15-.104-.297-.21-.447-.312-.287-.192-.58-.375-.871-.558-.149-.093-.296-.188-.447-.279-.289-.174-.583-.34-.877-.504-.163-.091-.324-.184-.488-.273-.28-.15-.563-.292-.848-.433-.187-.094-.375-.19-.565-.28a31.027 31.027 0 00-.791-.357c-.22-.097-.438-.195-.661-.288-.237-.098-.478-.19-.717-.282-.255-.099-.509-.198-.767-.29-.212-.076-.426-.145-.64-.217a32.08 32.08 0 00-.864-.278c-.193-.058-.386-.11-.58-.165a32.674 32.674 0 00-.937-.253c-.185-.046-.37-.085-.555-.128a31.142 31.142 0 00-.968-.212c-.194-.038-.39-.07-.583-.104-.316-.056-.631-.113-.95-.16-.226-.034-.454-.058-.68-.087-.287-.036-.573-.075-.862-.103-.31-.03-.618-.05-.927-.07-.211-.015-.42-.035-.631-.046q-.806-.04-1.614-.04H736a32 32 0 000 64h50.746l-89.373 89.373A32 32 0 00720 336zM128.04 865.577c.013.27.038.538.058.807.018.25.032.501.057.752.031.327.075.651.117.976.024.188.044.376.072.564.051.35.113.696.175 1.042.03.163.056.327.088.49.069.35.147.695.227 1.04.038.162.072.324.112.485.084.335.176.666.27.997.049.173.095.347.147.52.093.308.195.613.297.918.065.196.129.392.198.587.098.274.202.545.308.816.086.223.172.447.264.67.098.237.203.47.307.705.11.25.22.5.338.748.096.203.198.404.298.605.136.271.272.542.416.81.094.176.193.348.29.521.16.284.319.567.487.847.097.16.199.318.298.476.176.283.353.565.54.842.107.16.22.317.33.475.186.267.371.534.567.796.132.18.273.353.41.53.18.232.357.465.545.693.195.238.4.468.6.7.141.161.276.325.42.483q1.069 1.181 2.25 2.252c.163.147.33.285.496.429.227.198.453.398.687.59.233.191.472.373.709.557.17.132.34.268.513.398.268.199.541.388.814.578.152.106.302.215.456.318.283.19.572.371.86.552.153.095.303.192.456.285.288.172.578.336.868.499.166.093.331.188.499.278.276.148.555.288.834.427.194.097.385.195.58.287.257.121.514.235.773.35.226.1.452.2.68.295.231.096.464.184.696.274.262.102.525.203.79.298.204.073.409.14.614.208.296.099.592.197.892.288.182.055.365.104.547.155.322.091.644.181.97.262.171.042.342.079.513.118.336.078.672.155 1.012.222.176.034.352.062.528.094.334.06.667.12 1.004.17.203.03.407.051.61.077.31.04.62.081.932.112.27.026.541.042.812.061.249.018.496.042.747.054q.79.039 1.582.04h128a32 32 0 000-64h-50.746l89.373-89.373a32 32 0 00-45.254-45.254L192 786.746V736a32 32 0 00-64 0v128c0 .058.004.114.004.172.003.468.013.937.036 1.405z"/></svg>