<svg xmlns="http://www.w3.org/2000/svg" viewBox="0 0 864 1024"><circle cx="768" cy="96" r="96"/><circle cx="656" cy="304" r="80"/><circle cx="768" cy="480" r="64"/><circle cx="544" cy="480" r="64"/><circle cx="320" cy="480" r="64"/><circle cx="96" cy="480" r="64"/><circle cx="768" cy="736" r="32"/><circle cx="544" cy="736" r="32"/><circle cx="320" cy="736" r="32"/><circle cx="96" cy="736" r="32"/><circle cx="432" cy="304" r="80"/><circle cx="208" cy="304" r="80"/><circle cx="656" cy="624" r="48"/><circle cx="432" cy="624" r="48"/><circle cx="208" cy="624" r="48"/><circle cx="656" cy="848" r="16"/><circle cx="432" cy="848" r="16"/><circle cx="208" cy="848" r="16"/><circle cx="544" cy="96" r="96"/><circle cx="320" cy="96" r="96"/><circle cx="96" cy="96" r="96"/><path d="M431.999,896a16.00017,16.00017,0,0,0-16,16v111.999h32V912A16.00017,16.00017,0,0,0,431.999,896Z"/><path d="M351.999,959.999a16.00017,16.00017,0,0,0-16,16v48h32v-48A16.00017,16.00017,0,0,0,351.999,959.999Z"/><path d="M271.999,959.999a16.00017,16.00017,0,0,0-16,16v48h32v-48A16.00017,16.00017,0,0,0,271.999,959.999Z"/><path d="M191.999,959.999a16.00017,16.00017,0,0,0-16,16v48h32v-48A16.00017,16.00017,0,0,0,191.999,959.999Z"/><path d="M111.999,959.999a16.00017,16.00017,0,0,0-16,16v48h32v-48A16.00017,16.00017,0,0,0,111.999,959.999Z"/><path d="M31.999,896a16.00017,16.00017,0,0,0-16,16v111.999h32V912A16.00017,16.00017,0,0,0,31.999,896Z"/><path d="M832,896a16.00017,16.00017,0,0,0-16,16v111.999h32V912A16.00017,16.00017,0,0,0,832,896Z"/><path d="M752,959.999a16.00017,16.00017,0,0,0-16,16v48h32v-48A16.00017,16.00017,0,0,0,752,959.999Z"/><path d="M672,959.999a16.00017,16.00017,0,0,0-16,16v48h32v-48A16.00017,16.00017,0,0,0,672,959.999Z"/><path d="M592,959.999a16.00017,16.00017,0,0,0-16,16v48h32v-48A16.00017,16.00017,0,0,0,592,959.999Z"/><path d="M512,959.999a16.00017,16.00017,0,0,0-16,16v48h32v-48A16.00017,16.00017,0,0,0,512,959.999Z"/></svg>