<svg xmlns="http://www.w3.org/2000/svg" viewBox="0 0 960 1024"><rect y="768" width="64" height="64" rx="8" ry="8"/><rect x="128" y="768" width="64" height="64" rx="8" ry="8"/><rect x="256" y="768" width="64" height="64" rx="8" ry="8"/><rect x="384" y="768" width="64" height="64" rx="8" ry="8"/><rect x="512" y="768" width="64" height="64" rx="8" ry="8"/><rect x="640" y="768" width="64" height="64" rx="8" ry="8"/><rect x="768" y="768" width="64" height="64" rx="8" ry="8"/><rect x="896" y="768" width="64" height="64" rx="8" ry="8"/><rect y="512" width="192" height="192" rx="16" ry="16"/><rect x="256" y="512" width="192" height="192" rx="16" ry="16"/><rect x="512" y="512" width="192" height="192" rx="16" ry="16"/><rect x="768" y="512" width="192" height="192" rx="16" ry="16"/><rect x="512" width="448" height="448" rx="32" ry="32"/><rect width="448" height="448" rx="32" ry="32"/><path d="M480,896a16.00017,16.00017,0,0,0-16,16v111.999h32V912A16.00017,16.00017,0,0,0,480,896Z"/><path d="M400,959.999a16.00017,16.00017,0,0,0-16,16v48h32v-48A16.00017,16.00017,0,0,0,400,959.999Z"/><path d="M320,959.999a16.00017,16.00017,0,0,0-16,16v48h32v-48A16.00017,16.00017,0,0,0,320,959.999Z"/><path d="M240,959.999a16.00017,16.00017,0,0,0-16,16v48h32v-48A16.00017,16.00017,0,0,0,240,959.999Z"/><path d="M160,959.999a16.00017,16.00017,0,0,0-16,16v48h32v-48A16.00017,16.00017,0,0,0,160,959.999Z"/><path d="M80,896a16.00017,16.00017,0,0,0-16,16v111.999H96V912A16.00017,16.00017,0,0,0,80,896Z"/><path d="M880.001,896a16.00017,16.00017,0,0,0-16,16v111.999h32V912A16.00017,16.00017,0,0,0,880.001,896Z"/><path d="M800.001,959.999a16.00017,16.00017,0,0,0-16,16v48h32v-48A16.00017,16.00017,0,0,0,800.001,959.999Z"/><path d="M720.001,959.999a16.00017,16.00017,0,0,0-16,16v48h32v-48A16.00017,16.00017,0,0,0,720.001,959.999Z"/><path d="M640.001,959.999a16.00017,16.00017,0,0,0-16,16v48h32v-48A16.00017,16.00017,0,0,0,640.001,959.999Z"/><path d="M560.001,959.999a16.00017,16.00017,0,0,0-16,16v48h32v-48A16.00017,16.00017,0,0,0,560.001,959.999Z"/></svg>