<svg xmlns="http://www.w3.org/2000/svg" viewBox="0 0 1024 1024" role="img"><path d="M831.776 372.584C825.76 201.144 684.908 64 512 64S198.239 201.143 192.224 372.584C105.351 429.804 48 528.197 48 640c0 176.731 143.269 320 320 320a318.635 318.635 0 00144-34.173A318.635 318.635 0 00656 960c176.731 0 320-143.269 320-320 0-111.803-57.35-210.196-144.224-267.416zM576.04 396.83a255.214 255.214 0 01190.76 12.39 256.016 256.016 0 01-85.19 166.61 319.779 319.779 0 00-105.57-179zm46.77 217.96h-.01a255.823 255.823 0 01-221.56 0 255.846 255.846 0 01110.78-186.48C574.01 470.61 615.5 540 622.81 614.79zM512 128c125.94 0 230.63 90.94 252.01 210.73A320.154 320.154 0 00512 354.22a320.154 320.154 0 00-252.01-15.49C281.37 218.94 386.06 128 512 128zm-64 268.83a319.764 319.764 0 00-105.56 179 255.984 255.984 0 01-85.2-166.61A255.217 255.217 0 01448 396.83zM146.3 768c-61.98-107.34-37.37-240.91 52.14-319.85a320.26 320.26 0 00137.74 203.24A320.245 320.245 0 00448 883.23C335.21 920.45 208.02 874.91 146.3 768zm365.69 83.67a256.09 256.09 0 01-108-166.41 319.819 319.819 0 00215.99-.02 255.645 255.645 0 01-107.99 166.43zM877.7 768C815.98 874.91 688.79 920.45 576 883.23a320.245 320.245 0 00111.82-231.84 320.26 320.26 0 00137.74-203.24C915.07 527.09 939.68 660.66 877.7 768z"/></svg>