<svg xmlns="http://www.w3.org/2000/svg" viewBox="0 0 1024 1024"><title>grafx-bezier</title><path d="M928,144a96.06425,96.06425,0,0,0-83.658,48.95923c-41.82837-1.384-93.44727,4.58716-146.56763,29.53491q-52.21454,24.52258-94.9978,67.772l38.09595-114.28833a48.05093,48.05093,0,1,0-30.3512-10.13745L543.85742,365.832a552.759,552.759,0,0,0-27.60315,50.26733C514.84326,416.0376,513.426,416,512,416a95.95365,95.95365,0,0,0-63.69617,167.75757c-38.26819,77.27295-87.9845,130.74072-148.42,159.41138-33.93982,16.09985-70.62988,24.15894-109.35388,24.05225a96.05682,96.05682,0,1,0-10.87537,63.82568q5.515.18237,11.25073.18652c39.66309-.001,86.87207-6.97363,135.32031-29.72754q52.21454-24.52258,94.9978-67.772L383.12744,848.022a48.05139,48.05139,0,1,0,30.3512,10.1377L480.14258,658.168a552.759,552.759,0,0,0,27.60315-50.26733C509.15674,607.9624,510.574,608,512,608a95.95365,95.95365,0,0,0,63.69617-167.75757c38.26819-77.27295,87.9845-130.74072,148.42-159.41138,33.9397-16.09985,70.63062-24.15625,109.35413-24.05078A96.00346,96.00346,0,1,0,928,144ZM640,112a16,16,0,1,1-16,16A15.99993,15.99993,0,0,1,640,112ZM128,784a32,32,0,1,1-32-32A31.99994,31.99994,0,0,1,128,784ZM384,912a16,16,0,1,1,16-16A16.00009,16.00009,0,0,1,384,912ZM512,544a32,32,0,1,1,32-32A31.99994,31.99994,0,0,1,512,544ZM928,272a32,32,0,1,1,32-32A31.99994,31.99994,0,0,1,928,272Z"/></svg>