<svg xmlns="http://www.w3.org/2000/svg" viewBox="0 0 960 1024" role="img"><rect width="64" height="64" y="768" rx="8" ry="8"/><rect width="64" height="64" x="128" y="768" rx="8" ry="8"/><rect width="64" height="64" x="256" y="768" rx="8" ry="8"/><rect width="64" height="64" x="384" y="768" rx="8" ry="8"/><rect width="64" height="64" x="512" y="768" rx="8" ry="8"/><rect width="64" height="64" x="640" y="768" rx="8" ry="8"/><rect width="64" height="64" x="768" y="768" rx="8" ry="8"/><rect width="64" height="64" x="896" y="768" rx="8" ry="8"/><rect width="192" height="192" y="512" rx="16" ry="16"/><rect width="192" height="192" x="256" y="512" rx="16" ry="16"/><rect width="192" height="192" x="512" y="512" rx="16" ry="16"/><rect width="192" height="192" x="768" y="512" rx="16" ry="16"/><rect width="448" height="448" x="512" rx="32" ry="32"/><rect width="448" height="448" rx="32" ry="32"/><path d="M480 896a16 16 0 00-16 16v111.999h32V912a16 16 0 00-16-16zm-80 63.999a16 16 0 00-16 16v48h32v-48a16 16 0 00-16-16zm-80 0a16 16 0 00-16 16v48h32v-48a16 16 0 00-16-16zm-80 0a16 16 0 00-16 16v48h32v-48a16 16 0 00-16-16zm-80 0a16 16 0 00-16 16v48h32v-48a16 16 0 00-16-16zM80 896a16 16 0 00-16 16v111.999h32V912a16 16 0 00-16-16zm800.001 0a16 16 0 00-16 16v111.999h32V912a16 16 0 00-16-16zm-80 63.999a16 16 0 00-16 16v48h32v-48a16 16 0 00-16-16zm-80 0a16 16 0 00-16 16v48h32v-48a16 16 0 00-16-16zm-80 0a16 16 0 00-16 16v48h32v-48a16 16 0 00-16-16zm-80 0a16 16 0 00-16 16v48h32v-48a16 16 0 00-16-16z"/></svg>