<svg xmlns="http://www.w3.org/2000/svg" viewBox="0 0 1280 1024" role="img"><path d="M1184 704c-.214 0-.427.007-.641.008l-146.536-405.79A95.98 95.98 0 10885.491 192H394.509a95.99 95.99 0 10-151.332 106.217L96.641 704.008c-.214-.001-.427-.008-.641-.008a96.107 96.107 0 1060.823 21.783l14.414-39.917a749.416 749.416 0 0159.998-83.648C342.59 468.036 480.12 400 640 400c159.55 0 296.857 67.77 408.108 201.429a747.773 747.773 0 0160.692 84.541l14.377 39.813A95.95 95.95 0 101184 704zm0 128a32 32 0 1132-32 32 32 0 01-32 32zM976 192a32 32 0 11-32 32 32 32 0 0132-32zm-672 0a32 32 0 11-32 32 32 32 0 0132-32zM96 832a32 32 0 1132-32 32 32 0 01-32 32zm804.53-396.96C821.103 390.556 733.447 368 640 368s-181.103 22.556-260.53 67.04c-61.74 34.578-118.56 82.375-168.973 142.108l92.862-257.156c.214.001.427.008.641.008a96.163 96.163 0 0090.509-64h490.982A96.163 96.163 0 00976 320c.214 0 .427-.007.641-.008l92.862 257.156c-50.412-59.733-107.234-107.53-168.973-142.108z"/></svg>