<svg xmlns="http://www.w3.org/2000/svg" viewBox="0 0 1024 1024" role="img"><path d="M1024 304a64 64 0 00-40.598-59.568l-448-176a64.004 64.004 0 00-46.804 0l-448 176a64 64 0 000 119.136L153.697 408 40.598 452.432a64 64 0 000 119.136L153.697 616 40.598 660.432a64 64 0 000 119.136l448 176a64.004 64.004 0 0046.804 0l448-176a64 64 0 000-119.136L870.303 616l113.099-44.432a64 64 0 000-119.136L870.303 408l113.099-44.432A64 64 0 001024 304zM488.598 747.568a64.004 64.004 0 0046.804 0l247.386-97.187L960 720 512 896 64 720l177.212-69.62zM512 688L64 512l177.212-69.62 247.386 97.188a64.004 64.004 0 0046.804 0l247.386-97.187L960 512zm0-208L64 304l448-176 448 176z"/></svg>