<svg xmlns="http://www.w3.org/2000/svg" viewBox="0 0 1024 1024"><path d="M831.77563,372.58447C825.76123,201.14331,684.908,64,512,64S198.23877,201.14331,192.22437,372.58447C105.35071,429.80371,48,528.19653,48,640c0,176.73108,143.2688,320,320,320a318.63459,318.63459,0,0,0,144-34.17273A318.63459,318.63459,0,0,0,656,960c176.7312,0,320-143.26892,320-320C976,528.19653,918.64929,429.80371,831.77563,372.58447ZM576.04,396.83A255.21422,255.21422,0,0,1,766.8,409.22,256.01609,256.01609,0,0,1,681.61,575.83,319.779,319.779,0,0,0,576.04,396.83Zm46.77,217.96008h-.01a255.82277,255.82277,0,0,1-221.56006,0,255.8464,255.8464,0,0,1,110.78-186.48C574.01,470.61,615.5,540,622.81006,614.79ZM512,128c125.93994,0,230.63,90.93994,252.01,210.73A320.15379,320.15379,0,0,0,512,354.22a320.15379,320.15379,0,0,0-252.01-15.49C281.37,218.93994,386.06006,128,512,128ZM448,396.83a319.76393,319.76393,0,0,0-105.56006,179,255.984,255.984,0,0,1-85.2-166.61A255.217,255.217,0,0,1,448,396.83ZM146.3,768c-61.98-107.34009-37.37012-240.91,52.13989-319.8501A320.26067,320.26067,0,0,0,336.17993,651.39,320.24459,320.24459,0,0,0,448,883.23C335.21,920.45,208.02,874.90991,146.3,768ZM511.99,851.66992A256.09,256.09,0,0,1,403.99,685.26a319.81869,319.81869,0,0,0,215.99-.02A255.64477,255.64477,0,0,1,511.99,851.66992ZM877.7,768C815.98,874.90991,688.79,920.45,576,883.23A320.24459,320.24459,0,0,0,687.82007,651.39a320.26067,320.26067,0,0,0,137.74-203.24011C915.07007,527.09,939.67993,660.65991,877.7,768Z"/></svg>