<svg xmlns="http://www.w3.org/2000/svg" viewBox="0 0 1024 1024"><title>grafx-dimensions</title><path d="M767.90625,285.67236c-.01953-.27148-.03516-.543-.06152-.814-.03027-.31152-.07227-.61914-.11133-.92822-.02637-.20459-.04785-.40967-.07812-.61426-.04883-.33545-.10937-.667-.16895-.999-.03125-.17773-.05957-.356-.09473-.5332-.06641-.33691-.14258-.66943-.21973-1.00244-.04-.1748-.07715-.34961-.12109-.52393-.0791-.32178-.168-.64014-.25781-.95752-.05273-.1875-.10352-.37451-.15918-.561-.08887-.29492-.18555-.58594-.2832-.87744-.07031-.21-.13867-.42041-.21289-.62988-.09277-.2583-.19141-.51367-.29-.769-.09277-.24023-.18555-.48-.2832-.71826-.0918-.21973-.18848-.43652-.28418-.65381-.11816-.26807-.23633-.53564-.3623-.80127-.08691-.18311-.17871-.36328-.26953-.54492-.14551-.292-.292-.584-.44727-.873-.08105-.15137-.167-.29932-.25-.44922-.17285-.30811-.3457-.61572-.5293-.91943-.0791-.13184-.16309-.26074-.24414-.39111-.19336-.31152-.38867-.62158-.59473-.92725-.084-.125-.17285-.24658-.25781-.37061-.21-.30225-.41992-.604-.64062-.90039-.09766-.13184-.20117-.25879-.30176-.38916-.21484-.27979-.42969-.56006-.65527-.834-.13184-.16016-.27051-.31445-.40527-.47217-.20312-.23779-.40332-.47754-.61523-.71094-.21973-.24219-.44922-.47559-.67578-.71094-.13574-.14062-.26465-.28516-.40332-.42383-.13379-.13379-.27344-.2583-.40918-.38916-.24121-.23242-.47949-.46631-.72656-.69092-.22852-.207-.46387-.40332-.69629-.60254-.16309-.13965-.32227-.28271-.4873-.41846-.27051-.22217-.5459-.43359-.82227-.646-.13379-.10352-.26562-.21-.40137-.31152-.293-.21729-.58984-.42432-.8877-.63086-.12793-.08887-.25488-.18066-.38477-.26758-.30078-.20264-.60645-.39453-.91309-.58594-.13477-.084-.26855-.1709-.40527-.25342-.2998-.18018-.60254-.35107-.90625-.521-.1543-.08594-.30664-.17432-.46289-.25781-.28516-.15332-.57324-.29785-.86133-.44141-.18555-.09229-.36914-.186-.55566-.27441-.2627-.12451-.52734-.24121-.792-.3584-.2207-.09717-.44043-.19531-.66309-.28809-.23535-.09717-.47168-.188-.709-.2793-.25781-.1001-.5166-.2002-.77832-.29346-.20605-.07373-.41406-.1416-.62207-.21094-.29395-.09814-.58691-.19531-.88477-.28516-.18359-.05518-.36914-.10547-.55371-.15723-.32031-.09033-.63965-.17969-.96387-.26025-.17285-.043-.3457-.07959-.51953-.11963-.334-.07715-.668-.15381-1.00586-.22021-.17676-.03467-.35352-.063-.5293-.09473-.334-.05957-.667-.11963-1.00293-.16895-.2041-.03027-.4082-.05176-.61133-.07764-.30957-.03955-.61914-.08154-.93066-.11182-.27051-.02637-.542-.042-.8125-.06152-.249-.01807-.49707-.0415-.74707-.05371q-.791-.03882-1.582-.04H608a32,32,0,0,0,0,64h50.74414L320,658.74414V608a32,32,0,0,0-64,0V736a32.00033,32.00033,0,0,0,32,32H416a32,32,0,0,0,0-64H365.25586L704,365.25586V416a32,32,0,0,0,64,0V288q0-.791-.04-1.582C767.94824,286.168,767.9248,285.9209,767.90625,285.67236Z"/><path d="M128,896H896V128H128Zm64-704H832V832H192Z"/><path d="M160,0a31.99971,31.99971,0,0,0-32,32V96h64V32A31.99971,31.99971,0,0,0,160,0Z"/><path d="M864,0a32,32,0,0,0-32,32V96h64V32A32,32,0,0,0,864,0Z"/><path d="M832,992a32,32,0,0,0,64,0V928H832Z"/><path d="M128,992a32,32,0,0,0,64,0V928H128Z"/><path d="M0,864a31.99971,31.99971,0,0,0,32,32H96V832H32A31.99971,31.99971,0,0,0,0,864Z"/><path d="M992,832H928v64h64a32,32,0,0,0,0-64Z"/><path d="M992,128H928v64h64a32,32,0,0,0,0-64Z"/><path d="M0,160a31.99971,31.99971,0,0,0,32,32H96V128H32A31.99971,31.99971,0,0,0,0,160Z"/></svg>