<svg xmlns="http://www.w3.org/2000/svg" viewBox="0 0 960 1024" role="img"><path d="M799.776 651.625C886.649 594.406 944 496.013 944 384.21c0-176.731-143.269-320-320-320a318.635 318.635 0 00-144 34.173A318.635 318.635 0 00336 64.21c-176.731 0-320 143.269-320 320 0 111.803 57.35 210.196 144.224 267.416C166.24 823.066 307.092 960.21 480 960.21s313.761-137.143 319.776-308.585zM845.7 256.21c61.98 107.34 37.37 240.91-52.14 319.85a320.26 320.26 0 00-137.74-203.24A320.245 320.245 0 00544 140.98c112.79-37.22 239.98 8.32 301.7 115.23zM734.76 614.99A255.217 255.217 0 01544 627.38a319.764 319.764 0 00105.56-179 255.984 255.984 0 0185.2 166.61zM480.01 172.54a256.09 256.09 0 01108 166.41 319.819 319.819 0 00-215.99.02 255.645 255.645 0 01107.99-166.43zM114.3 256.21C176.02 149.3 303.21 103.76 416 140.98a320.245 320.245 0 00-111.82 231.84 320.26 320.26 0 00-137.74 203.24C76.93 497.12 52.32 363.55 114.3 256.21zm196.09 192.17a319.779 319.779 0 00105.57 179 255.214 255.214 0 01-190.76-12.39 256.016 256.016 0 0185.19-166.61zM480 896.21c-125.94 0-230.63-90.94-252.01-210.73A320.154 320.154 0 00480 669.99a320.154 320.154 0 00252.01 15.49C710.63 805.27 605.94 896.21 480 896.21z"/></svg>