<svg xmlns="http://www.w3.org/2000/svg" viewBox="0 0 768 1024"><path d="M704,0H64A64,64,0,0,0,0,64V960a64,64,0,0,0,64,64H704a63.99973,63.99973,0,0,0,64-64V64A63.99973,63.99973,0,0,0,704,0Zm0,960H64V64H704Z"/><path d="M310.62793,681.37207a32.00073,32.00073,0,0,0-45.25586,45.25586l96,96a32.00248,32.00248,0,0,0,45.25586,0l96-96a32.00073,32.00073,0,0,0-45.25586-45.25586L416,722.74463V301.25537l41.37207,41.37256a32.00073,32.00073,0,0,0,45.25586-45.25586l-96-96a32.00248,32.00248,0,0,0-45.25586,0l-96,96a32.00073,32.00073,0,0,0,45.25586,45.25586L352,301.25537V722.74463Z"/></svg>