<svg xmlns="http://www.w3.org/2000/svg" viewBox="0 0 1024 1024"><path d="M960,128H64A64,64,0,0,0,0,192V832a64,64,0,0,0,64,64H960a63.99973,63.99973,0,0,0,64-64V192A63.99973,63.99973,0,0,0,960,128Zm0,704H64V192H960Z"/><path d="M297.37207,630.62793a32.00073,32.00073,0,0,0,45.25586-45.25586L301.25537,544H722.74512l-41.373,41.37207a32.00073,32.00073,0,0,0,45.25586,45.25586l96-96a32.00248,32.00248,0,0,0,0-45.25586l-96-96a32.00073,32.00073,0,0,0-45.25586,45.25586L722.74512,480H301.25537l41.37256-41.37207a32.00073,32.00073,0,0,0-45.25586-45.25586l-96,96a32.00248,32.00248,0,0,0,0,45.25586Z"/></svg>