<svg xmlns="http://www.w3.org/2000/svg" viewBox="0 0 1280 1024" role="img"><path d="M491.314 335.838C372.208 219.31 198.85 229.095 88.881 365.246c-118.508 146.724-118.508 384.611 0 531.336 109.968 136.15 283.327 145.936 402.433 29.407v51.735h231.207V23.996H491.314zm-17.656 458.564c-62.075 90.29-162.72 90.29-224.796 0-62.076-90.293-62.076-236.684 0-326.976s162.72-90.292 224.796 0c62.075 90.292 62.075 236.683 0 326.976zm779.549-653.917l-169.426 55.05V17.39h-86.702v178.145l-169.426-55.05-26.792 82.458 169.426 55.05-104.712 144.123 70.144 50.961 104.711-144.121 104.711 144.121 70.144-50.961-104.712-144.123L1280 222.943l-26.793-82.458z"/></svg>