<svg xmlns="http://www.w3.org/2000/svg" viewBox="0 0 1024 1024" role="img"><path d="M621.029 306.514h177.829v43.2H621.029zM357.03 533.71H251.89v120.92h103.08c39.32 0 71.32-13.94 71.32-58.06 0-45.03-26.75-62.63-69.26-62.86zm354.06-72.22c-41.83 0-69.72 26.05-72.46 67.88H780.8c-3.89-42.28-25.83-67.88-69.71-67.88z"/><path d="M960 0H64A64 64 0 000 64v896a64 64 0 0064 64h896a64 64 0 0064-64V64a64 64 0 00-64-64zM368.23 729.6h-212.8V290.74h206.86c75.2 0 140.34 21.26 140.34 108.57 0 44.12-20.57 65.83-59.89 84.58 53.95 15.31 80 62.85 80 117.94 0 89.14-74.74 127.31-154.51 127.77zm499.66-145.14H638.86c0 50.74 26.74 80.68 77.94 80.68 26.51 0 60.57-14.17 69.03-41.37h77.03c-23.77 72.92-72.92 106.97-148.8 106.97-100.12 0-162.52-67.88-162.52-166.85 0-95.55 65.6-168.23 162.52-168.23 99.43 0 154.51 78.4 154.51 172.34 0 5.49-.46 11.2-.68 16.46z"/><path d="M408.69 408.46c0-40.46-31.32-50.06-66.06-50.06h-90.52v102.4h97.6c34.52 0 58.98-15.09 58.98-52.34z"/></svg>