<svg xmlns="http://www.w3.org/2000/svg" viewBox="0 0 1024 1024"><polygon points="433.512 626.567 634.374 512.422 433.512 398.277 433.512 626.567"/><path d="M960,0H64A64,64,0,0,0,0,64V960a64,64,0,0,0,64,64H960a64,64,0,0,0,64-64V64A64,64,0,0,0,960,0ZM879.96484,698.51422c-8.86133,33.33624-34.813,58.44391-67.93848,67.30548C752.31641,782.06586,512,782.06586,512,782.06586s-240.31641,0-300.02637-16.03516c-33.125-8.86151-59.07666-33.96924-67.93848-67.30548C128,638.38239,128,512.63293,128,512.63293s0-125.96039,16.03516-186.09222a96.30626,96.30626,0,0,1,67.93848-68.36047C271.68359,241.93408,512,241.93408,512,241.93408s240.31641,0,300.02637,16.24615a96.30629,96.30629,0,0,1,67.93848,68.36041C896,386.88348,896,512.63293,896,512.63293h0S896,638.38239,879.96484,698.51422Z"/></svg>