<svg xmlns="http://www.w3.org/2000/svg" viewBox="0 0 1024 1024"><title>social-behance-square</title><rect x="621.0286" y="306.5143" width="177.82854" height="43.19999"/><path d="M357.03027,533.71H251.89014V654.63H354.96973c39.32031,0,71.32031-13.94006,71.32031-58.05994C426.29,551.54,399.54,533.93994,357.03027,533.71Z"/><path d="M711.08984,461.49c-41.83008,0-69.71973,26.05-72.46,67.88H780.7998C776.91016,487.09,754.96973,461.49,711.08984,461.49Z"/><path d="M960,0H64A64,64,0,0,0,0,64V960a64,64,0,0,0,64,64H960a64.00035,64.00035,0,0,0,64-64V64A64.00035,64.00035,0,0,0,960,0ZM368.23,729.6H155.43018V290.74H362.29c75.2002,0,140.33984,21.26,140.33984,108.57007,0,44.11987-20.56982,65.83-59.88965,84.58,53.94971,15.30994,80,62.85,80,117.93994C522.74023,690.97,448,729.14,368.23,729.6ZM867.88965,584.46H638.86035c0,50.74,26.73926,80.68005,77.93945,80.68005,26.50977,0,60.57031-14.17,69.03027-41.37h77.03027c-23.77051,72.91992-72.91992,106.97-148.80078,106.97C613.94043,730.74,551.54,662.86,551.54,563.89c0-95.55,65.59961-168.2301,162.51953-168.2301,99.43066,0,154.51074,78.40015,154.51074,172.34009C868.57031,573.49,868.11035,579.2,867.88965,584.46Z"/><path d="M408.68994,408.46c0-40.46-31.31982-50.06006-66.06006-50.06006h-90.52V460.8H349.71C384.23,460.8,408.68994,445.71,408.68994,408.46Z"/></svg>