<svg xmlns="http://www.w3.org/2000/svg" viewBox="0 0 1024 1024"><path d="M960,0H64A64,64,0,0,0,0,64V960a64,64,0,0,0,64,64H960a64,64,0,0,0,64-64V64A64,64,0,0,0,960,0ZM804.33,362.04064c.46,6.44009.46,13.11005.46,19.55014,0,199.40984-151.79991,429.18008-429.18008,429.18008A427.20185,427.20185,0,0,1,144,743.15081a317.80108,317.80108,0,0,0,36.33993,1.83993,302.43648,302.43648,0,0,0,187.2201-64.4,151.04605,151.04605,0,0,1-140.99011-104.65c23.23,3.44986,44.16007,3.44986,68.08-2.76012A150.85836,150.85836,0,0,1,173.9,425.06065v-1.83993a150.74649,150.74649,0,0,0,68.08,19.08993,150.52835,150.52835,0,0,1-67.16007-125.58A148.96235,148.96235,0,0,1,195.29,240.60067a428.31413,428.31413,0,0,0,310.96,157.78c-21.39007-102.34993,55.2-185.38006,147.20009-185.38006a150.30348,150.30348,0,0,1,110.17,47.61017,295.59106,295.59106,0,0,0,95.68-36.34016,150.45374,150.45374,0,0,1-66.24,83.03013c30.36005-3.2201,59.8-11.73011,86.94-23.4601A317.508,317.508,0,0,1,804.33,362.04064Z"/></svg>