<svg xmlns="http://www.w3.org/2000/svg" viewBox="0 0 1024 1024"><title>social-diaspora-a-square</title><path d="M297.77441,501.49023c-34.36621,49.9873-34.36621,131.03223,0,181.01953,34.36621,49.98682,90.085,49.98682,124.45068,0,34.36621-49.9873,34.36621-131.03223,0-181.01953C387.85938,451.50342,332.14063,451.50342,297.77441,501.49023Z"/><path d="M960,0H64A64,64,0,0,0,0,64V960a64,64,0,0,0,64,64H960a64,64,0,0,0,64-64V64A64,64,0,0,0,960,0ZM560,784H432V755.35889c-65.939,64.51221-161.91357,59.09473-222.79395-16.28076-65.60791-81.229-65.60791-212.92725,0-294.15625C270.08643,369.54639,366.061,364.12891,432,428.64111V256H560ZM832.80273,476.40625l-38.833,28.21289L736,424.83081l-57.96973,79.78833-38.833-28.21289,57.97021-79.78882-93.79736-30.47681,14.833-45.65039L712,350.9668v-98.624h48v98.624l93.79688-30.47656,14.833,45.65039-93.79736,30.47681Z"/></svg>