<svg xmlns="http://www.w3.org/2000/svg" viewBox="0 0 1024 1024" role="img"><path d="M440.52 582.81c-3.37 11.21-11.27 38.2-16.2 59.32a1697.632 1697.632 0 00-27.59 186.37 332.203 332.203 0 01-84.96-46.28 760.124 760.124 0 0125.98-119.98 195.178 195.178 0 0117.68-40.82 57.365 57.365 0 0123.75-19.85c10.32-5.03 20.52-9.89 31.24-14.03 6.75-2.5 18.22-6.01 25.38-8.1 3.7-1.08 5.66 0 4.72 3.37zm274.4 96.82a4.79 4.79 0 01-5.3 3.59h-.34c-9.04-1.54-17.81-3.71-26.99-4.72l-6.74-1.01-3.38-.48h-3.37l-13.5-1.28c-2.29-.33-4.58 0-6.74-.47l-6.75-.4h-4.99v3.44l.53 12.08v36.44c0 8.09-.6 16.12-.87 24.15-.28 8.04-1.15 16.13-1.89 24.16a5.263 5.263 0 01-10.46-.47c0-7.96 0-15.93.4-23.89.41-7.96 0-15.99 0-23.95 0-7.96 0-15.93-.4-23.83l-.4-11.94v-17.54h-22.55c-4.58 0-9.17.4-13.49.53-4.32.14-9.17.48-13.5.88-9.17.61-18.35 1.49-27.46 2.5-18.29 2.09-36.64 4.72-54.52 8.24a4.794 4.794 0 01-2.23-9.32c9.25-2.5 18.29-4.45 27.53-6.28 9.24-1.82 18.42-3.3 27.74-4.72 4.58-.74 9.31-1.21 13.96-1.82 4.66-.61 9.32-1.08 13.97-1.49 4.65-.4 9.32-.87 14.04-1.08 4.72-.2 9.38-.67 14.1-.74 7.42-.34 14.84-.4 22.34 0-.81-9.91-1.76-19.76-2.97-29.55l-1.35.13c-.47-3.91-.95-7.89-1.55-11.81-.61-3.91-1.15-7.82-1.89-11.67-.75-3.84-1.35-7.76-2.09-11.61-.75-3.84-1.7-7.76-2.64-11.27a5.263 5.263 0 019.99-3.16c1.49 4.18 2.5 7.96 3.58 12.01s2.02 7.89 2.9 11.87c1.68 8.03 3.04 15.99 4.32 24.02 1.62 10.53 2.7 21.13 3.57 31.65 6.75.34 13.97.81 20.92 1.49a269.493 269.493 0 0155.47 11.67 4.79 4.79 0 013 5.65z"/><path d="M748.75 272.28c-132.35-129.56-344.49-127.86-474.74 3.8-130.26 131.67-129.66 343.82 1.32 474.76 7.35 7.49 15.05 14.24 22.94 20.99a836.722 836.722 0 0125.98-114.72 209.628 209.628 0 0118.96-43.72 61.526 61.526 0 0125.45-21.26c8.97-4.59 54.18-21.93 68.28-26.05a441.808 441.808 0 0197.78-17.48c46.56-2.97 94.74-1.28 139.54 13.97 42.04 14.1 56.28 75.51 66.81 114.72v.06a544.95 544.95 0 0113.97 69.64c128.86-133.02 126.05-345.15-6.29-474.71zm-494.54 240.9a21.864 21.864 0 01-23.35 19.84 23.357 23.357 0 01-22.13-23.69 21.866 21.866 0 0123.62-20.24 23.209 23.209 0 0121.86 24.09zm534.45 1a17.788 17.788 0 01-12.84 4.67 19.574 19.574 0 01-17.68-20.25 19.187 19.187 0 01.54-3.44h-.54c-6.81-2.77-24.63-9.92-31.38-12.01a80.139 80.139 0 01-6.74 30.23 74.943 74.943 0 01-31.72 29.42 3.862 3.862 0 01-5-1.35 3.921 3.921 0 011.22-5.53 64.035 64.035 0 0025.71-25.31 11.328 11.328 0 00-.81-12.88c-14.17-21.67-95.75-28.14-190.76-13.9-103.45 15.44-184.15 49.52-175.45 75.57a20.252 20.252 0 009.11 10.12 3.53 3.53 0 01-.61 2.85 3.48 3.48 0 01-2.56 1.4c-26.32 1.29-37.32-39.07-39.21-82.46a3.334 3.334 0 012.23-3.24c3.11-1.07 6.55-1.89 9.85-2.7a3.317 3.317 0 014.12 3.04 207.08 207.08 0 004.32 33.74c1.15 4.05 3.17 9.72 7.9 4.05 12.14-14.71 35.76-25.1 49.26-30.84 6.4-2.7 9.91-4.72 8.43-15.05-4.73-32.99-2.09-75.98 4.66-97.77a177.734 177.734 0 0180.97-100.82c23.28-13.02 1.96-9.98-3.37-8.83q-8.175 1.755-16.4 4.25A197.364 197.364 0 00333.7 405.35a226.293 226.293 0 00-8.03 55.25c5.79-1.92 12.08-3.54 18.35-5.05a7.357 7.357 0 113.45 14.24h-.81c-7.16.88-14.31 1.82-21.4 3.37l-4.72 1.01h-.61l-5.26 1.22c-3.44.87-6.82 1.75-10.19 2.76h-.41c-7.01 1.9-14.1 4.19-20.84 6.76-6.75 2.56-13.5 5.32-20.25 8.43a2.16 2.16 0 01-2.76-1.02 2.073 2.073 0 01.8-2.62c6.15-4.26 12.89-7.56 19.64-11 6.75-3.45 13.5-6.62 20.24-9.59l3.72-1.55 5.12-2.02a246.592 246.592 0 018.78-62.01 213.504 213.504 0 01138.8-138.95c136.11-41.76 276.67 66.13 269.92 205.01a12.472 12.472 0 010 1.48v.4a1.586 1.586 0 011.21 0l2.43 1.22c6.68 3.44 23.89 11.81 30.23 15.79a17.616 17.616 0 0115.93-8.17v.88a19.443 19.443 0 0117.34 20.58 17.754 17.754 0 01-5.72 12.41z"/><path d="M643.83 428.76l.14 7.69a9.235 9.235 0 01-9.72 9.58 360.038 360.038 0 00-68.15 1.22 9.239 9.239 0 01-9.99-9.51v-7.96a4.31 4.31 0 013.38-4.19 264.242 264.242 0 0180.97-.94 4.033 4.033 0 013.37 4.11zm38.39-61.74a156.83 156.83 0 00-59.24-58.84c-49.39-27.26-119.77-22.48-159.79 19.36l-.47.48-1.01 1.08-.41.47a2.71 2.71 0 00-.54.67c-.87.88-1.68 1.82-2.5 2.77a122.398 122.398 0 00-25.43 59.59 170.687 170.687 0 00-2.44 24.08 10.406 10.406 0 0014.11 9.99 374.054 374.054 0 0192.17-21.19s91.85-12.62 150.68 9.72a3.527 3.527 0 004.26-1.35c6.41-11.27-7.23-42.78-9.39-46.83zm-20.04 2.09c-2.35-1.29-23.95-33.74-91.43-47.24a210.616 210.616 0 00-55.4-1.48 3.441 3.441 0 01-.87-6.75 94.808 94.808 0 0125.43-5.6 148.47 148.47 0 0171.87 10.93 102.224 102.224 0 0148.51 42.52l.07-.14a69.954 69.954 0 012.97 6.75c.34.67-.47 1.35-1.15 1.01z"/><path d="M960 0H64A63.995 63.995 0 000 64v896a63.995 63.995 0 0064 64h896a63.995 63.995 0 0064-64V64a63.995 63.995 0 00-64-64zM512 864c-194.4 0-352-157.6-352-352s157.6-352 352-352 352 157.6 352 352-157.6 352-352 352z"/><path d="M372.23 448.26a22.92 22.92 0 00-9.92-11.4 3.643 3.643 0 00-2.77-.47 13.025 13.025 0 00-6.74 5.19 2.193 2.193 0 00-.45 1.79 2.215 2.215 0 001.05 1.52 20.209 20.209 0 0110.46 14.23 21.843 21.843 0 01-5.33 17.21 2.216 2.216 0 000 2.9 6.761 6.761 0 0010.33.82 19.265 19.265 0 004.79-8.1 37.988 37.988 0 00-1.42-23.69zm0 0a22.92 22.92 0 00-9.92-11.4 3.643 3.643 0 00-2.77-.47 13.025 13.025 0 00-6.74 5.19 2.193 2.193 0 00-.45 1.79 2.215 2.215 0 001.05 1.52 20.209 20.209 0 0110.46 14.23 21.843 21.843 0 01-5.33 17.21 2.216 2.216 0 000 2.9 6.761 6.761 0 0010.33.82 19.265 19.265 0 004.79-8.1 37.988 37.988 0 00-1.42-23.69zm0 0a22.92 22.92 0 00-9.92-11.4 3.643 3.643 0 00-2.77-.47 13.025 13.025 0 00-6.74 5.19 2.193 2.193 0 00-.45 1.79 2.215 2.215 0 001.05 1.52 20.209 20.209 0 0110.46 14.23 21.843 21.843 0 01-5.33 17.21 2.216 2.216 0 000 2.9 6.761 6.761 0 0010.33.82 19.265 19.265 0 004.79-8.1 37.988 37.988 0 00-1.42-23.69z"/></svg>