<svg xmlns="http://www.w3.org/2000/svg" viewBox="0 0 1280 1024"><title>social-diaspora-a</title><path d="M491.31421,335.83789C372.2085,219.30957,198.84912,229.09521,88.88086,365.24609c-118.50781,146.72412-118.50781,384.61133,0,531.33545,109.96826,136.15088,283.32764,145.93652,402.43335,29.40771v51.73438H722.521V23.99609H491.31421Zm-17.65649,458.564c-62.075,90.291-162.71973,90.291-224.79565,0-62.07568-90.29248-62.07568-236.68408,0-326.97607,62.07593-90.2915,162.7207-90.2915,224.79565,0C535.7334,557.71777,535.7334,704.10938,473.65771,794.40186Z"/><polygon points="1253.207 140.485 1083.781 195.535 1083.781 17.39 997.079 17.39 997.079 195.535 827.653 140.485 800.861 222.943 970.287 277.993 865.575 422.116 935.719 473.077 1040.43 328.956 1145.141 473.077 1215.285 422.116 1110.573 277.993 1280 222.943 1253.207 140.485"/></svg>