<svg xmlns="http://www.w3.org/2000/svg" viewBox="0 0 1024 1024"><path d="M960,0H64A64,64,0,0,0,0,64V960a64,64,0,0,0,64,64H960a64.00035,64.00035,0,0,0,64-64V64A64.00035,64.00035,0,0,0,960,0ZM877.25684,341.94287h0Q872.45654,448.57141,728,634.28571,578.85693,827.99994,475.65723,828.11426c-42.74316,0-78.62842-39.31433-108.11426-117.94287-57.6001-210.97144-82.05713-334.6286-129.6001-334.6286-5.48584,0-24.68555,11.42859-57.37158,34.51434l-34.28564-44.34283C230.62842,291.65717,311.08594,209.3714,361.37158,204.8q85.37109-8.22858,105.14258,116.8c46.85742,296.22858,67.65723,341.02856,152.686,206.85718,30.62793-48.45715,47.08594-85.02856,49.14258-110.4,7.77148-74.97144-58.51465-69.94287-103.314-50.74286q53.82788-176.57135,205.94287-171.6571C846.17188,197.94287,881.59961,246.85718,877.25684,341.94287Z"/></svg>