<svg xmlns="http://www.w3.org/2000/svg" viewBox="0 0 1184 1024" role="img"><path d="M926.425 250.85q4.509 6.273 0 12.496-4.557 1.568-7.546 0l-7.547-10.928-18.083-4.655q-4.508-4.705 0-12.497a11.008 11.008 0 0112.055-4.704 57.574 57.574 0 0121.072 20.337zm220.033 212.485a26.075 26.075 0 011.519 7.792l-7.547 10.928v-17.151a13.057 13.057 0 016.028-1.569zM882.713 230.562l7.498 12.496q-6.028 10.928-12.056 14.065l-4.508 6.223a93.327 93.327 0 01-4.508-15.583 4.326 4.326 0 01-3.039-1.568l-6.027 6.223-27.1-6.223q-6.028-7.841 2.99-17.152 9.065-9.41 21.071-4.705zm-55.768 32.833l-7.546-4.704 6.027-3.137 1.47 7.841zm-120.601-79.682l-9.017 10.928-9.066-10.928-7.547-1.568 24.11-4.704zm470.251 234.293q6.028 4.704 1.52 23.424l-9.017 26.56-7.547 9.36-1.52-18.719a36.404 36.404 0 00-1.47-10.928 29.157 29.157 0 00-1.567-9.36l-19.602 9.31a18.138 18.138 0 011.519 7.842q1.519 4.704 3.038 6.272l-21.072 1.568 1.47 6.224 4.508 4.705-7.497 17.151q-1.52 14.065-7.547 15.682l-6.028-9.41-18.131 4.656q-5.98-6.223-5.98-10.928l-4.557-6.223 7.547-9.36q-2.99-6.273-6.027-6.273l-7.547 3.136-7.498 18.72q-10.585 0-13.574 3.137l9.017 12.496 31.657 17.152 1.519 10.977q6.028 1.568 9.066 4.655a46.273 46.273 0 016.027 4.705 61.996 61.996 0 00-3.038 7.84q-1.47 3.088-6.027 6.224l-13.575 9.36 1.52 12.496a51.378 51.378 0 00-21.073 15.633l-4.557 17.152q-16.564 0-21.072 3.136l1.47 23.473-4.509-1.568q-6.027-9.409-12.055-4.704l6.028 20.288a16.34 16.34 0 00-7.547 1.568l-2.99 3.136 6.028 10.928a45.526 45.526 0 011.47 9.41q-9.017 7.791-18.082 9.31-7.498 1.617-12.056 10.977l1.52 18.72q-4.509 10.977-7.547 14.065-15.045 0-22.592 3.136l-9.065 17.152-7.498-3.088q-6.077-1.568-9.066 0l-6.028 12.497q-13.574 0-19.602 6.223l-12.055 10.977 3.039-14.064q4.508-12.496-4.558-14.065l-6.028 4.656-1.47 7.84-15.093 9.36-1.47 17.152h-28.668l-6.028 10.978q-3.038 9.36-15.093 14.064-12.056 4.655-42.194 4.655t-37.684 3.137q-7.547 0-13.575 7.84-4.508 7.792-10.536 10.929l-24.11 7.791-7.547 14.065-10.536 7.84q-7.547 4.656-24.11 4.656l-15.094 7.84-22.591 9.312-16.613-1.52a44.938 44.938 0 00-21.072-4.704h-27.149l-9.066-6.272-18.083 3.136L520.958 896l-13.574-9.36-10.536-10.928-24.11-1.568-9.066-7.84 13.574-17.153 18.083-24.992v-17.152l21.072-23.473v-26.561q0-12.496 4.557-21.856l16.564 4.704q6.028-6.272 6.028-9.409a83.663 83.663 0 01-16.564-20.288l-15.094-21.856-18.082-23.424-12.056-21.905-13.574-21.857-10.536-26.56-22.591-24.993-82.917-121.826-15.093-26.56-15.045-29.698-12.055-7.792a174.858 174.858 0 01-22.64-37.488l-4.509-18.77-13.574-6.223-46.702 9.36q-16.612 0-36.165 6.273L154.695 349.3l-37.733 4.655-21.073 7.841q-13.574 3.136-21.072-3.136l-10.585-12.496-16.563 6.272-13.575-4.704q0-15.633-2.989-18.77l-13.574-18.719q-9.066-6.273-13.575-7.84l1.47-7.793H20.52a36.408 36.408 0 01-1.47-10.928v-7.84l15.044 6.272q7.547-4.655 9.066-7.84l6.028-12.448 12.055 1.568 9.017-26.56-1.47-14.065 7.547 4.656 7.497 7.84q7.547-3.136 9.066-6.272l13.575-17.152L120 213.41l-4.509-10.928-9.016-10.977L92.9 186.85q9.017-14.065 39.204-20.338l48.221-4.655 16.564-10.928 39.204-7.84 60.276-3.137 21.072-4.656a38.444 38.444 0 0124.16-1.568l24.11-1.568q24.11-6.224 34.646-3.136l19.602 1.568 27.149 1.568 40.674 7.84 36.166 3.088 25.63-10.928q9.065 0 19.601 12.496l15.094 10.928h31.657l10.536 12.497-1.47 7.84 9.017 24.993 6.027-3.136 13.575-15.633 15.044 23.424-18.083-6.223q-10.536 0-12.055 15.583l15.094 3.137 6.027 7.84 9.017-3.136q7.547-3.136 15.094 3.136 9.017 4.656 12.055 10.929l9.017 12.496h19.602q0-4.705 1.47-6.273a19.066 19.066 0 013.038-4.655l3.039 15.583H738l4.509-4.655 4.557 7.84 4.509-12.545q19.602 0 22.591-3.136a10.854 10.854 0 00-2.99-7.792l-6.027-7.84q0-7.792 12.055-6.224l21.072 6.272 15.094-1.568 9.017 7.841 3.038 6.224q-13.574-3.137-18.132 1.568-2.94 3.087-1.47 10.928l10.536 9.31q0 10.978 10.585 23.474l6.028-6.223 1.47-12.497 6.077 7.792h25.58q7.547 0 12.055 17.152l4.558 15.682 6.027 4.655 7.547-7.84 24.11 7.84 4.509-7.84 7.547-3.088q6.027-4.705 7.546-7.84v-7.793l-3.038-7.84 21.072 6.272q6.077-6.223 7.547-9.36-2.99-7.84-6.028-7.84l-15.044-3.088v-7.84l4.508-10.929 4.509-9.36q7.547 4.656 9.066 7.841l7.546 10.88 10.537-1.52 10.536-1.568 37.733 32.784 10.536-1.568 10.537 14.064 9.065 4.705q-4.557 6.224 0 14.015l10.537-4.655h10.536l9.065 15.632 9.017 15.584q12.056 0 18.132 3.136l5.979 28.13 16.613 9.36 13.525 4.704q0 7.84-2.99 12.496l2.99 15.632 4.557 9.311-1.519 10.977 6.028-3.136q6.027-7.84 9.066-9.36l6.027-3.136zM796.856 186.899q4.509 4.655 0 14.015-1.519 3.136-9.066 4.704-4.508-4.704 0-14.064 1.47-3.136 9.066-4.655zm308.976 290.5q4.509 4.705 0 12.497l-7.546 3.136-1.47-10.928q0-4.655 1.47-6.223 3.038-1.568 7.546 1.568zm-63.314-76.496q2.99 3.087 2.99 15.584a16.413 16.413 0 01-12.056 1.568q-7.498-4.656-2.99-14.065 2.99-7.84 12.056-3.087zM615.98 193.123l-9.066 17.15 4.509-12.446zm207.977 602.956l-6.028-9.36 6.028-4.704q7.547 1.568 6.028 10.928zm251.738-232.774q-9.066-6.223-12.055-12.447l9.017 6.224 3.038 6.273zM472.738 841.36l7.497-7.792 7.547-4.705zm648.041-404.536l-4.508 9.31-1.47 4.754-1.52-10.977zm7.547 76.545l-2.99 14.016zm-107.027-171.86l4.557 6.273-6.027 1.568-6.028-4.705zM751.527 708.605l-6.028 4.705zm-31.609-526.46l-1.47 7.84zm321.032 173.38l-2.99 7.84zm-6.028 254.63l3.039 4.655-4.558 3.136 1.52-7.84zm-289.374-418.65l-3.038 4.704zm81.348 570.173l-2.94 6.223zM487.782 427.366l-6.028 6.272zm-9.017 448.346l-1.52 7.84 1.471-7.84zm456.726-610.798l2.94 4.705-7.497-3.136 4.508-1.569zm-245.71 424.873l-1.52 6.273 1.47-6.224zm348.18-317.062l-1.52 6.224 1.47-6.224zm-10.586 73.41l-2.989 4.704zm19.602 193.667l-4.508 3.137zM86.873 249.331l-1.52 7.792 1.47-7.841zm1009.845 260.853l-6.028 3.137zm-19.602-10.928l-9.017 1.568zM759.073 833.52l-1.47 4.704zm304.517-301.48zm73.85-104.674a14.28 14.28 0 00-1.518 6.273q0-4.705 1.47-6.273zM77.759 219.634l-1.47 6.223zm857.635 135.89l-6.027 1.569zm-24.11-93.697l-2.99 4.656zM539.09 172.785l-4.508 1.568zm150.74 62.481l-1.52 6.224 1.47-6.224zm-21.073-1.568l-3.038 3.137 2.99-3.137zM474.16 864.784l-1.47 6.224zm544.102-390.52l-2.94-3.137zM647.538 224.338l-3.038-3.136zm483.826 198.372q0-12.496-4.557-20.337a34.04 34.04 0 00-10.536-14.015l-1.47 20.288 10.535 4.704q1.47 4.656 0 7.792zm-117.612-37.488l-2.94-3.137zm60.276 70.273l-7.497-1.569-9.017-14.064 2.989-12.496-13.574 9.409 7.546 9.31 1.47 4.754-18.033 7.792 12.055 1.568a22.22 22.22 0 006.027 4.656 23.696 23.696 0 006.028 1.568l12.055-10.928zm-30.089-28.13l-6.027-4.655-10.585-3.136-4.509-7.84-6.027 6.272-4.509 10.928 12.055 4.704q9.017 0 13.575 4.656zM780.195 257.124l-6.028-3.137-9.017-4.655q-6.028 0-6.028 3.087l1.47 9.41 10.586 6.223zm180.877 332.743l3.038-18.769q0-24.992-18.132-53.121-15.044-28.129-39.204-45.28-19.602-18.77-54.199-32.834l-60.276-26.512-22.64-14.064-33.177-12.496-34.646-10.928-55.768-12.497-18.132-3.136q-13.525 0-21.072 3.136-6.027 1.52-4.508 10.928l18.083 35.921q13.574 24.993 25.63 34.352l13.574 9.36v9.41l15.044 18.72 1.47 12.496q6.077 4.704 9.066 4.704 7.547 4.656 19.602 23.424l16.613 20.288 25.58 37.49 22.64 40.624 10.537 31.216-2.99 20.337 6.028 9.36-6.028 9.36q-4.557 4.705 0 9.41l10.537-3.137 18.082-7.84q7.547 0 25.63-9.312l33.176-15.681 46.702-18.72q28.619-12.496 40.674-24.993l6.028-15.632q0-10.928 3.038-15.633z"/></svg>