<svg xmlns="http://www.w3.org/2000/svg" viewBox="0 0 1024 1024"><path d="M960,0H64A64,64,0,0,0,0,64V960a64,64,0,0,0,64,64H960a64,64,0,0,0,64-64V64A64,64,0,0,0,960,0ZM311.244,666.15883v-.00006H199.33858c-13.20758,0-20.89226-12.72742-14.40851-24.73447L303.31971,433.22247c.24008,0,.24008-.24015,0-.48029l-75.4042-129.67592c-7.20451-13.44786.48016-24.25418,14.40851-24.25418H354.22939q18.731,0,30.97827,20.89219L461.81226,432.502q-4.68237,8.28485-120.31029,211.804C333.09705,659.19479,323.011,666.15883,311.244,666.15883ZM838.83273,152.01772v.00006l-246.86425,433.934v.48029L749.26062,872.19934c6.72383,12.24719.24008,24.25424-14.40851,24.25424H622.94674c-13.2081,0-23.29359-6.96411-30.97827-20.89226L433.47593,586.67215q8.28437-14.76869,248.30526-437.77627c7.92424-13.92815,17.77017-20.89219,30.01742-20.89219H824.42474C838.11249,127.76354,845.55708,139.2903,838.83273,152.01772Z"/></svg>