<svg xmlns="http://www.w3.org/2000/svg" viewBox="0 0 1024 1024" role="img"><path d="M960 0H64A63.995 63.995 0 000 64v896a63.995 63.995 0 0064 64h896a63.995 63.995 0 0064-64V64a63.995 63.995 0 00-64-64zM489.341 258.08c-87.612 0-120.844 22.313-149.545 22.313-18.127 0-40.785-8.925-40.785-37.19V203.04c0-63.965 98.186-87.767 193.352-87.767 131.419 0 302.112 32.727 302.112 243.962v487.924c0 34.214-16.616 50.577-49.849 50.577H672.12c-31.722 0-48.338-13.388-51.36-38.676-4.531 4.462-52.87 53.552-141.992 53.552-146.525 0-249.243-108.593-249.243-246.937 0-232.061 182.778-300.49 368.577-319.828-3.021-52.065-24.169-87.767-108.76-87.767zm-63.443 386.768c0 55.04 27.19 101.155 86.102 101.155 55.89 0 86.102-44.627 86.102-101.155v-159.17c-87.613 19.338-172.204 47.602-172.204 159.17z"/></svg>