<svg xmlns="http://www.w3.org/2000/svg" viewBox="0 0 1024 1024"><title>social-lastfm-square</title><path d="M960,0H64A64,64,0,0,0,0,64V960a64,64,0,0,0,64,64H960a64,64,0,0,0,64-64V64A64,64,0,0,0,960,0ZM713.24561,725.49316h0c-152.25488,0-205.08789-68.68286-233.18555-153.936-39.14453-122.47644-51.63232-202.44629-151.29443-202.44629-53.79346,0-108.30762,38.66406-108.30762,146.97168,0,84.53271,43.22705,137.36572,103.98486,137.36572,68.68311,0,114.31152-51.15186,114.31152-51.15186l28.09717,76.60767s-47.54932,46.58911-146.97168,46.58911c-123.19678,0-191.87939-72.28516-191.87939-206.04858,0-139.04675,68.68262-220.93774,198.12354-220.93774,176.51025,0,194.041,99.42188,242.0708,244.71252C589.32813,607.57959,626.311,654.1687,715.1665,654.1687c59.79736,0,91.49707-13.20825,91.49707-45.86865,0-47.78979-52.35254-52.833-119.83447-68.68286-73.00586-17.531-102.064-55.47461-102.064-115.272,0-96.05981,77.56836-125.83838,156.57764-125.83838,89.81641,0,144.33008,32.6604,151.29443,111.90967l-88.13477,10.56665c-3.60205-37.9436-26.4165-53.79346-68.68311-53.79346-38.66406,0-62.43848,17.53088-62.43848,47.54956,0,26.4165,11.52686,42.26636,50.19092,51.15186,78.5293,17.05078,172.42773,28.81812,172.42773,138.08618C896.23975,692.1123,822.27344,725.49316,713.24561,725.49316Z"/></svg>