<svg xmlns="http://www.w3.org/2000/svg" viewBox="0 0 1024 1024"><path d="M960,0H64A64,64,0,0,0,0,64V960a64,64,0,0,0,64,64H960a64,64,0,0,0,64-64V64A64,64,0,0,0,960,0ZM699.41436,792.4h0C682.41446,810.59989,637.01444,832,577.61443,832c-151.00006,0-183.8-111-183.8-175.8v-180h-59.4a12.46242,12.46242,0,0,1-12.4-12.4v-85a21.09149,21.09149,0,0,1,14.20016-20C413.8145,331.40012,438.01457,263.8,441.61454,212.40014c1-13.8,8.19992-20.40014,20-20.40014H550.2145a12.46244,12.46244,0,0,1,12.4,12.40007v144H666.41452a12.46249,12.46249,0,0,1,12.4,12.4V463a12.46228,12.46228,0,0,1-12.4,12.4h-104.2V642c0,42.7999,29.6,67,85,44.80006,6-2.40005,11.2-4.00009,15.99994-2.80006,4.4,1.00008,7.20016,4.19994,9.2001,9.80006l27.59988,80.4C702.01458,780.6,704.01452,787.6,699.41436,792.4Z"/></svg>