<svg xmlns="http://www.w3.org/2000/svg" viewBox="0 0 1024 1024" role="img"><path d="M297.774 501.49c-34.366 49.988-34.366 131.032 0 181.02 34.367 49.987 90.085 49.987 124.451 0 34.366-49.988 34.366-131.032 0-181.02-34.366-49.987-90.084-49.987-124.45 0z"/><path d="M960 0H64A64 64 0 000 64v896a64 64 0 0064 64h896a64 64 0 0064-64V64a64 64 0 00-64-64zM560 784H432v-28.641c-65.939 64.512-161.914 59.095-222.794-16.28-65.608-81.23-65.608-212.928 0-294.157 60.88-75.376 156.855-80.793 222.794-16.28V256h128zm272.803-307.594L793.97 504.62 736 424.831l-57.97 79.788-38.833-28.213 57.97-79.789-93.797-30.476 14.833-45.65L712 350.966v-98.624h48v98.624l93.797-30.477 14.833 45.65-93.797 30.477z"/></svg>