<svg xmlns="http://www.w3.org/2000/svg" viewBox="0 0 1024 1024"><title>social-steam-square</title><path d="M960,0H64A64,64,0,0,0,0,64V477.02856L266.51416,586.97144A149.5345,149.5345,0,0,1,359.543,561.14282L486.17139,377.82861v-2.5144c0-110.17139,89.82861-200,200.22852-200,110.40015,0,200.22852,89.82861,200.22852,200,0,112.45728-93.48535,202.74292-204.7998,200L501.25732,704A150.40418,150.40418,0,0,1,351.08569,861.25708c-72.68579,0-133.71411-51.88574-147.42847-120.45715L0,656.45715V960a64,64,0,0,0,64,64H960a64,64,0,0,0,64-64V64A64,64,0,0,0,960,0Z"/><path d="M314.51416,786.05713l-65.14282-26.97144A110.87231,110.87231,0,0,0,307.42871,814.4a112.9508,112.9508,0,0,0,147.657-60.57141,111.54227,111.54227,0,0,0,.22852-86.17139A112.61407,112.61407,0,0,0,311.08569,605.4856l67.42847,27.88574a82.68893,82.68893,0,0,1,44.8,108.343h.00024C405.71436,784,357.02856,803.88574,314.51416,786.05713Z"/><path d="M819.88574,375.31421c0-73.37134-59.88574-133.25708-133.48584-133.25708-73.59985,0-133.4856,59.65723-133.4856,133.25708,0,73.6001,59.8855,133.2572,133.4856,133.2572S819.88574,448.68579,819.88574,375.31421Zm-233.6001-.22852c0-55.31421,45.02856-100.11426,100.34277-100.11426a100.13447,100.13447,0,0,1,100.343,100.11426c0,55.31421-45.02856,100.11426-100.343,100.11426C631.31445,475.2,586.28564,430.3999,586.28564,375.08569Z"/></svg>