<svg xmlns="http://www.w3.org/2000/svg" viewBox="0 0 1024 1024"><title>social-pinterest-square</title><path d="M960,0H64A64,64,0,0,0,0,64V960a64,64,0,0,0,64,64H312.22852l-5.02832-1.82861c-14.85742-132.79993-4.11426-136.68567,67.65723-440.22852,0,0-16.686-33.82861-16.686-83.42847,0-161.6001,172.57129-178.28577,172.57129-57.14282,0,48.22852-30.62842,120.22852-46.3999,186.97131-13.02832,56,28.11426,101.48572,83.2002,101.48572,99.88574,0,176.457-105.14282,176.457-256.91431,0-134.3999-96.68555-228.34277-234.51416-228.34277C349.71436,244.57153,256,364.343,256,488.22876c0,48.22852,18.74268,99.88574,41.82861,127.99988,4.57129,5.48572,5.25732,10.28577,3.88574,16C297.6001,649.82861,288,688,286.17139,695.77148c-2.51416,10.28564-8,12.57141-18.74268,7.54285C197.48584,670.62854,153.6001,568.22852,153.6001,485.94287c0-177.14282,128.457-339.6571,370.74268-339.6571,194.74268,0,346.05713,138.7428,346.05713,324.11426,0,193.37146-121.82861,349.02856-291.19971,349.02856-56.91455,0-110.40039-29.48572-128.686-64.45715,0,0-28.11426,107.2-34.97119,133.4856-11.42871,44.11426-40.22852,98.05713-62.62891,135.543H960a64,64,0,0,0,64-64V64A64,64,0,0,0,960,0Z"/></svg>