<svg xmlns="http://www.w3.org/2000/svg" viewBox="0 0 1024 1024" role="img"><path d="M137.03 513.71a31.804 31.804 0 01-33.96 28.86 33.963 33.963 0 01-32.19-34.45 31.797 31.797 0 0134.35-29.45 33.769 33.769 0 0131.8 35.04zm151.74-49.37a9.82 9.82 0 0015.02 1.18 27.842 27.842 0 006.97-11.78 55.299 55.299 0 00-2.06-34.45 33.413 33.413 0 00-14.43-16.59 5.334 5.334 0 00-4.03-.68 18.929 18.929 0 00-9.81 7.55 3.25 3.25 0 00.88 4.81 29.46 29.46 0 0115.22 20.71 31.82 31.82 0 01-7.76 25.03 3.244 3.244 0 000 4.22zm443.35-161.65c.49.98-.69 1.96-1.67 1.47-3.43-1.87-34.84-49.08-132.99-68.71a306.72 306.72 0 00-80.58-2.16 5.003 5.003 0 01-1.28-9.81 137.697 137.697 0 0137-8.15 215.96 215.96 0 01104.53 15.9 148.707 148.707 0 0170.57 61.84l.1-.2a103.373 103.373 0 014.32 9.82zm165.39 164.5v-1.28a25.635 25.635 0 00-23.17 11.88c-9.22-5.79-34.25-17.96-43.97-22.97l-3.53-1.77a2.265 2.265 0 00-1.77 0v-.58a15.63 15.63 0 000-2.16c9.82-202-194.63-358.94-392.6-298.19a310.551 310.551 0 00-201.9 202.1 358.531 358.531 0 00-12.76 90.2l-7.46 2.94-5.4 2.26c-9.81 4.32-19.63 8.93-29.44 13.94-9.82 5-19.63 9.81-28.57 16a3.036 3.036 0 00-1.17 3.82 3.14 3.14 0 004.02 1.48c9.82-4.52 19.63-8.54 29.45-12.27a321.8 321.8 0 0130.32-9.82h.59c4.91-1.47 9.82-2.75 14.82-4.02l7.66-1.77h.88l6.87-1.47c10.31-2.26 20.71-3.63 31.12-4.91h1.18a10.7 10.7 0 10-5.01-20.71c-9.13 2.2-18.28 4.56-26.7 7.34a329.868 329.868 0 0111.68-80.36 287.094 287.094 0 01186.49-186.49q11.97-3.63 23.85-6.18c7.76-1.67 38.77-6.09 4.91 12.85a258.514 258.514 0 00-117.78 146.64c-9.82 31.7-13.65 94.23-6.78 142.22 2.16 15.02-2.94 17.96-12.26 21.89-19.63 8.34-53.99 23.46-71.65 44.86-6.88 8.24-9.82 0-11.49-5.89a301.449 301.449 0 01-6.28-49.08 4.81 4.81 0 00-5.99-4.42c-4.81 1.18-9.81 2.36-14.33 3.93a4.824 4.824 0 00-3.24 4.71c2.75 63.11 18.75 121.81 57.03 119.94a5.098 5.098 0 004.61-6.18 29.483 29.483 0 01-13.25-14.72c-12.66-37.89 104.73-87.46 255.2-109.93 138.19-20.71 256.86-11.29 277.47 20.22a16.487 16.487 0 011.18 18.74 93.295 93.295 0 01-37.4 36.81 5.688 5.688 0 00-1.77 8.05 5.616 5.616 0 007.27 1.96 108.953 108.953 0 0046.13-42.79 116.574 116.574 0 009.81-43.98c9.82 3.05 35.73 13.45 45.64 17.48h.79a27.71 27.71 0 0024.93 34.45 25.818 25.818 0 0026.99-24.84 28.267 28.267 0 00-25.22-29.93zM699.96 412.2a13.439 13.439 0 01-10.14 3.85 522.834 522.834 0 00-99.13 1.77 13.446 13.446 0 01-14.53-13.84V392.4a6.275 6.275 0 014.91-6.09 384.754 384.754 0 01117.78-1.37 5.887 5.887 0 014.91 5.98l.19 11.19a13.413 13.413 0 01-3.99 10.09zm73.29-42.97a5.124 5.124 0 01-6.19 1.97c-85.58-32.49-219.17-14.14-219.17-14.14a544.288 544.288 0 00-134.07 30.82 15.121 15.121 0 01-20.52-14.52 248.127 248.127 0 013.54-35.04 178.116 178.116 0 0137-86.67c1.18-1.38 2.36-2.75 3.63-4.03a3.926 3.926 0 01.79-.98l.59-.68 1.47-1.57.69-.69c58.2-60.86 160.57-67.82 232.42-28.17a228.276 228.276 0 0186.17 85.59c3.14 5.89 22.97 51.72 13.65 68.11zM512 0C229.23 0 0 229.23 0 512s229.23 512 512 512 512-229.23 512-512S794.77 0 512 0zM408.03 615c-4.91 16.3-16.39 55.56-23.56 86.28a2468.395 2468.395 0 00-40.14 271.09 483.582 483.582 0 01-123.58-67.33 1105.75 1105.75 0 0137.79-174.51 284.786 284.786 0 0125.72-59.38 83.3 83.3 0 0134.55-28.86c15.014-7.317 29.84-14.398 45.44-20.42 9.82-3.63 26.5-8.73 36.91-11.77 5.39-1.57 8.24 0 6.87 4.9zm399.12 140.83a6.963 6.963 0 01-7.7 5.22h-.49c-13.15-2.25-25.91-5.4-39.26-6.87l-9.81-1.47-4.91-.69h-4.91l-19.63-1.86c-3.34-.49-6.67 0-9.81-.69l-9.82-.59h-7.26v5.01l.78 17.57v53c0 11.78-.88 23.46-1.27 35.14-.4 11.68-1.67 23.45-2.75 35.13a7.653 7.653 0 01-15.21-.68c0-11.58 0-23.17.58-34.75.59-11.58 0-23.26 0-34.84s0-23.17-.58-34.65l-.59-17.37v-25.52h-32.79c-6.67 0-13.34.59-19.63.78-6.28.2-13.34.69-19.63 1.28-13.34.88-26.69 2.16-39.94 3.63-26.6 3.04-53.3 6.87-79.31 11.98a6.97 6.97 0 01-3.24-13.55c13.45-3.63 26.6-6.48 40.05-9.13 13.44-2.65 26.79-4.81 40.34-6.87 6.67-1.08 13.54-1.76 20.31-2.65 6.78-.88 13.55-1.57 20.32-2.16 6.77-.59 13.55-1.27 20.42-1.57 6.87-.29 13.64-.98 20.51-1.08 10.8-.49 21.59-.59 32.49 0-1.18-14.42-2.55-28.75-4.32-42.99l-1.96.2c-.69-5.69-1.38-11.48-2.26-17.18-.88-5.69-1.67-11.38-2.75-16.98-1.08-5.59-1.96-11.28-3.04-16.88-1.08-5.59-2.46-11.29-3.83-16.39a7.657 7.657 0 0114.53-4.61c2.16 6.08 3.63 11.58 5.2 17.47a409.86 409.86 0 014.22 17.27c2.45 11.68 4.42 23.26 6.28 34.94 2.36 15.32 3.93 30.73 5.2 46.04 9.82.49 20.32 1.17 30.43 2.16a392.041 392.041 0 0180.68 16.98 6.956 6.956 0 014.36 8.22zm58.36 97.98a793.75 793.75 0 00-20.32-101.3v-.09c-15.31-57.03-36.02-146.35-97.17-166.86-65.17-22.18-135.25-24.64-202.97-20.32a642.738 642.738 0 00-142.23 25.42c-20.51 5.99-86.27 31.21-99.32 37.89a89.569 89.569 0 00-37.01 30.92 305.132 305.132 0 00-27.58 63.6 1218.008 1218.008 0 00-37.79 166.86c-11.48-9.82-22.67-19.63-33.37-30.53-190.52-190.45-191.38-499.04-1.92-690.55 189.45-191.51 498.03-193.99 690.53-5.54 192.5 188.45 196.59 497.01 9.15 690.5z"/></svg>