<svg xmlns="http://www.w3.org/2000/svg" viewBox="0 0 1024 1024"><path d="M440.52,582.81006c-3.37012,11.21-11.27,38.2-16.2002,59.31982A1697.63182,1697.63182,0,0,0,396.73,828.5a332.20284,332.20284,0,0,1-84.96-46.28,760.124,760.124,0,0,1,25.98-119.98,195.17829,195.17829,0,0,1,17.68018-40.82007,57.36486,57.36486,0,0,1,23.75-19.84985c10.31982-5.03,20.52-9.89014,31.23975-14.03,6.75-2.5,18.22021-6.01,25.37988-8.1001C439.5,578.35986,441.46,579.43994,440.52,582.81006Z"/><path d="M714.91992,679.62988a4.78991,4.78991,0,0,1-5.2998,3.59009h-.33984c-9.04-1.54-17.81055-3.71-26.99023-4.72l-6.74023-1.01-3.37988-.48H668.7998l-13.5-1.28c-2.29-.33008-4.58008,0-6.74023-.47l-6.75-.40015h-4.98926V678.3l.5293,12.07983v36.44019c0,8.08984-.59961,16.11987-.86914,24.1499-.28027,8.04-1.15039,16.13013-1.89062,24.15991a5.26337,5.26337,0,0,1-10.46-.47c0-7.96,0-15.92993.40039-23.88989.41016-7.96,0-15.99,0-23.95,0-7.96021,0-15.92993-.40039-23.83008L623.73047,691.05V673.51H601.17969c-4.58008,0-9.16992.3999-13.48926.53-4.32031.13989-9.1709.48-13.50049.87988-9.16992.61011-18.3501,1.49-27.46,2.5-18.29,2.09009-36.64014,4.72021-54.52,8.24a4.794,4.794,0,0,1-2.23-9.31982c9.25-2.5,18.29-4.45,27.52979-6.28,9.24023-1.82007,18.42041-3.3,27.74023-4.72,4.58008-.74,9.31006-1.21021,13.96-1.82007,4.66016-.61011,9.32031-1.08008,13.97021-1.49,4.6499-.40015,9.31982-.87012,14.03955-1.08008,4.7207-.2,9.37988-.66992,14.10059-.74,7.41992-.33984,14.83984-.3999,22.33984,0-.81055-9.90991-1.75977-19.76-2.96973-29.55l-1.35059.13013c-.46973-3.91016-.9502-7.89014-1.5498-11.81006-.61035-3.90991-1.15039-7.82007-1.88965-11.66992-.75-3.84009-1.35059-7.76-2.09082-11.61011-.75-3.84009-1.69922-7.76-2.63965-11.27a5.263,5.263,0,0,1,9.99023-3.15991c1.49023,4.17993,2.5,7.96,3.58008,12.01s2.01953,7.88989,2.89941,11.86987c1.68066,8.03,3.04,15.99023,4.32031,24.02,1.62012,10.53,2.7002,21.13013,3.57031,31.65015,6.75.33984,13.96973.80981,20.91992,1.49A269.49272,269.49272,0,0,1,711.91992,673.98,4.78924,4.78924,0,0,1,714.91992,679.62988Z"/><path d="M748.75,272.28c-132.34961-129.56006-344.49023-127.86011-474.74023,3.8C143.75,407.75,144.3501,619.8999,275.33008,750.84009c7.3501,7.49,15.0498,14.24,22.93994,20.99a836.72249,836.72249,0,0,1,25.98-114.72021,209.62773,209.62773,0,0,1,18.96-43.71973,61.52617,61.52617,0,0,1,25.4502-21.26025c8.96973-4.58984,54.17969-21.92993,68.27979-26.0498a441.80792,441.80792,0,0,1,97.77979-17.48c46.56055-2.97021,94.74023-1.28,139.54,13.97,42.04,14.09985,56.28027,75.51,66.81055,114.72v.06006A544.95,544.95,0,0,1,755.04,746.99C883.90039,613.97,881.08984,401.84009,748.75,272.28ZM254.21,513.17993A21.86414,21.86414,0,0,1,230.85986,533.02,23.35676,23.35676,0,0,1,208.73,509.33008a21.86649,21.86649,0,0,1,23.62012-20.24A23.209,23.209,0,0,1,254.21,513.17993Zm534.4502,1a17.78816,17.78816,0,0,1-12.83984,4.67017,19.57417,19.57417,0,0,1-17.68066-20.25,19.18654,19.18654,0,0,1,.54-3.44019h-.54c-6.80957-2.76978-24.62988-9.91992-31.37988-12.01a80.13886,80.13886,0,0,1-6.74023,30.23A74.94287,74.94287,0,0,1,688.2998,542.8a3.86172,3.86172,0,0,1-5-1.3501,3.921,3.921,0,0,1,1.21973-5.53,64.03511,64.03511,0,0,0,25.71094-25.31006,11.32793,11.32793,0,0,0-.81055-12.87988c-14.16992-21.66992-95.75-28.13989-190.75977-13.8999C415.21,499.27,334.50977,533.3501,343.21,559.3999A20.25176,20.25176,0,0,0,352.31982,569.52a3.52928,3.52928,0,0,1-.60986,2.8501,3.4809,3.4809,0,0,1-2.56006,1.3999c-26.31982,1.29-37.31982-39.07007-39.21-82.46a3.33364,3.33364,0,0,1,2.23-3.24c3.11035-1.07007,6.5498-1.89014,9.8501-2.7a3.31685,3.31685,0,0,1,4.12012,3.03979,207.08067,207.08067,0,0,0,4.31982,33.74c1.1499,4.05,3.16992,9.72021,7.8999,4.05,12.14014-14.71,35.76025-25.09985,49.26025-30.84009,6.3999-2.7,9.91016-4.71973,8.42969-15.0498-4.73-32.99-2.08984-75.98,4.66016-97.77A177.73438,177.73438,0,0,1,481.68018,281.72c23.27979-13.02,1.96-9.98-3.37012-8.82983q-8.17529,1.75488-16.3999,4.25a197.36417,197.36417,0,0,0-128.21,128.21,226.29274,226.29274,0,0,0-8.03027,55.25c5.79-1.92017,12.08008-3.54,18.3501-5.05a7.35673,7.35673,0,1,1,3.44971,14.24h-.80957c-7.16016.87988-14.31006,1.81982-21.40039,3.36987l-4.71973,1.01h-.60986l-5.26025,1.22021c-3.43994.86987-6.81982,1.75-10.18994,2.75977h-.41016c-7.00977,1.90015-14.1001,4.19019-20.83984,6.76-6.75,2.56006-13.5,5.32007-20.25,8.43018a2.15929,2.15929,0,0,1-2.76025-1.02A2.07271,2.07271,0,0,1,261.02,489.7c6.1499-4.26,12.89014-7.55981,19.64014-11,6.75-3.45,13.5-6.61987,20.23975-9.59009l3.72021-1.5498,5.12012-2.02A246.59166,246.59166,0,0,1,318.52,403.53a213.50392,213.50392,0,0,1,138.7998-138.95c136.10986-41.76,276.67041,66.12988,269.92041,205.01a12.47159,12.47159,0,0,1,0,1.48v.3999a1.58581,1.58581,0,0,1,1.21,0l2.42969,1.22c6.67969,3.43994,23.88965,11.81006,30.23047,15.79A17.6161,17.6161,0,0,1,777.04,480.31006v.87988A19.44342,19.44342,0,0,1,794.37988,501.77,17.75393,17.75393,0,0,1,788.66016,514.17993Z"/><path d="M643.83008,428.76l.13965,7.68994A9.23469,9.23469,0,0,1,634.25,446.03a360.03769,360.03769,0,0,0-68.1499,1.22,9.239,9.239,0,0,1-9.99023-9.51v-7.96a4.30943,4.30943,0,0,1,3.38037-4.18994A264.24244,264.24244,0,0,1,640.46,424.6499,4.03333,4.03333,0,0,1,643.83008,428.76Z"/><path d="M682.21973,367.02a156.82988,156.82988,0,0,0-59.23926-58.84009C573.58984,280.91992,503.21,285.7,463.18994,327.54l-.47021.48L461.71,329.1001l-.41016.47a2.70947,2.70947,0,0,0-.54.66992c-.86963.88013-1.67969,1.82007-2.5,2.77a122.39809,122.39809,0,0,0-25.42969,59.59009,170.68714,170.68714,0,0,0-2.43994,24.07983,10.406,10.406,0,0,0,14.10986,9.99A374.05417,374.05417,0,0,1,536.66992,405.48s91.84961-12.62012,150.67969,9.72a3.52716,3.52716,0,0,0,4.26074-1.34985C698.01953,402.58008,684.37988,371.07007,682.21973,367.02Zm-20.04,2.08984c-2.34961-1.28979-23.94922-33.73975-91.42969-47.23975a210.61614,210.61614,0,0,0-55.3999-1.48,3.4412,3.4412,0,0,1-.87012-6.75,94.808,94.808,0,0,1,25.43018-5.6001A148.46982,148.46982,0,0,1,611.78027,318.97,102.22421,102.22421,0,0,1,660.29,361.49l.07031-.13989a69.95444,69.95444,0,0,1,2.96973,6.75C663.66992,368.77,662.86035,369.45,662.17969,369.10986Z"/><path d="M960,0H64A63.995,63.995,0,0,0,0,64V960a63.995,63.995,0,0,0,64,64H960a63.99535,63.99535,0,0,0,64-64V64A63.99535,63.99535,0,0,0,960,0ZM512,864c-194.3999,0-352-157.6001-352-352S317.6001,160,512,160c194.40039,0,352,157.6001,352,352S706.40039,864,512,864Z"/><path d="M372.23,448.26a22.91977,22.91977,0,0,0-9.91992-11.40015,3.64276,3.64276,0,0,0-2.77-.46973,13.02536,13.02536,0,0,0-6.74023,5.18994,2.19259,2.19259,0,0,0-.44971,1.79,2.215,2.215,0,0,0,1.0498,1.52,20.20871,20.20871,0,0,1,10.46,14.23,21.84282,21.84282,0,0,1-5.32959,17.21,2.21612,2.21612,0,0,0,0,2.8999,6.76125,6.76125,0,0,0,10.32959.82007,19.26451,19.26451,0,0,0,4.79-8.1001A37.98765,37.98765,0,0,0,372.23,448.26Zm0,0a22.91977,22.91977,0,0,0-9.91992-11.40015,3.64276,3.64276,0,0,0-2.77-.46973,13.02536,13.02536,0,0,0-6.74023,5.18994,2.19259,2.19259,0,0,0-.44971,1.79,2.215,2.215,0,0,0,1.0498,1.52,20.20871,20.20871,0,0,1,10.46,14.23,21.84282,21.84282,0,0,1-5.32959,17.21,2.21612,2.21612,0,0,0,0,2.8999,6.76125,6.76125,0,0,0,10.32959.82007,19.26451,19.26451,0,0,0,4.79-8.1001A37.98765,37.98765,0,0,0,372.23,448.26Zm0,0a22.91977,22.91977,0,0,0-9.91992-11.40015,3.64276,3.64276,0,0,0-2.77-.46973,13.02536,13.02536,0,0,0-6.74023,5.18994,2.19259,2.19259,0,0,0-.44971,1.79,2.215,2.215,0,0,0,1.0498,1.52,20.20871,20.20871,0,0,1,10.46,14.23,21.84282,21.84282,0,0,1-5.32959,17.21,2.21612,2.21612,0,0,0,0,2.8999,6.76125,6.76125,0,0,0,10.32959.82007,19.26451,19.26451,0,0,0,4.79-8.1001A37.98765,37.98765,0,0,0,372.23,448.26Z"/></svg>
