<svg xmlns="http://www.w3.org/2000/svg" viewBox="0 0 1024 1024" role="img"><path d="M433.512 626.567l200.862-114.145-200.862-114.145v228.29z"/><path d="M960 0H64A64 64 0 000 64v896a64 64 0 0064 64h896a64 64 0 0064-64V64a64 64 0 00-64-64zm-80.035 698.514c-8.861 33.336-34.813 58.444-67.939 67.306C752.316 782.066 512 782.066 512 782.066s-240.316 0-300.026-16.035c-33.125-8.862-59.077-33.97-67.939-67.306C128 638.382 128 512.633 128 512.633s0-125.96 16.035-186.092a96.306 96.306 0 0167.939-68.36C271.684 241.933 512 241.933 512 241.933s240.316 0 300.026 16.246a96.306 96.306 0 0167.939 68.36C896 386.884 896 512.634 896 512.634s0 125.75-16.035 185.881z"/></svg>