<svg xmlns="http://www.w3.org/2000/svg" viewBox="0 0 1024 1024"><path d="M753.31982,415.55c90.82031,91.13989,87.61035,245.33-4.00977,334.61987C703.35986,795.21,634.71,823.82007,581.81982,827.8c-37.3999,3.71-77.46973,4.24-115.93994-.53-56.62988-6.89-97.5-22.52-137.56982-37.63,20.2998-19.6,40.60986-46.62,48.89014-69.94006A53.85651,53.85651,0,0,0,375.58984,677.04a228.10382,228.10382,0,0,1,46.49023-263.3501C473.35986,363.62,543.89014,340.04,615.48,348.78A232.89678,232.89678,0,0,1,753.31982,415.55ZM1024,64V960a63.99512,63.99512,0,0,1-64,64H64A63.99512,63.99512,0,0,1,0,960V64A63.995,63.995,0,0,1,64,0H960A63.995,63.995,0,0,1,1024,64ZM804.87012,357a314.80436,314.80436,0,0,0-110.86035-71.8C717.52,216.05,800.87012,190.88,800.87012,190.88s-194.48-100.94006-409.25-60.67c-71.58984,11.39-140.24023,55.37012-190.46,113.39A298.42684,298.42684,0,0,0,233.48,666.98c19.5,16.68994,63.04,42.65,63.8501,43.98-28.58984,72.59009-119.9502,92.46-119.9502,92.46s120.75,75.51,282.89014,95.12012a595.48427,595.48427,0,0,0,135.97021,1.58C671.31006,894.03,746.1001,854.29,803,798.39,926.1499,677.04,927.21973,479.4,804.87012,357Z"/></svg>