<svg xmlns="http://www.w3.org/2000/svg" viewBox="0 0 1024 1024" role="img"><path d="M960 0H64A64 64 0 000 64v896a64 64 0 0064 64h248.229l-5.029-1.829c-14.857-132.8-4.114-136.685 67.657-440.228 0 0-16.686-33.829-16.686-83.429 0-161.6 172.572-178.285 172.572-57.142 0 48.228-30.629 120.228-46.4 186.97-13.028 56 28.114 101.487 83.2 101.487C667.429 729.829 744 624.686 744 472.914c0-134.4-96.686-228.342-234.514-228.342C349.714 244.572 256 364.343 256 488.229c0 48.228 18.743 99.886 41.829 128 4.57 5.485 5.257 10.285 3.885 16C297.6 649.829 288 688 286.171 695.77c-2.514 10.286-8 12.572-18.742 7.543C197.486 670.63 153.6 568.23 153.6 485.943c0-177.143 128.457-339.657 370.743-339.657 194.742 0 346.057 138.743 346.057 324.114 0 193.371-121.829 349.029-291.2 349.029-56.914 0-110.4-29.486-128.686-64.458 0 0-28.114 107.2-34.971 133.486-11.429 44.114-40.229 98.057-62.629 135.543H960a64 64 0 0064-64V64a64 64 0 00-64-64z"/></svg>