<svg xmlns="http://www.w3.org/2000/svg" viewBox="0 0 1024 1024"><path d="M709.84622,294.7904c40.62032,46.80021,31.53448,90.849,31.53448,299.95859H661.512V399.00231c0-85.18328-109.69767-88.44043-109.69767,11.82862V517.95721H472.45079V410.83093c0-100.26905-109.68888-97.0119-109.68888-11.82862V594.749H282.71282c0-209.281-8.91425-253.50126,31.53448-299.95859,44.40005-49.53457,136.7836-52.79171,177.91788,10.45715l19.886,33.42874,19.87719-33.42874C573.243,241.65581,665.79773,245.59872,709.84622,294.7904ZM1024,64V960a63.99512,63.99512,0,0,1-64,64H64A63.99512,63.99512,0,0,1,0,960V64A63.99512,63.99512,0,0,1,64,0H960A63.99512,63.99512,0,0,1,1024,64ZM870.1072,380.15365c0-166.60368-109.1833-215.45249-109.1833-215.45249-107.12623-49.19174-391.65638-48.67737-497.75387,0,0,0-109.18372,48.84881-109.18372,215.45249,0,198.30954-11.30572,444.61938,181.00411,495.52531,69.42013,18.33439,129.06886,22.2773,177.06073,19.53442,87.06907-4.80006,135.91767-31.02016,135.91767-31.02016L645.0546,800.9443s-62.22018,19.543-132.1463,17.31438c-69.24895-2.4-142.26926-7.54288-153.575-92.56331a175.535,175.535,0,0,1-1.54312-23.8201c146.71781,35.82016,271.84454,15.6,306.29324,11.48574,96.1545-11.48574,179.97495-70.79175,190.59512-124.95488C871.47872,503.05141,870.1072,380.15365,870.1072,380.15365Z"/></svg>