<svg xmlns="http://www.w3.org/2000/svg" viewBox="0 0 1024 1024" role="img"><path d="M960 0H64A64 64 0 000 64v896a64 64 0 0064 64h896a64 64 0 0064-64V64a64 64 0 00-64-64zm-82.743 341.943Q872.457 448.57 728 634.286 578.857 828 475.657 828.114c-42.743 0-78.628-39.314-108.114-117.943-57.6-210.971-82.057-334.628-129.6-334.628-5.486 0-24.686 11.428-57.372 34.514l-34.285-44.343c84.342-74.057 164.8-156.343 215.086-160.914q85.37-8.229 105.142 116.8c46.858 296.229 67.657 341.029 152.686 206.857 30.628-48.457 47.086-85.028 49.143-110.4 7.771-74.971-58.515-69.943-103.314-50.743q53.828-176.571 205.943-171.657c75.2 2.286 110.628 51.2 106.285 146.286z"/></svg>