<svg xmlns="http://www.w3.org/2000/svg" viewBox="0 0 1024 1024"><path d="M960,0H64A63.995,63.995,0,0,0,0,64V960a63.99512,63.99512,0,0,0,64,64H960a63.99512,63.99512,0,0,0,64-64V64A63.995,63.995,0,0,0,960,0ZM489.34137,258.0794c-87.61267,0-120.84474,22.3136-149.54569,22.3136-18.12668,0-40.785-8.92547-40.785-37.18931V203.03922c0-63.96561,98.18638-87.76676,193.352-87.76676,131.419,0,302.11267,32.72658,302.11267,243.96182V847.15807c0,34.21409-16.61631,50.57737-49.84893,50.57737H672.11968c-31.72169,0-48.338-13.38813-51.3593-38.67689-4.53167,4.4628-52.86968,53.55267-141.99272,53.55267-146.52439,0-249.243-108.59285-249.243-246.937,0-232.06127,182.77831-300.48958,368.57736-319.828C595.08072,293.78113,573.9333,258.0794,489.34137,258.0794ZM425.898,644.84815c0,55.04018,27.19,101.155,86.10174,101.155,55.891,0,86.1023-44.6272,86.1023-101.155V485.67793C510.48935,505.01638,425.898,533.28029,425.898,644.84815Z"/></svg>
