<svg xmlns="http://www.w3.org/2000/svg" viewBox="0 0 1024 1024"><path d="M960,0H64A63.99512,63.99512,0,0,0,0,64V960a63.99512,63.99512,0,0,0,64,64H960a63.99543,63.99543,0,0,0,64-64V64A63.99543,63.99543,0,0,0,960,0ZM317.66433,863.34148H171.63794V393.86143H317.66433ZM244.54146,329.74159a84.54154,84.54154,0,1,1,84.54146-84.54151A84.57779,84.57779,0,0,1,244.54146,329.74159ZM864,863.34148H718.19386V634.96954c0-54.45795-1.09812-124.50665-75.75872-124.50665-75.97719,0-87.61557,59.28886-87.61557,120.55406V863.34148H409.013V393.86143H548.8907v64.11984h1.97644c19.54324-36.89086,67.194-75.75805,138.12153-75.75805C836.55145,382.22321,864,479.50089,864,605.98382Z"/></svg>