<svg xmlns="http://www.w3.org/2000/svg" viewBox="0 0 1024 1024"><path d="M823.37383,347.20693a334.694,334.694,0,0,0-117.8646-76.33644c24.99565-73.51885,113.61188-100.27916,113.61188-100.27916S612.35372,63.27379,384.01435,106.08811C307.9014,118.19775,234.91362,164.95656,181.521,226.6422,65.64464,360.44348,80.98652,561.84189,215.88278,676.77171c20.732,17.74443,67.023,45.34469,67.8842,46.75867C253.37081,800.70678,156.23823,821.832,156.23823,821.832s128.37909,80.2808,300.76338,101.12989a633.10747,633.10747,0,0,0,144.56093,1.67978c79.8128-6.47474,159.32814-48.72553,219.823-108.15737C952.31618,687.46737,953.45359,477.34029,823.37383,347.20693ZM764.30344,765.21766c-48.85337,47.88571-121.84063,78.30343-178.07241,82.53486-39.76286,3.94436-82.36433,4.50788-123.26513-.56352-60.20781-7.32533-103.66013-23.94285-146.2616-40.0075,21.58236-20.83832,43.17563-49.56549,51.97906-74.35894a57.25921,57.25921,0,0,0-1.7121-45.3552,242.51561,242.51561,0,0,1,49.42753-279.98878c54.51969-53.23341,129.50612-78.30317,205.61907-69.011,55.9447,6.76181,106.78582,31.26806,146.54868,70.98861C865.125,506.35441,861.7122,670.28633,764.30344,765.21766Z"/></svg>