<svg xmlns="http://www.w3.org/2000/svg" viewBox="0 0 1024 1024" role="img"><path d="M960 0H64A64 64 0 000 64v896a64 64 0 0064 64h896a64 64 0 0064-64V64a64 64 0 00-64-64zM311.244 666.159H199.339c-13.208 0-20.893-12.728-14.409-24.735l118.39-208.202c.24 0 .24-.24 0-.48l-75.404-129.676c-7.205-13.448.48-24.254 14.408-24.254h111.905q18.731 0 30.979 20.892l76.604 132.798q-4.682 8.285-120.31 211.804c-8.405 14.889-18.491 21.853-30.258 21.853zm527.589-514.141L591.968 585.952v.48L749.261 872.2c6.723 12.248.24 24.255-14.409 24.255H622.947c-13.208 0-23.294-6.965-30.979-20.893l-158.492-288.89q8.284-14.769 248.305-437.776c7.924-13.928 17.77-20.892 30.018-20.892h112.626c13.687-.24 21.132 11.286 14.408 24.014z"/></svg>