<svg xmlns="http://www.w3.org/2000/svg" viewBox="0 0 1024 1024" role="img"><path d="M528.73 576.48c0 52.05-33.31 94.23-74.39 94.23a59.822 59.822 0 01-21.55-4.02 31.367 31.367 0 006.66.72c21.92 0 39.69-22.51 39.69-50.26 0-27.76-17.77-50.26-39.69-50.26-21.91 0-39.67 22.5-39.67 50.26 0 15.42 5.48 29.22 14.11 38.43-20.43-16.8-33.95-45.95-33.95-79.1 0-52.04 33.31-94.24 74.4-94.24 41.08 0 74.39 42.2 74.39 94.24zM1024 64v896a63.995 63.995 0 01-64 64H64a63.995 63.995 0 01-64-64V64A63.995 63.995 0 0164 0h896a63.995 63.995 0 0164 64zM598.17 234.25c-208.31 0-307.51 167.46-307.51 277.75v107.35c0 23.25-16.11 31.98-45.18 29.16-28.52-2.78-45.76-23.48-64.52-37.17a32.974 32.974 0 00-44.77 47.67c62.84 76.96 206.07 130.74 372.71 130.74 56.92 0 106.02-6.91 147.59-19.21a158.56 158.56 0 01-17.76-15.59c-18.62-18.76-30.48-44.54-36.26-78.78-4.8-28.38-4.57-57.95-4.37-81.71.03-4.57.07-62.62.07-62.62a9.92 9.92 0 1119.84 0s-.04 58.17-.08 62.78c-.38 46.56-.88 110.3 34.88 146.36 7.11 7.16 16.11 17.56 23.89 22.98 17.64 9.96 40.54 15.87 70.26 15.87 9.93 0 148.79 9.92 148.79-198.4 0-19.83 19.85-347.18-297.58-347.18z"/></svg>