<svg xmlns="http://www.w3.org/2000/svg" viewBox="0 0 1024 1024" role="img"><path d="M960 0H64A64 64 0 000 64v413.029L266.514 586.97a149.535 149.535 0 0193.029-25.828l126.628-183.314v-2.515c0-110.171 89.829-200 200.229-200 110.4 0 200.228 89.829 200.228 200 0 112.457-93.485 202.743-204.8 200L501.259 704a150.404 150.404 0 01-150.172 157.257c-72.686 0-133.714-51.886-147.429-120.457L0 656.457V960a64 64 0 0064 64h896a64 64 0 0064-64V64a64 64 0 00-64-64z"/><path d="M314.514 786.057l-65.143-26.971A110.872 110.872 0 00307.43 814.4a112.95 112.95 0 00147.657-60.571 111.542 111.542 0 00.228-86.172 112.614 112.614 0 00-144.228-62.171l67.428 27.885a82.689 82.689 0 0144.8 108.343c-17.6 42.286-66.285 62.172-108.8 44.343zm505.372-410.743c0-73.371-59.886-133.257-133.486-133.257s-133.486 59.657-133.486 133.257c0 73.6 59.886 133.257 133.486 133.257s133.486-59.885 133.486-133.257zm-233.6-.228c0-55.315 45.028-100.115 100.342-100.115a100.134 100.134 0 01100.343 100.115c0 55.314-45.028 100.114-100.343 100.114-55.314 0-100.342-44.8-100.342-100.114z"/></svg>