<svg xmlns="http://www.w3.org/2000/svg" viewBox="0 0 1024 1024" role="img"><path d="M823.374 347.207a334.694 334.694 0 00-117.865-76.337c24.996-73.518 113.612-100.279 113.612-100.279S612.354 63.274 384.014 106.088c-76.113 12.11-149.1 58.869-202.493 120.554-115.876 133.801-100.534 335.2 34.362 450.13 20.732 17.744 67.023 45.344 67.884 46.758-30.396 77.177-127.529 98.302-127.529 98.302s128.38 80.28 300.764 101.13a633.107 633.107 0 00144.56 1.68c79.813-6.475 159.329-48.726 219.824-108.158 130.93-129.017 132.068-339.144 1.988-469.277zm-59.07 418.01c-48.854 47.886-121.841 78.304-178.073 82.536-39.763 3.944-82.364 4.507-123.265-.564-60.208-7.325-103.66-23.943-146.262-40.008 21.583-20.838 43.176-49.565 51.98-74.358a57.26 57.26 0 00-1.713-45.356A242.516 242.516 0 01416.4 407.48c54.52-53.234 129.506-78.304 205.619-69.011 55.945 6.761 106.786 31.268 146.549 70.988 96.558 96.898 93.145 260.83-4.264 355.762z"/></svg>