<svg xmlns="http://www.w3.org/2000/svg" viewBox="0 0 1024 1024"><path d="M960,0H64A63.99512,63.99512,0,0,0,0,64V960a63.99512,63.99512,0,0,0,64,64H960a63.99512,63.99512,0,0,0,64-64V64A63.99512,63.99512,0,0,0,960,0ZM850.74023,242.51l-54.8501,52.58A16.1142,16.1142,0,0,0,789.71,310.4V697.37a15.75808,15.75808,0,0,0,6.18018,15.32l53.71,52.57v11.65h-269.71v-11.2l55.54-53.94c5.48-5.48,5.48-7.08,5.48-15.31V383.54L486.3999,775.77H465.6001L285.71,383.54V646.4A36.14537,36.14537,0,0,0,295.77,676.57L368,764.11v11.66H162.74023V764.11l72.22949-87.54a34.98807,34.98807,0,0,0,9.37012-30.17v-304a26.06848,26.06848,0,0,0-8.67969-22.4l-64.23-77.49V230.86H370.96973L525.03027,569.14,660.56982,231.09H850.74023Z"/></svg>