<svg xmlns="http://www.w3.org/2000/svg" viewBox="0 0 1024 1024"><path d="M528.73,576.48c0,52.0498-33.31006,94.23-74.39014,94.23a59.82249,59.82249,0,0,1-21.5498-4.02,31.36687,31.36687,0,0,0,6.66016.72021c21.91992,0,39.68994-22.51025,39.68994-50.26025,0-27.75977-17.77-50.25977-39.68994-50.25977-21.91016,0-39.66992,22.5-39.66992,50.25977,0,15.41992,5.47949,29.22021,14.10986,38.43018-20.43018-16.80029-33.9502-45.9502-33.9502-79.1001,0-52.04,33.31006-94.23975,74.3999-94.23975C495.41992,482.24023,528.73,524.43994,528.73,576.48ZM1024,64V960a63.995,63.995,0,0,1-64,64H64A63.995,63.995,0,0,1,0,960V64A63.995,63.995,0,0,1,64,0H960A63.995,63.995,0,0,1,1024,64ZM598.16992,234.25c-208.31006,0-307.50977,167.46-307.50977,277.75V619.3501c0,23.25-16.11035,31.98-45.18018,29.15967-28.52-2.77979-45.76025-23.48-64.52-37.16992a32.97374,32.97374,0,0,0-44.77,47.66992c62.84033,76.96,206.06982,130.74023,372.71,130.74023,56.91992,0,106.02-6.91016,147.59033-19.21A158.55972,158.55972,0,0,1,638.73,754.9502c-18.62012-18.76025-30.48-44.54-36.26025-78.78027-4.7998-28.37988-4.56982-57.9502-4.36963-81.71.02979-4.56982.06982-62.62012.06982-62.62012a9.91993,9.91993,0,1,1,19.83984,0s-.04,58.16992-.07959,62.78027c-.38037,46.56006-.88037,110.2998,34.87988,146.35986,7.10986,7.16016,16.10986,17.56006,23.89014,22.98,17.63965,9.96,40.54,15.87012,70.25977,15.87012,9.93018,0,148.79,9.91992,148.79-198.3999C895.75,561.6001,915.6001,234.25,598.16992,234.25Z"/></svg>