<svg xmlns="http://www.w3.org/2000/svg" viewBox="0 0 1072 1024"><path d="M558.65169,601.14182c0,71.962-46.05667,130.28509-102.85239,130.28509a82.79674,82.79674,0,0,1-29.80066-5.55279,43.42309,43.42309,0,0,0,9.22324.98222c30.29784,0,54.8654-31.11471,54.8654-69.48766,0-38.37237-24.56756-69.48766-54.8654-69.48766S380.368,618.99632,380.368,657.36869c0,21.32376,7.57793,40.3975,19.50039,53.13742-28.238-23.22981-46.93309-63.5325-46.93309-109.36428,0-71.95043,46.05725-130.28509,102.864-130.28509C512.595,470.85673,558.65169,529.1914,558.65169,601.14182ZM654.66037,128c-288.00289,0-425.15483,231.52486-425.15483,384V660.41188c0,32.14491-22.28228,44.22173-62.47859,40.31425-39.41471-3.83579-63.25963-32.45247-89.18865-51.38457A45.585,45.585,0,0,0,15.93954,715.242C102.81978,821.65791,300.84027,896,531.23056,896c78.69934,0,146.57695-9.55508,204.0589-26.54472a221.54838,221.54838,0,0,1-24.56756-21.56021C684.994,821.95391,668.58426,786.316,660.5924,738.969c-6.642-39.22566-6.3107-80.1082-6.03841-112.96362.04741-6.32226.10637-86.57268.10637-86.57268a13.71057,13.71057,0,1,1,27.42114,0s-.04741,80.41576-.10637,86.79757c-.52088,64.36094-1.23138,152.4847,48.22344,202.354,9.81523,9.8979,22.27071,24.27157,33.02134,31.76567,24.40165,13.77012,56.06094,21.93945,97.14525,21.93945,13.72213,0,205.71635,13.71057,205.71635-274.29232C1066.08151,580.576,1093.51421,128,654.66037,128Z"/></svg>