<svg xmlns="http://www.w3.org/2000/svg" viewBox="0 0 1024 1024" role="img"><path d="M960 0H64A64 64 0 000 64v896a64 64 0 0064 64h896a64 64 0 0064-64V64a64 64 0 00-64-64zM713.246 725.493c-152.255 0-205.088-68.683-233.186-153.936-39.144-122.476-51.632-202.446-151.294-202.446-53.794 0-108.308 38.664-108.308 146.972 0 84.532 43.227 137.365 103.985 137.365 68.683 0 114.311-51.152 114.311-51.152l28.098 76.608s-47.55 46.59-146.972 46.59c-123.197 0-191.88-72.286-191.88-206.05 0-139.046 68.683-220.937 198.124-220.937 176.51 0 194.041 99.422 242.07 244.712 21.134 64.36 58.117 110.95 146.973 110.95 59.797 0 91.497-13.209 91.497-45.869 0-47.79-52.353-52.833-119.835-68.683-73.006-17.53-102.064-55.474-102.064-115.272 0-96.06 77.568-125.838 156.578-125.838 89.816 0 144.33 32.66 151.294 111.91l-88.135 10.566c-3.602-37.943-26.416-53.793-68.683-53.793-38.664 0-62.438 17.53-62.438 47.55 0 26.416 11.527 42.266 50.19 51.151C802.102 482.941 896 494.71 896 603.977c.24 88.135-73.726 121.516-182.753 121.516z"/></svg>