<svg xmlns="http://www.w3.org/2000/svg" viewBox="0 0 1024 1024" role="img"><path d="M960 0H64A64 64 0 000 64v896a64 64 0 0064 64h896a64 64 0 0064-64V64a64 64 0 00-64-64zM699.414 792.4c-17 18.2-62.4 39.6-121.8 39.6-151 0-183.8-111-183.8-175.8v-180h-59.4a12.462 12.462 0 01-12.4-12.4v-85a21.091 21.091 0 0114.2-20c77.6-27.4 101.8-95 105.4-146.4 1-13.8 8.2-20.4 20-20.4h88.6a12.462 12.462 0 0112.4 12.4v144h103.8a12.462 12.462 0 0112.4 12.4V463a12.462 12.462 0 01-12.4 12.4h-104.2V642c0 42.8 29.6 67 85 44.8 6-2.4 11.2-4 16-2.8 4.4 1 7.2 4.2 9.2 9.8l27.6 80.4c2 6.4 4 13.4-.6 18.2z"/></svg>