<svg xmlns="http://www.w3.org/2000/svg" viewBox="0 0 1024 1024" role="img"><path d="M753.32 415.55c90.82 91.14 87.61 245.33-4.01 334.62-45.95 45.04-114.6 73.65-167.49 77.63-37.4 3.71-77.47 4.24-115.94-.53-56.63-6.89-97.5-22.52-137.57-37.63 20.3-19.6 40.61-46.62 48.89-69.94a53.857 53.857 0 00-1.61-42.66 228.104 228.104 0 0146.49-263.35c51.28-50.07 121.81-73.65 193.4-64.91a232.897 232.897 0 01137.84 66.77zM1024 64v896a63.995 63.995 0 01-64 64H64a63.995 63.995 0 01-64-64V64A63.995 63.995 0 0164 0h896a63.995 63.995 0 0164 64zM804.87 357a314.804 314.804 0 00-110.86-71.8c23.51-69.15 106.86-94.32 106.86-94.32S606.39 89.94 391.62 130.21c-71.59 11.39-140.24 55.37-190.46 113.39a298.427 298.427 0 0032.32 423.38c19.5 16.69 63.04 42.65 63.85 43.98-28.59 72.59-119.95 92.46-119.95 92.46s120.75 75.51 282.89 95.12a595.484 595.484 0 00135.97 1.58c75.07-6.09 149.86-45.83 206.76-101.73C926.15 677.04 927.22 479.4 804.87 357z"/></svg>