<svg xmlns="http://www.w3.org/2000/svg" viewBox="0 0 1024 1024" role="img"><path d="M960 0H64A64 64 0 000 64v896a64 64 0 0064 64h896a64 64 0 0064-64V64a64 64 0 00-64-64zM804.33 362.04c.46 6.44.46 13.11.46 19.55 0 199.41-151.8 429.18-429.18 429.18A427.202 427.202 0 01144 743.15a317.801 317.801 0 0036.34 1.84 302.436 302.436 0 00187.22-64.4 151.046 151.046 0 01-140.99-104.65c23.23 3.45 44.16 3.45 68.08-2.76A150.858 150.858 0 01173.9 425.06v-1.84a150.746 150.746 0 0068.08 19.09 150.528 150.528 0 01-67.16-125.58 148.962 148.962 0 0120.47-76.13 428.314 428.314 0 00310.96 157.78C484.86 296.03 561.45 213 653.45 213a150.303 150.303 0 01110.17 47.61 295.591 295.591 0 0095.68-36.34 150.454 150.454 0 01-66.24 83.03c30.36-3.22 59.8-11.73 86.94-23.46a317.508 317.508 0 01-75.67 78.2z"/></svg>