<svg xmlns="http://www.w3.org/2000/svg" viewBox="0 0 1024 1024"><path d="M137.03027,513.71a31.80361,31.80361,0,0,1-33.96045,28.86011A33.96314,33.96314,0,0,1,70.87988,508.12,31.797,31.797,0,0,1,105.23,478.66992,33.76865,33.76865,0,0,1,137.03027,513.71ZM288.77,464.34009A9.82035,9.82035,0,0,0,303.79,465.52a27.84233,27.84233,0,0,0,6.96973-11.78,55.29886,55.29886,0,0,0-2.05957-34.45A33.41313,33.41313,0,0,0,294.27,402.7a5.33423,5.33423,0,0,0-4.02979-.67993,18.92886,18.92886,0,0,0-9.81006,7.55,3.2496,3.2496,0,0,0,.87988,4.80994,29.45956,29.45956,0,0,1,15.22021,20.71008A31.8196,31.8196,0,0,1,288.77,460.12,3.24394,3.24394,0,0,0,288.77,464.34009Zm443.3501-161.65015c.49023.98-.69043,1.96008-1.66992,1.47C727.01953,302.29,695.61035,255.08008,597.46,235.45A306.7197,306.7197,0,0,0,516.87988,233.29,5.0028,5.0028,0,0,1,515.6001,223.48a137.69742,137.69742,0,0,1,37-8.1499A215.95974,215.95974,0,0,1,657.12988,231.23a148.70654,148.70654,0,0,1,70.57031,61.84009l.09961-.20007A103.373,103.373,0,0,1,732.12012,302.68994Zm165.38965,164.5v-1.28A25.63474,25.63474,0,0,0,874.33984,477.79c-9.21973-5.79-34.25-17.96-43.96973-22.97l-3.53027-1.77a2.26456,2.26456,0,0,0-1.76953,0V452.47a15.63039,15.63039,0,0,0,0-2.15991c9.81934-202-194.62988-358.93994-392.60059-298.19006a310.55129,310.55129,0,0,0-201.8999,202.1,358.53117,358.53117,0,0,0-12.75977,90.2l-7.46,2.94006-5.3999,2.26c-9.81006,4.31995-19.63037,8.93005-29.44043,13.94006-9.81982,5-19.62988,9.80994-28.56982,16A3.036,3.036,0,0,0,145.77,483.38a3.1409,3.1409,0,0,0,4.02,1.48c9.81982-4.5199,19.62988-8.53992,29.4502-12.2699,9.80957-3.7301,20.11963-7.07007,30.31982-9.82007h.58984c4.91016-1.47,9.81982-2.75,14.81982-4.02l7.66016-1.77h.87988l6.87012-1.47c10.31006-2.26,20.71-3.63,31.12012-4.91h1.18018a10.69915,10.69915,0,1,0-5.01025-20.71c-9.12988,2.20007-18.27979,4.55994-26.7002,7.34a329.86817,329.86817,0,0,1,11.68018-80.36A287.09373,287.09373,0,0,1,439.14014,170.38q11.97-3.63007,23.8501-6.18005c7.75977-1.66992,38.76953-6.09,4.90967,12.8501A258.51355,258.51355,0,0,0,350.12012,323.68994c-9.82031,31.70007-13.65039,94.23-6.78027,142.22C345.5,480.92993,340.3999,483.87,331.08008,487.8c-19.62988,8.34-53.99023,23.46-71.6499,44.85986-6.88037,8.24011-9.82031,0-11.49023-5.88989a301.44894,301.44894,0,0,1-6.27979-49.08008,4.81085,4.81085,0,0,0-5.99023-4.41992c-4.81006,1.17993-9.81006,2.36-14.33008,3.92993a4.82366,4.82366,0,0,0-3.23975,4.71C220.8501,545.02,236.8501,603.72,275.12988,601.85a5.09818,5.09818,0,0,0,4.61035-6.18005,29.483,29.483,0,0,1-13.25-14.72C253.83008,543.06006,371.21973,493.49,521.68994,471.02c138.18994-20.71,256.85986-11.29,277.47021,20.22a16.48665,16.48665,0,0,1,1.17969,18.74A93.29487,93.29487,0,0,1,762.94043,546.79a5.68828,5.68828,0,0,0-1.77051,8.05,5.61582,5.61582,0,0,0,7.27051,1.96,108.95254,108.95254,0,0,0,46.12988-42.79,116.57439,116.57439,0,0,0,9.80957-43.98c9.82031,3.05,35.73047,13.45,45.63965,17.48h.79a27.71055,27.71055,0,0,0,24.93066,34.45,25.81764,25.81764,0,0,0,26.99023-24.84A28.2675,28.2675,0,0,0,897.50977,467.18994ZM699.96,412.2a13.43861,13.43861,0,0,1-10.13965,3.8501,522.834,522.834,0,0,0-99.12988,1.77A13.44578,13.44578,0,0,1,576.16016,403.98V392.4a6.27453,6.27453,0,0,1,4.91016-6.09,384.75423,384.75423,0,0,1,117.7793-1.37012,5.88728,5.88728,0,0,1,4.91016,5.98L703.9502,402.11A13.41255,13.41255,0,0,1,699.96,412.2Zm73.29-42.97a5.1238,5.1238,0,0,1-6.19043,1.97c-85.5791-32.49-219.16943-14.13989-219.16943-14.13989A544.28813,544.28813,0,0,0,413.81982,387.88a15.12127,15.12127,0,0,1-20.52-14.52,248.12735,248.12735,0,0,1,3.54-35.03992,178.11565,178.11565,0,0,1,37-86.67c1.18018-1.38,2.36035-2.75,3.62988-4.03a3.92592,3.92592,0,0,1,.79-.98l.59033-.68005,1.46973-1.56995.68994-.69006C499.21,182.84009,601.58008,175.88,673.42969,215.53a228.27643,228.27643,0,0,1,86.16992,85.59C762.74023,307.01,782.57031,352.84009,773.25,369.23ZM512,0C229.23,0,0,229.23,0,512s229.23,512,512,512c282.76953,0,512-229.23,512-512S794.76953,0,512,0ZM408.03027,615c-4.91016,16.3-16.39014,55.56006-23.56055,86.28a2468.39523,2468.39523,0,0,0-40.13965,271.09A483.58166,483.58166,0,0,1,220.75,905.04a1105.75071,1105.75071,0,0,1,37.79-174.51,284.7856,284.7856,0,0,1,25.71973-59.38,83.30071,83.30071,0,0,1,34.55029-28.86c15.0137-7.31669,29.84023-14.39768,45.43994-20.42,9.81982-3.63,26.5-8.73,36.91016-11.77C406.5498,608.53,409.3999,610.1,408.03027,615ZM807.15039,755.83008a6.9625,6.9625,0,0,1-7.7002,5.22H798.96c-13.15039-2.25-25.91016-5.4-39.25977-6.87012l-9.81055-1.47-4.90918-.68994h-4.91016l-19.62988-1.86011c-3.34082-.49-6.6709,0-9.81055-.68994l-9.82031-.59H693.5498v5.01l.78027,17.56995v53c0,11.78-.87988,23.46-1.27051,35.14-.39941,11.68005-1.66992,23.45007-2.75,35.13a7.653,7.653,0,0,1-15.21-.67993c0-11.58008,0-23.17.58008-34.75.58984-11.58008,0-23.26,0-34.84009s0-23.16992-.58008-34.6499l-.58984-17.37012v-25.52h-32.79c-6.66992,0-13.33984.59009-19.62988.78C615.80957,747.9,608.75,748.39,602.46,748.98c-13.33984.88-26.68994,2.16-39.93994,3.63-26.6001,3.04-53.30029,6.87-79.31006,11.9801a6.96978,6.96978,0,0,1-3.24023-13.55c13.4502-3.63013,26.6001-6.48,40.05029-9.13013C533.46,739.26,546.81006,737.1,560.35986,735.04c6.67041-1.08008,13.54-1.76,20.31006-2.65,6.78027-.88,13.5498-1.56995,20.32031-2.16,6.76953-.59,13.5498-1.27,20.41992-1.57007,6.87012-.28992,13.63965-.98,20.50977-1.07983,10.7998-.49,21.58984-.59009,32.49023,0-1.17969-14.42017-2.5498-28.75-4.32031-42.99l-1.96.2c-.68945-5.69006-1.37988-11.48-2.25977-17.18005-.87988-5.69006-1.66992-11.38-2.75-16.98-1.08008-5.59-1.96-11.28-3.04-16.88-1.08008-5.59009-2.46-11.29-3.83008-16.39a7.65664,7.65664,0,0,1,14.53027-4.61c2.16016,6.08008,3.62988,11.58008,5.2002,17.47,1.56934,5.89,2.93945,11.48,4.21973,17.27,2.4502,11.67993,4.41992,23.26,6.28027,34.93994,2.35938,15.32007,3.92969,30.73,5.19922,46.04,9.82031.49,20.32031,1.17,30.43066,2.16A392.04111,392.04111,0,0,1,802.79,747.61,6.95647,6.95647,0,0,1,807.15039,755.83008Zm58.35938,97.98a793.7496,793.7496,0,0,0-20.31934-101.3v-.09009c-15.31055-57.02991-36.02051-146.34985-97.1709-166.85986C682.84961,563.38,612.76953,560.91992,545.0498,565.24a642.73788,642.73788,0,0,0-142.23,25.41992C382.31006,596.65,316.5498,621.87,303.5,628.55A89.569,89.569,0,0,0,266.49023,659.47a305.13193,305.13193,0,0,0-27.58008,63.6001,1218.008,1218.008,0,0,0-37.79,166.85986C189.64014,880.11,178.4502,870.3,167.75,859.4-22.77,668.95-23.62988,360.36,165.83008,168.85c189.4502-191.50989,498.03027-193.99011,690.53027-5.53992C1048.86035,351.76,1052.95019,660.32007,865.50977,853.81006Z"/></svg>
