<svg xmlns="http://www.w3.org/2000/svg" viewBox="0 0 1024 1024" role="img"><path d="M960 0H64A63.995 63.995 0 000 64v896a63.995 63.995 0 0064 64h896a63.995 63.995 0 0064-64V64a63.995 63.995 0 00-64-64zM850.74 242.51l-54.85 52.58a16.114 16.114 0 00-6.18 15.31v386.97a15.758 15.758 0 006.18 15.32l53.71 52.57v11.65H579.89v-11.2l55.54-53.94c5.48-5.48 5.48-7.08 5.48-15.31V383.54L486.4 775.77h-20.8L285.71 383.54V646.4a36.145 36.145 0 0010.06 30.17L368 764.11v11.66H162.74v-11.66l72.23-87.54a34.988 34.988 0 009.37-30.17v-304a26.068 26.068 0 00-8.68-22.4l-64.23-77.49v-11.65h199.54l154.06 338.28 135.54-338.05h190.17z"/></svg>