<svg xmlns="http://www.w3.org/2000/svg" viewBox="0 0 1024 1024" role="img"><path d="M843.754 420.853H180.236a62.228 62.228 0 00-62.224 62.224v414.699A62.228 62.228 0 00180.236 960h663.518a62.228 62.228 0 0062.224-62.224V483.077a62.228 62.228 0 00-62.224-62.224zm-331.76 487.3c-120.062 0-217.725-97.664-217.725-217.726S391.932 472.7 511.995 472.7 729.72 570.364 729.72 690.427s-97.663 217.726-217.726 217.726zm0-396.058c-98.328 0-178.331 80.002-178.331 178.332s80.003 178.332 178.332 178.332 178.332-80.003 178.332-178.332-80.003-178.332-178.332-178.332zm0 307.91c-61.205 0-112.817-43.193-126.132-100.561h65.397a67.524 67.524 0 102.27-62.225h-66.648c14.802-55.293 65.357-96.41 125.114-96.41 71.192 0 129.578 58.386 129.578 129.578 0 71.231-58.386 129.618-129.578 129.618zm464-778.41c-.038.038-.077.077-.077.117-.079-.079-.157-.118-.235-.196.039-.04.078-.118.156-.157-4.542-5.365-10.925-9.046-20.324-9.32a25.623 25.623 0 00-20.05 10.142l-71.191 92.143a61.256 61.256 0 00-20.48-3.72H180.236a62.438 62.438 0 00-20.48 3.72L88.564 42.142A25.74 25.74 0 0068.514 32c-9.398.235-15.78 3.916-20.323 9.32.039.04.078.117.156.157a1.703 1.703 0 00-.274.235c0-.04-.039-.079-.078-.118-2.585 3.054-11.63 16.682-.47 32.267l74.755 96.763a62.143 62.143 0 00-4.229 22.165v145.164a62.228 62.228 0 0062.224 62.224h663.518a62.228 62.228 0 0062.224-62.224V192.789a61.327 61.327 0 00-4.268-22.165l74.755-96.763c11.121-15.585 2.075-29.213-.51-32.267zM312.44 348.29a69.978 69.978 0 1169.977-69.978 69.975 69.975 0 01-69.977 69.978zm404.32 0a69.978 69.978 0 1169.978-69.978 69.975 69.975 0 01-69.977 69.978z"/></svg>