<svg xmlns="http://www.w3.org/2000/svg" viewBox="0 0 1024 1024"><path d="M533.49072,713.155c42.69824,0,69.17017-17.82764,69.17017-45.46045S566.55981,633.822,566.55981,633.822H495.24927c-16.93628,10.251-25.84985,26.74146-25.84985,43.67773S490.79248,713.155,533.49072,713.155Z"/><circle cx="533.49078" cy="435.45215" r="51.85504"/><path d="M960,0H64A64,64,0,0,0,0,64V960a64,64,0,0,0,64,64H960a64,64,0,0,0,64-64V64A64,64,0,0,0,960,0ZM277.3064,589.30688c30.998,0,59.8186-19.55737,70.93481-28.10547a4.5454,4.5454,0,0,1,7.106,2.26855c2.34595,6.79761,5.78149,18.03687,6.64063,27.7207.90039,10.1499-.82715,20.94092-2.05127,26.905a18.81979,18.81979,0,0,1-4.82544,9.25391c-8.49438,8.86206-32.96606,27.41992-88.947,27.41992C130.67407,654.76953,128,517.051,128,492.761c0-24.29028,2.67407-162.00879,138.16406-162.00879,55.981,0,80.45264,18.55811,88.947,27.42017a18.819,18.819,0,0,1,4.82544,9.25366c1.22412,5.96411,2.95166,16.75513,2.05127,26.905-.85913,9.68384-4.29468,20.9231-6.64062,27.7207a4.54539,4.54539,0,0,1-7.106,2.26855c-11.11621-8.5481-39.93677-28.10547-70.93481-28.10547-39.6665,0-68.63647,38.48877-68.63647,96.54614S237.63989,589.30688,277.3064,589.30688ZM854.55078,587.916c14.262,0,31.94092-6.68555,31.94092-6.68555,12.67773,0,12.67773,60.91138,0,60.91138,0,0-15.00488,9.95361-50.66016,9.95361s-93.14941-9.80518-93.14941-80.67017V403.8457H648.03857a91.46781,91.46781,0,0,1,5.41113,31.00366c0,57.491-53.70752,104.09668-119.959,104.09668a135.09867,135.09867,0,0,1-49.49463-9.24731c-5.30908,4.44214-10.73437,11.49976-10.73437,21.81885,0,12.59741,12.011,21.26563,21.05664,26.009,22.81567-.16968,63.19238-.376,78.4812.13843,21.15918.71167,107.85718,6.53687,107.85718,82.00708s-70.2981,104.58911-147.166,104.58911-139.85889-19.01636-139.85889-77.25342c0-35.93872,25.34351-58.06738,44.75317-69.748-13.25537-7.24-32.27393-23.08936-32.27393-54.45093,0-29.50708,20.60938-49.15747,36.562-59.95-18.158-18.24219-29.14136-42.01221-29.14136-68.00952,0-57.491,53.70752-104.09717,119.959-104.09717a135.838,135.838,0,0,1,43.71484,7.1311H742.68213V269.24683c0-12.67725,76.65845-12.67725,76.65845,0V337.8833H886.4917c12.67773,0,12.67773,65.9624,0,65.9624H819.34058V557.16333C819.34058,583.01318,840.28857,587.916,854.55078,587.916Z"/></svg>