<svg xmlns="http://www.w3.org/2000/svg" viewBox="0 0 1024 1024"><path d="M960,0H64A64,64,0,0,0,0,64V960a64,64,0,0,0,64,64H960a64,64,0,0,0,64-64V64A64,64,0,0,0,960,0ZM802.52917,724.418C712.81024,885.59888,509.33453,943.49121,348.20123,853.74414,187.03442,764.13721,126.793,559.3833,218.91144,399.584c18.58429-32.23486,46.56549-62.04248,53.27765-68.76562,3.35046-3.33667,21.985,8.34521,16.28528,17.83447C257.895,455.28076,272.40442,529.19556,309.02753,599.39063c2.64569,1.62207,16.0224,7.5791,17.47675,2.33521,7.98743-219.31641,122.449-355.8916,258.07056-448.59473,77.49164-23.98755,142.01208-31.71216,164.52014-19.219l.00275.00537C809.946,167.89771,906.324,538.3855,802.52917,724.418Z"/></svg>