<svg xmlns="http://www.w3.org/2000/svg" viewBox="0 0 1024 1024"><path d="M543.04712,364.90234c-3.06592-1.69873-6.40051-2.91309-9.61084-4.35205,15.26135,12.48535,20.94385,19.57788,24.38281,32.78247,6.01208,23.08643-4.00134,38.23315-28.84351,40.92358,14.86365,5.6001,25.79883,1.50464,31.79529-10.88818C568.50488,407.3855,564.99316,377.06665,543.04712,364.90234Z"/><path d="M549.11963,349.65918a18.95953,18.95953,0,0,0,5.09253,5.69482c12.51367,10.2395,19.77539,23.717,21.0929,39.47974,1.06677,12.76294-.21582,25.7373-.684,38.60913-.42065,11.56543-1.15125,23.11963-1.74512,34.6792q1.0459.06372,2.09192.12891c.90662-7.04712,2.12292-14.07031,2.65808-21.145,1.274-16.84033,3.65625-33.76538,2.949-50.54443C579.6748,375.21289,568.93628,358.91675,549.11963,349.65918Z"/><path d="M548.89673,409.79883a59.10887,59.10887,0,0,0-.478-20.36914c-2.168-10.12085-11.67773-18.29541-18.70947-17.65259-7.15015.65332-13.5321,2.70581-16.3302,10.30542-2.94885,8.00855-.29089,16.71265,6.88074,22.83008-.99023-5.32227-2.6488-10.68359-2.81885-16.0918a12.40393,12.40393,0,0,1,9.1123-12.88867c6.65552-2.1001,11.59619,1.72534,13.70886,7.03027a50.73784,50.73784,0,0,1,3.77429,19.73633c-.33411,11.05054-9.22888,16.02319-19.72314,12.064-10.48462-3.95581-16.03381-12.1228-17.66089-22.73584-1.59106-10.37817,3.2616-17.87061,12.16479-23.29-6.5188-.54492-10.484,3.17822-13.31189,8.24561-10.05188,18.01172,3.72937,44.06958,24.31653,46.156C538.23242,423.99121,547.71509,418.04761,548.89673,409.79883Z"/><path d="M960,0H64A64,64,0,0,0,0,64V960a64,64,0,0,0,64,64H960a64,64,0,0,0,64-64V64A64,64,0,0,0,960,0ZM272.02734,137.76782c3.818-1.34814,8.53149-1.1521,12.63428-.46851,6.23242,1.03857,12.29053,3.12207,18.42261,4.76172q.49329-1.29492.98657-2.59009c-1.44409-1.20312-2.88806-2.40625-5.87158-4.89209,12.85571-2.41357,24.46021-6.2395,36.12964-6.45,26.58228-.47827,53.21118.45117,79.79163,1.53394,14.942.6084,23.75671,8.87231,28.54553,23.53784,3.7854,11.5918,10.79858,22.12939,16.50562,33.386-9.84167-4.87671-19.65625-10.14673-29.79834-14.6853C403.7594,160.439,376.828,154.5603,348.96167,150.9126c-35.80737-4.68726-70.87244.90283-106.20935,3.72046-4.53259.36157-9.1189.04956-14.70569.04956C243.75537,148.56714,257.76294,142.804,272.02734,137.76782ZM213.999,157.03857c21.54395,7.4707,43.33826,4.09277,64.90259,1.11133,46.79614-6.469,91.78674-.884,135.45068,17.1814,57.7948,23.91138,104.80835,61.92065,144.7937,109.31885.454.53809.45386,1.45947.90454,3.03979-10.58276.01611-20.07349-3.56934-28.76025-8.1416-15.36084-8.08594-29.96729-17.59106-45.09155-26.14478-21.804-12.33081-43.7533-24.40747-65.73047-36.428a22.14724,22.14724,0,0,0-12.68262-2.85864c7.36084,3.79565,14.98706,7.15747,22.03149,11.46948,19.6438,12.02539,39.34668,23.99707,58.45972,36.83374,19.23755,12.92017,38.68677,24.90723,61.41028,30.98608,7.00427,1.87378,13.309,6.36377,19.934,9.65625q-.44861,1.6842-.89734,3.36768c-3.76453,0-7.54749.24365-11.29028-.04175-17.01233-1.29565-30.01941,5.85645-39.20557,19.58008-5.1322,7.66748-8.86707,16.28784-13.04016,24.575-3.57568,7.10107-6.87891,14.34009-10.30261,21.51807q-1.58661-.31567-3.17273-.63062c.36584-3.92261.22424-7.979,1.215-11.73657,1.5415-5.84668,3.73938-11.532,5.85718-17.21191,9.08142-24.35522,3.1676-45.10547-14.67834-63.28027-24.66333-25.11768-53.42261-44.39893-84.70825-60.15039-19.47217-9.80371-39.60962-17.86133-61.52271-21.67261,3.68677,1.5188,7.3064,3.2334,11.071,4.52539a327.48391,327.48391,0,0,1,108.83813,62.3064c10.26611,8.877,19.15479,19.72461,27.13062,30.78369,12.00879,16.65088,12.593,41.31128-2.55457,61.29443-22.08508-13.22778-44.60144-25.87793-66.13562-40.02393-8.58118-5.63721-15.4657-14.17236-22.27905-22.11133-10.52856-12.269-19.708-25.72705-30.56812-37.67285-26.416-29.0564-59.14746-48.48486-96.00415-61.65161-15.176-5.42163-29.89673-12.25586-44.45386-19.22144-9.45264-4.52295-13.13037-9.07715-18.44775-18.68408C208.54858,156.92383,211.54858,156.18872,213.999,157.03857ZM584.67639,348.99829c14.77161,13.87256,21.999,30.78882,20.6792,51.071-.99695,15.32007-1.77527,30.69165-3.71606,45.90479-3.5553,27.8667-.95886,54.97656,9.18445,81.085,7.79065,20.05249,20.83228,35.05054,44.1123,36.13818,8.23877.38477,16.60156-1.88794,24.92859-2.20825-21.79285,11.48169-43.64819,14.8335-67.64441-2.57764,7.98682,10.45044,18.65332,16.32544,30.72632,15.59033,11.14331-.67847,22.32532-3.11108,33.14392-6.04736,10.49451-2.84863,20.44788-7.62891,30.818-11.01147,17.69214-5.77026,35.78271-6.76709,53.80615-1.9563,5.27661,1.40845,10.34924,4.50317,14.82642,7.76953,7.01306,5.11621,8.58179,12.82739,6.23975,20.71216-2.26978,7.6416-8.447,11.89551-16.217,12.81909-10.644,1.26465-19.99072-1.30737-26.58606-11.57422,7.42468,1.74536,13.79871,3.92578,20.32556,4.57861,6.06763.60718,11.24-2.30493,12.99756-8.69019,1.71289-6.22168-.80786-11.43164-6.1543-14.519a31.99812,31.99812,0,0,0-12.32324-4.15234c-13.7821-1.418-26.38037,3.15381-38.41162,9.24414-11.90674,6.02783-23.45483,12.77051-35.40918,18.69727-20.64673,10.23682-42.21826,13.36816-64.77466,7.22681a6.59479,6.59479,0,0,0-6.17517,1.35327c5.14026,1.99512,10.13562,4.61719,15.453,5.84668,9.39221,2.17188,15.89819,7.82764,20.76611,15.58276,6.45,10.27539,12.14319,21.03955,18.84692,31.13818,6.241,9.40259,12.61877,18.94409,20.40723,27.00317,4.72705,4.89111,11.90552,8.41016,18.60291,10.12744,7.1554,1.835,10.84534-3.90381,7.01611-10.36035-3.24988-5.47974-7.82678-10.23877-12.17737-14.9856-7.64014-8.33569-16.22095-15.89575-23.18286-24.74463-8.13452-10.33862-8.83276-21.27661-3.57373-28.01221,5.76929-7.38892,16.72339-8.71216,29.02515-2.7439a39.79359,39.79359,0,0,1,14.37256,11.84058c-6.20166-2.52368-12.28711-5.40771-18.64185-7.457-5.0498-1.62817-10.8374-2.511-14.31226,2.88208-3.2749,5.08252-1.41748,10.41943,2.22583,14.55273,6.13843,6.96362,12.98267,13.30225,19.16846,20.22754,6.70264,7.50342,14.16675,14.68335,19.20947,23.23608,9.645,16.35913.03711,31.54126-19.08716,30.64722-19.53711-.91333-35.40442-10.79346-49.48328-23.43359-10.18909-9.14795-19.587-19.17725-31.48792-30.93823,1.35864,5.01343,1.69031,7.457,2.657,9.6167,10.61743,23.718,19.91309,47.92969,22.55127,73.95435a94.01528,94.01528,0,0,1-1.57422,29.94653c-3.519,15.38867-14.121,24.79883-29.712,28.28247-.54614-1.21338-1.29187-2.14844-1.07849-2.498,10.30847-16.87158,11.2124-34.80566,7.52954-53.83008-4.75537-24.56372-14.863-46.74145-28.70312-67.7605.698,2.22778,1.26172,4.50781,2.116,6.67407,5.62842,14.27368,11.94678,28.3125,16.82507,42.83594a109.45437,109.45437,0,0,1,4.3573,51.498c-1.21472,8.10791-3.28516,16.269-12.89673,18.57764-8.83228,2.12207-16.20947-1.469-21.4812-8.10913-15.59155-19.637-19.489-41.85767-12.92944-66.02075,1.24084,10.12524,2.05591,20.32617,3.84094,30.35449A41.01011,41.01011,0,0,0,588.79468,767.988c7.60742,6.00049,13.86267,3.99707,16.31079-5.46753,4.32153-16.70825,1.17334-33.18237-4.65967-48.75781-5.93774-15.856-13.7373-31.02417-20.918-46.40186-4.78979-10.25806-9.88989-20.37207-14.912-30.52026a52.8349,52.8349,0,0,1-3.85889-37.74243,49.7547,49.7547,0,0,0,1.19373-18.2959c-1.10718,4.11719-2.27417,8.219-3.31226,12.35327-9.45264,37.6438-23.08,73.3374-48.88464,103.19775-12.713,14.71069-28.29407,23.90161-48.42786,23.76636-22.131-.14941-34.729-11.88525-35.8186-34.00928-.83252-16.90723,5.18872-31.71167,15.07471-45.07471a37.43321,37.43321,0,0,1,11.8446-10.86987c-2.14978,3.21021-4.69922,6.22656-6.37195,9.66846-4.384,9.02222-8.84583,18.06006-12.32056,27.44556-1.45593,3.93213-1.24414,8.8877-.50732,13.15625,3.41321,19.76782,17.16687,25.37964,33.37476,13.7229,19.53357-14.04907,30.751-34.093,38.89307-55.99023a299.16775,299.16775,0,0,0,17.42407-79.09058c.864-10.073,2.2959-20.08789,8.33264-28.78662a10.93844,10.93844,0,0,0,1.6217-7.81787c-5.81531,8.13281-11.25659,16.57031-17.56775,24.29858a113.9401,113.9401,0,0,1-16.23645,16.20532c-22.90234,18.63135-49.93115,9.498-60.81226-15.79468-13.03052-30.29-9.20166-60.136,5.83228-88.82446a37.19459,37.19459,0,0,1,8.57788-10.13281c10.91064-9.57471,24.66821-5.00293,27.93384,9.05029,2.25293,9.69458-3.24341,23.5813-11.45435,28.94043-6.36011,4.15137-11.968,1.92139-13.59583-5.40552-1.84375-8.29907,3.35522-14.50537,12.079-13.44312-.96484-5.79028-3.51538-8.17139-8.7821-4.95508a17.498,17.498,0,0,0-5.7146,6.12183c-9.30847,16.31665-11.70764,33.626-5.08289,51.34009,5.99731,16.0354,21.62573,20.80444,35.43237,10.67749,6.03882-4.42944,11.07446-10.644,15.46143-16.83081,14.47644-20.4165,18.34546-43.09668,16.135-68.01855-.99243-11.19019-6.58557-18.19678-12.3595-25.94263-6.56042-8.80054-10.24768-18.34912-9.26038-29.36792a27.85913,27.85913,0,0,1,2.2876-9.26758c5.69678-12.06445,11.70093-23.98413,17.61523-35.9458.89636-1.8125,1.81494-3.62671,2.88647-5.33838,18.05054-28.82593,28.90662-30.40063,56.36792-26.83862,8.11841,11.85547,16.36523,23.81763,24.47693,35.87061.81079,1.20435.80041,2.96167,1.85376,7.22681-8.69312-7.46924-15.47986-13.30054-22.26636-19.13135q-.87909.76172-1.75806,1.52319C578.16187,342.0061,581.20093,345.73486,584.67639,348.99829Zm124.8739,56.80835c-10.18665-8.80908-18.43323-15.7124-26.39795-22.92676-3.79346-3.43628-9.54-7.58813-6.136-12.90869,2.15918-3.37451,8.5083-4.06763,12.97827-5.96362l1.455,2.51221c-2.36218,1.98364-4.72424,3.967-7.40955,6.22217C688.26025,386.26074,702.45215,391.624,709.55029,405.80664Zm-37.75562-37.27173c-2.73914,8.96045,4.45984,14.28711,10.14551,19.07544,14.27612,12.0227,28.21338,24.15186,37.86475,40.52808,12.18542,20.67651,17.807,42.36792,11.58472,66.15894-7.67676,29.35181-37.62207,53.894-68.01208,55.616-7.65515.43384-15.35889-.05688-23.028.2207-8.82446.31934-14.7168-3.94531-18.23547-11.51782-3.36389-7.23975-6.11609-14.76343-10.278-24.95679,6.535,2.50757,10.37085,4.15112,14.31653,5.46484,24.52051,8.16626,47.812,7.54053,68.19934-10.52588,29.9823-26.56909,29.86743-66.32471-.1571-96.03418-6.03381-5.97046-12.496-11.51074-18.47717-17.531a66.80115,66.80115,0,0,1-9.21289-11.19946c-5.6593-8.96924-5.29321-16.37134.43262-22.12573,5.85327-5.88232,13.7843-6.65625,24.006-1.7417C682.81873,360.46826,674.405,359.99512,671.79468,368.53491Zm7.81689,142.88159c-7.9502,6.62012-19.31787,9.88721-30.67737,8.37793a147.49556,147.49556,0,0,1-18.88025-3.94189c-18.80127-5.0686-23.14429-11.44824-21.64026-33.15723C627.68188,506.11328,649.86865,518.07324,679.61157,511.4165Zm71.08887,71.573c3.79492-4.8335,6.87866-8.76147,10.41809-13.26978,5.151,1.34155,8.10925,5.14819,5.6355,10.21021C763.40552,586.78174,757.12732,585.35693,750.70044,582.9895Zm-50.6582,136.38721c-12.12915-2.31494-23.481-6.14062-32.95728-14.22485-8.88013-7.5752-17.45337-15.5105-26.16162-23.28735q1.35443-1.55237,2.70923-3.10425c7.78638,6.25879,15.02026,13.44287,23.5144,18.51758a106.32057,106.32057,0,0,0,27.59631,11.74341c19.62463,5.04907,32.38147-3.69678,36.25623-23.314.43677-2.21118.62988-4.4707,1.05908-7.60669C744.6488,699.83887,717.82007,722.76953,700.04224,719.37671ZM279.35352,240.43628c-5.51123,1.22583-11.01611,2.51636-16.5752,3.48315-11.36731,1.97607-19.916-2.34131-25.14819-12.48535-8.87561-17.20776-17.43457-34.5791-26.68787-52.99854,18.41235,7.59473,35.06628,15.2793,52.2821,21.3772a251.65746,251.65746,0,0,1,73.99609,40.76294c22.5542,18.05542,39.74976,40.15723,49.49438,67.62476,1.28784,3.63013,2.08264,7.4353,3.36792,12.11377-9.366,1.27954-17.25146,2.6521-25.19617,3.38062-15.9613,1.46411-28.44739-4.47485-36.78259-18.39551-12.67383-21.16553-25.97485-41.81177-48.95483-57.93359,9.47742-1.7937,16.34912-3.094,22.83008-4.32031C293.57666,238.7085,289.33911,238.21509,279.35352,240.43628Zm-5.995,184.25146c16.81653,9.52588,31.17908,21.75537,39.05518,40.189,4.36926,10.22607,6.01758,19.14771,4.536,32.324-12.92371-23.91553-35.26123-33.38989-51.8822-49.20752-15.00305-14.27783-24.37927-33.73413-24.19055-54.87231.62769,0,1.72192-.19824,1.81836.02832C248.86011,407.62793,259.93018,417.0813,273.35852,424.68774Zm5.44983,42.47778C301.86646,483.864,317.9939,505.34644,322.22,534.35181c.286,1.96362.31812,3.96411.53125,6.7771-12.35974,1.26855-13.83105,1.02759-15.151-8.86157-3.55042-26.604-18.76941-45.64233-38.0553-62.57837-14.02-12.31152-26.52429-25.88794-31.1106-45.21069,1.01978,0,2.02258-.18213,2.11145.02588C248.47461,443.06982,262.89758,455.64307,278.80835,467.16553ZM243.29712,601.9126c1.512-46.084,35.55957-61.39941,69.51147-54.9856,30.7915,5.81665,52.804,24.80664,71.45068,48.9646-8.61426-7.22363-16.85352-14.96338-25.92444-21.55908-16.65247-12.1084-34.87964-19.68286-56.15552-19.80933-34.81165-.208-48.269,23.82593-45.84949,54.56177,1.71484,21.78467,10.11523,41.43115,22.13721,59.623,11.22681,16.989,11.09351,17.07715,12.38647,40.44849-2.65259-2.0354-4.96094-3.2395-6.51233-5.08154C259.45728,674.53516,241.98853,641.7959,243.29712,601.9126Zm43.58716-37.36914c6.9292-5.158,14.326-5.01855,21.68848-3.95679a95.47644,95.47644,0,0,1,47.16968,20.31421c9.34814,7.55078,18.33752,15.54541,27.4873,23.34131Q382.39,605.61511,381.55,606.988c-20.396-11.88257-42.74243-18.1499-65.16235-24.49243C305.67993,579.46606,295.34644,574.40039,286.88428,564.54346Zm8.05518,107.614c2.77612-27.28394,8.10181-54.30933,12.38428-81.436.17151-1.08716,1.14795-2.04639,2.12231-3.69727,9.33569-.25244,12.20825,4.17944,11.31006,12.16943-1.35376,12.0437-2.74646,24.09155-3.67749,36.17236-1.71118,22.20215-2.64722,44.31714,2.37085,66.40063,8.2605,36.35254,30.47913,60.3,64.83154,72.62329,49.19775,17.64844,93.0852,7.89917,130.81958-28.4519,5.91577-5.699,11.44312-11.80151,17.1499-17.71729q-.96863-.96533-1.93762-1.93164c-1.44714,1.08325-2.99011,2.06006-4.32751,3.26514-47.59985,42.89111-102.09595,48.99634-160.70508,28.81445-15.39478-5.30127-24.59595-18.92114-30.62158-35.51807,3.29834,1.41113,6.679,2.65674,9.88184,4.25879,24.68823,12.35107,50.63452,18.55469,78.41235,17.84912,38.19775-.96948,68.40149-17.06592,92.01416-46.51562a230.821,230.821,0,0,0,35.52759-61.84839,54.59774,54.59774,0,0,1,2.41821-5.55054c.32861-.63306,1.19482-.98755,2.66309-2.1272,4.2865,9.65332,8.80371,18.96655,12.48169,28.59985a18.31827,18.31827,0,0,1,.125,10.71362c-13.39539,48.20923-36.5,90.05347-80.58838,116.87744-54.57739,33.20581-134.60645,17.76953-171.9646-32.5271C297.826,728.61108,291.99707,701.07275,294.93945,672.15747ZM427.57178,535.16235c5.49084,19.07715,15.125,34.81665,35.90332,43.12891-8.36938,4.15332-15.11353.9978-21.44165-1.15405-10.76782-3.66064-18.55225-11.44189-24.17383-21.11987-18.8396-32.43164-16.30957-65.16162.63306-97.10425,8.06934-15.21338,21.87744-23.13672,42.58618-22.87354-21.62378,10.12744-29.12646,27.20752-33.33154,46.34326C423.89258,499.92383,422.50183,517.54761,427.57178,535.16235Zm6.26074,88.70483c11.17834-9.02222,23.4624-16.56348,39.30933-20.4624-10.83838,9.7251-20.97925,17.66968-29.72754,26.93066-15.23,16.12134-23.94348,35.28418-23.05737,58.031.85742,22.0127,14.93921,36.00684,36.95813,36.63208,5.1012.145,10.20984.02124,15.31519.02124-16.59363,7.88818-33.39832,9.45874-50.17981,2.21582-14.70215-6.34546-20.28076-18.946-21.29138-33.98071C399.202,664.13623,411.87256,641.59082,433.83252,623.86719Zm67.97266,7.88477c2.12769-22.14038,3.60962-41.31958,6.04565-60.37744.64111-5.01562,4.2334-9.65479,8.01978-13.9502C515.615,582.40186,510.70764,606.25293,501.80518,631.752Zm329.426,84.54663C773.97131,810.24121,690.25732,868.8291,582.58984,888.87646c-117.78955,21.93164-224.229-6.85937-315.61523-85.24707C198.66187,745.03271,157.619,670.25977,143.3562,581.46387c-16.97607-105.68726,9.19629-201.271,70.52637-287.98242,6.71069-9.488,14.04114-18.53784,21.89453-28.85571,7.66943,6.75415,14.189,12.49585,21.23437,18.70044-7.68677,8.738-14.70032,16.47266-21.45386,24.42749-36.7478,43.28564-59.2981,93.4812-69.915,148.83594-19.92871,103.90576,2.78467,198.70386,65.77295,283.10669,44.8374,60.08105,104.26111,100.96191,175.9093,123.65527,37.71167,11.94434,76.4574,18.70972,115.90979,16.60376,117.1062-6.24976,212.61108-54.03027,282.03931-150.23437,36.09521-50.01514,57.551-106.04224,63.93481-167.05615,7.82788-74.81445-5.97925-146.16968-43.21057-211.8999-55.76941-98.45728-141.00305-157.39478-250.65735-181.31226-27.04468-5.89893-55.06079-7.34351-81.67456-10.7146,4.50757-.625,10.35535-1.88647,16.25208-2.18726,87.38782-4.45654,165.31726,21.32031,233.99976,74.856C816.53516,288.00928,861.62,362.44629,878.65161,452.44189,896.32666,545.8374,880.946,634.73462,831.2312,716.29858Z"/></svg>