<svg xmlns="http://www.w3.org/2000/svg" viewBox="0 0 1008 1024" role="img"><path d="M619.929 304.132c-1.405-5.687-1.39-8.03-2.472-9.636-10.815-16.07-21.811-32.02-32.636-47.827-36.615-4.75-51.09-2.65-75.157 35.785-1.429 2.282-2.653 4.701-3.848 7.118-7.886 15.949-15.892 31.841-23.487 47.927a37.144 37.144 0 00-3.05 12.357c-1.317 14.692 3.6 27.423 12.346 39.157 7.699 10.328 15.157 19.67 16.48 34.59 2.947 33.23-2.212 63.47-21.514 90.692-5.849 8.249-12.563 16.535-20.615 22.441-18.409 13.503-39.247 7.144-47.243-14.237-8.833-23.619-5.634-46.698 6.777-68.453a23.331 23.331 0 017.62-8.163c7.022-4.288 10.423-1.113 11.71 6.607-11.632-1.416-18.565 6.859-16.106 17.924 2.17 9.77 9.647 12.743 18.128 7.208 10.948-7.146 18.276-25.661 15.272-38.588-4.354-18.737-22.697-24.833-37.245-12.067-4.403 3.864-8.757 8.396-11.437 13.51-20.045 38.252-25.15 78.047-7.777 118.433 14.509 33.724 50.547 45.902 81.083 21.06a151.917 151.917 0 0021.649-21.607c8.415-10.304 15.67-21.555 23.424-32.398a14.586 14.586 0 01-2.163 10.424c-8.049 11.598-9.958 24.951-11.11 38.382a398.902 398.902 0 01-23.232 105.454c-10.856 29.196-25.812 55.922-51.857 74.654-21.61 15.542-39.949 8.06-44.5-18.297-.982-5.692-1.265-12.3.676-17.542 4.634-12.514 10.582-24.565 16.428-36.594 2.23-4.59 5.63-8.611 8.496-12.892a49.917 49.917 0 00-15.793 14.493c-13.181 17.818-21.21 37.557-20.1 60.1 1.453 29.499 18.25 45.147 47.759 45.346 26.845.18 47.62-12.074 64.57-31.689 34.406-39.814 52.576-87.405 65.18-137.597 1.384-5.512 2.94-10.981 4.416-16.47a66.34 66.34 0 01-1.592 24.394c-4.459 17.517-2.846 34.174 5.145 50.323 6.696 13.531 13.497 27.016 19.883 40.694 9.574 20.503 19.974 40.728 27.89 61.869 7.778 20.767 11.976 42.733 6.214 65.01-3.265 12.62-11.605 15.291-21.748 7.29a54.68 54.68 0 01-20.124-34.14c-2.38-13.371-3.466-26.973-5.12-40.473-8.747 32.217-3.55 61.845 17.238 88.028 7.03 8.853 16.866 13.641 28.642 10.812 12.815-3.079 15.576-13.96 17.196-24.77a145.938 145.938 0 00-5.81-68.664c-6.505-19.365-14.929-38.084-22.434-57.115-1.138-2.888-1.89-5.928-2.82-8.899 18.453 28.026 31.93 57.596 38.27 90.347 4.91 25.366 3.705 49.278-10.04 71.774-.284.466.71 1.713 1.439 3.33 20.788-4.644 34.924-17.191 39.616-37.71a125.354 125.354 0 002.099-39.928c-3.518-34.7-15.912-66.982-30.069-98.606-1.289-2.88-1.73-6.138-3.542-12.822 15.868 15.681 28.398 29.053 41.984 41.251 18.771 16.854 39.928 30.027 65.977 31.245 25.5 1.192 38.31-19.051 25.45-40.863-6.724-11.404-16.676-20.977-25.613-30.982-8.248-9.233-17.373-17.685-25.558-26.97-4.858-5.511-7.334-12.627-2.968-19.404 4.634-7.19 12.35-6.013 19.083-3.842 8.473 2.732 16.587 6.577 24.856 9.942a53.055 53.055 0 00-19.163-15.787c-16.402-7.958-31.008-6.193-38.7 3.658-7.012 8.981-6.081 23.565 4.765 37.35 9.282 11.799 20.723 21.879 30.91 32.993 5.8 6.33 11.903 12.674 16.237 19.98 5.105 8.61.185 16.261-9.355 13.815-8.93-2.29-18.501-6.982-24.804-13.504-10.385-10.745-18.888-23.467-27.21-36.004-8.938-13.465-16.529-27.817-25.129-41.517-6.49-10.34-15.165-17.882-27.688-20.778-7.09-1.639-13.75-5.135-20.604-7.795 3.28-2.432 5.848-2.454 8.233-1.805 30.076 8.189 58.838 4.014 86.367-9.635 15.939-7.903 31.336-16.893 47.212-24.93 16.041-8.12 32.84-14.216 51.215-12.325a42.66 42.66 0 0116.431 5.536c7.129 4.117 10.49 11.063 8.206 19.359-2.343 8.513-9.24 12.396-17.33 11.587-8.702-.87-17.201-3.778-27.1-6.105 8.793 13.689 21.255 17.118 35.447 15.432 10.36-1.231 18.597-6.903 21.623-17.092 3.123-10.513 1.031-20.795-8.32-27.616-5.97-4.355-12.733-8.482-19.768-10.36-24.031-6.414-48.152-5.085-71.742 2.609-13.827 4.51-27.098 10.884-41.09 14.682-14.425 3.915-29.335 7.158-44.192 8.063-16.098.98-30.32-6.853-40.969-20.787 31.995 23.215 61.136 18.745 90.193 3.437-11.103.427-22.253 3.457-33.238 2.944-31.04-1.45-48.43-21.448-58.817-48.184-13.524-34.811-16.986-70.958-12.246-108.114 2.588-20.284 3.626-40.78 4.955-61.206 1.76-27.043-7.877-49.598-27.572-68.095-4.634-4.35-8.686-9.323-13.006-14.01l2.344-2.03c9.05 7.774 18.098 15.55 29.689 25.508zM495.34 331.976c3.77-6.756 9.058-11.72 17.75-10.993-11.871 7.225-18.342 17.215-16.22 31.053 2.17 14.15 9.568 25.04 23.548 30.314 13.992 5.28 25.852-1.351 26.297-16.085a67.646 67.646 0 00-5.032-26.315c-2.817-7.073-9.405-12.174-18.279-9.374-8.155 2.573-12.405 9.051-12.15 17.185.227 7.211 2.439 14.36 3.76 21.456-9.563-8.157-13.107-19.762-9.175-30.44 3.73-10.133 12.24-12.87 21.773-13.74 9.376-.858 22.056 10.041 24.946 23.536a78.813 78.813 0 01.638 27.159c-1.576 10.998-14.22 18.923-25.434 17.786-27.45-2.782-45.824-37.526-32.422-61.542zm73.688 61.848c-7.995 16.524-22.576 21.984-42.394 14.518 33.123-3.587 46.474-23.783 38.458-54.565-4.585-17.606-12.162-27.063-32.51-43.71 4.28 1.919 8.726 3.538 12.814 5.803 29.261 16.219 33.944 56.644 23.632 77.954zm26.405-35.742c.943 22.372-2.233 44.939-3.932 67.392-.713 9.433-2.335 18.798-3.544 28.194l-2.789-.172c.792-15.412 1.766-30.818 2.327-46.239.624-17.162 2.334-34.461.912-51.479-1.757-21.017-11.44-38.987-28.124-52.64a25.28 25.28 0 01-6.79-7.592c26.422 12.343 40.74 34.071 41.94 62.536zm334.209 426.316c-76.347 125.257-187.966 203.374-331.522 230.104-157.053 29.242-298.972-9.146-420.82-113.663C86.215 822.71 31.491 723.013 12.474 604.619-10.16 463.702 24.737 336.257 106.51 220.642c8.948-12.65 18.722-24.717 29.193-38.474l28.312 24.934c-10.249 11.65-19.6 21.963-28.605 32.57-48.997 57.714-79.064 124.641-93.22 198.447-26.572 138.542 3.713 264.939 87.697 377.476 59.784 80.108 139.015 134.616 234.546 164.874 50.282 15.926 101.943 24.946 154.546 22.138 156.142-8.333 283.482-72.04 376.053-200.312 48.127-66.687 76.735-141.39 85.246-222.742 10.437-99.752-7.972-194.893-57.614-282.533C848.305 165.744 734.66 87.16 588.454 55.27c-36.06-7.865-73.414-9.791-108.9-14.286 6.011-.833 13.808-2.515 21.67-2.916 116.517-5.942 220.423 28.427 312 99.808 96.823 75.47 156.936 174.72 179.645 294.713 23.567 124.528 3.059 243.057-63.227 351.809zM93.962 38.565c5.436 0 9.436-.98 12.703.153 28.726 9.961 57.785 5.457 86.537 1.482 62.395-8.625 122.382-1.179 180.601 22.908 77.06 31.882 139.744 82.561 193.058 145.759.606.717.605 1.946 1.206 4.053-14.11.021-26.764-4.76-38.347-10.856-20.48-10.781-39.956-23.454-60.122-34.86-29.072-16.44-58.337-32.543-87.64-48.57a29.531 29.531 0 00-16.91-3.811c9.814 5.06 19.982 9.543 29.375 15.292 26.192 16.034 52.462 31.996 77.946 49.112 25.65 17.227 51.583 33.21 81.88 41.315 9.34 2.498 17.746 8.485 26.58 12.875q-.6 2.245-1.197 4.49c-5.02 0-10.064.325-15.054-.056-22.683-1.727-40.026 7.809-52.274 26.107-6.843 10.223-11.823 21.717-17.387 32.767-4.768 9.468-9.172 19.12-13.737 28.69l-4.23-.84c.488-5.23.299-10.64 1.62-15.65 2.055-7.795 4.986-15.375 7.81-22.948 12.108-32.474 4.223-60.141-19.572-84.374-32.884-33.49-71.23-59.199-112.944-80.2-25.963-13.072-52.813-23.816-82.03-28.897 4.915 2.024 9.742 4.31 14.761 6.033a436.648 436.648 0 01145.118 83.076c13.688 11.836 25.54 26.3 36.174 41.044 16.012 22.202 16.79 55.082-3.406 81.726-29.447-17.637-59.469-34.504-88.181-53.365-11.442-7.516-20.621-18.896-29.706-29.482-14.038-16.358-26.277-34.302-40.757-50.23-35.221-38.742-78.863-64.647-128.006-82.202-20.234-7.23-39.862-16.341-59.271-25.629-12.604-6.03-17.508-12.103-24.597-24.912zm148.21 794.21c-23.737-31.96-31.51-68.678-27.586-107.232 3.702-36.378 10.802-72.412 16.512-108.581.229-1.45 1.53-2.729 2.83-4.93 12.448-.336 16.278 5.573 15.08 16.226-1.805 16.058-3.662 32.122-4.903 48.23-2.282 29.603-3.53 59.09 3.161 88.534 11.014 48.47 40.639 80.4 86.442 96.831 65.597 23.531 124.114 10.532 174.426-37.936 7.888-7.598 15.258-15.735 22.867-23.623l-2.584-2.575c-1.93 1.444-3.987 2.747-5.77 4.353-63.466 57.188-136.128 65.329-214.273 38.42-20.527-7.069-32.795-25.229-40.83-47.358 4.399 1.882 8.906 3.542 13.177 5.679 32.917 16.468 67.512 24.739 104.55 23.798 50.93-1.292 91.201-22.754 122.685-62.02a307.76 307.76 0 0047.37-82.465 72.827 72.827 0 013.224-7.4c.439-.845 1.593-1.318 3.551-2.837 5.716 12.871 11.738 25.289 16.643 38.133 1.606 4.206 1.404 9.828.166 14.285-17.86 64.279-48.666 120.071-107.451 155.837-72.77 44.274-179.475 23.692-229.286-43.37zm-48.64-673.62l30.44-5.761c-11.203-5.782-16.853-6.44-30.167-3.479-7.349 1.634-14.688 3.355-22.1 4.644-15.157 2.635-26.555-3.121-33.531-16.647-11.835-22.943-23.247-46.105-35.584-70.665 24.55 10.127 46.755 20.373 69.71 28.503 35.977 12.745 68.942 30.56 98.66 54.351 30.073 24.074 53 53.543 65.993 90.166 1.717 4.84 2.777 9.914 4.49 16.152-12.487 1.706-23.001 3.536-33.594 4.508-21.282 1.952-37.93-5.967-49.044-24.528-16.898-28.22-34.633-55.749-65.273-77.245zm549.06 150.134c-10.834.669-22.052.038-25.532 11.424-3.653 11.947 5.946 19.05 13.527 25.434 19.035 16.03 37.618 32.202 50.486 54.038 16.247 27.568 23.743 56.49 15.447 88.211-10.236 39.136-50.163 71.86-90.683 74.155-10.207.579-20.479-.076-30.704.294-11.766.426-19.623-5.26-24.314-15.357-4.485-9.653-8.155-19.684-13.704-33.275 8.713 3.343 13.828 5.534 19.089 7.286 32.694 10.888 63.749 10.054 90.932-14.035 39.977-35.425 39.823-88.433-.21-128.045-8.045-7.96-16.66-15.348-24.636-23.375a89.06 89.06 0 01-12.284-14.932c-7.545-11.96-7.057-21.829.577-29.501 7.805-7.843 18.38-8.875 32.008-2.322zM125.394 35.577c20.945-8.154 39.622-15.838 58.641-22.553 5.091-1.798 11.376-1.536 16.846-.625 8.31 1.385 16.388 4.163 24.564 6.349l1.315-3.454-7.829-6.522c17.141-3.218 32.614-8.32 48.173-8.6 35.443-.638 70.948.602 106.389 2.045 19.923.811 31.676 11.83 38.06 31.384 5.048 15.456 14.399 29.506 22.008 44.515-13.122-6.503-26.208-13.53-39.73-19.58-34.153-15.284-70.061-23.122-107.216-27.986-47.744-6.25-94.497 1.204-141.613 4.96-6.043.483-12.158.067-19.607.067zm75.06 732.523c-33.179-39.386-56.47-83.039-54.726-136.217 2.016-61.445 47.413-81.865 92.683-73.314 41.055 7.756 70.405 33.076 95.267 65.286-11.486-9.631-22.471-19.95-34.566-28.745-22.203-16.145-46.506-26.244-74.874-26.412-46.416-.278-64.359 31.768-61.133 72.749 2.287 29.046 13.488 55.241 29.517 79.497 14.969 22.652 14.791 22.77 16.515 53.931-3.537-2.713-6.614-4.319-8.683-6.775zm191.208-295.59c-5.14 23.388-6.994 46.887-.234 70.373 7.321 25.436 20.167 46.423 47.871 57.505-11.159 5.538-20.151 1.33-28.589-1.538-14.357-4.881-24.736-15.256-32.231-28.16-25.12-43.242-21.747-86.882.844-129.472 10.759-20.285 29.17-30.85 56.781-30.499-28.831 13.504-38.835 36.277-44.442 61.791zm8.114 188.646c14.904-12.03 31.283-22.084 52.412-27.283-14.45 12.967-27.972 23.56-39.637 35.907-20.306 21.496-31.924 47.046-30.743 77.375 1.144 29.35 19.92 48.01 49.278 48.843 6.801.193 13.613.028 20.42.028-22.125 10.518-44.531 12.612-66.906 2.955-19.603-8.46-27.041-25.262-28.389-45.308-2.61-38.825 14.285-68.885 43.565-92.517zM185.81 395.584c22.423 12.7 41.573 29.007 52.074 53.585 5.826 13.635 8.023 25.53 6.048 43.099-17.232-31.888-47.015-44.52-69.176-65.61-20.004-19.037-32.506-44.98-32.254-73.163.837 0 2.296-.265 2.424.037 8.22 19.305 22.98 31.91 40.884 42.052zm57.373 210.41c-14.277-4.04-28.055-10.794-39.338-23.936 9.239-6.877 19.101-6.691 28.918-5.276a127.299 127.299 0 0162.893 27.086c12.464 10.068 24.45 20.727 36.65 31.122l-2.24 3.66c-27.195-15.843-56.99-24.2-86.883-32.656zM142.06 395.34c10.572 24.754 29.802 41.519 51.017 56.882 30.744 22.264 52.247 50.908 57.882 89.581.381 2.618.424 5.286.708 9.037-16.48 1.69-18.441 1.37-20.201-11.816-4.734-35.472-25.026-60.856-50.74-83.438-18.694-16.415-35.366-34.517-41.481-60.28 1.36 0 2.697-.244 2.815.034zm653.938 348.27c.583-2.947.84-5.96 1.412-10.142 16.787 28.985-18.984 59.559-42.688 55.035-16.172-3.086-31.308-8.187-43.943-18.966-11.84-10.1-23.271-20.68-34.882-31.05l3.612-4.139c10.382 8.345 20.027 17.924 31.353 24.69a141.76 141.76 0 0036.795 15.658c26.166 6.732 43.175-4.93 48.341-31.085zm-68.517-232.387c-10.6 8.827-25.757 13.183-40.903 11.17a196.588 196.588 0 01-25.174-5.255c-25.068-6.758-30.859-15.265-28.853-44.21 25.69 31.224 55.273 47.17 94.93 38.295zM509.16 572.567c-.341 33.303-6.884 65.105-18.754 99.103 2.837-29.52 4.813-55.093 8.06-80.503.856-6.688 5.645-12.873 10.694-18.6zm234.105-254.54l-9.88 8.297c5.628 18.025 24.55 25.176 34.014 44.086-13.582-11.746-24.577-20.95-35.197-30.569-5.058-4.582-12.72-10.118-8.181-17.212 2.879-4.499 11.344-5.423 17.304-7.951zm79.001 288.627l13.891-17.693c6.868 1.788 10.812 6.864 7.514 13.613-4.465 9.136-12.836 7.236-21.405 4.08z"/></svg>