<svg xmlns="http://www.w3.org/2000/svg" viewBox="0 0 1008 1024"><path d="M619.92887,304.13214c-1.40451-5.68664-1.39061-8.02976-2.47164-9.63571-10.81561-16.07063-21.81149-32.02016-32.6359-47.82756-36.6151-4.74927-51.09-2.6496-75.15715,35.78509-1.42892,2.28195-2.65362,4.70107-3.84866,7.11772-7.88578,15.9489-15.89144,31.84158-23.487,47.92766a37.14435,37.14435,0,0,0-3.05016,12.357c-1.31646,14.69146,3.6,27.4229,12.3471,39.157,7.69855,10.32777,15.15612,19.67,16.47938,34.59,2.94713,33.22941-2.2115,63.46936-21.51335,90.69144-5.8493,8.24911-12.56352,16.5353-20.61521,22.4413-18.40881,13.50259-39.24694,7.14367-47.24332-14.23667-8.833-23.619-5.634-46.698,6.77725-68.45343a23.33112,23.33112,0,0,1,7.61946-8.16261c7.02241-4.2883,10.42308-1.11348,11.70942,6.60671-11.63156-1.41625-18.5636,6.85881-16.10524,17.92437,2.17041,9.76918,9.6476,12.74256,18.12766,7.20732,10.94815-7.14552,18.27642-25.66123,15.2726-38.58731-4.35411-18.73754-22.69758-24.83323-37.24521-12.06719-4.40262,3.8638-8.75673,8.39556-11.43707,13.51063-20.04519,38.25117-25.15037,78.04588-7.77641,118.43256,14.50809,33.72374,50.54652,45.90153,81.08307,21.05965A151.9175,151.9175,0,0,0,508.407,558.363c8.415-10.30429,15.66992-21.55459,23.42378-32.39832a14.58563,14.58563,0,0,1-2.16238,10.42416c-8.04906,11.59819-9.95826,24.95125-11.11,38.38217a398.90151,398.90151,0,0,1-23.23222,105.454c-10.85608,29.1963-25.81262,55.92158-51.85742,74.65355-21.61052,15.54232-39.94873,8.06-44.49964-18.297-.98248-5.69158-1.26486-12.2989.6763-17.54188,4.6331-12.51394,10.582-24.56444,16.42748-36.59393,2.23035-4.58923,5.62948-8.61121,8.496-12.89148A49.91747,49.91747,0,0,0,408.776,684.04739c-13.18128,17.81747-21.20965,37.55664-20.09941,60.09989,1.45271,29.49846,18.25,45.14644,47.758,45.34541,26.84515.18043,47.61979-12.074,64.57048-31.68834,34.40622-39.81387,52.5759-87.40538,65.17943-137.59707,1.38428-5.51239,2.94018-10.98152,4.41652-16.471a66.33992,66.33992,0,0,1-1.59174,24.39451c-4.45931,17.51716-2.84641,34.17419,5.14519,50.3233,6.696,13.531,13.49626,27.01631,19.88268,40.69377,9.57422,20.50353,19.97351,40.72776,27.89066,61.869,7.77718,20.76738,11.97481,42.73288,6.21279,65.01043-3.26412,12.6196-11.60437,15.29083-21.74769,7.29012a54.67942,54.67942,0,0,1-20.12351-34.14083c-2.38-13.371-3.46679-26.97244-5.12125-40.47256-8.74622,32.21727-3.54944,61.84487,17.2391,88.02762,7.0292,8.85343,16.86527,13.64162,28.64173,10.81221,12.81548-3.07843,15.576-13.95985,17.19554-24.7702a145.938,145.938,0,0,0-5.8096-68.66414c-6.50444-19.36472-14.92889-38.0831-22.43357-57.11476-1.13881-2.88812-1.8905-5.92824-2.82107-8.89854,18.4533,28.02536,31.93025,57.5955,38.27064,90.34726,4.91054,25.36587,3.7053,49.2778-10.0392,71.77347-.28455.46591.70967,1.71285,1.43788,3.33054,20.78808-4.64484,34.924-17.19152,39.61614-37.70988a125.35394,125.35394,0,0,0,2.09889-39.9288c-3.51761-34.69942-15.91168-66.98157-30.06833-98.60564-1.289-2.87947-1.73108-6.13771-3.54279-12.82227,15.868,15.68135,28.39842,29.05356,41.984,41.25113,18.77183,16.85353,39.92834,30.02677,65.97777,31.24468,25.499,1.192,38.30941-19.05082,25.44944-40.86308C777.621,714.71,767.66895,705.1367,758.7321,695.1321c-8.24772-9.23345-17.3735-17.68523-25.558-26.97-4.85771-5.51115-7.3343-12.627-2.96767-19.40365,4.63325-7.19063,12.35-6.01351,19.08295-3.84279,8.47311,2.7324,16.58705,6.57766,24.85594,9.94281a53.0552,53.0552,0,0,0-19.16359-15.78763c-16.40214-7.95746-31.00771-6.19332-38.70008,3.65865-7.01206,8.98072-6.081,23.56466,4.765,37.34964,9.28257,11.7984,20.7235,21.87838,30.91039,32.99275,5.8008,6.32926,11.90329,12.67459,16.23654,19.98077,5.10549,8.60874.18568,16.26033-9.35487,13.814-8.92974-2.29-18.50119-6.98178-24.80388-13.50321-10.38461-10.74547-18.88831-23.46765-27.20972-36.00445-8.93824-13.4649-16.52912-27.81712-25.12906-41.51745-6.49069-10.34012-15.16524-17.88111-27.68829-20.77726-7.08976-1.63932-13.75022-5.13546-20.60394-7.79557,3.28064-2.4321,5.84837-2.45373,8.23351-1.8043,30.07528,8.18856,58.83719,4.01333,86.36637-9.63571,15.939-7.90247,31.33644-16.89245,47.21212-24.92962,16.04159-8.12059,32.83935-14.21628,51.21556-12.32547a42.66,42.66,0,0,1,16.43088,5.53648c7.12853,4.11652,10.48966,11.06308,8.20586,19.35854-2.34343,8.51358-9.23993,12.39653-17.33024,11.58707-8.70235-.87064-17.2011-3.77791-27.10066-6.105,8.7938,13.6892,21.256,17.11861,35.44817,15.43233,10.36005-1.2315,18.59619-6.9033,21.62272-17.092,3.12261-10.51314,1.031-20.79456-8.31971-27.6163-5.96964-4.355-12.73314-8.48145-19.76852-10.35928-24.03134-6.41454-48.15212-5.08541-71.74165,2.6082-13.82684,4.51013-27.098,10.88389-41.09063,14.68219-14.42483,3.91508-29.3341,7.1585-44.19177,8.06312-16.09736.98-30.31935-6.85325-40.96844-20.78715,31.99482,23.21492,61.1352,18.74557,90.19247,3.43682-11.10263.427-22.25314,3.45721-33.23806,2.94435-31.04015-1.45024-48.42894-21.4477-58.81649-48.18409-13.52438-34.81126-16.98638-70.95783-12.24592-108.11344,2.58781-20.28417,3.62544-40.77966,4.95472-61.20657,1.75981-27.04288-7.87667-49.59787-27.57228-68.09443-4.634-4.35133-8.686-9.323-13.00548-14.0099q1.172-1.01585,2.344-2.03107C599.28909,286.39809,608.33809,294.17327,619.92887,304.13214Zm-124.5885,27.84431c3.77049-6.75624,9.05734-11.72054,17.749-10.99388-11.87085,7.22585-18.341,17.21562-16.2197,31.05312,2.16949,14.15078,9.56835,25.04023,23.548,30.31472,13.99229,5.27881,25.852-1.35137,26.29737-16.08546a67.64621,67.64621,0,0,0-5.03227-26.315c-2.8169-7.07323-9.40445-12.17409-18.27843-9.37371-8.15488,2.573-12.4058,9.05116-12.14983,17.18473.22677,7.211,2.43812,14.35964,3.7586,21.45573-9.56217-8.15643-13.1062-19.762-9.17444-30.44016,3.73079-10.13251,12.2402-12.86924,21.77364-13.74049,9.37557-.857,22.05541,10.04229,24.946,23.53685a78.81339,78.81339,0,0,1,.63722,27.159c-1.57552,10.9982-14.21891,18.92291-25.43307,17.786C500.31286,390.7361,481.93772,355.99219,495.34037,331.97646Zm73.68745,61.848c-7.99531,16.52356-22.57554,21.984-42.3938,14.5172,33.123-3.587,46.47418-23.78278,38.458-54.56464-4.58521-17.60614-12.16188-27.06265-32.51031-43.7098,4.28042,1.91861,8.7266,3.53754,12.8144,5.8028C574.65745,332.08892,579.33983,372.5139,569.02782,393.82442ZM595.43317,358.082c.94309,22.37209-2.23313,44.93882-3.93177,67.39248-.71369,9.433-2.3354,18.79747-3.54418,28.19343q-1.3947-.0862-2.78925-.17178c.79185-15.41256,1.766-30.81832,2.32674-46.23891.62424-17.16248,2.33431-34.46152.912-51.4788-1.75657-21.017-11.43908-38.9871-28.12392-52.63985a25.27913,25.27913,0,0,1-6.79007-7.59289C579.915,307.889,594.23319,329.61727,595.43317,358.082ZM929.64169,784.398c-76.34663,125.25677-187.96533,203.37433-331.522,230.10393-157.05262,29.242-298.972-9.1457-420.8202-113.6629C86.21577,822.71036,31.492,723.01287,12.47495,604.61862c-22.63486-140.91649,12.26167-268.36128,94.03518-383.97678,8.94766-12.65049,18.72147-24.71706,29.19267-38.47424,10.22581,9.00544,18.91859,16.66136,28.31238,24.934-10.249,11.65071-19.6003,21.96365-28.605,32.5701C86.413,297.38579,56.34594,364.313,42.19006,438.11938c-26.57165,138.54124,3.713,264.93867,87.69735,377.47574C189.67054,895.703,268.9022,950.21076,364.43312,980.46864c50.28221,15.926,101.94313,24.94631,154.54637,22.13852C675.121,994.274,802.46105,930.56675,895.032,802.29458c48.12678-66.68682,76.73452-141.38981,85.24625-222.74152,10.43714-99.75249-7.97229-194.89288-57.614-282.53307C848.30512,165.74353,734.66014,87.16006,588.45433,55.27029,552.39489,47.40489,515.04,45.47887,479.5549,40.98418c6.01011-.83356,13.80722-2.51552,21.66953-2.91654,116.517-5.94183,220.423,28.427,311.99971,99.8081C910.0468,213.34555,970.16,312.59505,992.86883,432.58907,1016.43565,557.1167,995.928,675.64627,929.64169,784.398ZM93.9626,38.56506c5.43561,0,9.4355-.98,12.70286.15324,28.72522,9.96073,57.78427,5.45677,86.53676,1.48175,62.39481-8.62542,122.38224-1.179,180.60091,22.90844,77.0597,31.88174,139.74431,82.561,193.0583,145.75844.60524.71739.60493,1.9458,1.20585,4.05288-14.11031.02163-26.76451-4.75915-38.34679-10.85546C509.2392,191.283,489.764,178.60967,469.59819,167.20489c-29.07195-16.44138-58.33761-32.54353-87.6405-48.57091a29.531,29.531,0,0,0-16.91007-3.81128c9.81428,5.06069,19.98263,9.543,29.37519,15.29268,26.19171,16.03356,52.4622,31.99606,77.9464,49.11158,25.65011,17.22674,51.5823,33.20963,81.88033,41.31477,9.33911,2.49821,17.74533,8.48516,26.57868,12.8748q-.59829,2.2458-1.19658,4.49036c-5.01945,0-10.0633.325-15.05371-.05561-22.68305-1.72768-40.02581,7.80854-52.274,26.10675-6.84306,10.22334-11.8228,21.71711-17.38678,32.76659-4.76765,9.46825-9.172,19.12-13.73694,28.69085q-2.11534-.4208-4.23037-.841c.48784-5.23.29907-10.63858,1.62-15.6486,2.05533-7.79557,4.98577-15.3761,7.80962-22.94922,12.10843-32.4737,4.22342-60.14067-19.5711-84.37391-32.88446-33.49017-71.23017-59.19836-112.94427-80.20054-25.96308-13.07129-52.81287-23.81491-82.03048-28.89661,4.91579,2.02489,9.742,4.31117,14.76159,6.0339a436.64752,436.64752,0,0,1,145.11751,83.07506c13.68812,11.83609,25.53966,26.29953,36.17406,41.04475,16.01178,22.20155,16.79065,55.08183-3.40608,81.72616-29.44686-17.637-59.4687-34.50416-88.18086-53.36528-11.44155-7.51627-20.62093-18.89634-29.70546-29.48178-14.038-16.35858-26.27729-34.30272-40.75742-50.23061-35.2214-38.74179-78.86338-64.64648-128.00555-82.202-20.23466-7.22894-39.86222-16.34128-59.27189-25.62848C105.9561,57.44657,101.05243,51.37436,93.9626,38.56506ZM242.17291,832.77428c-23.73814-31.9596-31.51022-68.67712-27.587-107.23106,3.7016-36.37828,10.80232-72.41239,16.51244-108.5812.22863-1.44962,1.53057-2.7287,2.82957-4.9297,12.44767-.33676,16.27779,5.57232,15.08012,16.22573-1.80507,16.05827-3.6619,32.12211-4.90328,48.22982-2.28164,29.60289-3.52951,59.08961,3.16123,88.53431,11.014,48.47019,40.63878,80.40013,86.44206,96.831,65.59683,23.53129,124.11363,10.5323,174.42612-37.936,7.88764-7.59845,15.25746-15.73511,22.86642-23.62274q-1.29159-1.28742-2.58349-2.57545c-1.92943,1.44406-3.98676,2.74662-5.7699,4.35318-63.46658,57.18829-136.12814,65.32866-214.27351,38.41924C287.84735,833.42309,275.579,815.2633,267.5448,793.134c4.39783,1.88154,8.90549,3.54248,13.17587,5.6786,32.91767,16.46795,67.51266,24.73931,104.54979,23.79885,50.9304-1.29267,91.202-22.75458,122.68548-62.021a307.75966,307.75966,0,0,0,47.3703-82.46457,72.82717,72.82717,0,0,1,3.22426-7.40072c.4381-.84407,1.593-1.31677,3.55083-2.83621,5.71521,12.87109,11.73815,25.28863,16.6422,38.13315,1.606,4.20612,1.40482,9.82788.16653,14.28487-17.86041,64.27882-48.66653,120.07126-107.45119,155.83657C398.68918,920.41818,291.98381,899.83618,242.17291,832.77428ZM193.53233,159.15412c12.63644-2.39132,21.79882-4.12517,30.44-5.76017-11.2035-5.78241-16.85353-6.44049-30.16766-3.47884-7.3482,1.63438-14.68806,3.35526-22.10021,4.64422-15.15643,2.63477-26.55481-3.12169-33.53095-16.64714-11.83416-22.94366-23.24613-46.10544-35.5838-70.66494,24.54976,10.12633,46.755,20.37253,69.70941,28.503,35.978,12.745,68.94336,30.56065,98.66149,54.35085,30.07234,24.07382,52.99963,53.54262,65.99245,90.16621,1.71718,4.8401,2.77689,9.91377,4.49067,16.15158-12.488,1.70605-23.00205,3.53631-33.5949,4.50766-21.28179,1.952-37.92986-5.96655-49.04345-24.52736C241.9069,208.17858,224.17223,180.65,193.53233,159.15412Zm549.059,150.13449c-10.83306.6692-22.05124.03831-25.53178,11.42456-3.65216,11.94731,5.94647,19.04958,13.52731,25.43384,19.03491,16.03047,37.61781,32.20244,50.48628,54.03757,16.24736,27.56872,23.74277,56.49067,15.44639,88.21176-10.2357,39.136-50.16264,71.85874-90.68279,74.1549-10.207.57836-20.4785-.076-30.70385.29413-11.76611.42574-19.62254-5.26028-24.314-15.35695-4.48526-9.653-8.15488-19.6848-13.704-33.27575,8.71347,3.34352,13.82792,5.53463,19.08882,7.28641,32.694,10.88821,63.74927,10.054,90.93242-14.03462,39.97638-35.42546,39.82314-88.433-.20947-128.0454-8.0452-7.96055-16.66136-15.34768-24.63627-23.375a89.05977,89.05977,0,0,1-12.28392-14.93244c-7.54562-11.95905-7.05763-21.82833.57682-29.50093C718.38776,303.76758,728.96238,302.73566,742.59133,309.28861ZM125.3955,35.57684c20.94487-8.154,39.62185-15.8383,58.64093-22.55314,5.09066-1.7975,11.37528-1.53613,16.8458-.62471,8.30982,1.38474,16.38731,4.16287,24.56351,6.349q.65761-1.72675,1.31522-3.45351c-1.92541-1.6041-3.85067-3.20819-7.82863-6.52267C236.0732,5.55377,251.54585.4523,267.10516.17177,302.54808-.46592,338.05341.77361,373.494,2.21705c19.92254.81132,31.67552,11.82991,38.0607,31.38371,5.0471,15.45581,14.3981,29.50587,22.00752,44.51494C420.44,71.61342,407.35384,64.58653,393.83116,58.53533c-34.15195-15.28341-70.06046-23.12162-107.21562-27.9852-47.74321-6.24955-94.49653,1.20369-141.61249,4.96059C138.95966,35.99269,132.84458,35.57684,125.3955,35.57684ZM200.45495,768.1c-33.17851-39.38627-56.47028-83.03861-54.72553-136.21666,2.016-61.44508,47.41286-81.86581,92.68211-73.31392,41.05525,7.7554,70.40526,33.07555,95.26753,65.286-11.48573-9.63138-22.47127-19.95111-34.56595-28.74523-22.20325-16.14478-46.50616-26.24392-74.874-26.41261-46.41563-.27744-64.35877,31.768-61.13273,72.74915,2.2865,29.04615,13.48715,55.24126,29.51638,79.49736,14.96905,22.652,14.7914,22.76941,16.51537,53.93128C205.60122,772.16152,202.52356,770.55619,200.45495,768.1ZM391.66307,472.51046c-5.13963,23.38794-6.994,46.88648-.234,70.37266,7.32117,25.43631,20.16677,46.42243,47.87112,57.50528-11.15917,5.53772-20.15132,1.33036-28.58889-1.5386-14.35717-4.88088-24.73622-15.25623-32.23179-28.16006-25.11932-43.242-21.74615-86.882.84407-129.47216,10.75907-20.28479,29.17-30.84921,56.78171-30.49824C407.27351,424.22256,397.26984,446.99629,391.66307,472.51046Zm8.11364,188.6458c14.90448-12.02949,31.2833-22.08476,52.41246-27.28325-14.45109,12.96687-27.97237,23.55972-39.63668,35.90743-20.30672,21.49527-31.92469,47.0459-30.74324,77.37483,1.14329,29.35016,19.91883,48.00922,49.27749,48.84279,6.8015.19341,13.6132.02842,20.42026.02842-22.12493,10.51747-44.531,12.61157-66.90649,2.95423-19.60277-8.46044-27.041-25.26144-28.38838-45.30772C353.60268,714.84841,370.49668,684.78765,399.77671,661.15626ZM185.81138,395.58361c22.42214,12.70116,41.57213,29.00722,52.07353,53.58525,5.82567,13.63483,8.02342,25.53023,6.04811,43.09868-17.23169-31.8873-47.015-44.51988-69.17639-65.6098-20.0041-19.03722-32.50568-44.979-32.254-73.16315.837,0,2.29593-.26447,2.42453.03769C153.14682,372.83707,167.90679,385.44183,185.81138,395.58361ZM243.1835,605.99409c-14.27684-4.03929-28.055-10.79367-39.33777-23.936,9.239-6.87735,19.10133-6.69136,28.91793-5.27573a127.2988,127.2988,0,0,1,62.89285,27.08552c12.46419,10.06763,24.45013,20.72721,36.64985,31.12171q-1.11989,1.83056-2.23962,3.66112C302.87217,622.80746,273.07681,614.45083,243.1835,605.99409ZM142.061,395.33892c10.57184,24.75414,29.80239,41.51869,51.01667,56.88181,30.74432,22.26457,52.24748,50.90785,57.88221,89.58167.38141,2.61809.4242,5.28561.70844,9.03633-16.47969,1.69122-18.44156,1.36991-20.20137-11.8157-4.734-35.47181-25.026-60.85621-50.74039-83.43778-18.69336-16.41543-35.36576-34.51713-41.48092-60.28094C140.60539,395.30431,141.94255,395.06148,142.061,395.33892ZM795.99925,743.6097c.58238-2.94805.84005-5.961,1.41224-10.14239,16.78695,28.98436-18.9847,59.5586-42.68855,55.03487-16.17212-3.08647-31.308-8.18732-43.94291-18.96616-11.84026-10.10038-23.27131-20.68087-34.88232-31.05q1.806-2.06969,3.61231-4.13877c10.38183,8.34489,20.02712,17.92375,31.3525,24.68988A141.7594,141.7594,0,0,0,747.65774,774.695C773.82381,781.4271,790.83289,769.76588,795.99925,743.6097ZM727.48217,511.222c-10.60042,8.82686-25.75716,13.18313-40.90325,11.1706a196.58821,196.58821,0,0,1-25.1737-5.256c-25.06835-6.75809-30.8591-15.26426-28.85367-44.20969C658.24245,504.15122,687.82479,520.09765,727.48217,511.222ZM509.16088,572.56572c-.34093,33.30356-6.884,65.105-18.75391,99.10368,2.83683-29.5207,4.81276-55.093,8.06081-80.50332C499.32265,584.47843,504.11224,578.29314,509.16088,572.56572ZM743.26609,318.02649c-3.14949,2.64466-6.299,5.28932-9.87932,8.29607,5.62685,18.02509,24.54946,25.17617,34.01369,44.08611C753.81816,358.66342,742.82274,349.459,732.203,339.84c-5.05791-4.58181-12.72-10.11768-8.18114-17.21191,2.87885-4.499,11.34423-5.42341,17.30429-7.95128Zm79.00118,288.62629c5.05977-6.44481,9.17166-11.68223,13.8908-17.69327,6.86808,1.78885,10.81236,6.86437,7.514,13.61382C839.2073,611.70915,830.83646,609.80908,822.26727,606.65279Z"/></svg>