<svg xmlns="http://www.w3.org/2000/svg" viewBox="0 0 1024 1024" role="img"><path d="M960 0H64A63.995 63.995 0 000 64v896a63.995 63.995 0 0064 64h896a63.995 63.995 0 0064-64V64a63.995 63.995 0 00-64-64zM826.86 901.4S681.11 896 617.8 896H338.08l-167.83 5.4v-44.14l56.34-10.79c39.25-7.85 52.01-19.63 52.01-51.46 0 0 2.95-105.51 2.95-281.69 0-175.68-3.6-282.66-3.6-282.66-3.27-36.31-12.76-44.69-52.35-52.54l-56.43-10.66v-44.83L336.48 128h312.4c61.97 0 166.53-11.78 166.53-11.78s-6.54 67.27-14.07 221.95h-41.55l-13.74-54.51c-17.01-68.15-40.57-104.46-83.1-104.46H418.73c-18.23 0-19.31 6.38-19.31 17.01l-.09.17h1.63v287.44s103.02.98 157.53-4.58c41.68-4.26 48.12-11.65 57.38-52.35l14.73-61.83h45.5l-6.28 140.84 2.95 139.96h-46.13l-12.76-55.46c-9.72-41.64-27.75-50.18-57.58-52.28-38.28-3.14-156.71-3.14-156.71-3.14v243.44c0 46.13 25.68 67.07 79.01 67.07h160.5c53.46 0 101.59-5.4 134.46-79.99l42.01-95.21h39.26c-3.43 19.11-24.54 192.83-27.97 231.11z"/></svg>