<svg xmlns="http://www.w3.org/2000/svg" viewBox="0 0 800 1024" role="img"><path d="M763.543 961.608s-168.286-6.235-241.384-6.235h-322.97l-193.78 6.235v-50.965l65.052-12.458c45.318-9.064 60.051-22.665 60.051-59.417 0 0 3.406-121.823 3.406-325.244 0-202.843-4.156-326.364-4.156-326.364-3.776-41.924-14.733-51.6-60.444-60.664L4.163 114.188V62.427l193.179 6.2h360.702c71.552 0 192.278-13.601 192.278-13.601s-7.55 77.67-16.245 256.267h-47.974l-15.865-62.938c-19.64-78.687-46.843-120.612-95.948-120.612H292.309c-21.049 0-22.296 7.367-22.296 19.64l-.104.197h1.882v331.883s118.949 1.132 181.887-5.288c48.125-4.919 55.56-13.451 66.252-60.444l17.008-71.39h52.535l-7.251 162.616 3.406 161.6h-53.263l-14.733-64.035c-11.223-48.078-32.04-57.939-66.483-60.363-44.198-3.626-180.94-3.626-180.94-3.626v281.08c0 53.263 29.651 77.44 91.227 77.44h185.316c61.726 0 117.297-6.234 155.25-92.357l48.505-109.932h45.33c-3.96 22.065-28.334 222.645-32.294 266.844z"/></svg>