<svg xmlns="http://www.w3.org/2000/svg" viewBox="0 0 1024 1024" role="img"><path d="M543.047 364.902c-3.066-1.698-6.4-2.913-9.61-4.352 15.26 12.486 20.943 19.578 24.382 32.783 6.012 23.086-4.001 38.233-28.843 40.923 14.863 5.6 25.798 1.505 31.795-10.888 7.734-15.983 4.222-46.301-17.724-58.466z"/><path d="M549.12 349.66a18.96 18.96 0 005.092 5.694c12.514 10.24 19.776 23.717 21.093 39.48 1.067 12.763-.216 25.737-.684 38.609-.42 11.565-1.151 23.12-1.745 34.68l2.092.128c.906-7.047 2.123-14.07 2.658-21.145 1.274-16.84 3.656-33.765 2.949-50.544-.9-21.35-11.639-37.645-31.455-46.903zm-.223 60.139a59.109 59.109 0 00-.478-20.37c-2.168-10.12-11.678-18.295-18.71-17.652-7.15.653-13.532 2.706-16.33 10.306-2.949 8.008-.29 16.712 6.88 22.83-.99-5.323-2.648-10.684-2.818-16.092a12.404 12.404 0 019.112-12.889c6.656-2.1 11.596 1.725 13.71 7.03a50.738 50.738 0 013.773 19.737c-.334 11.05-9.228 16.023-19.723 12.064-10.484-3.956-16.034-12.123-17.66-22.736-1.592-10.378 3.261-17.87 12.164-23.29-6.519-.545-10.484 3.178-13.312 8.246-10.052 18.011 3.73 44.07 24.317 46.156 8.41.852 17.893-5.091 19.075-13.34z"/><path d="M960 0H64A64 64 0 000 64v896a64 64 0 0064 64h896a64 64 0 0064-64V64a64 64 0 00-64-64zM272.027 137.768c3.818-1.348 8.532-1.152 12.635-.469 6.232 1.039 12.29 3.122 18.422 4.762l.987-2.59-5.872-4.892c12.856-2.414 24.46-6.24 36.13-6.45 26.582-.478 53.211.451 79.791 1.534 14.942.608 23.757 8.872 28.546 23.538 3.785 11.591 10.799 22.129 16.506 33.386-9.842-4.877-19.657-10.147-29.799-14.686-25.614-11.462-52.545-17.34-80.411-20.988-35.808-4.688-70.873.902-106.21 3.72-4.532.362-9.119.05-14.705.05 15.708-6.116 29.716-11.879 43.98-16.915zM214 157.038c21.544 7.471 43.338 4.093 64.903 1.112 46.796-6.47 91.786-.884 135.45 17.181 57.795 23.912 104.809 61.921 144.794 109.32.454.537.454 1.459.905 3.039-10.583.016-20.074-3.57-28.76-8.142-15.362-8.086-29.968-17.59-45.092-26.144-21.804-12.331-43.754-24.408-65.73-36.428a22.147 22.147 0 00-12.683-2.86c7.36 3.797 14.987 7.158 22.031 11.47 19.644 12.026 39.347 23.997 58.46 36.834 19.237 12.92 38.687 24.907 61.41 30.986 7.004 1.874 13.31 6.364 19.934 9.656l-.897 3.368c-3.765 0-7.548.244-11.29-.042-17.013-1.295-30.02 5.857-39.206 19.58-5.132 7.668-8.867 16.288-13.04 24.575-3.576 7.102-6.88 14.34-10.303 21.519l-3.173-.631c.366-3.923.225-7.98 1.215-11.737 1.542-5.846 3.74-11.532 5.858-17.212 9.081-24.355 3.167-45.105-14.679-63.28-24.663-25.117-53.422-44.399-84.708-60.15-19.472-9.804-39.61-17.862-61.523-21.673 3.687 1.519 7.307 3.234 11.071 4.526a327.484 327.484 0 01108.838 62.306c10.267 8.877 19.155 19.725 27.131 30.784 12.009 16.65 12.593 41.31-2.555 61.294-22.085-13.228-44.601-25.878-66.135-40.024-8.581-5.637-15.466-14.172-22.28-22.111-10.528-12.27-19.707-25.727-30.567-37.673-26.416-29.056-59.148-48.485-96.004-61.652-15.176-5.421-29.897-12.255-44.454-19.221-9.453-4.523-13.13-9.077-18.448-18.684 4.077 0 7.077-.735 9.527.115zm370.677 191.96c14.772 13.873 22 30.79 20.68 51.071-.997 15.32-1.776 30.692-3.716 45.905-3.556 27.867-.96 54.977 9.184 81.085 7.79 20.053 20.832 35.05 44.112 36.138 8.239.385 16.602-1.888 24.929-2.208-21.793 11.482-43.648 14.834-67.645-2.578 7.987 10.45 18.654 16.326 30.727 15.59 11.143-.678 22.325-3.11 33.144-6.047 10.494-2.848 20.448-7.629 30.818-11.011 17.692-5.77 35.782-6.767 53.806-1.956 5.276 1.408 10.35 4.503 14.826 7.77 7.013 5.115 8.582 12.826 6.24 20.711-2.27 7.642-8.447 11.896-16.217 12.82-10.644 1.264-19.99-1.308-26.586-11.575 7.425 1.745 13.799 3.926 20.326 4.579 6.067.607 11.24-2.305 12.997-8.69 1.713-6.222-.808-11.432-6.154-14.52a31.998 31.998 0 00-12.323-4.152c-13.783-1.418-26.38 3.154-38.412 9.244-11.907 6.028-23.455 12.77-35.41 18.698-20.646 10.236-42.218 13.368-64.774 7.226a6.595 6.595 0 00-6.175 1.354c5.14 1.995 10.136 4.617 15.453 5.846 9.392 2.172 15.898 7.828 20.766 15.583 6.45 10.276 12.143 21.04 18.847 31.138 6.24 9.403 12.619 18.944 20.407 27.003 4.727 4.892 11.906 8.41 18.603 10.128 7.155 1.835 10.845-3.904 7.016-10.36-3.25-5.48-7.827-10.24-12.177-14.986-7.64-8.336-16.221-15.896-23.183-24.745-8.135-10.338-8.833-21.276-3.574-28.012 5.77-7.389 16.724-8.712 29.025-2.744a39.794 39.794 0 0114.373 11.84c-6.202-2.523-12.287-5.407-18.642-7.456-5.05-1.628-10.837-2.511-14.312 2.882-3.275 5.082-1.418 10.42 2.226 14.553 6.138 6.963 12.982 13.302 19.168 20.227 6.703 7.504 14.167 14.684 19.21 23.236 9.645 16.36.037 31.542-19.088 30.647-19.537-.913-35.404-10.793-49.483-23.433-10.189-9.148-19.587-19.177-31.488-30.938 1.359 5.013 1.69 7.457 2.657 9.616 10.618 23.718 19.913 47.93 22.551 73.955a94.015 94.015 0 01-1.574 29.946c-3.519 15.389-14.12 24.8-29.712 28.283-.546-1.214-1.292-2.149-1.078-2.498 10.308-16.872 11.212-34.806 7.53-53.83-4.756-24.564-14.864-46.742-28.704-67.76.698 2.227 1.262 4.507 2.116 6.673 5.629 14.274 11.947 28.313 16.825 42.836a109.454 109.454 0 014.358 51.498c-1.215 8.108-3.286 16.27-12.897 18.578-8.832 2.122-16.21-1.47-21.481-8.11-15.592-19.636-19.49-41.857-12.93-66.02 1.241 10.125 2.056 20.326 3.841 30.354a41.01 41.01 0 0015.093 25.606c7.607 6 13.862 3.997 16.31-5.468 4.322-16.708 1.174-33.182-4.66-48.757-5.937-15.856-13.737-31.025-20.917-46.402-4.79-10.258-9.89-20.372-14.912-30.52a52.835 52.835 0 01-3.86-37.743 49.755 49.755 0 001.195-18.296c-1.108 4.117-2.275 8.22-3.313 12.353-9.452 37.644-23.08 73.338-48.884 103.198-12.713 14.71-28.294 23.902-48.428 23.767-22.131-.15-34.73-11.886-35.819-34.01-.832-16.907 5.189-31.711 15.075-45.074a37.433 37.433 0 0111.845-10.87c-2.15 3.21-4.7 6.226-6.372 9.668-4.384 9.022-8.846 18.06-12.32 27.446-1.457 3.932-1.245 8.887-.508 13.156 3.413 19.768 17.167 25.38 33.375 13.723 19.533-14.05 30.75-34.093 38.893-55.99a299.168 299.168 0 0017.424-79.09c.864-10.074 2.296-20.089 8.332-28.788a10.938 10.938 0 001.622-7.817c-5.815 8.132-11.257 16.57-17.568 24.298a113.94 113.94 0 01-16.236 16.206c-22.903 18.63-49.931 9.498-60.812-15.795-13.031-30.29-9.202-60.136 5.832-88.825a37.195 37.195 0 018.578-10.132c10.91-9.575 24.668-5.003 27.934 9.05 2.252 9.694-3.244 23.581-11.455 28.94-6.36 4.152-11.968 1.922-13.596-5.405-1.843-8.3 3.356-14.506 12.08-13.443-.965-5.79-3.516-8.172-8.783-4.955a17.498 17.498 0 00-5.714 6.121c-9.309 16.317-11.708 33.626-5.083 51.34 5.997 16.036 21.625 20.805 35.432 10.678 6.039-4.43 11.075-10.644 15.462-16.83 14.476-20.417 18.345-43.098 16.135-68.02-.993-11.19-6.586-18.196-12.36-25.942-6.56-8.8-10.248-18.35-9.26-29.368a27.86 27.86 0 012.287-9.268c5.697-12.064 11.701-23.984 17.616-35.945.896-1.813 1.814-3.627 2.886-5.339 18.05-28.826 28.907-30.4 56.368-26.838 8.118 11.855 16.365 23.817 24.477 35.87.81 1.205.8 2.962 1.854 7.227l-22.267-19.131-1.758 1.523c3.24 3.515 6.279 7.244 9.754 10.507zm124.874 56.809c-10.186-8.81-18.433-15.713-26.398-22.927-3.793-3.436-9.54-7.588-6.136-12.909 2.16-3.374 8.509-4.067 12.979-5.963l1.455 2.512-7.41 6.222c4.22 13.519 18.412 18.882 25.51 33.065zm-37.755-37.272c-2.74 8.96 4.46 14.287 10.145 19.075 14.276 12.023 28.214 24.152 37.865 40.528 12.185 20.677 17.807 42.368 11.585 66.16-7.677 29.351-37.622 53.893-68.012 55.615-7.656.434-15.36-.057-23.028.221-8.825.32-14.717-3.945-18.236-11.518-3.364-7.24-6.116-14.763-10.278-24.957 6.535 2.508 10.37 4.152 14.317 5.465 24.52 8.167 47.812 7.54 68.199-10.526 29.982-26.569 29.867-66.324-.157-96.034-6.034-5.97-12.496-11.51-18.477-17.53a66.801 66.801 0 01-9.213-11.2c-5.66-8.97-5.293-16.372.432-22.126 5.854-5.882 13.785-6.656 24.006-1.742-8.124.502-16.538.03-19.148 8.569zm7.817 142.881c-7.95 6.62-19.318 9.888-30.678 8.378a147.496 147.496 0 01-18.88-3.941c-18.801-5.07-23.144-11.449-21.64-33.158 19.268 23.418 41.455 35.378 71.198 28.721zM750.7 582.99l10.419-13.27c5.15 1.341 8.109 5.148 5.635 10.21-3.348 6.852-9.627 5.427-16.054 3.06zm-50.658 136.387c-12.129-2.315-23.48-6.14-32.957-14.225-8.88-7.575-17.453-15.51-26.162-23.287l2.71-3.105c7.786 6.26 15.02 13.443 23.514 18.518a106.32 106.32 0 0027.596 11.743c19.625 5.05 32.382-3.697 36.257-23.314.436-2.21.63-4.47 1.059-7.606 12.59 21.738-14.239 44.669-32.017 41.276zm-420.688-478.94c-5.512 1.225-11.017 2.516-16.576 3.482-11.367 1.976-19.916-2.34-25.148-12.485-8.875-17.208-17.434-34.579-26.688-52.998 18.413 7.594 35.067 15.279 52.282 21.377a251.657 251.657 0 0173.996 40.763c22.555 18.055 39.75 40.157 49.495 67.624 1.288 3.63 2.082 7.436 3.368 12.114-9.366 1.28-17.252 2.652-25.196 3.38-15.962 1.465-28.448-4.474-36.783-18.395-12.674-21.165-25.975-41.811-48.955-57.933l22.83-4.32c-8.402-4.338-12.64-4.83-22.625-2.61zm-5.995 184.25c16.816 9.527 31.179 21.756 39.055 40.19 4.369 10.226 6.017 19.147 4.536 32.324-12.924-23.916-35.262-33.39-51.882-49.208-15.004-14.278-24.38-33.734-24.191-54.872.628 0 1.722-.198 1.818.028 6.165 14.479 17.235 23.932 30.664 31.539zm5.45 42.479c23.057 16.698 39.185 38.18 43.411 67.186.286 1.963.318 3.964.531 6.777-12.36 1.268-13.83 1.027-15.15-8.862-3.551-26.604-18.77-45.642-38.056-62.578-14.02-12.312-26.524-25.888-31.11-45.21 1.02 0 2.022-.183 2.11.025 7.93 18.566 22.353 31.14 38.263 42.662zm-35.512 134.747c1.512-46.084 35.56-61.4 69.512-54.986 30.791 5.817 52.804 24.807 71.45 48.965-8.614-7.224-16.853-14.964-25.924-21.56-16.653-12.108-34.88-19.682-56.156-19.809-34.811-.208-48.269 23.826-45.85 54.562 1.716 21.785 10.116 41.431 22.138 59.623 11.227 16.989 11.094 17.077 12.386 40.448-2.652-2.035-4.96-3.239-6.512-5.081-24.884-29.54-42.352-62.28-41.044-102.162zm43.587-37.37c6.93-5.158 14.326-5.018 21.689-3.956a95.476 95.476 0 0147.17 20.314c9.348 7.55 18.337 15.545 27.487 23.341l-1.68 2.746c-20.396-11.883-42.742-18.15-65.162-24.492-10.708-3.03-21.042-8.096-29.504-17.953zm8.055 107.614c2.777-27.283 8.102-54.309 12.385-81.436.171-1.087 1.148-2.046 2.122-3.697 9.336-.252 12.208 4.18 11.31 12.17-1.354 12.043-2.746 24.091-3.677 36.172-1.712 22.202-2.648 44.317 2.37 66.4 8.261 36.353 30.48 60.3 64.832 72.624 49.198 17.648 93.085 7.9 130.82-28.452 5.915-5.699 11.443-11.802 17.15-17.717l-1.938-1.932c-1.447 1.083-2.99 2.06-4.328 3.265-47.6 42.891-102.096 48.997-160.705 28.815-15.394-5.302-24.596-18.921-30.621-35.518 3.298 1.41 6.679 2.656 9.882 4.258 24.688 12.351 50.634 18.555 78.412 17.85 38.198-.97 68.401-17.066 92.014-46.516a230.821 230.821 0 0035.528-61.849 54.598 54.598 0 012.418-5.55c.328-.633 1.195-.988 2.663-2.127 4.286 9.653 8.804 18.966 12.482 28.6a18.318 18.318 0 01.125 10.713c-13.396 48.21-36.5 90.054-80.589 116.878-54.577 33.205-134.606 17.77-171.964-32.527-17.804-23.97-23.633-51.508-20.69-80.424zm132.633-136.995c5.49 19.077 15.125 34.817 35.903 43.13-8.37 4.153-15.113.997-21.442-1.155-10.767-3.66-18.552-11.442-24.173-21.12-18.84-32.431-16.31-65.161.633-97.104 8.069-15.213 21.877-23.137 42.586-22.873-21.624 10.127-29.127 27.207-33.332 46.343-3.854 17.54-5.245 35.165-.175 52.78zm6.26 88.705c11.179-9.022 23.463-16.563 39.31-20.462-10.839 9.725-20.98 17.67-29.728 26.93-15.23 16.122-23.943 35.285-23.057 58.031.857 22.013 14.94 36.007 36.958 36.633 5.101.145 10.21.02 15.315.02-16.593 7.889-33.398 9.46-50.18 2.217-14.702-6.346-20.28-18.946-21.29-33.981-1.958-29.119 10.713-51.664 32.673-69.388zm67.973 7.885c2.128-22.14 3.61-41.32 6.046-60.377.64-5.016 4.233-9.655 8.02-13.95-.256 24.977-5.163 48.828-14.066 74.327zm329.426 84.547c-57.26 93.942-140.974 152.53-248.641 172.577-117.79 21.932-224.23-6.859-315.615-85.247-68.313-58.596-109.356-133.37-123.619-222.165-16.976-105.687 9.196-201.271 70.527-287.983 6.71-9.488 14.04-18.537 21.894-28.855l21.234 18.7c-7.686 8.738-14.7 16.473-21.453 24.428-36.748 43.285-59.298 93.48-69.915 148.836-19.93 103.905 2.784 198.703 65.773 283.106 44.837 60.081 104.26 100.962 175.909 123.656 37.712 11.944 76.457 18.71 115.91 16.603 117.106-6.25 212.61-54.03 282.039-150.234 36.095-50.015 57.551-106.042 63.935-167.056 7.828-74.815-5.98-146.17-43.21-211.9-55.77-98.457-141.004-157.395-250.658-181.312-27.045-5.9-55.06-7.344-81.675-10.715 4.508-.625 10.356-1.886 16.252-2.187 87.388-4.457 165.318 21.32 234 74.856 72.617 56.602 117.702 131.04 134.734 221.035 17.675 93.395 2.294 182.293-47.42 263.857z"/></svg>