<svg xmlns="http://www.w3.org/2000/svg" viewBox="0 0 1280 1024"><title>market-cgtrader</title><path d="M134.45011,512.85165c0,96.76223,48.28319,160.9101,114.394,160.9101,51.66323,0,99.6976-32.5955,118.22453-46.84253a7.57584,7.57584,0,0,1,11.84338,3.78083c3.91,11.32943,9.6356,30.06165,11.06756,46.20126,1.50087,16.91653-1.37864,34.90158-3.41885,44.84185a31.36378,31.36378,0,0,1-8.04224,15.42291c-14.15743,14.77-54.94352,45.7-148.24484,45.7C4.45691,782.86609,0,553.33525,0,512.85165S4.45691,242.83722,230.27366,242.83722c93.30131,0,134.0874,30.93,148.24484,45.7a31.36378,31.36378,0,0,1,8.04224,15.42291c2.04021,9.94027,4.91972,27.92532,3.41885,44.84185-1.432,16.13961-7.15761,34.87184-11.06756,46.20126a7.57584,7.57584,0,0,1-11.84338,3.78083c-18.52693-14.247-66.5613-46.84253-118.22453-46.84253C182.73329,351.94155,134.45011,416.08942,134.45011,512.85165ZM1264.153,761.81982s-25.00809,16.58937-84.43355,16.58937-155.249-16.342-155.249-134.45011V364.65941H866.73108a152.44794,152.44794,0,0,1,9.01864,51.673c0,95.81848-89.5125,173.49449-199.93164,173.49449a225.16525,225.16525,0,0,1-82.49127-15.412c-8.84853,7.40352-17.89039,19.166-17.89039,36.36473,0,20.9955,20.018,35.44273,35.09417,43.34823,38.02627-.28291,105.3206-.62675,130.802.23068,35.26537,1.186,179.762,10.89491,179.762,136.67856S803.931,965.352,675.81809,965.352c-128.1133,0-233.0984-31.69382-233.0984-128.75565,0-59.8977,42.23908-96.77892,74.58867-116.24671-22.09231-12.06644-53.78976-38.48219-53.78976-90.7515,0-49.17834,34.34882-81.92908,60.93649-99.91631-30.26332-30.404-48.569-70.02078-48.569-113.34942,0-95.81848,89.5125-173.49522,199.932-173.49522a226.39774,226.39774,0,0,1,72.85785,11.88509h275.79449V140.3283c0-21.129,127.764-21.129,127.764,0v114.394H1264.153c21.12934,0,21.12934,109.9371,0,109.9371H1152.23444V620.18889c0,43.08346,34.91318,51.25446,58.68337,51.25446s53.23519-11.14227,53.23519-11.14227C1285.28233,660.30108,1285.28233,761.81982,1264.153,761.81982Zm-695.15421,58.93c0,28.22709,35.65528,59.42546,106.8193,59.42546,71.16366,0,115.28336-29.71273,115.28336-75.76746s-60.16828-56.45419-60.16828-56.45419H612.08225C583.85515,765.03845,568.99879,792.52273,568.99879,820.74982Zm193.24446-403.4127a86.42516,86.42516,0,1,0-86.42516,86.42516A86.42535,86.42535,0,0,0,762.24325,417.33712Z"/></svg>