<svg xmlns="http://www.w3.org/2000/svg" viewBox="0 0 1024 1024" role="img"><path d="M960 0H64A64 64 0 000 64v896a64 64 0 0064 64h896a64 64 0 0064-64V64a64 64 0 00-64-64zM802.53 724.418c-89.72 161.18-293.196 219.073-454.33 129.326-161.167-89.607-221.408-294.36-129.29-454.16 18.585-32.235 46.566-62.042 53.278-68.766 3.35-3.336 21.985 8.346 16.285 17.835-30.579 106.628-16.07 180.543 20.554 250.738 2.645 1.622 16.022 7.579 17.476 2.335 7.988-219.317 122.45-355.892 258.07-448.595 77.492-23.987 142.013-31.712 164.521-19.219l.003.005c60.848 33.98 157.226 404.468 53.431 590.501z"/></svg>