<svg xmlns="http://www.w3.org/2000/svg" viewBox="0 0 1024 1024"><path d="M862.42188,739.91211C946.808,648.1467,986.19664,521.5028,970.55692,397.83469c-16.43836-129.98324-92.84186-260.41155-209.8553-324.02348-55.02053-29.91077-120.04334-46.14565-182.80513-42.175-18.10428,1.14538-36.07755,8.8238-38.06073,29.59838-2.92262,30.61558,25.24254,34.34374,47.76407,34.489,130.3533.84052,233.29538,97.10022,277.40943,213.90823,46.59852,123.38654,22.37005,267.3041-70.55833,362.30912l-413.196-413.1958L482.74512,157.25488c24.89014-24.89014,16.74438-49.32764-18.10181-54.30566L319.83911,82.2627a32.00028,32.00028,0,0,0-27.15283,9.05078L70.62744,313.37256a32,32,0,0,0,0,45.25488l82.74512,82.74512a32.00041,32.00041,0,0,0,45.25488,0l92.11768-92.11768L687.13135,745.64111C587.01192,787.91188,470.085,776.49967,379.47724,716.452c-37.37913-24.772-65.26573-57.95519-95.83462-90.16862-25.67975-27.06127-56.4511-52.278-95.3388-31.26767A64.73769,64.73769,0,0,0,155.5651,661.9719c3.67893,22.222,18.34485,35.60291,34.7203,49.23317l-171.54028,171.54c-23.22107,23.22107-24.82769,61.60713-3.56153,86.6482,23.85724,28.09207,67.99132,29.94154,94.07129,3.86157L287.82715,794.68262C426.01742,894.25076,614.46266,907.09309,762.272,820.78174L914.74512,973.25488c26.07486,26.07486,70.21517,24.22991,94.07129-3.86169,21.26693-25.04272,19.66279-63.42285-3.56153-86.64807Z"/></svg>