<svg xmlns="http://www.w3.org/2000/svg" viewBox="0 0 1024 1024" role="img"><path d="M512 64C264.975 64 64 264.975 64 512s200.975 448 448 448 448-200.975 448-448S759.025 64 512 64zm0 781.395c-183.784 0-333.395-149.61-333.395-333.395S328.215 178.605 512 178.605 845.395 328.215 845.395 512 695.785 845.395 512 845.395zm20.837-515.72H360.93v364.65h171.907c100.643 0 182.326-81.68 182.326-182.325S633.48 329.674 532.837 329.674zM517.21 605.766h-52.093V418.233h52.093a93.767 93.767 0 010 187.534z"/></svg>