<svg xmlns="http://www.w3.org/2000/svg" viewBox="0 0 1024 1024" role="img"><path d="M512 0C229.23 0 0 229.23 0 512s229.23 512 512 512 512-229.23 512-512S794.77 0 512 0zm115.774 495H396.226L512 235.886zM152.116 337.404c55.02-113.41 156.554-189.115 270.531-215.31L161.937 705.59c-60.667-109.924-68.791-246.634-9.82-368.186zM252.581 816.49L339.034 623h345.932l86.453 193.49c-149.136 127.34-369.702 127.34-518.838 0zm609.483-110.9L601.353 122.094c113.977 26.195 215.51 101.9 270.53 215.31 58.971 121.552 50.847 258.262-9.82 368.186z"/></svg>