<svg xmlns="http://www.w3.org/2000/svg" viewBox="0 0 1024 1024" role="img"><path d="M760.69 581c-4.53-2.34-14.03-12.9-20.97-23.24-7.78-11.69-11.62-19.31-13.89-27.61l-1.66-5.96H570.63c-84.36.07-161.4.3-171.13.6l-17.58.45.45 4.08c.3 2.26 4.38 19.46 9.13 38.25 5.28 21.13 8.91 36.9 9.43 41.57.46 4.15 1.06 19.25 1.29 33.58.37 24.83.3 26.26-1.14 30.56-2.41 7.02-3.69 12.75-5.43 23.39-.83 5.43-1.88 10.94-2.34 12.37-.53 1.44-4.9 8.68-9.88 16.15-9.73 14.87-15.7 25.88-15.7 29.2a8.18 8.18 0 001.74 4.23c1.74 2.03 1.96 2.03 14.19 2.71 17.05.91 37.72-.07 40.29-1.96.75-.53 1.58-3.32 2.34-8a57.305 57.305 0 011.58-7.77c.75-1.28 6.11 0 9.43 2.34 5.51 3.77 5.96 3.7 11.02-.98 10.86-10.04 28.07-30.79 28.07-33.88 0-1.88-3.1-5.05-8.53-8.75-5.58-3.7-8.75-6.72-10.34-9.73-.75-1.51-3.32-8.98-5.73-16.68l-4.38-13.96.08-11.32a92.203 92.203 0 015.58-33.35c4.45-12.6 13.13-29.35 17.13-32.97 1.51-1.36 4.75-1.73 40.52-5.36 6.64-.68 18.18-2.18 25.65-3.47 16.3-2.79 28.07-3.24 31.84-1.2a15.062 15.062 0 014.6 4.52c3.1 4.45 15.47 29.35 19.55 39.31 4.75 11.55 4.9 14.49 1.36 24.98a107.11 107.11 0 00-3.48 12.75c-1.28 7.7-5.28 14.19-27.99 45.35-20.6 28.29-22.48 31.39-22.48 36.67 0 7.39 13.65 12.07 30.86 10.41 11.84-1.13 11.54-.83 22.56-19.39 7.99-13.36 13.05-20.37 20.6-28.6 8.07-8.83 7.77-8.07 8.07-25.35l.3-14.94 16.98-16.75c9.35-9.21 17.8-18.18 18.86-20 2.79-4.75 2.26-10.63-2.26-22.93-5.21-14.26-5.59-15.85-4.08-18.26a3.854 3.854 0 013.47-1.96c3.85 0 7.55 5.35 17.73 25.57l9.36 18.57.76 27.84.67 27.84-3.24 9.88c-3.47 10.72-4.45 15.7-5.28 27.17l-.53 7.47-11.77 12.14c-6.49 6.72-12.45 13.43-13.13 15.02q-3.285 6.9 6.34 12.22c5.66 3.1 7.39 3.32 18.79 3.1 7.92-.15 11.31-.61 15.16-1.89 8-2.57 10.57-5.58 24.98-29.5l5.66-9.43.9-24.15c.53-13.28 1.28-26.86 1.66-30.18.76-6.11 1.06-6.87 4.91-13.58 2.11-3.62 2.18-4.15 2.11-12.45-.08-8.07-.45-10.04-5.06-28.3-7.62-30.18-9.13-39.23-8.67-51.23.22-7.54 1.43-10.26 4.52-10.26 2.8 0 21.81 19.92 25.13 26.48.68 1.21 1.51 4.76 1.89 7.93a30.37 30.37 0 003.54 11.16c1.51 2.95 4 8.45 5.51 12.15 3.4 8.38 4.83 8.91 7.32 2.64 5.05-12.82 3.09-31.76-3.7-35.31zm-24.44-145.4l-2.8-7.47c-6.79-18.33-22.41-39.61-32.82-44.89-6.64-3.32-29.65-12.9-34.78-14.49-14.04-4.22-31.16-.22-105.33 24.68l-30.86 10.33-24.6-.45c-27.01-.53-31.69-1.13-39.09-5.06-4.3-2.26-7.99-5.28-31.61-25.72-26.71-23.17-35.46-28.3-63-37.2-9.66-3.17-18.72-6.42-20.07-7.25-4.3-2.64-4.91-5.35-4.98-20.75l-.08-13.58-4.3-12.45c-7.02-20.52-10.87-27.91-14.64-27.91-2.04 0-5.58 4.9-11.84 16.6-6.19 11.54-6.72 13.35-7.32 26.78-.61 12.75-1.44 16.07-4.53 17.73-4.9 2.64-12.83-8.9-23.62-34.33-7.39-17.43-9.43-19.54-14.94-14.94-4.67 4-7.69 13.43-8.98 28.52-1.05 11.47-.22 19.62 2.57 25.58.91 2.11 4.98 8.15 8.98 13.43 3.92 5.28 7.47 10.34 7.7 11.24.75 2.27 0 4.53-5.29 15.85-5.73 12.3-6.79 17.05-7.92 35.24-1.06 16.52-1.73 20.14-5.28 28.06a117.208 117.208 0 00-9.58 38.56c-.61 9.66-.08 12 3.54 15.69 7.55 7.7 26.71 12.98 37.96 10.34 10.33-2.41 20.82-8.37 31.61-18.11 7.85-6.94 12.45-10.26 14.49-10.26a17.703 17.703 0 015.43 1.89c10.34 5.13 24.37 22.33 32.9 40.14l4.37 9.28 175.28.15c96.35.15 175.43.08 175.65-.15a40.834 40.834 0 001.66-6.79c4.46-22.79 6.19-38.18 6.19-54.33zm-290.8 25.21c-5.36 3.84-9.96 7.31-10.19 7.62-.15.3 1.36 5.81 3.4 12.14 2.04 6.34 3.55 11.7 3.47 11.85-.15.15-4.75-3.02-10.19-6.94-5.43-4-10.03-7.25-10.18-7.25-.23 0-4.83 3.25-10.26 7.17-5.44 3.93-10.04 7.17-10.26 7.17-.31 0-.31-.45-.16-.9 4-10.72 7.4-22.72 6.8-23.47-.46-.53-5.06-4-10.19-7.7l-9.43-6.79 12.75-.22 12.68-.15 3.84-11.93c2.12-6.49 4-11.92 4.15-12.07.15-.15 2.04 5.13 4.15 11.85l3.85 12.15 12.83.15 12.83.22zm87.83.07c-9.13 6.41-10.11 7.39-9.74 9.05.16 1.06 1.82 6.57 3.7 12.3 1.81 5.66 3.17 10.34 2.94 10.34-.22 0-4.52-3.02-9.58-6.64-4.98-3.7-9.51-6.94-10.03-7.24-.53-.3-4.76 2.26-10.19 6.18-11.17 8.08-11.54 8.3-11.02 6.87.23-.6 1.82-5.58 3.55-11.02 1.74-5.5 3.32-10.48 3.55-11.09.3-.68-2.95-3.47-9.81-8.52l-10.26-7.4 12.67-.22 12.75-.15 4-12.3 4-12.23 4.08 12.23 4.15 12.3 12.67.15 12.68.22zm88.73-.07c-5.36 3.84-9.96 7.31-10.19 7.62-.15.3 1.36 5.81 3.4 12.14 2.04 6.34 3.55 11.7 3.47 11.85-.15.15-4.75-3.02-10.19-6.94-5.43-4-10.03-7.25-10.18-7.25-.23 0-4.83 3.25-10.26 7.17-5.44 3.93-10.04 7.17-10.27 7.17-.3 0-.3-.45-.15-.9 4-10.72 7.4-22.72 6.79-23.47-.45-.53-5.05-4-10.18-7.7l-9.43-6.79 12.75-.22 12.67-.15 3.85-11.93c2.12-6.49 4-11.92 4.15-12.07.15-.15 2.04 5.13 4.15 11.85l3.85 12.15 12.83.15 12.82.22zm87.45-1.06c-4.68 3.32-9.28 6.71-10.26 7.54l-1.81 1.51 3.77 11.7c2.11 6.41 3.7 11.69 3.55 11.84-.08.16-4.76-3.01-10.27-7.01l-10.03-7.25-4.6 3.25c-2.49 1.73-7.25 5.2-10.42 7.62-3.24 2.34-5.88 4.07-5.88 3.85 0-.3 1.73-5.74 3.85-12.08 2.71-8.22 3.62-11.84 3.09-12.52-.45-.53-5.05-4-10.19-7.7l-9.43-6.79 12.68-.22 12.67-.15 4.15-12.3 4.08-12.23 4 12.23 3.92 12.3 12.75.15 12.83.22zM512 64C264.58 64 64 264.58 64 512s200.58 448 448 448 448-200.58 448-448S759.42 64 512 64zm0 851.2c-222.68 0-403.2-180.52-403.2-403.2S289.32 108.8 512 108.8 915.2 289.32 915.2 512 734.68 915.2 512 915.2z"/></svg>