<svg xmlns="http://www.w3.org/2000/svg" viewBox="0 0 1248 1024"><title>polit-juche</title><path d="M370.16772,327.32227,244.774,294.32422a27.99917,27.99917,0,0,0-26.9248,7.2793L11.43231,508.02a28.00018,28.00018,0,0,0,0,39.59814l79.196,79.1958a27.99929,27.99929,0,0,0,39.598,0L382.84082,374.19971A28.0003,28.0003,0,0,0,370.16772,327.32227Z"/><path d="M945.70508,499.80957,704,753.02441V448a64,64,0,0,0-128,0V752.80029L350.34473,515.8623a63.99976,63.99976,0,0,0-92.68945,88.27539l320,336A63.81542,63.81542,0,0,0,624.00977,960h31.98047a63.82151,63.82151,0,0,0,46.30469-19.80957l336-352a64.00011,64.00011,0,1,0-92.58984-88.38086Z"/><path d="M1192.75647,428.91162l-31.40491-38.10742c-51.32129-62.27536-120.56021-107.58576-199.59357-124.778-11.62436-2.52866-133.04676-23.17866-116.03832,15.51,4.38473,9.97383,16.61954,9.61043,25.85041,11.7729a240.92283,240.92283,0,0,1,49.40649,17.90311,260.90768,260.90768,0,0,1,65.66917,44.89807c21.913,20.67813,41.19661,46.02324,53.18788,73.76816a281.3744,281.3744,0,0,1,20.12952,62.314,76.81518,76.81518,0,0,0,15.79272,33.14111,75.8062,75.8062,0,0,0,117.00061-96.42188Z"/><path d="M640,372c28,0,84-28,84-112,0-56-28-140-84-196-56,56-84,140-84,196C556,344,612,372,640,372Z"/></svg>