<svg xmlns="http://www.w3.org/2000/svg" viewBox="0 0 1024 1024" role="img"><path d="M813.04 640.24c-.13 63.82-35.76 94.82-73.14 94.59-29.83-.18-62.53-9.72-76.68-84.5-3.81-20.16-7.02-60.53-22.44-60.27-3.79.06-6.69 4.01-6.56 9.58.52 22.42.63 71.63.5 85.75-.28 32.8.18 40.47-24.97 40.11-18.91-.28-56.75.62-73.14.25-11.1-.25-17.96-2.2-17.15-22.95.76-19.42.85-34.85.25-60.03-.5-21.18-3.78-20.93-24.21-21.44-16.11-.39-97.2-.38-118.29.26-8.32.25-11.18 6.21-11.35 14.37-.51 24.21.3 51.27-.25 67.6-.59 17.41-5.8 23.2-17.91 23.45-17.66.38-65.32-.25-84.49-.5-8.58-.12-14.99-3.54-15.39-15.14-1.02-29.5.76-210.82.76-234.3 0-11.35 4.64-14.96 17.91-14.88 26.58.14 433.55.08 449.94-.25l.01-.01c13.12-.25 13.37 9.58 13.62 16.14.47 12.1 1.52 163.69 1.52 178.57 0 14.88 5.8 20.17 13.11 19.92 17.17-.59 16.4-25.98 14.63-39.6-1.77-13.61 6.05-14.88 14.88-14.62 16.64.46-1.77 0 29.76 0 7.06 0 9.1 8.3 9.08 17.9zm-82.23-224.96c.08 28-4.3 31.99-20.68 31.78-.31 0-418.9.44-440.11.51-21.44.06-22.7-2.9-22.7-39.6-.01-141.76 111.48-170.7 240.1-171.51q3.525-.015 7-.02v.01c145.95.14 235.99 34.59 236.39 178.83zm-320.65-47.95l-37.04-27.12 13.95-43.94-37.23 26.85-37.48-26.85 14.02 43.71-37.11 27.35 45.9.16 14.54 43.76 14.35-43.61zm140.74-.52l-37.04-27.12 13.95-43.94-37.24 26.84-37.48-26.84 14.03 43.71L430 366.81l45.91.16 14.54 43.75 14.35-43.6zm140.48.5l-37.04-27.11 13.95-43.95-37.23 26.85-37.49-26.85 14.03 43.71-37.11 27.35 45.9.17 14.54 43.75 14.35-43.61zM960 512c0 247.42-200.58 448-448 448S64 759.42 64 512 264.58 64 512 64s448 200.58 448 448zm-44.8 0c0-222.68-180.52-403.2-403.2-403.2S108.8 289.32 108.8 512 289.32 915.2 512 915.2 915.2 734.68 915.2 512z"/></svg>