<svg xmlns="http://www.w3.org/2000/svg" viewBox="0 0 1024 1024"><title>polit-anarchy</title><path d="M512,0C229.23029,0,0,229.23,0,512s229.23029,512,512,512,512-229.23,512-512S794.76971,0,512,0ZM627.77435,495H396.22565L512,235.88574Zm-475.658-157.59619c55.02-113.40918,156.554-189.11523,270.5307-215.30957L161.93616,705.58984C101.27014,595.66553,93.146,458.95605,152.11639,337.40381Zm100.465,479.08594L339.03418,623H684.96582l86.45282,193.48975C622.28265,943.83057,401.71716,943.83008,252.58136,816.48975Zm609.48248-110.8999L601.35291,122.09424c113.97675,26.19434,215.51068,101.90039,270.5307,215.30957C930.854,458.95605,922.72986,595.66553,862.06384,705.58984Z"/></svg>