<svg xmlns="http://www.w3.org/2000/svg" viewBox="0 0 1024 1024" role="img"><path d="M862.422 739.912c84.386-91.765 123.775-218.41 108.135-342.077C954.119 267.85 877.715 137.423 760.702 73.81c-55.02-29.91-120.044-46.145-182.806-42.175-18.104 1.146-36.077 8.824-38.06 29.599-2.923 30.615 25.242 34.343 47.764 34.489 130.353.84 233.295 97.1 277.41 213.908 46.598 123.386 22.37 267.304-70.56 362.309L381.256 258.745l101.49-101.49c24.89-24.89 16.744-49.328-18.102-54.306L319.84 82.263a32 32 0 00-27.153 9.05l-222.06 222.06a32 32 0 000 45.254l82.746 82.746a32 32 0 0045.254 0l92.118-92.118L687.131 745.64c-100.12 42.27-217.046 30.859-307.654-29.189-37.379-24.772-65.265-57.955-95.834-90.169-25.68-27.06-56.451-52.278-95.34-31.267a64.738 64.738 0 00-32.738 66.956c3.679 22.222 18.345 35.603 34.72 49.233l-171.54 171.54c-23.22 23.221-24.828 61.607-3.561 86.648 23.857 28.092 67.99 29.942 94.07 3.862l178.573-178.572c138.19 99.568 326.636 112.41 474.445 26.099l152.473 152.473c26.075 26.075 70.215 24.23 94.071-3.862 21.267-25.043 19.663-63.423-3.561-86.648z"/></svg>