<svg xmlns="http://www.w3.org/2000/svg" viewBox="0 0 1280 1024" role="img"><path d="M1184.34 395.311h.792c33.27-13.555 49.092-52.372 35.647-86.49-14.292-33.325-53.15-49.883-86.434-35.688-34.062 14.278-49.94 52.302-35.647 86.42 13.5 33.325 52.372 49.202 85.642 35.758zm-146.55-91.286l-.042.111c33.27-13.708 49.146-52.317 35.424-86.003a65.863 65.863 0 10-121.761 50.245c14.25 33.283 53.109 49.146 86.379 35.647zm-265.56 8.815a65.923 65.923 0 0086.476 34.91l-.834 1.529c33.27-14.293 49.147-53.11 35.703-86.435a66.643 66.643 0 00-86.49-36.439c-33.27 14.292-49.147 53.15-34.855 86.434zm359.32 273.525c8.44 46.56 9.913 67.707-.792 98.029-15.03-15.085-28.473-42.557-39.498-84.057l-45.977 147.12c27.416-18.24 48.257-29.794 71.934-30.113-42.988 90.34-95.93 113.17-129.784 106.58-41.5-8.329-60.644-45.727-53.36-77.3 9.218-44.407 55.473-55.487 76.355-3.546 41.765-82.57-27.43-109.569-72.142-85.628 69.237-67.498 77.412-127.934 22.467-202.287-77.202 58.323-78.579 116.534-44.878 198.909-44.406-51.941-114.963-24.58-90.327 58.684 33.061-50.037 75.507-18.24 68.444 29.794-5.742 41.986-61.326 74.52-129.77 68.138-98.307-8.703-103.048-76.828-104.577-133.148 23.788-3.907 67.345 19.033 104.577 71.391l15.07-156.185c-40.442 41.236-77.73 49.884-118.118 50.732 14.292-41.195 76.939-110.222 76.939-110.222H541.887s62.647 69.027 76.939 110.222c-40.388-.848-77.676-9.496-118.119-50.732l15.07 156.185c37.233-52.358 80.79-75.298 104.578-71.391-1.53 56.32-6.27 124.444-104.577 133.148-68.444 6.381-124.028-26.152-129.77-68.138-7.063-48.035 35.383-79.83 68.444-29.794 24.636-83.265-45.921-110.625-90.327-58.684 33.7-82.375 32.324-140.586-44.878-198.909-54.945 74.353-46.77 134.789 22.467 202.287-44.712-23.94-113.907 3.059-72.142 85.628 20.882-51.941 67.137-40.86 76.354 3.545 7.285 31.574-11.86 68.972-53.359 77.3-33.854 6.59-86.796-16.238-129.784-106.58 23.677.32 44.517 11.874 71.934 30.114l-45.977-147.12c-11.025 41.5-24.469 68.972-39.498 84.057-10.705-30.322-9.231-51.469-.793-98.03l-.736.793-93.497 34.062c49.202 65.803 99.086 157.77 139.53 320.24 118.91-21.3 322.435-35.523 446.254-36.412 123.82.89 327.343 15.112 446.255 36.411 40.443-162.469 90.327-254.436 139.53-320.239l-93.498-34.062zm135.998-106.315c-14.292-34.063-53.15-49.94-86.42-35.648-34.076 13.5-49.842 52.317-35.647 86.434l.779.793a65.9 65.9 0 10121.288-51.58zm-845.42-130.771l-.834-1.53a65.923 65.923 0 0086.476-34.91c14.292-33.283-1.585-72.142-34.855-86.434a66.643 66.643 0 00-86.49 36.44c-13.444 33.325 2.433 72.141 35.703 86.434zm-179.876-45.143l-.042-.111c33.27 13.5 72.129-2.364 86.38-35.647a65.863 65.863 0 10-121.762-50.245c-13.722 33.686 2.155 72.295 35.424 86.003zM94.868 395.311h.792c33.27 13.444 72.142-2.433 85.642-35.758 14.292-34.118-1.585-72.142-35.647-86.42-33.283-14.195-72.142 2.363-86.434 35.688-13.444 34.118 2.377 72.935 35.647 86.49zM613.78 196.847L573.696 298.84c-7.535 19.492-17.67 35.425-17.67 57.836a83.973 83.973 0 10167.946 0c0-22.412-10.135-38.344-17.67-57.836L666.22 196.847a41.972 41.972 0 005.978-6.089l101.616 37.524V101.779L672.2 139.29a41.818 41.818 0 00-6.465-6.464l37.524-101.617H576.742l37.524 101.617a41.818 41.818 0 00-6.465 6.464l-101.616-37.51v126.503L607.8 190.758a41.972 41.972 0 005.978 6.09zM133.74 531.629l.779-.793c14.195-34.117-1.571-72.934-35.647-86.434-33.27-14.292-72.128 1.585-86.42 35.647a65.9 65.9 0 10121.288 51.58z"/></svg>