<svg xmlns="http://www.w3.org/2000/svg" viewBox="0 0 1248 1024" role="img"><path d="M370.168 327.322l-125.394-32.998a28 28 0 00-26.925 7.28L11.432 508.02a28 28 0 000 39.598l79.196 79.196a28 28 0 0039.598 0L382.841 374.2a28 28 0 00-12.673-46.878zM945.705 499.81L704 753.024V448a64 64 0 00-128 0v304.8L350.345 515.862a64 64 0 00-92.69 88.276l320 336A63.815 63.815 0 00624.01 960h31.98a63.822 63.822 0 0046.305-19.81l336-352a64 64 0 10-92.59-88.38zm247.051-70.898l-31.404-38.108c-51.322-62.275-120.56-107.586-199.594-124.778-11.624-2.528-133.047-23.178-116.038 15.51 4.384 9.974 16.62 9.61 25.85 11.773a240.923 240.923 0 0149.407 17.903 260.908 260.908 0 0165.669 44.898c21.913 20.678 41.196 46.024 53.188 73.768a281.374 281.374 0 0120.13 62.314 76.815 76.815 0 0015.792 33.142 75.806 75.806 0 00117-96.422zM640 372c28 0 84-28 84-112 0-56-28-140-84-196-56 56-84 140-84 196 0 84 56 112 84 112z"/></svg>