<svg xmlns="http://www.w3.org/2000/svg" viewBox="0 0 1024 1024" role="img"><path d="M807 32H217C114.827 32 32 114.827 32 217v590c0 102.173 82.827 185 185 185h590c102.173 0 185-82.827 185-185V217c0-102.173-82.827-185-185-185zM533.332 255.492a64.001 64.001 0 11128.002 0v171.02a64.001 64.001 0 11-128.002-.022zM320.002 597.5a64.07 64.07 0 01-64.006 64.124 64.124 64.124 0 010-128.248h64.006zm170.666 171.009a64.001 64.001 0 11-128.002-.01V597.498a64.062 64.062 0 0163.996-64.124h.01a64.06 64.06 0 0163.996 64.124zm-63.996-277.883H255.996a64.13 64.13 0 010-128.259h170.666a64.13 64.13 0 01.01 128.26zm63.996-171.009h-64.006a64.124 64.124 0 1164.006-64.124zm106.66 513.016a64.062 64.062 0 01-63.996-64.124v-64.124h63.996a64.124 64.124 0 010 128.248zm170.676-170.998H597.328v-.01a64.124 64.124 0 010-128.25h170.666a64.13 64.13 0 01.01 128.26zm-.01-171.009h-63.996v-64.124a64.001 64.001 0 1163.996 64.124z" class="a"/></svg>