<svg xmlns="http://www.w3.org/2000/svg" viewBox="0 0 1024 1024"><title>software-whatsapp-square</title><path d="M512,218.96c-159.94,0-289.96029,130.02-290.18005,289.96a288.67823,288.67823,0,0,0,44.44,154.2201l6.81995,11-29.25993,106.92L353.60018,752.24,364.16,758.62A289.196,289.196,0,0,0,511.78,799.1H512c159.72,0,293.25993-130.02,293.25993-289.96,0-77.44-33.44-150.2601-88.21977-205.04011C662.04016,249.0999,589.44,218.96,512,218.96ZM682.5,633.44c-7.25993,20.46-42.01986,38.94009-58.74007,41.36005-27.72021,4.18-49.27979,1.97992-104.5-21.78-87.34-37.84-144.53994-125.84-148.94-131.56s-35.63989-47.3-35.63989-90.2,22.44-64.02,30.57987-72.82006c7.92013-8.79992,17.38-11,23.31995-11,5.72,0,11.6602,0,16.72.22,5.28.22,12.54016-1.98,19.5801,14.96C432.14012,380,449.51986,422.9,451.72,427.3c2.19991,4.4,3.73985,9.46.66,15.17994C435.66,475.92,417.84,474.6,426.85988,490c33.66,57.86005,67.32017,77.88,118.5801,103.62,8.80009,4.4,13.85988,3.74007,18.9199-2.2,5.06-5.72,21.78023-25.52,27.5-34.1,5.72021-8.8,11.66-7.26,19.5801-4.4,7.9199,2.86,50.81995,23.98,59.62,28.38008,8.79987,4.39993,14.52008,6.6,16.72,10.12C689.75993,595.6,689.75993,613.2,682.5,633.44ZM960,0H64A64,64,0,0,0,0,64V960a64,64,0,0,0,64,64H960a64,64,0,0,0,64-64V64A64,64,0,0,0,960,0ZM511.78,857.84008a348.56347,348.56347,0,0,1-166.76015-42.46L160,864.00006,209.5,683.16a347.63852,347.63852,0,0,1-46.64012-174.46006c.22-192.28,156.64012-348.7,348.92013-348.7,93.28,0,180.84,36.3,246.84,102.3C824.39982,328.3,864,415.85994,864,509.14,864,701.42,704.06,857.84008,511.78,857.84008Z"/></svg>