<svg xmlns="http://www.w3.org/2000/svg" viewBox="0 0 1024 1024"><path class="a" d="M392.52635,62.23012a89.77417,89.77417,0,0,0-.00009,179.548h89.60906v-89.774a89.699,89.699,0,0,0-89.609-89.774m0,239.3973H153.594a89.78169,89.78169,0,0,0,0,179.563H392.54134a89.78167,89.78167,0,0,0-.015-179.563"/><path class="b" d="M960,391.4164a89.60168,89.60168,0,1,0-179.203,0v89.774h89.594A89.699,89.699,0,0,0,960,391.4164m-238.93232,0V152.0041a89.60165,89.60165,0,1,0-179.203,0v239.3973a89.60168,89.60168,0,1,0,179.203.03"/><path class="c" d="M631.45867,960a89.77415,89.77415,0,0,0,0-179.548h-89.594v89.774A89.68625,89.68625,0,0,0,631.45867,960m0-239.39729H870.406a89.78167,89.78167,0,0,0-.015-179.563H631.45867a89.77418,89.77418,0,0,0-.00011,179.548h.00011"/><path class="d" d="M64,630.81372a89.684,89.684,0,0,0,89.5939,89.774h.00009a89.699,89.699,0,0,0,89.609-89.774v-89.774H153.594A89.68625,89.68625,0,0,0,64,630.81372m238.93231,0V870.211a89.60167,89.60167,0,1,0,179.203.015V630.81372a89.684,89.684,0,0,0-89.5939-89.774h-.01508a89.68625,89.68625,0,0,0-89.594,89.774"/></svg>