<svg xmlns="http://www.w3.org/2000/svg" viewBox="0 0 1024 1024"><title>software-slack-square</title><path d="M960,0H64A64,64,0,0,0,0,64V960a64,64,0,0,0,64,64H960a64,64,0,0,0,64-64V64A64,64,0,0,0,960,0ZM537.59839,204.19061a76.80141,76.80141,0,1,1,153.60254,0V409.414a76.80144,76.80144,0,1,1-153.60254-.0257ZM281.60254,614.59888a76.88469,76.88469,0,0,1-76.80762,76.9491h0a76.94928,76.94928,0,0,1,0-153.89825h76.80762ZM486.40186,819.80939a76.80155,76.80155,0,1,1-153.60278-.01288V614.59888h.00024A76.87374,76.87374,0,0,1,409.594,537.64972h.01294a76.87231,76.87231,0,0,1,76.79492,76.94916ZM409.60693,486.35028h-204.812a76.95573,76.95573,0,0,1,0-153.91113H409.594a76.95572,76.95572,0,0,1,.01294,153.91113Zm76.79492-205.21051H409.594a76.94929,76.94929,0,1,1,76.80786-76.94916ZM614.39307,896.75854a76.87393,76.87393,0,0,1-76.79468-76.94916V742.86023h76.79468a76.94929,76.94929,0,0,1,0,153.89832Zm204.812-205.19769h-204.812V691.548h0a76.94928,76.94928,0,0,1,0-153.89825H819.19238a76.95572,76.95572,0,0,1,.0127,153.91113Zm-.0127-205.21057H742.39746v-76.9491a76.80141,76.80141,0,1,1,76.79492,76.9491Z"/></svg>