<svg xmlns="http://www.w3.org/2000/svg" viewBox="0 0 1024 1024" role="img"><path d="M392.526 62.23a89.774 89.774 0 000 179.548h89.61v-89.774a89.699 89.699 0 00-89.61-89.774m0 239.397H153.594a89.782 89.782 0 000 179.563h238.947a89.782 89.782 0 00-.015-179.563" class="a"/><path d="M960 391.416a89.602 89.602 0 10-179.203 0v89.774h89.594A89.699 89.699 0 00960 391.416m-238.932 0V152.004a89.602 89.602 0 10-179.203 0v239.397a89.602 89.602 0 10179.203.03" class="b"/><path d="M631.459 960a89.774 89.774 0 000-179.548h-89.594v89.774A89.686 89.686 0 00631.459 960m0-239.397h238.947a89.782 89.782 0 00-.015-179.563H631.459a89.774 89.774 0 000 179.548" class="c"/><path d="M64 630.814a89.684 89.684 0 0089.594 89.774 89.699 89.699 0 0089.609-89.774V541.04h-89.609A89.686 89.686 0 0064 630.814m238.932 0V870.21a89.602 89.602 0 10179.203.015V630.814a89.684 89.684 0 00-89.594-89.774h-.015a89.686 89.686 0 00-89.594 89.774" class="d"/></svg>