<svg xmlns="http://www.w3.org/2000/svg" viewBox="0 0 1024 1024"><defs><style>.a{fill-rule:evenodd;}</style></defs><title>software-slack</title><path class="a" d="M807,32H217C114.82739,32,32,114.82733,32,217V807c0,102.17267,82.82739,185,185,185H807c102.17261,0,185-82.82733,185-185V217C992,114.82733,909.17261,32,807,32ZM533.33191,255.49219a64.00116,64.00116,0,1,1,128.00208,0V426.51166a64.00118,64.00118,0,1,1-128.00208-.02142ZM320.0022,597.499a64.07084,64.07084,0,0,1-64.00647,64.12433h-.00012a64.12443,64.12443,0,0,1,.00012-128.2486H320.0022ZM490.66809,768.50781a64.00117,64.00117,0,1,1-128.00208-.01068V597.499a64.06158,64.06158,0,0,1,63.99561-64.12427h.01074A64.06,64.06,0,0,1,490.66809,597.499ZM426.67236,490.62524H255.99573a64.12978,64.12978,0,0,1,0-128.25928H426.66162a64.12977,64.12977,0,0,1,.01074,128.25928Zm63.99573-171.00879H426.66162a64.12438,64.12438,0,1,1,64.00647-64.12427ZM597.32764,832.63208a64.06157,64.06157,0,0,1-63.99573-64.12427V704.38354h63.99573a64.12438,64.12438,0,0,1,0,128.24854ZM768.00427,661.634H597.32764v-.01068h-.00012a64.12443,64.12443,0,0,1,.00012-128.2486h170.666a64.12977,64.12977,0,0,1,.01062,128.25928Zm-.01062-171.00879H703.9978V426.501a64.00122,64.00122,0,1,1,63.99585,64.12427Z"/></svg>