<svg xmlns="http://www.w3.org/2000/svg" viewBox="0 0 1024 1024" role="img"><path d="M960 0H64A64 64 0 000 64v896a64 64 0 0064 64h896a64 64 0 0064-64V64a64 64 0 00-64-64zM537.598 204.19a76.801 76.801 0 11153.603 0v205.224a76.801 76.801 0 11-153.603-.026zM281.603 614.6a76.885 76.885 0 01-76.808 76.949 76.95 76.95 0 010-153.898h76.808zm204.799 205.21a76.802 76.802 0 11-153.603-.012V614.599a76.874 76.874 0 0176.795-76.95h.013a76.872 76.872 0 0176.795 76.95zm-76.795-333.46H204.795a76.956 76.956 0 010-153.91h204.799a76.956 76.956 0 01.013 153.91zm76.795-205.21h-76.808a76.95 76.95 0 1176.808-76.95zm127.991 615.619a76.874 76.874 0 01-76.795-76.95V742.86h76.795a76.95 76.95 0 010 153.899zM819.205 691.56H614.393v-.013a76.95 76.95 0 010-153.898h204.8a76.956 76.956 0 01.012 153.91zm-.013-205.21h-76.795V409.4a76.801 76.801 0 1176.795 76.95z"/></svg>