<svg xmlns="http://www.w3.org/2000/svg" viewBox="0 0 832 1024" role="img"><path d="M804.794 217.04c-18.362-37.872-46.568-68.885-83.834-92.176C654.52 83.34 557.618 64 416 64s-238.521 19.34-304.96 60.864c-37.266 23.291-65.472 54.304-83.834 92.175C8.899 254.797 0 298.943 0 352c0 33.978 4.19 67.479 8.241 99.877C12.231 483.781 16 513.915 16 544c0 72.191 15.926 140.268 44.844 191.687 16.414 29.185 36.585 52.25 59.953 68.556a151.601 151.601 0 0059.428 25.143l8.679 74.063A64.006 64.006 0 00252.469 960H579.53a64.006 64.006 0 0063.565-56.55l8.68-74.064a151.601 151.601 0 0059.427-25.143c23.368-16.306 43.54-39.37 59.953-68.556C800.074 684.267 816 616.19 816 544c0-30.085 3.769-60.219 7.759-92.123C827.81 419.479 832 385.977 832 352c0-53.057-8.899-97.203-27.206-134.96zm-44.54 226.896C756.195 476.38 752 509.929 752 544c0 60.493-13.35 118.925-36.627 160.313C691.606 746.573 660.528 768 623 768h-28.469l-15 128H528V768h-80v128h-64V768h-80v128h-51.53l-15.001-128H209c-37.528 0-68.606-21.427-92.373-63.687C93.35 662.925 80 604.493 80 544c0-34.071-4.196-67.62-8.253-100.064C67.763 412.08 64 381.99 64 352c0-83.414 25.726-138.343 80.96-172.864C200.015 144.726 288.673 128 416 128s215.985 16.727 271.04 51.136C742.274 213.657 768 268.586 768 352c0 29.991-3.763 60.08-7.747 91.936z"/><path d="M592 416c-22.132 7.377-58.534 24.844-80 32-48 16-64 32-48 80s48 80 112 80c80 0 128-16 128-96 0-112-64-112-112-96zM423.59 597.526a7.975 7.975 0 00-15.18 0l-25.231 76.47c-7.468 22.632 9.207 46.004 32.82 46.004H416c23.614 0 40.288-23.372 32.821-46.003zM320 448c-21.466-7.156-57.868-24.623-80-32-48-16-112-16-112 96 0 80 48 96 128 96 64 0 96-32 112-80s0-64-48-80z"/></svg>