<svg xmlns="http://www.w3.org/2000/svg" viewBox="0 0 1024 1024" role="img"><path d="M953.39 310.36c-22.19-36.15-48.35-64.77-77.77-85.04C843.55 203.21 809.15 192 773.38 192a168.95 168.95 0 00-51.67 8.15C694.96 184.12 666.67 176 637.38 176a157.728 157.728 0 00-59.92 11.95A116.6 116.6 0 00544 166.83V96a32 32 0 0153.156-24.009A32 32 0 00639.51 24.01 96 96 0 00480 96v69.823c-11.453 4.24-23.672 11.194-36.08 22.127A157.728 157.728 0 00384 176c-29.29 0-57.58 8.12-84.33 24.15A168.95 168.95 0 00248 192c-35.77 0-70.17 11.21-102.24 33.32-29.42 20.27-55.58 48.89-77.77 85.04C24.15 381.81 0 476.15 0 576s24.15 194.19 67.99 265.64c22.19 36.15 48.35 64.77 77.77 85.04C177.83 948.79 212.23 960 248 960a171.195 171.195 0 0068.8-14.62c.16-.08.31-.15.47-.22A158.472 158.472 0 00384 960c25 0 49.5-6.03 72.92-17.89 20.08 13.64 38.94 17.66 53.77 17.88 14.83-.22 33.69-4.24 53.77-17.88 23.42 11.86 47.92 17.89 72.92 17.89a158.472 158.472 0 0066.73-14.84c.16.07.31.14.47.22a171.195 171.195 0 0068.8 14.62c35.77 0 70.17-11.21 102.24-33.32 29.42-20.27 55.58-48.89 77.77-85.04 43.84-71.45 67.99-165.79 67.99-265.64s-24.15-194.19-67.99-265.64zM248 896c-46.15 0-90.7-31.19-125.46-87.84C84.79 746.64 64 664.19 64 576s20.79-170.64 58.54-232.16c31.95-52.06 72.17-82.6 114.29-87.21a335.016 335.016 0 00-27.62 40.8C167.16 370.22 144 466.31 144 568s23.16 197.78 65.21 270.57a315.23 315.23 0 0041.88 57.38c-1.03.03-2.06.05-3.09.05zm389.38 0a92.556 92.556 0 01-27.12-4.13 32 32 0 00-56.09-29.99c-8.55 12.44-25.4 33.12-43.48 34.08-18.08-.96-34.93-21.64-43.48-34.08a32 32 0 00-56.09 29.99A92.556 92.556 0 01384 896c-95.4 0-176-150.21-176-328s80.6-328 176-328a90.552 90.552 0 0118.07 1.84c-26.286 46.162-46.12 112.06-56.79 185.56a32.002 32.002 0 1063.34 9.19c9.44-65 26.58-122.41 48.27-161.66 17.43-31.55 36.96-49.98 53.8-50.89 16.84.91 36.37 19.34 53.8 50.89 21.69 39.25 38.83 96.66 48.27 161.66a32.002 32.002 0 1063.34-9.19c-10.67-73.5-30.504-139.398-56.79-185.56a90.552 90.552 0 0118.07-1.84c95.4 0 176 150.21 176 328s-80.6 328-176 328zm261.46-87.84C864.08 864.81 819.53 896 773.38 896c-1.03 0-2.06-.02-3.09-.05a315.23 315.23 0 0041.88-57.38c42.05-72.79 65.21-168.88 65.21-270.57s-23.16-197.78-65.21-270.57a335.016 335.016 0 00-27.62-40.8c42.12 4.61 82.34 35.15 114.29 87.21 37.75 61.52 58.54 143.97 58.54 232.16s-20.79 170.64-58.54 232.16zm-425.495-266.4a8.004 8.004 0 012.609 14.943C406 594.589 286.493 604.985 272 576c-30.909-61.818-16.022-119.853-6.23-145.785a7.993 7.993 0 0114.047-1.723A237.584 237.584 0 00352 496c51.193 30.716 95.833 41.776 121.345 45.759zM672 496a237.584 237.584 0 0072.183-67.508 7.993 7.993 0 0114.046 1.723C768.022 456.147 782.91 514.182 752 576c-14.493 28.985-134.001 18.589-203.954-19.298a8.004 8.004 0 012.609-14.943C576.167 537.776 620.807 526.716 672 496zm-80.005 326.003a31.939 31.939 0 01-17.899-5.478L512 774.608l-62.096 41.917a31.999 31.999 0 01-38.54-2.065l-45.622-38.495-27.992 18.661a32 32 0 01-35.5-53.252l48-32a31.999 31.999 0 0138.387 2.169l45.51 38.402 59.95-40.467a32.001 32.001 0 0135.807 0l59.949 40.467 45.51-38.402a32.002 32.002 0 0138.387-2.169l48 32a32 32 0 01-35.5 53.252l-27.992-18.661-45.621 38.495a31.966 31.966 0 01-20.642 7.543zm59.104-134a32.394 32.394 0 01-3.408-.18 32 32 0 01-28.453-35.192c.489-4.618.97-9.66 1.473-15.414a32 32 0 0163.758 5.566 909.941 909.941 0 01-1.587 16.586 32.006 32.006 0 01-31.783 28.634zm-278.198 0a32.004 32.004 0 01-31.783-28.634 910.03 910.03 0 01-1.587-16.586 32 32 0 0163.758-5.566c.503 5.754.984 10.796 1.473 15.414a32 32 0 01-28.453 35.191 32.394 32.394 0 01-3.408.18z"/></svg>