<svg xmlns="http://www.w3.org/2000/svg" viewBox="0 0 1024 1024" role="img"><path d="M1014.826 985.283a59.205 59.205 0 01-81.71 18.406c-29.294-18.523-51.32-50.33-61.28-71.942-9.917-21.514-11.94-47.787-13.556-79.899-.26-5.155-.504-10.025-.77-13.232-2.621-31.507-.555-79.769 1.269-122.349.68-15.893 1.322-30.904 1.552-41.889.132-6.238.333-13.395.547-20.973.786-27.825 1.848-65.514.124-87.215a8.454 8.454 0 00-4.342-3.18c-11.379-1.729-64.31-2.346-165.16 2.973-50.996 2.69-93.536 5.799-122.544 8.418 2.361 28.503 4.686 62.725 6.664 98.293 6.237 112.184 6.717 182.062 1.425 207.69a125.1 125.1 0 01-39.608 68.369c-19.075 17.041-42.345 27.664-65.525 29.91-28.522 2.764-70.738 1.573-104.658.617-7.356-.208-14.304-.404-20.114-.526-12.278-.258-27.917-.927-44.474-1.636-37.153-1.59-83.392-3.568-107.469-1.568-5.137.427-10.946.72-17.095 1.028-9.063.457-29.822 1.5-37.487 3.427-6.959 3.61-17.437 12.06-20.19 16.414A59.225 59.225 0 0120.31 933.117c18.524-29.295 50.332-51.32 71.943-61.281 21.514-9.918 47.787-11.94 79.899-13.556 5.155-.26 10.025-.504 13.232-.77 31.509-2.621 79.768-.555 122.349 1.269 15.893.68 30.904 1.322 41.889 1.552 6.238.132 13.395.333 20.973.547 27.824.784 65.513 1.847 87.215.124a8.454 8.454 0 003.18-4.342c1.728-11.377 2.345-64.31-2.974-165.16-2.689-50.995-5.798-93.535-8.417-122.544-28.503 2.361-62.725 4.686-98.292 6.664-60.728 3.377-109.06 5.066-144.686 5.066-30.186 0-51.25-1.213-63.005-3.64a125.111 125.111 0 01-68.37-39.61c-17.04-19.074-27.663-42.345-29.91-65.524-2.764-28.524-1.573-70.739-.616-104.658.208-7.356.404-14.305.526-20.114.257-12.279.927-27.917 1.636-44.474 1.59-37.153 3.57-83.392 1.568-107.47-.427-5.136-.72-10.945-1.028-17.094-.457-9.063-1.5-29.822-3.427-37.487-3.61-6.959-12.06-17.437-16.414-20.19A59.225 59.225 0 0190.883 20.31c29.295 18.523 51.32 50.331 61.281 71.942 9.917 21.515 11.94 47.788 13.556 79.9.26 5.155.504 10.025.77 13.231 2.621 31.507.555 79.77-1.269 122.35-.68 15.893-1.322 30.903-1.552 41.888-.132 6.239-.333 13.396-.547 20.973-.786 27.825-1.848 65.515-.124 87.215a8.46 8.46 0 004.342 3.182c11.382 1.73 64.316 2.345 165.158-2.975 50.996-2.689 93.537-5.798 122.546-8.418-2.361-28.502-4.686-62.725-6.664-98.292-6.237-112.185-6.717-182.063-1.425-207.691a125.1 125.1 0 0139.608-68.368c19.075-17.041 42.345-27.665 65.525-29.91 28.524-2.764 70.739-1.573 104.658-.617 7.356.208 14.304.404 20.114.525 12.278.258 27.917.928 44.474 1.636 37.154 1.592 83.395 3.572 107.469 1.569 5.137-.427 10.946-.72 17.095-1.028 9.063-.457 29.822-1.5 37.487-3.427 6.959-3.61 17.437-12.06 20.19-16.414a59.225 59.225 0 11100.115 63.302c-18.524 29.294-50.332 51.32-71.943 61.28-21.514 9.918-47.787 11.942-79.899 13.557-5.155.26-10.025.504-13.232.77-31.508 2.62-79.768.555-122.349-1.269-15.893-.68-30.904-1.322-41.889-1.553-6.238-.131-13.395-.332-20.973-.547-27.825-.785-65.515-1.847-87.215-.123a8.454 8.454 0 00-3.18 4.341c-1.728 11.378-2.345 64.31 2.974 165.16 2.689 50.995 5.798 93.536 8.418 122.545 28.503-2.361 62.725-4.686 98.291-6.664 112.188-6.237 182.062-6.717 207.692-1.425a125.1 125.1 0 0168.368 39.608c17.041 19.075 27.664 42.345 29.91 65.525 2.765 28.524 1.573 70.739.617 104.658-.208 7.356-.404 14.304-.526 20.113-.258 12.28-.927 27.918-1.636 44.474-1.59 37.154-3.57 83.392-1.568 107.47.427 5.136.72 10.945 1.028 17.095.457 9.062 1.5 29.822 3.427 37.486 3.61 6.96 12.06 17.437 16.414 20.19a59.225 59.225 0 0118.407 81.709zM728.82 659.558a52.198 52.198 0 1052.197 52.198 52.198 52.198 0 00-52.197-52.198zm-364.38 69.263a52.198 52.198 0 10-52.197 52.197 52.198 52.198 0 0052.197-52.197zM295.18 364.44a52.198 52.198 0 10-52.197-52.197 52.198 52.198 0 0052.197 52.197zm364.38-69.262a52.198 52.198 0 1052.197-52.198 52.198 52.198 0 00-52.197 52.198z"/></svg>