<svg xmlns="http://www.w3.org/2000/svg" viewBox="0 0 1024 1024"><title>cult-hindu-swastika</title><path d="M1014.82555,985.28285a59.20514,59.20514,0,0,1-81.70876,18.4066c-29.2945-18.52325-51.32027-50.33118-61.28083-71.94229-9.91743-21.51407-11.94071-47.78737-13.55621-79.89917-.25977-5.15526-.50386-10.02526-.7705-13.23174-2.62027-31.507-.55385-79.7688,1.26945-122.34895.68031-15.89318,1.32239-30.90411,1.55275-41.88906.13136-6.23846.33231-13.39544.547-20.973.7852-27.82507,1.84782-65.51464.12351-87.215a8.45387,8.45387,0,0,0-4.34163-3.181c-11.379-1.72822-64.31086-2.34481-165.16044,2.97415-50.996,2.68963-93.53552,5.79832-122.54378,8.41761,2.36123,28.50269,4.686,62.72527,6.66366,98.293,6.23748,112.18449,6.71684,182.06233,1.42532,207.6906a125.09971,125.09971,0,0,1-39.608,68.36821C518.362,965.794,495.09224,976.41726,471.9117,978.66307c-28.522,2.76437-70.73754,1.57334-104.65795.61659-7.356-.20782-14.30415-.40387-20.11326-.52543-12.27891-.25781-27.91722-.92734-44.474-1.63608-37.15336-1.591-83.39287-3.5682-107.46937-1.56844-5.13663.4274-10.94574.71952-17.095,1.02831-9.06263.45681-29.82189,1.49982-37.48665,3.427-6.959,3.61035-17.43711,12.05933-20.18972,16.4137A59.22467,59.22467,0,0,1,20.31036,933.11661c18.52325-29.2945,50.33118-51.32027,71.94229-61.28083,21.51407-9.91743,47.78737-11.94071,79.89917-13.55621,5.15526-.25977,10.02526-.50386,13.23174-.7705,31.50894-2.62027,79.7688-.55385,122.34895,1.26945,15.89318.68031,30.90411,1.32239,41.88906,1.55275,6.23846.13136,13.39544.33231,20.973.547,27.82409.78422,65.51366,1.84684,87.215.12351a8.45387,8.45387,0,0,0,3.181-4.34163c1.72724-11.37706,2.34481-64.30988-2.97415-165.15946-2.68914-50.99531-5.79807-93.53552-8.41786-122.54451-28.50269,2.361-62.72453,4.68571-98.29181,6.66341-60.728,3.377-109.06036,5.06605-144.68547,5.06605-30.18655,0-51.24969-1.2126-63.00514-3.63976a125.11134,125.11134,0,0,1-68.36919-39.60894c-17.04108-19.07515-27.66431-42.34587-29.91011-65.52542-2.76437-28.524-1.57334-70.73852-.61659-104.65795.20782-7.356.40387-14.30415.52543-20.11326.25781-12.27891.92734-27.91722,1.63608-44.474,1.591-37.15336,3.57016-83.39189,1.56844-107.46937-.4274-5.13663-.71952-10.94574-1.02831-17.095-.45681-9.06263-1.49982-29.82189-3.427-37.48665-3.61035-6.959-12.05933-17.43711-16.4137-20.18972A59.22467,59.22467,0,0,1,90.88321,20.31018c29.2945,18.52325,51.32027,50.33118,61.28083,71.94229,9.91743,21.51407,11.94071,47.78737,13.55621,79.89917.25977,5.15526.50386,10.02526.7705,13.23174,2.62027,31.507.55385,79.7688-1.26945,122.34895-.68031,15.89318-1.32239,30.90411-1.55275,41.88906-.13136,6.23846-.33231,13.39544-.547,20.973-.7852,27.82507-1.84782,65.51464-.12351,87.215a8.46042,8.46042,0,0,0,4.34163,3.182c11.382,1.7292,64.31674,2.34481,165.15848-2.97513,50.996-2.68914,93.5365-5.79807,122.54574-8.41786-2.36123-28.50268-4.686-62.72527-6.66366-98.29279-6.23748-112.18449-6.71684-182.06232-1.42532-207.6906a125.09971,125.09971,0,0,1,39.608-68.36821C505.638,58.20561,528.90776,47.58238,552.0883,45.33657c28.524-2.76339,70.73852-1.57236,104.65795-.61659,7.356.20782,14.30415.40387,20.11326.52543,12.27891.25781,27.91722.92734,44.474,1.63608,37.15434,1.592,83.39581,3.57114,107.46937,1.56844,5.13663-.4274,10.94574-.71952,17.095-1.02831,9.06263-.45681,29.82189-1.49982,37.48665-3.427,6.959-3.61035,17.43711-12.05933,20.18972-16.4137A59.22467,59.22467,0,1,1,1003.68964,90.883c-18.52325,29.2945-50.33118,51.32027-71.94229,61.28083-21.51407,9.91743-47.78737,11.94071-79.89917,13.55621-5.15526.25977-10.02526.50386-13.23174.7705-31.50894,2.62027-79.7688.55483-122.34895-1.26945-15.89318-.68031-30.90411-1.32239-41.88906-1.55275-6.23846-.13136-13.39544-.33231-20.973-.547-27.82507-.7852-65.51562-1.84782-87.215-.12351a8.45387,8.45387,0,0,0-3.181,4.34163c-1.72724,11.37706-2.34481,64.30988,2.97415,165.15946,2.68914,50.99556,5.79832,93.536,8.4181,122.545,28.50293-2.361,62.725-4.6862,98.29156-6.6639,112.18743-6.23748,182.06134-6.71684,207.69158-1.42532a125.09971,125.09971,0,0,1,68.36821,39.608c17.04108,19.07515,27.66431,42.34489,29.91011,65.52542,2.76437,28.524,1.57334,70.73852.61659,104.65795-.20782,7.356-.40387,14.30415-.52543,20.11326-.25781,12.27891-.92734,27.91722-1.63608,44.474-1.591,37.15336-3.57016,83.39189-1.56844,107.46937.4274,5.13663.71952,10.94574,1.02831,17.095.45681,9.06263,1.49982,29.82189,3.427,37.48665,3.61035,6.959,12.05933,17.43711,16.4137,20.18972A59.225,59.225,0,0,1,1014.82555,985.28285ZM728.82087,659.55847a52.19762,52.19762,0,1,0,52.19762,52.19762A52.19769,52.19769,0,0,0,728.82087,659.55847ZM364.44135,728.82069a52.19762,52.19762,0,1,0-52.19762,52.19762A52.19769,52.19769,0,0,0,364.44135,728.82069ZM295.17913,364.44117a52.19762,52.19762,0,1,0-52.19762-52.19762A52.19769,52.19769,0,0,0,295.17913,364.44117Zm364.37952-69.26222a52.19762,52.19762,0,1,0,52.19762-52.19762A52.19769,52.19769,0,0,0,659.55865,295.17895Z"/></svg>