<svg xmlns="http://www.w3.org/2000/svg" viewBox="0 0 1024 1024"><title>cult-jack-o-lantern</title><path d="M953.38989,310.35986c-22.18994-36.1499-48.3501-64.77-77.77-85.03979C843.5498,203.21,809.1499,192,773.37988,192a168.95082,168.95082,0,0,0-51.67,8.1499c-26.75-16.02979-55.03992-24.1499-84.33-24.1499a157.72794,157.72794,0,0,0-59.92,11.95A116.59944,116.59944,0,0,0,544,166.83057V96a32.00015,32.00015,0,0,1,53.15625-24.00879,32.0002,32.0002,0,0,0,42.35254-47.98242A96.00058,96.00058,0,0,0,480,96v69.82251c-11.45264,4.24023-23.67163,11.19482-36.08,22.12744A157.72794,157.72794,0,0,0,384,176c-29.29,0-57.58,8.12012-84.33,24.1499A168.95082,168.95082,0,0,0,248,192c-35.77,0-70.16992,11.21-102.24,33.32007C116.34009,245.58984,90.17993,274.21,67.99,310.35986,24.15,381.81006,0,476.1499,0,576S24.15,770.18994,67.99,841.64014c22.18994,36.1499,48.3501,64.77,77.77,85.04C177.83008,948.79,212.23,960,248,960a171.19511,171.19511,0,0,0,68.8-14.62012c.15991-.08008.30994-.1499.47-.21973A158.47183,158.47183,0,0,0,384,960c25,0,49.5-6.03027,72.92-17.89014C477,955.75,495.86,959.77,510.68994,959.99023c14.83-.22021,33.68994-4.24023,53.7699-17.88037,23.42,11.85986,47.92,17.89014,72.92,17.89014a158.47183,158.47183,0,0,0,66.73-14.83984c.16.06982.31006.13965.47.21973A171.19511,171.19511,0,0,0,773.37988,960c35.77,0,70.16992-11.21,102.24-33.31982,29.41992-20.27,55.58008-48.89014,77.77-85.04,43.84-71.4502,67.99-165.79,67.99-265.64014S997.22986,381.81006,953.38989,310.35986ZM248,896c-46.1499,0-90.7-31.18994-125.46-87.83984C84.79,746.64014,64,664.18994,64,576s20.79-170.64014,58.54-232.16016c31.95-52.05981,72.16992-82.59985,114.29-87.21a335.01563,335.01563,0,0,0-27.62012,40.8C167.16,370.22,144,466.31006,144,568s23.16,197.78,65.21,270.56982a315.22988,315.22988,0,0,0,41.88013,57.38037C250.06006,895.98,249.03,896,248,896Zm389.37988,0a92.55645,92.55645,0,0,1-27.12-4.12988,31.99965,31.99965,0,0,0-56.09-29.99023c-8.55,12.43994-25.4,33.12012-43.48,34.08008-18.08-.96-34.92993-21.64014-43.48-34.08008a31.99965,31.99965,0,0,0-56.09,29.99023A92.55645,92.55645,0,0,1,384,896c-95.3999,0-176-150.21-176-328s80.6001-328,176-328a90.55165,90.55165,0,0,1,18.07007,1.83984C375.7843,288.00171,355.95,353.8999,345.28,427.3999a32.00159,32.00159,0,1,0,63.34,9.18994c9.44006-65,26.58-122.40991,48.27-161.65991,17.43005-31.55,36.96008-49.98,53.79993-50.88989,16.83984.90991,36.36987,19.33984,53.79993,50.88989,21.69006,39.25,38.83,96.65991,48.27,161.65991a32.00159,32.00159,0,1,0,63.34-9.18994c-10.66992-73.5-30.50415-139.39819-56.79-185.56006A90.55165,90.55165,0,0,1,637.37988,240c95.3999,0,176,150.21,176,328S732.77979,896,637.37988,896Zm261.46-87.83984C864.07983,864.81006,819.52979,896,773.37988,896c-1.03,0-2.06006-.02-3.09009-.0498a315.22987,315.22987,0,0,0,41.88013-57.38037c42.04993-72.78979,65.21-168.87988,65.21-270.56982s-23.16-197.78-65.21-270.57007a335.01563,335.01563,0,0,0-27.62012-40.8c42.12012,4.61011,82.34009,35.15015,114.29,87.21,37.75,61.52,58.54,143.97021,58.54,232.16016S936.58984,746.64014,898.83984,808.16016ZM473.34519,541.75878a8.0038,8.0038,0,0,1,2.60836,14.94308C406.00139,594.58889,286.49251,604.985,272,576c-30.9088-61.81759-16.02242-119.85307-6.22924-145.78452a7.99285,7.99285,0,0,1,14.0466-1.72328A237.58436,237.58436,0,0,0,352,496C403.19258,526.71555,447.83345,537.776,473.34519,541.75878ZM672,496a237.58436,237.58436,0,0,0,72.18264-67.5078,7.99285,7.99285,0,0,1,14.0466,1.72328C768.02242,456.14693,782.9088,514.18241,752,576c-14.49251,28.985-134.00139,18.58889-203.95355-19.29814a8.0038,8.0038,0,0,1,2.60836-14.94308C576.16655,537.776,620.80742,526.71555,672,496ZM591.99512,822.00293a31.93861,31.93861,0,0,1-17.89893-5.47754L512,774.6084l-62.09619,41.917A31.999,31.999,0,0,1,411.36328,814.46l-45.62109-38.49512L337.75049,794.626a32.00035,32.00035,0,0,1-35.501-53.252l48-32a31.99864,31.99864,0,0,1,38.38721,2.16895l45.51074,38.40234,59.94873-40.46777a32.0012,32.0012,0,0,1,35.80762,0l59.94873,40.46777L635.36328,711.543a32.0016,32.0016,0,0,1,38.38721-2.16895l48,32a32.00035,32.00035,0,0,1-35.501,53.252l-27.9917-18.66113L612.63672,814.46A31.96587,31.96587,0,0,1,591.99512,822.00293Zm59.104-134a32.39412,32.39412,0,0,1-3.4082-.18066,32.0002,32.0002,0,0,1-28.45312-35.19141c.48877-4.61816.9707-9.66016,1.47314-15.41406a32.00017,32.00017,0,0,1,63.75781,5.56641c-.53711,6.14844-1.05615,11.57422-1.58643,16.58594A32.0063,32.0063,0,0,1,651.09912,688.00293Zm-278.19824,0a32.004,32.004,0,0,1-31.7832-28.63379c-.53027-5.01172-1.04932-10.4375-1.58643-16.58594a32.00017,32.00017,0,0,1,63.75781-5.56641c.50244,5.75391.98438,10.7959,1.47314,15.41406a32.0002,32.0002,0,0,1-28.45312,35.19141A32.39412,32.39412,0,0,1,372.90088,688.00293Z"/></svg>