<svg xmlns="http://www.w3.org/2000/svg" viewBox="0 0 1024 1024"><title>cult-kolowrot</title><path d="M944.53955,786.14746A511.8792,511.8792,0,0,0,1021.75293,464H627.88232L838.13281,253.74951A414.69082,414.69082,0,0,1,912.7417,399.99976h98.96143A511.88138,511.88138,0,0,0,838.50879,117.60889L560,396.11768V98.77881A414.68737,414.68737,0,0,1,716.1709,149.437l69.97656-69.97656A511.88464,511.88464,0,0,0,464,2.24658V396.11768L253.74976,185.86719A414.69039,414.69039,0,0,1,400,111.25854V12.29688A511.88354,511.88354,0,0,0,117.60889,185.491L396.11768,464H98.77881A414.68737,414.68737,0,0,1,149.437,307.8291L79.46045,237.85254A511.88583,511.88583,0,0,0,2.24658,560H396.11768L185.86743,770.25A414.68319,414.68319,0,0,1,111.25879,624H12.29688A511.88338,511.88338,0,0,0,185.49121,906.39111L464,627.88208V925.22119A414.68991,414.68991,0,0,1,307.82886,874.563l-69.97632,69.97656A511.8792,511.8792,0,0,0,560,1021.75293V627.88208L770.25049,838.13281A414.694,414.694,0,0,1,624,912.7417l.00024,98.96143A511.88138,511.88138,0,0,0,906.39111,838.50879L627.88232,560H925.22119A414.68737,414.68737,0,0,1,874.563,716.1709Z"/></svg>