<svg xmlns="http://www.w3.org/2000/svg" viewBox="0 0 832 1024"><title>cult-skull</title><path d="M804.79395,217.03906c-18.36182-37.87109-46.56787-68.88379-83.834-92.1748C654.52148,83.33984,557.61816,64,416,64S177.47852,83.33984,111.04,124.86426c-37.26611,23.291-65.47217,54.30371-83.834,92.1748C8.89893,254.79688,0,298.94336,0,352c0,33.97754,4.18945,67.47852,8.24121,99.877C12.23145,483.78125,16,513.915,16,544c0,72.19141,15.92578,140.26758,44.84424,191.68652,16.41357,29.18555,36.585,52.251,59.95313,68.55664a151.60137,151.60137,0,0,0,59.42725,25.14258l8.6792,74.06348A64.00648,64.00648,0,0,0,252.46875,960h327.0625a64.00648,64.00648,0,0,0,63.56494-56.55078l8.6792-74.06348a151.60137,151.60137,0,0,0,59.42725-25.14258c23.36816-16.30566,43.53955-39.37109,59.95313-68.55664C800.07422,684.26758,816,616.19141,816,544c0-30.085,3.76855-60.21875,7.75879-92.123C827.81055,419.47852,832,385.97754,832,352,832,298.94336,823.10107,254.79688,804.79395,217.03906ZM760.25342,443.93555C756.1958,476.37988,752,509.92871,752,544c0,60.49316-13.3501,118.9248-36.627,160.31348C691.60645,746.57324,660.52783,768,623,768H594.53125l-15,128H528V768H448V896H384V768H304V896H252.46924L237.46875,768H209c-37.52783,0-68.60645-21.42676-92.373-63.68652C93.3501,662.9248,80,604.49316,80,544c0-34.07129-4.1958-67.62012-8.25342-100.06445C67.7627,412.08008,64,381.99121,64,352c0-83.41406,25.72559-138.34277,80.96-172.86426C200.01465,144.72656,288.67285,128,416,128s215.98535,16.72656,271.04,51.13574C742.27441,213.65723,768,268.58594,768,352,768,381.99121,764.2373,412.08008,760.25342,443.93555Z"/><path d="M592,416c-22.13226,7.37744-58.53375,24.84448-80,32-48,16-64,32-48,80s48,80,112,80c80,0,128-16,128-96C704,400,640,400,592,416Z"/><path d="M423.58947,597.52623a7.97463,7.97463,0,0,0-15.17894,0L383.179,673.99679C375.71149,696.62843,392.38593,720,415.99994,720h.00012c23.614,0,40.28842-23.37153,32.821-46.00331Z"/><path d="M320,448c-21.46625-7.15552-57.86768-24.62256-80-32-48-16-112-16-112,96,0,80,48,96,128,96,64,0,96-32,112-80S368,464,320,448Z"/></svg>