<svg xmlns="http://www.w3.org/2000/svg" viewBox="0 0 1024 1024" role="img"><path d="M464.124 195.138a16 16 0 0114.308-17.53 333.9 333.9 0 0167.133.014 16 16 0 11-3.224 31.837 301.863 301.863 0 00-60.687-.013 15.998 15.998 0 01-17.53-14.308zm238.07 58.967a16 16 0 002.28 22.512 301.75 301.75 0 0142.921 42.902 16 16 0 1024.791-20.233 333.798 333.798 0 00-47.481-47.462 16 16 0 00-22.512 2.281zm67.701 448.09a16 16 0 00-22.512 2.28 301.826 301.826 0 01-42.903 42.92 16 16 0 1020.235 24.792 333.912 333.912 0 0047.46-47.481 16 16 0 00-2.28-22.512zm-515.79-380.39a15.999 15.999 0 0022.512-2.28 301.826 301.826 0 0142.903-42.92 16 16 0 10-20.235-24.791 333.912 333.912 0 00-47.46 47.48 16 16 0 002.28 22.512zM309.4 775.78a16 16 0 0010.126-28.397 301.75 301.75 0 01-42.921-42.902 16 16 0 10-24.791 20.233 333.798 333.798 0 0047.481 47.462 15.931 15.931 0 0010.105 3.604zm232.946 38.774a301.863 301.863 0 01-60.687-.013 16 16 0 10-3.224 31.837 333.924 333.924 0 0067.133.014 16 16 0 10-3.222-31.838zM195.154 464.128a15.999 15.999 0 00-17.532 14.306 333.91 333.91 0 00-.014 67.134 16.002 16.002 0 0015.9 14.39 16.256 16.256 0 001.63-.083 16 16 0 0014.308-17.53 301.71 301.71 0 01.014-60.685 16.001 16.001 0 00-14.306-17.532zm633.692 95.744a16.165 16.165 0 001.633.083 16.003 16.003 0 0015.899-14.389 333.91 333.91 0 00.014-67.134 16 16 0 00-31.838 3.223 301.71 301.71 0 01-.014 60.685 16.001 16.001 0 0014.306 17.532zm180.785-183.52c-3.402 22.873-15.1 40.027-32.093 47.065a45.666 45.666 0 01-17.574 3.446 56.611 56.611 0 01-20.827-4.2 15.921 15.921 0 01-6.407-1.219c-25.26-10.492-38.715-12.919-63.518-5.497-35.887 12.754-60.75 29.8-77.63 53.32a112.908 112.908 0 01.47 84.396c10.15 18.353 27.78 33.89 48.74 42.572 18.755 7.768 29.321 11.933 38.134 12.47 15.304-13.417 32.137-17.999 46.737-11.952 14.019 5.807 22.703 19.916 24.455 39.728 1.424 16.102-1.928 34.954-9.437 53.084-14.616 35.282-39.978 57.602-63.114 57.603a34.063 34.063 0 01-13.133-2.594c-14.601-6.048-23.264-21.19-24.599-41.499-6.61-5.852-17.026-10.38-35.78-18.147-20.961-8.683-44.413-10.16-64.57-4.362a113.133 113.133 0 01-58.917 58.915c-5.8 20.157-4.323 43.612 4.36 64.574 7.768 18.754 12.295 29.17 18.148 35.78 20.308 1.336 35.45 9.998 41.498 24.599 5.807 14.018 1.972 30.136-10.799 45.384-10.379 12.392-26.08 23.352-44.21 30.862-15.926 6.597-31.535 9.779-45.37 9.779-22.768 0-40.739-8.614-47.442-24.795-6.047-14.601-1.465-31.434 11.952-46.739-.537-8.812-4.701-19.379-12.47-38.132-8.682-20.96-24.22-38.59-42.573-48.742a113.157 113.157 0 01-83.324 0c-18.353 10.152-33.891 27.781-42.573 48.742-7.769 18.753-11.933 29.32-12.47 38.132 13.418 15.306 18 32.139 11.952 46.738-6.702 16.18-24.677 24.794-47.441 24.796-13.838 0-29.442-3.18-45.371-9.779-18.13-7.51-33.83-18.47-44.21-30.862-12.77-15.248-16.606-31.366-10.8-45.384 6.048-14.601 21.188-23.264 41.5-24.599 5.852-6.61 10.379-17.026 18.147-35.78 8.683-20.962 10.16-44.417 4.36-64.574a108.97 108.97 0 01-35.079-23.834 107.595 107.595 0 01-24.263-36.17c-28.57-4.694-58.2.832-92.598 17.191-21.805 11.751-30.328 21.735-41.266 48.22a15.93 15.93 0 01-3.679 5.397c-5.62 12.987-14.7 22.749-26.61 27.682a45.762 45.762 0 01-17.626 3.47c-29.29 0-61.158-26.433-78.24-67.67-9.27-22.382-12.717-45.863-9.702-66.12 3.402-22.872 15.1-40.026 32.093-47.064 11.909-4.933 25.228-4.451 38.384.755a15.922 15.922 0 016.424 1.218c25.258 10.492 38.715 12.918 63.518 5.497 35.887-12.754 60.75-29.8 77.63-53.32a112.908 112.908 0 01-.47-84.396c-10.15-18.353-27.78-33.89-48.74-42.572-18.752-7.768-29.318-11.932-38.13-12.47-10.839 9.503-22.444 14.577-33.48 14.577a34.412 34.412 0 01-13.261-2.625c-14.019-5.807-22.703-19.916-24.455-39.728-1.424-16.101 1.928-34.954 9.437-53.084 17.454-42.135 50.23-65.785 76.247-55.01 14.601 6.049 23.264 21.19 24.599 41.5 6.61 5.852 17.026 10.38 35.78 18.147 20.96 8.683 44.414 10.16 64.57 4.362a113.133 113.133 0 0158.917-58.915c5.8-20.157 4.323-43.612-4.36-64.574-7.767-18.751-12.294-29.167-18.145-35.778-20.311-1.334-35.453-10-41.501-24.6-5.807-14.02-1.972-30.137 10.799-45.385 10.379-12.392 26.08-23.352 44.21-30.862 42.135-17.453 82.037-10.998 92.812 15.016 6.047 14.601 1.465 31.434-11.952 46.739.537 8.812 4.701 19.379 12.47 38.132 8.682 20.96 24.22 38.59 42.573 48.742a113.157 113.157 0 0183.324 0c18.353-10.152 33.891-27.781 42.573-48.742 7.769-18.753 11.933-29.32 12.47-38.132-13.418-15.305-18-32.138-11.952-46.738 10.776-26.015 50.677-32.47 92.812-15.017 18.13 7.51 33.83 18.47 44.21 30.862 12.77 15.248 16.606 31.366 10.8 45.384-6.048 14.6-21.192 23.266-41.501 24.601-5.852 6.61-10.379 17.027-18.146 35.778-8.683 20.962-10.16 44.417-4.36 64.574a108.97 108.97 0 0135.079 23.834 107.596 107.596 0 0124.263 36.17c28.57 4.694 58.2-.832 92.598-17.191 21.806-11.751 30.328-21.735 41.266-48.22a15.935 15.935 0 013.681-5.403c5.621-12.984 14.699-22.743 26.608-27.676 33.153-13.733 75.264 14.466 95.866 64.2 9.27 22.382 12.717 45.863 9.702 66.12zm-299.64 5.54c8.01-8.01 2.454-31.485-16.971-50.912-9.851-9.85-21.722-16.935-32.569-19.439a35.195 35.195 0 00-7.846-.97c-4.566 0-8.226 1.168-10.498 3.44-3.46 3.46-4.36 10.146-2.468 18.342 2.503 10.847 9.589 22.718 19.44 32.569 9.85 9.85 21.72 16.936 32.567 19.439 8.198 1.892 14.883.992 18.344-2.468zM512 256c-27.473 0-48 12.67-48 24s20.527 24 48 24 48-12.67 48-24-20.527-24-48-24zm-181.02 74.98c-19.425 19.427-24.981 42.902-16.97 50.913 3.46 3.46 10.146 4.36 18.344 2.468 10.846-2.503 22.717-9.589 32.568-19.44 9.85-9.85 16.936-21.72 19.44-32.568 1.89-8.196.99-14.882-2.47-18.343-2.27-2.27-5.931-3.44-10.496-3.44a35.166 35.166 0 00-7.847.971c-10.847 2.503-22.718 9.589-32.569 19.44zM256 512c0 27.473 12.67 48 24 48s24-20.527 24-48-12.67-48-24-48-24 20.527-24 48zm68.507 126.668c-4.566 0-8.226 1.168-10.497 3.44-8.011 8.01-2.455 31.485 16.97 50.912 9.851 9.85 21.722 16.935 32.569 19.439 8.198 1.891 14.883.991 18.344-2.47 3.46-3.46 4.36-10.146 2.468-18.342-2.503-10.847-9.589-22.718-19.44-32.569-9.85-9.85-21.72-16.936-32.567-19.439a35.166 35.166 0 00-7.847-.97zM512 768c27.473 0 48-12.67 48-24s-20.527-24-48-24-48 12.67-48 24 20.527 24 48 24zm181.02-74.98c19.425-19.427 24.981-42.902 16.97-50.913-2.271-2.27-5.931-3.439-10.497-3.439a35.166 35.166 0 00-7.847.971c-10.846 2.503-22.717 9.589-32.568 19.44-9.85 9.85-16.936 21.72-19.44 32.567-1.89 8.197-.99 14.883 2.47 18.344 3.46 3.46 10.146 4.36 18.343 2.468 10.847-2.502 22.718-9.588 32.569-19.438zM768 512c0-27.473-12.67-48-24-48s-24 20.527-24 48 12.67 48 24 48 24-20.527 24-48zm202.364-189.52c-14.016-33.841-40.1-52.665-54.055-46.883-10.378 4.299-15.54 22.485-12.554 44.225a15.985 15.985 0 01-26.37 14.212c-7.682 7.802-17.275 14.805-30.08 21.674l-.671.34c-31.146 14.864-59.396 22.142-86.743 22.142-4.976 0-9.92-.254-14.846-.734-1.12 10.443-5.187 19.823-12.428 27.064-8.385 8.384-20.067 12.78-33.266 12.78a66.338 66.338 0 01-14.9-1.758 84.775 84.775 0 01-15.31-5.18c-18.449 10.157-28.004 23.597-28.004 33.756a16 16 0 11-32 0c0-19.665 11.452-38.571 30.948-53.102a118.791 118.791 0 01-3.634-3.467 119.092 119.092 0 01-3.467-3.634c-14.531 19.496-33.438 30.948-53.102 30.948a16 16 0 010-32c10.158 0 23.599-9.556 33.757-28.004a84.74 84.74 0 01-5.18-15.31c-4.427-19.18-.41-36.736 11.022-48.166 7.05-7.05 16.434-11.27 27.089-12.438a132.433 132.433 0 018.793-71.246c4.968-11.993 9.274-22.373 14.324-31.242a15.998 15.998 0 0115.602-25.203c18.313 3.12 28.546-1.095 29.72-3.934.612-1.476-.412-6.2-5.766-12.591-7.027-8.39-18.663-16.352-31.924-21.845-13.26-5.493-27.125-8.09-38.02-7.127-8.305.735-12.37 3.35-12.982 4.826-1.175 2.838 3.077 13.052 18.235 23.798a15.991 15.991 0 01-6.788 28.852c-2.7 9.843-6.996 20.227-11.964 32.22a132.439 132.439 0 01-44.166 56.602C588.237 260.235 592 269.75 592 280c0 21.35-16.254 39.545-40.753 49.013-5.864 20.228-3.117 36.49 4.066 43.674a16 16 0 11-22.627 22.627c-13.904-13.905-19.175-35.37-15.666-59.43-1.66.07-3.33.116-5.02.116s-3.36-.046-5.02-.115c3.51 24.06-1.762 45.524-15.667 59.429a16 16 0 01-22.627-22.627c7.184-7.184 9.93-23.446 4.067-43.674C448.254 319.545 432 301.35 432 280c0-10.249 3.763-19.764 10.366-27.945a132.439 132.439 0 01-44.166-56.601c-4.968-11.994-9.263-22.379-11.964-32.22a15.998 15.998 0 01-6.788-28.853c15.158-10.746 19.41-20.96 18.235-23.799-.612-1.475-4.677-4.09-12.983-4.825-10.896-.964-24.759 1.634-38.02 7.127-13.26 5.493-24.896 13.455-31.923 21.845-5.353 6.392-6.378 11.115-5.767 12.591 1.176 2.84 11.408 7.055 29.72 3.934a15.991 15.991 0 0115.603 25.203c5.05 8.869 9.356 19.249 14.324 31.242a132.433 132.433 0 018.793 71.246c10.655 1.168 20.04 5.388 27.09 12.438 11.43 11.43 15.448 28.986 11.022 48.166a84.74 84.74 0 01-5.18 15.31c10.157 18.448 23.598 28.004 33.756 28.004a16 16 0 110 32c-19.664 0-38.57-11.452-53.102-30.948a119.469 119.469 0 01-3.467 3.634 119.365 119.365 0 01-3.634 3.467c19.496 14.53 30.948 33.437 30.948 53.102a16 16 0 01-32 0c0-10.159-9.555-23.6-28.004-33.757a84.775 84.775 0 01-15.31 5.18 66.338 66.338 0 01-14.9 1.76c-13.2 0-24.881-4.396-33.266-12.781-7.248-7.248-11.316-16.638-12.43-27.093a125.45 125.45 0 01-19.803 1.569 134.773 134.773 0 01-51.45-10.36c-11.995-4.968-22.376-9.274-31.246-14.324a15.996 15.996 0 01-25.2-15.6c3.121-18.317-1.095-28.546-3.934-29.722-1.47-.611-6.198.412-12.591 5.767-8.39 7.027-16.352 18.663-21.845 31.924-5.493 13.26-8.091 27.118-7.127 38.02.734 8.305 3.35 12.37 4.826 12.982 2.839 1.177 13.055-3.08 23.798-18.235a15.99 15.99 0 0128.852 6.788c9.843 2.701 20.227 6.996 32.221 11.964a132.432 132.432 0 0156.6 44.166C260.236 435.763 269.752 432 280 432c21.35 0 39.546 16.254 49.013 40.753 20.228 5.864 36.489 3.117 43.674-4.066a16 16 0 0122.627 22.627c-11.122 11.121-27.08 16.72-45.334 16.72a97.837 97.837 0 01-14.096-1.065c.07 1.664.116 3.338.116 5.031 0 1.69-.046 3.36-.115 5.02 24.06-3.51 45.525 1.762 59.428 15.666a16 16 0 11-22.627 22.627c-7.182-7.183-23.444-9.93-43.673-4.066C319.546 575.747 301.35 592 280 592c-10.238 0-19.744-3.754-27.918-10.344-20.435 24.844-48.525 43.084-86.978 56.69l-.715.236c-13.133 3.961-24.38 5.752-34.94 5.752-.646 0-1.285-.02-1.927-.032a15.982 15.982 0 01-28.666 8.24c-13.26-17.484-29.774-26.695-40.148-22.395-6.354 2.632-10.98 10.727-12.688 22.21-2.141 14.391.634 32.311 7.616 49.164 14.016 33.84 40.096 52.665 54.055 46.882 10.378-4.298 15.54-22.485 12.554-44.225a15.987 15.987 0 0126.37-14.213c7.683-7.802 17.276-14.804 30.08-21.673l.671-.34c36.814-17.569 69.573-24.534 101.59-21.416 1.12-10.44 5.188-19.816 12.427-27.055 11.43-11.431 28.986-15.449 48.166-11.022a84.775 84.775 0 0115.31 5.18c18.449-10.158 28.004-23.598 28.004-33.757a16 16 0 0132 0c0 19.665-11.452 38.571-30.948 53.102a118.791 118.791 0 013.634 3.467 119.51 119.51 0 013.467 3.634c14.531-19.496 33.438-30.948 53.102-30.948a16 16 0 110 32c-10.158 0-23.599 9.556-33.757 28.004a84.74 84.74 0 015.18 15.31c4.427 19.18.41 36.736-11.022 48.166-7.05 7.05-16.436 11.267-27.089 12.436a132.433 132.433 0 01-8.793 71.248c-4.968 11.993-9.274 22.373-14.324 31.242a15.998 15.998 0 01-15.602 25.203c-18.312-3.12-28.546 1.095-29.72 3.934-.612 1.476.412 6.2 5.766 12.591 7.027 8.39 18.663 16.352 31.924 21.845 13.26 5.493 27.12 8.09 38.02 7.127 8.305-.735 12.37-3.35 12.982-4.826 1.175-2.838-3.077-13.052-18.235-23.798a15.991 15.991 0 016.788-28.852c2.7-9.842 6.996-20.227 11.964-32.22a132.439 132.439 0 0144.166-56.602C435.763 763.765 432 754.25 432 744c0-21.35 16.254-39.545 40.753-49.013 5.864-20.228 3.117-36.49-4.066-43.674a16 16 0 0122.627-22.627c13.904 13.905 19.175 35.37 15.666 59.43 1.66-.07 3.33-.116 5.02-.116s3.36.046 5.02.115c-3.51-24.06 1.762-45.524 15.666-59.428a16 16 0 0122.627 22.627c-7.183 7.183-9.93 23.445-4.066 43.673C575.746 704.455 592 722.65 592 744c0 10.249-3.763 19.764-10.366 27.945a132.439 132.439 0 0144.166 56.601c4.968 11.994 9.263 22.379 11.964 32.22a15.998 15.998 0 016.788 28.853c-15.158 10.746-19.41 20.96-18.235 23.799.612 1.475 4.677 4.09 12.983 4.825 10.895.963 24.759-1.634 38.02-7.127 13.26-5.493 24.896-13.455 31.923-21.845 5.353-6.392 6.378-11.115 5.767-12.591-1.176-2.84-11.405-7.054-29.72-3.934a15.991 15.991 0 01-15.603-25.203c-5.05-8.869-9.356-19.25-14.324-31.242a132.433 132.433 0 01-8.793-71.248c-10.655-1.168-20.04-5.385-27.09-12.436-11.43-11.43-15.448-28.986-11.022-48.166a84.74 84.74 0 015.18-15.31c-10.157-18.448-23.598-28.004-33.756-28.004a16 16 0 110-32c19.664 0 38.57 11.452 53.102 30.948a119.469 119.469 0 013.467-3.634 119.51 119.51 0 013.634-3.467c-19.496-14.53-30.948-33.437-30.948-53.102a16 16 0 0132 0c0 10.159 9.555 23.6 28.004 33.757a84.775 84.775 0 0115.31-5.18c19.18-4.427 36.736-.41 48.166 11.022 7.247 7.247 11.315 16.636 12.43 27.09a132.432 132.432 0 0171.254 8.793c11.995 4.968 22.376 9.274 31.246 14.325a15.995 15.995 0 0125.198 15.6c-3.12 18.317 1.096 28.545 3.935 29.72 1.466.611 6.197-.411 12.591-5.766 8.39-7.027 16.352-18.663 21.845-31.924 5.493-13.26 8.091-27.118 7.127-38.02-.734-8.305-3.35-12.37-4.826-12.982-2.842-1.178-13.056 3.08-23.798 18.235a15.99 15.99 0 01-28.853-6.794c-9.842-2.7-20.225-6.99-32.22-11.958a132.432 132.432 0 01-56.6-44.166C763.764 588.237 754.248 592 744 592c-21.35 0-39.546-16.254-49.013-40.753-20.228-5.864-36.489-3.117-43.674 4.066a16 16 0 01-22.627-22.627c13.905-13.904 35.37-19.175 59.43-15.666-.07-1.66-.116-3.33-.116-5.02 0-1.693.046-3.367.116-5.031a97.842 97.842 0 01-14.095 1.066c-18.257 0-34.212-5.598-45.334-16.722a16 16 0 0122.627-22.627c7.183 7.184 23.445 9.93 43.673 4.067C704.454 448.254 722.65 432 744 432c10.238 0 19.744 3.754 27.918 10.344 20.435-24.844 48.525-43.084 86.978-56.69l.715-.236c13.936-4.204 25.746-5.961 36.868-5.731a15.982 15.982 0 0128.665-8.229c13.26 17.484 29.77 26.694 40.148 22.395 6.354-2.632 10.98-10.727 12.687-22.21 2.142-14.391-.633-32.311-7.615-49.164zM608 512a96 96 0 11-96-96 96.109 96.109 0 0196 96zm-32 0a64 64 0 10-64 64 64.072 64.072 0 0064-64z"/></svg>