<svg xmlns="http://www.w3.org/2000/svg" viewBox="0 0 1024 1024" role="img"><path d="M944.54 786.147A511.88 511.88 0 001021.753 464h-393.87l210.25-210.25A414.69 414.69 0 01912.742 400h98.961A511.881 511.881 0 00838.51 117.609L560 396.118V98.778a414.687 414.687 0 01156.17 50.659l69.977-69.977A511.885 511.885 0 00464 2.247v393.87l-210.25-210.25A414.69 414.69 0 01400 111.26V12.297A511.884 511.884 0 00117.609 185.49L396.118 464H98.778a414.687 414.687 0 0150.659-156.17L79.46 237.852A511.886 511.886 0 002.247 560h393.87l-210.25 210.25A414.683 414.683 0 01111.26 624H12.297A511.883 511.883 0 00185.49 906.391L464 627.882v297.34a414.69 414.69 0 01-156.171-50.659l-69.976 69.977A511.88 511.88 0 00560 1021.753v-393.87l210.25 210.25A414.694 414.694 0 01624 912.742v98.961A511.881 511.881 0 00906.391 838.51L627.882 560h297.34a414.687 414.687 0 01-50.659 156.17z"/></svg>