<svg xmlns="http://www.w3.org/2000/svg" viewBox="0 0 1024 1024" role="img"><path d="M953.584 655.486H472.123l-15.402-47.391h351.017l-130.71-94.96 15.403-47.4 261.153 189.75zM512 822.953L403.524 489.124l-40.311 29.284L512 976.31l99.748-307.003h-49.83L512 822.953zM216.262 608.095l283.98-206.328-40.313-29.284L70.416 655.486h322.81l-15.401-47.391zm122.574-164.723l40.312-29.283-49.919-153.655L613.21 466.76l15.392-47.4-389.513-283.002zM694.77 260.434L586.305 594.273h49.83l148.777-457.914-261.153 189.75 40.312 29.284zm-198.7 715.413C311.612 969.5 141.98 852.638 75.908 670.48l-50.76.001c70.365 216.169 270.928 353.599 486.615 353.656zM65.934 640.188C14.969 462.795 73.69 265.352 226.516 146.224L210.83 97.949C26.985 231.669-41.741 464.884 24.855 670.033zm186.31-512.81c152.963-103.288 358.888-108.453 519.411.08L812.72 97.62C628.732-35.905 385.694-29.2 211.166 97.532zm545.286 18.724c145.5 113.558 214.046 307.809 160.43 494.014l41.066 29.835C1069.16 453.708 987.68 224.636 813.22 97.812zm150.694 524.383c-63.039 173.47-226.6 298.689-420.26 305.237l-15.684 48.276c227.332-.121 420.013-148.4 486.719-353.513z"/></svg>