<svg xmlns="http://www.w3.org/2000/svg" viewBox="0 0 1024 1024"><path d="M953.5837,655.48565H472.12259l-15.402-47.39082H807.73849L677.02867,513.13531l15.402-47.40046,261.153,189.7508ZM512,822.95307,403.5244,489.12413l-40.31177,29.28349L512,976.31132,611.74783,669.308H561.91839L512,822.95307ZM216.26151,608.09483,500.24124,401.76708l-40.31189-29.28373L70.4163,655.48565H393.22672l-15.402-47.39082Zm122.5744-164.72267,40.31177-29.28349-49.91827-153.655L613.209,466.76145l15.39211-47.4007L239.08821,136.35869ZM694.77058,260.43369,586.30486,594.27251H636.1343L784.91179,136.35869l-261.153,189.7508L564.07065,355.393ZM496.07176,975.8473c-184.46-6.348-354.09268-123.209-420.16472-305.367l-50.76.00069c70.36482,216.16877,270.92806,353.59865,486.615,353.65584ZM65.93291,640.188c-50.964-177.3935,7.75806-374.83582,160.5832-493.964L210.82974,97.94862C26.98494,231.66936-41.74119,464.8845,24.85535,670.03264Zm186.3107-512.81078C405.20612,24.09006,611.131,18.925,771.65421,127.4577l41.06533-29.83656C628.73239-35.90366,385.69407-29.19866,211.16605,97.53267ZM797.52882,146.102c145.5,113.55849,214.04657,307.80862,160.4302,494.01369l41.06614,29.83544c70.13448-216.24361-11.34533-445.31483-185.80611-572.1387ZM948.2229,670.48535C885.18433,843.95557,721.62354,969.17383,527.96362,975.72217L512.27856,1023.998c227.33264-.12109,420.01367-148.3999,486.719-353.5127Z"/></svg>