<svg xmlns="http://www.w3.org/2000/svg" viewBox="0 0 1280 1024" role="img"><path d="M830.031 547.167l-18.211 12.08a1192.527 1192.527 0 00-77.612 189.636l10.464 17.99-28.595 30.55c-70.756-20.22-142.615-3.287-214.172 6.427-9.885-23.11-3.33-45.355-10.265-66.512-7.043-21.484-6.401-45.41-9.897-68.147-3.362-21.86-7.712-43.57-11.244-63.207l-31.373-23.225-14.21-85.248c-66.325 96.317-111.844 200.281-170.528 299.292-8.461 4.171-16.557-2.991-24.43-5.915-34.535-55.42-68.882-109.547-102.166-164.32-19.612-32.273-38.572-65.036-55.913-98.566-15.076-29.15-27.418-59.708-41.094-89.586-2.041-4.459-4.776-8.6-6.665-11.957L0 408.552 93.222 306.65l16.552 14.138h45.315l80.22 76.863c32.082-24.74 65.825-43.511 90.76-77.843l23.542-7.981c30.994 18.886 63.887 38.827 96.595 59.063 2.491 1.541 3.68 5.18 6.285 9.046l-20.504 12.581-1.494 19.283c41.705-13.288 74.897-35.095 102.721-58.855 60.496-15.893 117.939-29.629 161.263-75.16 20.734 5.01 27.347 31.975 49.99 31.193l13.586 28.533c1.743 9.866 2.042 19.06 5.033 27.274 19.391 53.24 39.391 106.26 59.126 159.376 2.548 6.858 4.721 13.855 7.82 23.006zM47.59 401.914c1.684 4.384 2.818 8.369 4.664 11.992 36.173 71.025 71.807 142.334 108.905 212.875 21.79 41.43 45.842 81.677 69.185 122.28 2.094 3.643 6.457 5.985 10.938 9.973 13.67-24.925 27.155-47.432 38.68-70.898 41.65-84.796 82.448-170.009 124.024-254.841 9.475-19.333 11.19-39.115 8.543-62.582-5.382-2.707-11.55-8.255-17.907-8.479-12.087-.426-25.477-.544-36.18 4.122-21.717 9.468-42.341 21.647-62.732 33.85-9.502 5.685-17.41 14.03-26.797 21.795L291 446.646l-7.078 11.892-26.813-19.366c-.089 19.177 22.968 25.01 21.609 44.089l-9.765 2.835-30.978-37.858-34.3 24.548-6.52-7.39c5.557-14.963 23.222-18.194 26.68-34.181l-22.158-4.695 1.715-19.831c-16.223-23.051-37.554-38.871-62.618-50.888-40.908-19.613-78.684-12.774-93.184 46.113zm667.16 14.513c-30.608-24.797-33.289-61.113-5.366-71.808 2.3 20.109-12.989 45.46 16.928 58.491l13.05-15.881c-12.637-22.63-8.293-52.27-30.825-68.657-16.07-1.997-26.416 3.784-33.62 14.967-18.14 28.164-13.066 69.437 10.793 92.57 5.634 5.463 10.638 11.575 15.172 16.554-27.212 55.006-39.901 114.108-40.082 183.122-13.693 2.008-13.693 2.008-22.495-13.913L623.1 603.27l-2.659-21.703c-19.193 5.06-30.828 20.173-48.368 29.203l-10.9-14.182c61.351-36.904 62.949-38.261 68.307-58.126a53.133 53.133 0 00-37.936 2.07L569.05 561.02c-34.427-10.18-46.343-4.818-78.918 28.916 10.528 58.848 16.415 119.197 37.705 180.105 53.669-15.854 107.206-10.285 160.072-12.61 5.525-20.835 8.756-40.425 15.944-58.44 11.533-28.905 25.094-57.059 38.891-84.991 14.52-29.393 30.51-58.07 39.34-85.773l-33.305-111.8zm-66.181-67.413c-23.596.513-28.286 2.91-41.656 19.78-3.598 77.478 3.867 119.08 28.701 151.547 14.294-29.054 21.238-59.014 32.395-88.602-24.45-22.983-23.995-51.543-19.44-82.726zM438.81 438.419c-5.431 21.754 1.607 79.546 13.38 110.846l36.595 17.164 18.51-16.47-36.13-127.49-32.355 15.95zm171.448 82.668c-15.745-31.702-19.883-61.368-19.672-91.85.09-13.086-.184-26.204-1.057-39.256-.408-6.091-2.635-12.06-4.609-20.536l-28.132 7.56c-8.158 26.511-7.274 63.162 1.76 111.628 2.583 13.861 7.092 26.7 18.495 37.734l33.215-5.28zm-51.418 22.479c-6.087-17.035-12.375-28.875-14.382-41.398-4.776-29.806-7.489-59.94-11.135-89.928-.644-5.298-1.772-10.538-3.208-18.896l-31.109 15.584-6.88 21.762c18.84 80.962 21.97 89.554 42.219 114.18l24.495-1.304zm155.574 211.97c6.381-19.237 12.397-38.606 19.248-57.676 6.637-18.475 13.9-36.737 21.316-54.918 7.307-17.914 18.092-34.502 21.727-53.788-30.717 37.312-68.62 134.446-62.291 166.382zm-336.98-230.3l5.877 4.29 25.476-36.778 20.868 3.68c-9.37-17.09-1.687-33.543-12.983-49.462-16.864 25.981-24.715 53.745-39.238 78.27zM521.127 784.8c22.095 6.3 38.696-6.023 56.53-5.12-17.842-.98-36.08-6.2-56.53 5.12zM350.8 330.499c-11.808 2.626-11.808 2.626-14.676 13.11L350.8 330.5zm-198.425 16.605l2.522-3.82c-1.467-1.72-2.655-4.359-4.477-4.91-2.018-.612-4.616.684-12.194 2.19zM460.87 568.662c-.718 11.698-.718 11.698 10.647 6.844l-10.647-6.844z"/><path d="M772.5 345.811l94.862-46.364 1.342 2.274c5.497-6.11 10.534-12.723 16.577-18.236 18.394-16.78 21.11-37.287 17.561-60.725-8.478-56.004-15.842-112.176-23.733-168.27-.897-6.373-2.292-12.676-3.896-21.404l20.674 1.513L957.321 0l27.065 15.38c2.519 27.958 4.973 55.686 7.53 83.405 1.7 18.445.091 37.108 1.7 55.34 1.786 20.254 8.145 40.164 13.163 60.06 7.631 30.255 15.785 60.379 23.83 90.528.779 2.914 2.363 5.614 4.87 11.415 3.3-5.503 5.683-8.391 6.92-11.706 11.189-29.98 22.95-59.783 32.951-90.16 6.601-20.05 10.094-41.1 15.9-61.44a221.448 221.448 0 0118.234-45.259l-1.456-11.64c23.731-18.838 50.901-16.633 78.633-14.779l17.005 13.482-60.034 282.286c42.41 65.572 89.034 123.844 136.368 182.403-40.866 45.47-90.055 84.776-130.425 134.258l10.94 72.943c9.502 5.669 25.238 3.899 23.049 21.158-9.033 8.942-18.68-.691-29.42 1.057l-15.794 7.117c-2.493-.582-4.477-.472-5.61-1.399-12.263-10.033-27.121-11.397-41.884-11.902-43.526-1.486-87.033-6.564-130.628-.53-24.388 3.374-48.887 5.95-75.045 9.092l-18.141-25.353-4.998 3.728c-2.257-17.858-4.983-35.672-6.658-53.584-2.373-25.37-4.207-50.796-5.84-76.225-2.16-33.598-3.678-67.238-6.02-100.822-.445-6.383-2.979-12.764-5.326-18.846-12.698-32.895-25.888-65.601-38.414-98.56-9.005-23.694-17.236-47.68-27.286-75.636zm463.147 216.97c-41.141-68.924-86.79-129.603-109.955-146.162l-109.628 46.173c-14.252 29.583-37.011 50.57-62.516 68.968-9.052 6.53-19.171 9.375-33.221 4.48l-17.308-25.37c-19.12 27.322-6.898 54.24 29.436 63.366 26.776-8.77 45.508-28.71 62.67-53.543 17.852 15.636 37.524 26.33 62.202 18.362l16.847-18.94 23.358 4.051 6.085 25.859-22.063 9.539c-25.142 48.232-61.114 90.247-74.725 143.944-.152.6-1.283.953-3.699 2.632l-13.775-9.204 6.116-17.182-14.72-9.176c10.796-20.011 19.631-37.55 29.552-54.456 10.274-17.508 21.6-34.4 34.292-54.448l-35.151-8.268-46.04 34.307c-8.649-.961-16.751-3.253-24.535-2.454-19.502 2.004-35.689-3.26-49.02-17.704-2.049-2.22-5.334-3.304-8.29-5.056-9.907 34.823 2.976 184.41 19.091 215.992 11.212-.98 23.347-1.945 35.46-3.116 31.096-3.005 62.126-7.314 93.291-8.783 25.45-1.2 51.056 1.038 76.597 1.542 5.519.11 11.055-.679 18.235-1.166 0-12.448 1.218-23.817-.244-34.83-3.446-25.956-8.273-51.726-12.23-77.618-.44-2.871 1.138-6.049 1.824-9.294h10.741l10.785 18.9 100.538-101.345zm-129.463-158.918c22.915-101.46 44.845-196.323 62.618-292.46l-11.459-10.486L1133 107.56c-28.673 23.282-29.17 53.812-27.59 82.672-20.227 43.983-35.752 87.165-45.49 132.406-3.055 14.197-8.26 27.933-12.482 41.88-2.244 11.138 3.22 24.36-11.433 33.705l-12.662-8.842 5.393-37.833-21.777-16.549c-9.006-42.148-17.37-81.498-25.827-120.827-9.476-44.071-22.449-87.564-18.966-133.577 1.098-14.505-2.53-28.748-7.977-43.017-19.393 4.575-39.44 4.599-49.672 27.176.984 21.399.992 44.431 3.366 67.218 2.724 26.131 5.931 52.42 11.908 77.945 6.061 25.887 8.207 53.445 26.393 75.553 5.005 6.084 7.048 14.794 9.741 22.545 11.05 31.801 21.226 63.92 32.966 95.461 5.594 15.03 10.827 30.942 24.936 42.456 31.73-15.739 66.575-23.838 92.357-42.068zm-181.787 77.14c-5.435-15.185-9.538-26.672-13.657-38.153-9.133-25.453-19.554-50.54-26.945-76.486-4.657-16.345-11.886-28.3-27.18-34.418-25.41 6.307-25.41 6.307-43.425 21.736 1.014 6.042 1.792 13.27 3.507 20.268q3.805 15.528 8.71 30.784c11.01 34.395 21.678 68.961 39.38 100.718 2.395 4.297 6.883 7.43 11.439 12.184l12.354-22.15zm63.87-27.861c-12.173-32.683-23.453-62.478-34.35-92.41-6.735-18.498-12.941-37.187-19.275-55.827-3.123-9.19-7.524-16.44-20.105-14.484-2.424 3.673-4.723 8.08-7.871 11.765-11.596 13.568-15.302 28.477-9.857 45.813 3.925 12.498 5.62 25.8 10.455 37.887 11.482 28.698 24.24 56.887 37.205 86.96l43.798-19.704zm-8.065 29.033l-3.587-4.684-49.53 21.75c-4.417 10.228-5.613 17.851 3.526 25.642 20.254-10.015 37.126-23.812 49.591-42.708z"/></svg>