<svg xmlns="http://www.w3.org/2000/svg" viewBox="0 0 1024 1024" role="img"><path d="M437.08 74.47a.516.516 0 00-.08.07c.58-.17 1.16-.34 1.74-.49-.55.12-1.1.26-1.66.42z"/><path d="M778.563 390.101C806.896 250.83 722.976 113.423 587 74.546c-.58-.17-1.16-.34-1.74-.49a.145.145 0 00-.06-.02 33.686 33.686 0 00-20.11 64.08A144.017 144.017 0 01512 416v-.006a144.017 144.017 0 01-53.09-277.884 33.686 33.686 0 00-20.11-64.08.145.145 0 00-.06.02c-.58.15-1.16.32-1.74.49-135.98 38.877-219.9 176.286-191.562 315.56-134.78 45.098-211.817 186.477-177.497 323.675.143.587.286 1.175.445 1.752a.142.142 0 00.013.062 33.686 33.686 0 0065.55-14.624A144.017 144.017 0 01401.149 608l-.005.003a144.017 144.017 0 01-214.11 184.92 33.686 33.686 0 00-45.44 49.455.145.145 0 00.047.042c.42.427.858.845 1.295 1.262 101.658 98.322 262.617 102.295 369.063 8.117 106.446 94.175 267.403 90.201 369.06-8.12a56.54 56.54 0 001.295-1.262.145.145 0 00.047-.042 33.686 33.686 0 00-45.44-49.456A144.017 144.017 0 01622.85 608l.005.003a144.017 144.017 0 01267.2 92.965 33.686 33.686 0 0065.55 14.624.139.139 0 00.013-.062c.16-.577.302-1.165.445-1.752 34.32-137.2-42.718-278.58-177.501-323.677zM512 480a64 64 0 11-64 64 64 64 0 0164-64zm270.4 163.135l.018.007a289.382 289.382 0 01-50.764 87.166l-.021-.014a32 32 0 11-48.808-41.399l.02.012a224.95 224.95 0 0039.477-67.795l-.011-.007a32 32 0 1160.089 22.03zm-481.296-23.643l-.02.011a224.946 224.946 0 0038.974 68.085l.011-.006a32 32 0 01-49.123 41.023l-.014.013a289.387 289.387 0 01-50.106-87.546l.022-.011a32 32 0 1160.256-21.57zM563.52 260.62l-.001.026a32 32 0 01-11.449 62.967v-.023a224.954 224.954 0 00-78.45-.29v.013a32 32 0 11-10.966-63.054l-.004-.019a289.383 289.383 0 01100.87.38z"/></svg>