<svg xmlns="http://www.w3.org/2000/svg" viewBox="0 0 1280 1024" role="img"><path d="M273.77 579.765c-.146 0-.328-.008-.474 0a10.014 10.014 0 00-6.004 2.37 11.648 11.648 0 00-3.238 4.503h15.563c.027-.277.078-.616.078-.868a6.537 6.537 0 00-.71-3.319 5.548 5.548 0 00-5.214-2.686zm282.03 16.59a5.632 5.632 0 00-2.134 1.501 4.679 4.679 0 00-1.106 2.055 5.567 5.567 0 00-.08.868v.08c.004.06-.007.178 0 .236a3.187 3.187 0 00.08.395c.011.034.066.124.079.158.027.068.045.172.08.237.034.064.114.175.157.237a3.486 3.486 0 00.237.316c.632.708 1.893 1.027 3.713 1.027a12.574 12.574 0 005.688-1.264 11.066 11.066 0 004.187-3.634 14.746 14.746 0 001.896-4.818 59.535 59.535 0 01-7.742 1.501 26.744 26.744 0 00-5.056 1.105zm-269.413-206.46q8.12-32.701 15.63-54.502-15.011 18.815-39.721 44.647l-62.016 64.806h72.695zM636.19 330.67h-80.263l-21.41 96.537h80.343l21.33-96.537zm415.235 380.448c-8.393 0-16.558 3.792-22.751 11.78-.228-5.763-4.348-11.78-14.561-11.78-8.267 0-16.154 3.741-22.474 12.21h-.253l1.694-9.682h-16.23c-1.06 5.41-2.35 11.957-4.322 19.592l-10.162 43.607h18.2l6.826-28.87c2.857-12.867 9.985-21.69 16.381-21.69 4.601 0 5.865 3.363 5.638 7.761a51.386 51.386 0 01-1.163 7.357l-8.443 35.442h18.2l6.826-28.996c3.135-13.271 9.86-21.563 16.128-21.563 4.323 0 6.118 3.084 5.916 7.483a41.055 41.055 0 01-1.314 7.912l-8.191 35.164h18.327l8.823-37.44a94.806 94.806 0 001.593-11.274c.556-11.123-4.88-17.013-14.688-17.013zM568.597 593.749v-.001.001zM427.03 579.923a10.1 10.1 0 00-1.185 0 10.486 10.486 0 00-5.846 2.844c-2.174 1.972-3.751 5.069-4.661 9.165a20.938 20.938 0 00-.553 4.502 7.771 7.771 0 001.027 4.266 6.987 6.987 0 00.632.79 6.13 6.13 0 004.661 1.817 9.956 9.956 0 006.952-2.923c2.174-1.997 3.725-5.126 4.66-9.322.86-3.842.74-6.711-.473-8.532a5.749 5.749 0 00-5.214-2.607zM224.962 711.118c-23.18 0-38.349 20.426-39.335 40.093-.834 17.165 8.064 25.634 26.392 25.634 7.079 0 16.432-.81 24.091-3.11l-.632-13.954c-5.232 2.553-11.198 1.896-18.125 1.896-5.51 0-9.732-.96-12.058-2.831a14.71 14.71 0 01-1.643-7.28c25.633.682 41.762-5.233 42.596-21.413.606-12.21-8.317-19.035-21.286-19.035zm-18.782 25.28c1.617-5.284 6.951-10.112 15.723-10.112 4.323 0 6.826 1.643 6.674 3.867-.303 6.017-7.735 6.37-22.397 6.244zm70.074 19.768c-.682 13.676 6.725 20.679 18.252 20.679 7.458 0 15.876-3.616 22.423-14.486h.278c-.505 5.233-1.112 10.315-1.44 14.486h17.29c.152-8.014 2.073-20.603 4.07-28.87l8.115-34.329c-5.157-1.744-13.196-2.528-20.931-2.528-31.397 0-46.97 23.257-48.057 45.048zm43.835-15.42c-3.69 16.077-11.224 20.931-16.836 20.931-5.233 0-7.508-3.716-7.205-9.126.607-12.21 10.264-26.265 22.449-26.265a19.627 19.627 0 004.954-.708zm-.735-159.322a5.85 5.85 0 00-4.424-1.659c-.147 0-.329-.008-.474 0a10.014 10.014 0 00-6.005 2.37 11.915 11.915 0 00-3.239 4.503h15.563c.027-.277.08-.616.08-.868a6.284 6.284 0 00-.711-3.319 6.35 6.35 0 00-.79-1.027zM516.51 712.862c-8.392 0-16.557 3.893-23.004 12.337h-.252l1.719-11.553h-16.634c-1.087 5.41-2.478 11.957-4.45 19.592l-10.313 43.607h18.858l6.674-28.465c3.463-14.485 10.92-19.567 17.063-19.567 4.854 0 6.27 2.074 6.042 5.082a45.166 45.166 0 01-1.01 7.255l-8.495 35.695h18.859l8.949-37.44a85.45 85.45 0 001.592-10.996c.557-11.4-5.131-15.547-15.597-15.547zm-58.547-29.552c-6.143 0-11.755 3.995-12.083 9.96-.303 6.017 3.69 12.792 9.176 12.792 6.422 0 12.134-5.309 12.488-14.41.304-6.168-3.69-8.341-9.58-8.341zm141.869 20.224h32.737l3.944-17.696h-51.697l-21.235 91.007h18.859l8.494-35.391h30.613l3.944-15.168h-30.765l5.106-22.752zm-172.381 73.311h18.833l15.295-63.199h-18.733l-15.395 63.199zm446.537-93.535l-7.103 28.718c-2.579-1.062-5.94-.91-8.57-.91-24.218 0-41.357 20.73-42.495 43.177-.758 15.826 7.685 22.55 18.555 22.55 7.61 0 15.623-3.363 21.69-12.058h.253l-1.441 12.058h17.14a226.62 226.62 0 014.272-24.85l16.406-68.684zm-14.763 61.733c-2.957 12.463-9.935 16.634-15.446 16.634-5.485 0-8.544-3.817-8.165-10.617.632-12.59 9.278-24.774 20.527-24.774a18.925 18.925 0 017.357 1.188zm72.022-33.925c-22.803 0-39.159 18.454-40.296 40.75-.784 16.23 9.682 24.977 26.038 24.977 21.993 0 38.955-16.66 40.144-39.335.733-15.016-8.62-26.392-25.886-26.392zm6.243 26.544c-.555 11.123-7.33 24.015-17.544 24.015-6.42 0-9.96-4.095-9.58-10.213.505-10.188 6.8-25.178 17.645-25.178 7.482 0 9.783 5.738 9.48 11.376zm-258.533-26.544c-8.772 0-16.128 6.168-21.033 15.016h-.505c.733-4.322 1.365-8.418 1.845-12.488H643.01c-.91 5.258-2.377 15.547-4.576 24.825l-9.252 38.374h18.985l5.662-23.763c2.983-12.867 9.277-24.269 21.184-24.269a15.757 15.757 0 012.883.658l4.6-18.226c-1.061 0-2.225-.127-3.539-.127zm109.586 0c-23.18 0-38.349 20.426-39.335 40.093-.834 17.165 8.065 25.634 26.393 25.634 7.078 0 16.431-.81 24.09-3.11l-.631-13.954c-5.233 2.553-11.199 1.896-18.125 1.896-5.512 0-9.733-.96-12.06-2.831a14.71 14.71 0 01-1.642-7.28c25.633.682 41.762-5.233 42.596-21.413.607-12.21-8.317-19.035-21.286-19.035zm-18.782 25.28c1.618-5.284 6.952-10.112 15.724-10.112 4.323 0 6.825 1.643 6.674 3.867-.304 6.017-7.736 6.37-22.398 6.244zm-48.259-25.28c-23.156 0-38.323 20.426-39.31 40.093-.859 17.165 8.065 25.634 26.392 25.634 7.054 0 16.432-.81 24.066-3.11l-.606-13.954c-5.233 2.553-11.199 1.896-18.15 1.896-5.486 0-9.733-.96-12.06-2.831a14.685 14.685 0 01-1.617-7.28c25.608.682 41.762-5.233 42.57-21.413.608-12.21-8.316-19.035-21.285-19.035zm-18.757 25.28c1.593-5.284 6.952-10.112 15.724-10.112 4.322 0 6.8 1.643 6.648 3.867-.303 6.017-7.735 6.37-22.372 6.244zm-347.467-3.312c-.404 8.19 5.486 13.702 12.615 17.443 5.763 2.957 7.735 5.233 7.584 8.443-.178 3.236-3.06 2.705-8.292 2.705a118.628 118.628 0 01-16.533-1.365l-5.233 13.55c3.64 2.831 11.275 2.856 19.238 2.983 17.013.126 29.855-7.306 30.614-20.957.43-9.1-6.624-14.485-13.525-18.1-4.98-2.402-7.483-4.702-7.356-7.382.176-3.615 3.564-4.12 8.544-4.12a66.944 66.944 0 0112.69 1.188l5.106-13.702c-2.907-1.744-8.72-2.654-16.178-2.654-16.508 0-28.592 8.721-29.274 21.968z"/><path d="M1277.582 274.121c-3.95-10.897-12.502-18.99-24.733-23.402a67.436 67.436 0 00-17.086-3.543l-15.798-.022-.454.016c-19.976 1.441-44.595 7.552-66.24 16.192H110.411L22.482 646.984H825.75c11.803 6.87 26.38 11.18 43.296 12.656l29.059.023.245-.019a252.823 252.823 0 0028.73-3.995 360.36 360.36 0 0053.866-15.285c14.458-5.27 29.073-11.447 43.433-18.35a611.087 611.087 0 0097.607-59.068 651.095 651.095 0 0030.784-24.125 615.872 615.872 0 0026.042-22.93c23.163-22.322 40.85-45.065 51.15-65.772 11.76-23.637 12.885-42.859 3.255-55.584a32.363 32.363 0 00-15.137-10.847c46.182-38.004 69.893-81.04 59.501-109.567zm-632.386 39.01c7.887 0 14.087 1.498 18.486 4.504 4.423 3.023 6.117 6.934 5.056 11.692l-21.962 99.224c-1.037 4.727-4.427 8.584-10.191 11.613-5.764 3.038-12.548 4.581-20.461 4.581h-85.478l-16.51 74.497-2.686 12.245h-32.232l2.449-11.06 45.899-207.295zM118.28 530.408H86.056l212.018-218.906h34.623l-51.192 218.906h-28.478l14.536-63.014H178.68zm83.047 58.364c-.48 2.2-4.819 21.725-4.819 21.725h-9.559l11.376-51.112h35.55l-1.975 8.848h-25.99c-.405 1.795-2.026 9.062-2.608 11.692h22.515l-1.975 8.847zm47.163-6.793a5.773 5.773 0 00-3.16-.948 4.93 4.93 0 00-2.765.948 6.982 6.982 0 00-2.37 2.606 24.987 24.987 0 00-2.37 6.478l-4.266 19.434h-9.164l8.453-37.92h8.532s-.294 1.15-.395 1.58c.404-.303.83-.72 1.185-.947a9.76 9.76 0 013.792-1.343 9.39 9.39 0 011.106 0 10.75 10.75 0 016.399 2.133l1.264.869-4.898 8.057zm39.657 9.875l-.71 2.765h-25.754c-.05.53-.08 1.1-.08 1.58a7.558 7.558 0 001.265 4.66 5.938 5.938 0 001.422 1.422 7.013 7.013 0 003.87 1.028 9.126 9.126 0 005.057-1.501 13.334 13.334 0 004.108-4.503h9.796l-.87 1.895a21.716 21.716 0 01-7.741 8.849 20.95 20.95 0 01-11.455 3.238c-5.587 0-9.745-1.807-12.324-5.371-2.553-3.49-3.103-8.311-1.738-14.378 1.365-6.169 4.089-11.099 8.058-14.537a20.416 20.416 0 0112.087-5.134c.551-.042 1.094 0 1.659 0 5.157 0 9.06 1.807 11.613 5.372a14.656 14.656 0 012.448 8.532 28.495 28.495 0 01-.71 6.083zm41.16-.08l-.712 2.845h-25.753c-.028.354-.054.673-.08 1.027-.019.132.008.334 0 .474v.078c0 .38.054.753.08 1.106a6.83 6.83 0 001.184 3.555c.13.177.252.395.395.554a6.407 6.407 0 004.898 1.896 9.063 9.063 0 005.056-1.501 13.328 13.328 0 004.108-4.504h9.875l-.948 1.896a21.71 21.71 0 01-7.742 8.848 20.947 20.947 0 01-11.455 3.24c-5.587 0-9.745-1.808-12.323-5.373a14.212 14.212 0 01-2.45-8.61c0-.532.028-1.104.08-1.66a28.532 28.532 0 01.631-4.107c1.366-6.143 4.01-11.098 7.98-14.536a20.631 20.631 0 0112.165-5.135c.552-.042 1.096 0 1.659 0 5.158 0 9.06 1.807 11.613 5.372a14.653 14.653 0 012.449 8.532 27.802 27.802 0 01-.71 6.003zm-13.619-64.789c-4.374-3.008-6.039-6.85-4.977-11.613l41.16-186.044c1.06-4.758 4.372-8.668 10.11-11.692.203-.11.43-.134.633-.237a43.101 43.101 0 0118.486-4.266c.473-.012.94 0 1.421 0h93.457q11.982 0 18.565 4.503c4.373 3.023 6.013 6.934 4.976 11.692l-11.138 50.322h-32.943l10.823-48.98h-82.475l-29.784 134.616-10.744 48.743h82.397l.08-.316 16.51-74.576h-38.71l3.714-16.826h71.652l-20.54 93.06a13.168 13.168 0 01-1.422 3.714c-1.694 3.084-4.648 5.726-8.769 7.9q-8.57 4.512-20.54 4.503h-93.377q-11.983 0-18.565-4.503zm86.219 47.725l-.237 1.186h-9.243l.079-1.106a7.267 7.267 0 00-.869-5.056 5.468 5.468 0 00-.395-.474 5.108 5.108 0 00-.79-.632 11.41 11.41 0 00-5.925-1.264c-3.464 0-6.051.603-7.82 1.817a6.953 6.953 0 00-3.161 4.108 3.046 3.046 0 00.632 2.922l.079.08c.512.436 2.29 1.46 7.82 2.765a53.281 53.281 0 0110.192 3.238 12.05 12.05 0 015.846 5.61 12.282 12.282 0 01.632 7.82 17.814 17.814 0 01-4.187 7.821 21.18 21.18 0 01-7.98 5.688 26.964 26.964 0 01-10.269 2.054 25.626 25.626 0 01-11.06-2.054 12.739 12.739 0 01-6.399-6.557 16.104 16.104 0 01-.79-9.559l.237-1.105h9.085l-.079 1.105a9.963 9.963 0 00.553 5.056 6.132 6.132 0 003.16 3.002 14.515 14.515 0 006.32 1.265 17.384 17.384 0 006.004-1.027 10.594 10.594 0 004.187-2.529 7.014 7.014 0 001.817-3.397 3.74 3.74 0 00-.237-2.765 5.772 5.772 0 00-2.923-2.132l-7.742-2.292c-4.323-1.087-7.233-2.123-8.927-3.16a11.07 11.07 0 01-4.82-5.213 11.242 11.242 0 01-.394-6.873 16.723 16.723 0 013.871-7.505 19.419 19.419 0 017.742-5.293 27.203 27.203 0 018.69-1.738c.315-.012.63 0 .948 0a22.662 22.662 0 019.638 1.896 11.434 11.434 0 015.925 5.846 14.283 14.283 0 01.79 8.452zm39.974 16.67a29.127 29.127 0 01-4.582 11.139 21.781 21.781 0 01-17.3 8.768c-5.36 0-9.351-1.832-11.93-5.371a14.14 14.14 0 01-2.528-8.611 27.12 27.12 0 01.711-6.083c1.517-6.776 4.613-11.936 9.164-15.247a21.349 21.349 0 0110.98-4.108c.565-.044 1.085 0 1.66 0 5.259 0 9.3 1.779 11.928 5.293q3.907 5.27 1.897 14.22zm20.697-10.981c-.505 2.275-6.715 30.099-6.715 30.099H446.7s5.957-26.737 6.715-30.099h-5.292l1.737-7.82h5.214c.253-1.088.632-2.45.632-2.45a19.312 19.312 0 011.896-5.61 11.926 11.926 0 014.345-4.265 13.24 13.24 0 015.61-1.58c.5-.039.97 0 1.5 0l5.688.632 1.896.157-2.765 7.032-.553 1.106-4.344-.395a4.996 4.996 0 00-2.845.632c-.04.03-.12.125-.157.158a2.754 2.754 0 00-.316.316 7.447 7.447 0 00-1.185 3.002s-.165.682-.317 1.264h6.794l-1.738 7.821zm28.046 0h-5.926c-.48 2.173-4.265 19.039-4.265 19.039s-.317 2.025-.317 2.606v.08c.002.007-.001.073 0 .078h.079l.948.079 4.345-.316-.474 7.03.079 1.265-6.24.71a10.13 10.13 0 01-5.61-1.263 5.588 5.588 0 01-2.528-3.634 6.021 6.021 0 01-.158-1.264 32.27 32.27 0 01.948-6.4s3.32-14.876 4.029-18.01h-4.345l1.738-7.822h4.345c.405-1.82 1.817-8.058 1.817-8.058l7.347-3.871 3.002-1.58-3.002 13.51h5.925zm26.543 30.099s-.818-20.562-.869-21.725a82308.681 82308.681 0 00-10.586 21.725h-8.69l-3.001-37.92h9.4s1.16 22.502 1.185 22.83c.38-.805.674-1.483.711-1.58l10.35-21.25h8.61s.79 22.23.79 22.357c.253-.455 11.77-22.357 11.77-22.357h9.323l-20.54 37.92zm62.094-23.622l-1.738 7.821a86.233 86.233 0 00-1.896 10.113 10.184 10.184 0 00.395 3.633l.632 2.054h-9.322l-.395-1.184a11.233 11.233 0 01-.158-1.896 28.092 28.092 0 01-5.135 2.606 22.297 22.297 0 01-7.268 1.264c-4.297 0-7.48-1.118-9.4-3.317a8.397 8.397 0 01-2.134-5.846 12.734 12.734 0 01.316-2.686 13.161 13.161 0 012.45-5.293 14.792 14.792 0 014.265-3.792 18.98 18.98 0 015.135-2.054l5.61-.948a61.576 61.576 0 009.874-1.817 4.64 4.64 0 01.158-.553c.367-1.626.32-2.85-.079-3.476-.03-.04-.124-.124-.158-.158a4.103 4.103 0 00-.316-.316c-.95-.753-2.572-1.106-4.74-1.106a10.511 10.511 0 00-5.53 1.185 10.31 10.31 0 00-3.397 4.266h-9.558l.868-1.896a20.191 20.191 0 014.187-6.478 17.456 17.456 0 016.636-3.871 26.314 26.314 0 016.636-1.264c.667-.041 1.283 0 1.975 0a20.283 20.283 0 017.584 1.106 8.389 8.389 0 014.266 3.318 9.074 9.074 0 011.185 4.818zm28.519-4.897a5.583 5.583 0 00-3.08-.948 5.235 5.235 0 00-2.845.948 7.013 7.013 0 00-2.291 2.606 25.928 25.928 0 00-2.37 6.478l-4.345 19.434h-9.164l8.453-37.92h8.532s-.215 1.15-.316 1.58c.404-.303.806-.72 1.185-.947a7.352 7.352 0 014.818-1.343 10.924 10.924 0 016.479 2.132l1.185.87-4.898 8.057zm39.5 9.875l-.633 2.765h-25.753c-.05.53-.159 1.1-.159 1.58a7.728 7.728 0 001.264 4.66c.13.178.332.396.475.554.083.088.228.234.316.316a6.59 6.59 0 004.582 1.58 9.126 9.126 0 005.056-1.501 13.596 13.596 0 004.108-4.503h9.875l-.949 1.895a21.897 21.897 0 01-7.741 8.849 20.95 20.95 0 01-11.455 3.238c-5.587 0-9.667-1.807-12.245-5.371-2.553-3.49-3.157-8.311-1.817-14.378 1.365-6.169 4.01-11.099 7.979-14.537a20.702 20.702 0 0112.166-5.134c.55-.042 1.095 0 1.658 0 5.158 0 9.085 1.807 11.614 5.372a14.473 14.473 0 012.448 8.532 28.906 28.906 0 01-.79 6.083zm-5.56-60.366l9.163-41.396 39.183-176.96H722.3l-36.497 164.873-7.98 36.024h77.104c.81 5.913 1.754 11.72 2.765 17.459zm132.481-60.672q-1.592-14.663-2.449-28.993c-4.095-69.375 4.961-132.264 23.542-177.907-2.478 37.812 4.854 93.193 21.488 154.681q4.437 16.412 9.717 33.339 3.299 10.43 6.794 20.54c-1.365 2.006-2.74 4.001-4.03 6.004-20.754 31.806-32.885 61.865-35.944 88.004a541.883 541.883 0 01-19.118-95.668zm425.508-88.765l-13.407 10.06 16.713 1.295c9.52.739 16.29 3.682 20.12 8.753 6.448 8.52 4.854 23.554-4.488 42.33-9.526 19.15-26.789 41.276-48.53 62.23a602.192 602.192 0 01-25.434 22.388 639.014 639.014 0 01-30.188 23.66 598.558 598.558 0 01-95.587 57.853c-13.992 6.728-28.222 12.74-42.29 17.871a347.862 347.862 0 01-51.965 14.756 240.203 240.203 0 01-27.042 3.778h-27.738c-.127-.011-.248-.028-.375-.04h2.663c-25.205-2.2-45.103-11.047-56.96-27.175a57.433 57.433 0 01-5.608-9.56c-1.012-2.477-1.962-4.977-2.923-7.504a76.043 76.043 0 01-3.081-26.465c1.264-26.494 13.696-58.007 35.234-91.008 22.878-35.07 56.036-71.828 97.09-105.938 9.202-7.64 18.717-15.184 28.677-22.516 12.311-9.057 24.718-17.399 37.13-25.2 45.731-28.791 91.349-48.937 131.771-59.17-38.628 12.601-82.023 33.995-124.898 63.12-1.542 1.041-3.065 2.108-4.582 3.16a558.088 558.088 0 00-64.148 51.665c-60.52 56.905-92.508 115.87-77.972 150.416a43.221 43.221 0 003.712 6.794c15.623 22.98 54.343 26.951 103.411 14.614 3.337-.834 6.674-1.779 10.112-2.764a399.157 399.157 0 0049.454-18.17c4.12-1.82 8.285-3.691 12.482-5.688.43-.202.834-.405 1.264-.632 54.099-26.88 95.674-57.81 104.674-76.393 1.972-4.042 2.446-7.488 1.106-10.19-6.421-13.02-51.353-4.225-105.78 19.354-4.373 1.896-8.798 3.847-13.272 5.925 3.64-3.38 7.429-6.773 11.297-10.112a383.147 383.147 0 0119.355-15.642 386.3 386.3 0 0131.994-21.804c49.6-37.42 74.674-72.816 69.441-85.952-.986-2.475-3.084-4.177-6.32-5.213-10.34-3.29-29.211.636-52.14 10.033-18.909 7.756-40.628 19.258-62.646 33.574l-3.002 1.976-.554.316-10.585 7.03 6.083-11.138c9.025-16.52 23.725-33.758 42.027-49.77a298.464 298.464 0 0145.267-32.39c6.244-3.656 12.479-7.05 18.723-10.112 6.396-3.125 12.795-5.902 19.039-8.374 5.165-2.043 10.475-4.236 15.777-6.359 18.45-5.961 35.713-9.063 47.385-9.928h14.762a54.528 54.528 0 0113.607 2.817c8.58 3.095 14.505 8.565 17.137 15.828 9.112 25.013-18.026 67.62-65.992 103.611z"/><path d="M632.981 579.765c-.072.001-.085-.002-.157 0a10.212 10.212 0 00-6.241 2.37 12.19 12.19 0 00-3.24 4.503h15.485c.027-.277.079-.616.079-.868a6.284 6.284 0 00-.711-3.319 5.618 5.618 0 00-5.215-2.686zM36.251 703.534h32.737l3.943-17.696H21.235L0 776.845h18.858l8.469-35.391h30.639l3.944-15.168H31.145l5.106-22.752zm121.669 7.584c-23.155 0-38.323 20.426-39.309 40.093-.859 17.165 8.04 25.634 26.392 25.634 7.053 0 16.407-.81 24.066-3.11l-.607-13.954c-5.233 2.553-11.198 1.896-18.15 1.896-5.486 0-9.733-.96-12.059-2.831a14.679 14.679 0 01-1.617-7.28c25.608.682 41.761-5.233 42.57-21.413.607-12.21-8.316-19.035-21.285-19.035zm-18.756 25.28c1.592-5.284 6.951-10.112 15.724-10.112 4.322 0 6.8 1.643 6.648 3.867-.304 6.017-7.736 6.37-22.372 6.244zm-23.788-25.28c-8.772 0-16.128 6.168-21.033 15.016h-.506c.734-4.322 1.366-8.418 1.846-12.488H79.428c-.935 5.258-2.376 15.547-4.575 24.825L65.6 776.845h18.985l5.663-23.763c2.983-12.867 9.277-24.269 21.184-24.269a15.751 15.751 0 012.882.658l4.601-18.226c-1.062 0-2.225-.127-3.539-.127z"/></svg>