<svg xmlns="http://www.w3.org/2000/svg" viewBox="0 0 1280 1024"><path d="M273.77051,579.76514c-.147,0-.32861-.00781-.47412,0v.00049a10.01352,10.01352,0,0,0-6.00391,2.37012,11.64818,11.64818,0,0,0-3.23877,4.50244h15.563c.02686-.27734.07861-.61621.07861-.86865a6.5372,6.5372,0,0,0-.71094-3.31836A5.548,5.548,0,0,0,273.77051,579.76514Z"/><path d="M555.79932,596.35547a5.632,5.632,0,0,0-2.1333,1.501,4.67876,4.67876,0,0,0-1.106,2.0542,5.567,5.567,0,0,0-.0791.86865c0,.019-.00049.05908,0,.0791.00293.06006-.00781.17871,0,.23682a3.18665,3.18665,0,0,0,.0791.39453c.01123.03467.06592.124.07861.1582.02734.06836.04492.17236.07959.2373.03467.064.11523.1748.15771.23682a3.4862,3.4862,0,0,0,.2373.31592c.63184.70752,1.89258,1.02686,3.7124,1.02686a12.57375,12.57375,0,0,0,5.68848-1.26367,11.0658,11.0658,0,0,0,4.18652-3.63428,14.74556,14.74556,0,0,0,1.896-4.81836A59.5355,59.5355,0,0,1,560.855,595.25,26.74448,26.74448,0,0,0,555.79932,596.35547Z"/><path d="M286.38672,389.895q8.11963-32.70117,15.63086-54.50244Q287.00586,354.20776,262.2959,380.04L200.28027,444.8457h72.69434Z"/><polygon points="636.19 330.67 555.927 330.67 534.517 427.207 614.86 427.207 636.19 330.67"/><path d="M1051.42529,711.11816c-8.39307,0-16.55811,3.792-22.75147,11.78027-.22754-5.76367-4.34814-11.78027-14.561-11.78027-8.2666,0-16.15381,3.74121-22.47363,12.21h-.25293l1.69385-9.68213H976.85059c-1.06152,5.40967-2.35107,11.957-4.32275,19.5918l-10.16211,43.60693h18.20117l6.8252-28.86914c2.85693-12.86719,9.98535-21.68994,16.38135-21.68994,4.60058,0,5.86475,3.3623,5.63721,7.76074a51.38622,51.38622,0,0,1-1.1626,7.35645l-8.44336,35.44189h18.20117l6.8252-28.99561c3.13476-13.27148,9.85938-21.56348,16.12842-21.56348,4.32275,0,6.11768,3.08447,5.91553,7.48291a41.0547,41.0547,0,0,1-1.31445,7.9126l-8.19092,35.16357h18.32764l8.82275-37.439a94.80588,94.80588,0,0,0,1.59277-11.27441C1066.66894,717.0083,1061.2334,711.11816,1051.42529,711.11816Z"/><polygon points="568.597 593.749 568.597 593.748 568.597 593.748 568.597 593.749"/><path d="M427.02979,579.92334a10.09986,10.09986,0,0,0-1.18506,0h0a10.4863,10.4863,0,0,0-5.8457,2.84375c-2.17432,1.97217-3.751,5.06885-4.66113,9.16455a20.93826,20.93826,0,0,0-.55322,4.50244,7.77126,7.77126,0,0,0,1.02734,4.26563,6.98724,6.98724,0,0,0,.63184.79,6.13064,6.13064,0,0,0,4.66113,1.81738,9.956,9.956,0,0,0,6.95166-2.92334c2.17432-1.99707,3.72559-5.12549,4.66113-9.32178.85938-3.84229.73926-6.71143-.47412-8.53174A5.74876,5.74876,0,0,0,427.02979,579.92334Z"/><path d="M224.9624,711.11816c-23.18115,0-38.34912,20.42578-39.335,40.09326-.83447,17.16455,8.064,25.6333,26.3916,25.6333,7.07861,0,16.43164-.80908,24.09131-3.10937l-.63184-13.9541c-5.23291,2.55322-11.19873,1.896-18.12549,1.896-5.51074,0-9.73242-.96094-12.05811-2.83154a14.71053,14.71053,0,0,1-1.64307-7.28027c25.6333.68262,41.76172-5.23291,42.5957-21.41211C246.85449,717.94336,237.93066,711.11816,224.9624,711.11816Zm-18.78271,25.2793c1.61768-5.2832,6.95166-10.11182,15.72363-10.11182,4.32275,0,6.82568,1.64307,6.67383,3.86768C228.27393,736.16992,220.8418,736.52393,206.17969,736.39746Z"/><path d="M276.25439,756.166c-.68262,13.67627,6.72461,20.67871,18.252,20.67871,7.45752,0,15.87549-3.61523,22.42285-14.48535h.27783c-.50537,5.23291-1.1123,10.31445-1.44092,14.48535h17.2915c.15137-8.01367,2.07275-20.60254,4.06982-28.86914l8.11475-34.32959c-5.15723-1.74414-13.1958-2.52783-20.93164-2.52783C292.91357,711.11816,277.34131,734.375,276.25439,756.166Zm43.835-15.42041c-3.69092,16.07764-11.22412,20.93164-16.83643,20.93164-5.23291,0-7.50781-3.71631-7.20459-9.126.60693-12.21,10.26367-26.26562,22.44824-26.26562a19.6268,19.6268,0,0,0,4.95459-.70752Z"/><path d="M319.35352,581.42432a5.84993,5.84993,0,0,0-4.42383-1.65918c-.147,0-.32861-.00781-.47412,0l-.00049.00049a10.01352,10.01352,0,0,0-6.00391,2.37012,11.915,11.915,0,0,0-3.23877,4.50244h15.563c.02686-.27734.0791-.61621.0791-.86865a6.28359,6.28359,0,0,0-.71094-3.31836A6.35067,6.35067,0,0,0,319.35352,581.42432Z"/><path d="M516.51074,712.8623c-8.39258,0-16.55811,3.89307-23.00439,12.33643h-.25244l1.71875-11.55273H478.33887c-1.08691,5.40967-2.47754,11.957-4.44922,19.5918l-10.314,43.60693h18.8584l6.67383-28.46484c3.46338-14.48486,10.9209-19.56641,17.06348-19.56641,4.854,0,6.26953,2.07324,6.042,5.08154a45.16589,45.16589,0,0,1-1.01123,7.25537l-8.49365,35.69434h18.8584l8.94873-37.439a85.44984,85.44984,0,0,0,1.59277-10.99658C532.66455,717.0083,526.97656,712.8623,516.51074,712.8623Z"/><path d="M457.96338,683.31055c-6.14307,0-11.75488,3.99414-12.0835,9.96-.30322,6.0166,3.69092,12.7915,9.17627,12.7915,6.42139,0,12.13428-5.30859,12.48828-14.40918C467.84766,685.48438,463.85352,683.31055,457.96338,683.31055Z"/><polygon points="599.832 703.534 632.569 703.534 636.513 685.838 584.816 685.838 563.581 776.845 582.44 776.845 590.934 741.454 621.547 741.454 625.491 726.286 594.726 726.286 599.832 703.534"/><polygon points="427.451 776.845 446.284 776.845 461.579 713.646 442.846 713.646 427.451 776.845"/><path d="M873.98828,683.31055l-7.10352,28.71777c-2.57861-1.062-5.94043-.91016-8.56982-.91016-24.21777,0-41.35693,20.729-42.49463,43.17725-.7583,15.8252,7.68506,22.54932,18.55518,22.54932,7.60889,0,15.62256-3.3623,21.68994-12.05811h.25244L854.877,776.84473H872.0166a226.61939,226.61939,0,0,1,4.27246-24.84961l16.40625-68.68457ZM859.2251,745.043c-2.95752,12.46289-9.93506,16.63428-15.4458,16.63428-5.48535,0-8.54443-3.81738-8.165-10.61768.63184-12.58887,9.27734-24.77393,20.52686-24.77393a18.92525,18.92525,0,0,1,7.35645,1.188Z"/><path d="M931.24658,711.11816c-22.80225,0-39.1582,18.4541-40.2959,40.75049-.78369,16.22949,9.68213,24.97607,26.03809,24.97607,21.99316,0,38.95557-16.65918,40.144-39.335C957.86572,722.49365,948.51221,711.11816,931.24658,711.11816Zm6.24365,26.54346c-.55566,11.123-7.33105,24.01563-17.54395,24.01563-6.4209,0-9.96-4.09521-9.58057-10.21338.50537-10.1875,6.80029-25.17822,17.645-25.17822C935.49316,726.28564,937.79395,732.02441,937.49023,737.66162Z"/><path d="M678.957,711.11816c-8.772,0-16.12842,6.168-21.03271,15.01611h-.50537c.73291-4.32275,1.36523-8.41846,1.84521-12.48828H643.00977c-.91016,5.2583-2.37646,15.54688-4.57568,24.82471l-9.25244,38.374H648.1665l5.6626-23.7627c2.98291-12.86719,9.27734-24.26855,21.18408-24.26855a15.75723,15.75723,0,0,1,2.88232.65723l4.60059-18.22607C681.43457,711.24463,680.27148,711.11816,678.957,711.11816Z"/><path d="M788.54346,711.11816c-23.18115,0-38.34912,20.42578-39.335,40.09326-.834,17.16455,8.06445,25.6333,26.39209,25.6333,7.07813,0,16.43164-.80908,24.09131-3.10937l-.63184-13.9541c-5.23291,2.55322-11.19873,1.896-18.12549,1.896-5.51123,0-9.73291-.96094-12.05859-2.83154a14.71053,14.71053,0,0,1-1.64307-7.28027c25.6333.68262,41.76172-5.23291,42.59619-21.41211C810.43555,717.94336,801.51221,711.11816,788.54346,711.11816Zm-18.78271,25.2793c1.61816-5.2832,6.95215-10.11182,15.72412-10.11182,4.32275,0,6.8252,1.64307,6.67383,3.86768C791.85547,736.16992,784.42285,736.52393,769.76074,736.39746Z"/><path d="M721.50244,711.11816c-23.15625,0-38.32373,20.42578-39.30957,40.09326-.85986,17.16455,8.064,25.6333,26.3916,25.6333,7.05322,0,16.43164-.80908,24.06592-3.10937l-.60645-13.9541c-5.23291,2.55322-11.19873,1.896-18.15088,1.896-5.48535,0-9.73242-.96094-12.05811-2.83154a14.68466,14.68466,0,0,1-1.61816-7.28027c25.6084.68262,41.76221-5.23291,42.5708-21.41211C743.39453,717.94336,734.4707,711.11816,721.50244,711.11816Zm-18.75732,25.2793c1.59277-5.2832,6.95166-10.11182,15.72363-10.11182,4.32275,0,6.80029,1.64307,6.64844,3.86768C724.814,736.16992,717.38184,736.52393,702.74512,736.39746Z"/><path d="M355.27832,733.08594c-.40479,8.19043,5.48535,13.70166,12.61426,17.44287,5.76367,2.95752,7.73535,5.23291,7.584,8.44336-.17725,3.23584-3.05908,2.70508-8.292,2.70508a118.6284,118.6284,0,0,1-16.53271-1.36523l-5.23291,13.5498c3.64063,2.83154,11.2749,2.85645,19.23779,2.98291,17.01318.12646,29.855-7.30566,30.61377-20.95654.42969-9.10059-6.62354-14.48535-13.5249-18.1001-4.98-2.40186-7.48242-4.70215-7.356-7.38184.17676-3.61475,3.56445-4.12061,8.54443-4.12061a66.94428,66.94428,0,0,1,12.68994,1.188l5.10645-13.70117c-2.90723-1.74414-8.72119-2.6543-16.17871-2.6543C368.04443,711.11816,355.96045,719.83936,355.27832,733.08594Z"/><path d="M1277.582,274.12109c-3.95068-10.89746-12.50244-18.98975-24.73291-23.40186a67.43561,67.43561,0,0,0-17.08594-3.543l-15.79785-.02246-.45459.0166c-19.97607,1.44092-44.59473,7.55176-66.23926,16.19189H110.41016L22.4834,646.98389H825.751c11.80273,6.87061,26.38086,11.18066,43.29639,12.65576l29.05859.02295.24463-.01855a252.82346,252.82346,0,0,0,28.73047-3.99463,360.36068,360.36068,0,0,0,53.86572-15.28516c14.4585-5.271,29.07324-11.44678,43.43311-18.35107a611.08711,611.08711,0,0,0,97.60742-59.06738c10.33838-7.60352,20.69531-15.72266,30.7832-24.125,8.94824-7.4458,17.68408-15.13623,26.042-22.93066,23.16357-22.32129,40.85059-45.06445,51.15088-65.771,11.76025-23.63721,12.88477-42.85889,3.25439-55.58447a32.3632,32.3632,0,0,0-15.13721-10.84619C1264.26318,345.68408,1287.97412,302.64893,1277.582,274.12109ZM645.1958,313.13184c7.88721,0,14.08691,1.49756,18.48633,4.50293,4.42334,3.02344,6.11719,6.93457,5.05566,11.69238l-21.96191,99.22363c-1.03662,4.72705-4.42725,8.584-10.19092,11.61279-5.76367,3.03857-12.54834,4.58154-20.46094,4.58154H530.64648L514.13574,519.2417l-2.686,12.24512H479.21777l2.44922-11.06006,45.89893-207.29492Zm-526.915,217.27539H86.05566L298.07422,311.501h34.623L281.50537,530.40723h-28.478l14.53516-63.01416H178.68115Zm83.04736,58.36426c-.48047,2.19971-4.81885,21.72461-4.81885,21.72461H186.9502l11.376-51.1123H233.876l-1.9751,8.84814H205.91016c-.4043,1.79492-2.02539,9.0625-2.60693,11.69189h22.51465l-1.9751,8.84766Zm47.1626-6.79395a5.77331,5.77331,0,0,0-3.15967-.94775,4.93,4.93,0,0,0-2.76514.94775,6.982,6.982,0,0,0-2.37012,2.60693,24.9866,24.9866,0,0,0-2.37012,6.478l-4.26611,19.43359H224.396l8.45313-37.91943h8.53174s-.29395,1.1499-.395,1.57959c.4043-.30322.83105-.71973,1.18506-.94727a9.75928,9.75928,0,0,1,3.792-1.34326,9.39008,9.39008,0,0,1,1.106,0,10.75053,10.75053,0,0,1,6.39893,2.13281l1.26416.86914-4.89795,8.05762Zm39.65771,9.875-.71094,2.76514H261.68359c-.05029.53076-.0791,1.09961-.0791,1.57959a7.55814,7.55814,0,0,0,1.26416,4.66113,5.9382,5.9382,0,0,0,1.42188,1.42188,7.01287,7.01287,0,0,0,3.87109,1.02734,9.12643,9.12643,0,0,0,5.05615-1.501,13.33441,13.33441,0,0,0,4.10791-4.50293h9.7959l-.86865,1.89551a21.71573,21.71573,0,0,1-7.74219,8.84863,20.94925,20.94925,0,0,1-11.45508,3.23828c-5.58691,0-9.74512-1.80664-12.32373-5.37158-2.55322-3.48877-3.103-8.311-1.73828-14.37793,1.36523-6.16846,4.08936-11.09814,8.05811-14.53613a20.416,20.416,0,0,1,12.08691-5.13477h0c.55176-.042,1.09473,0,1.65918,0,5.15674,0,9.05957,1.80713,11.61279,5.37207a14.65615,14.65615,0,0,1,2.44873,8.53223A28.49491,28.49491,0,0,1,288.14844,591.85254Zm41.15869-.0791-.71094,2.84424H302.84277c-.02734.354-.0542.67285-.0791,1.02686-.01953.13281.00781.33447,0,.47412-.001.02295,0,.05664,0,.07861,0,.37939.05322.75244.0791,1.106a6.82918,6.82918,0,0,0,1.18457,3.55518c.13037.17676.252.395.395.55322a6.40729,6.40729,0,0,0,4.89795,1.896,9.06291,9.06291,0,0,0,5.05566-1.501,13.32777,13.32777,0,0,0,4.1084-4.50342h9.87451l-.94775,1.896a21.7093,21.7093,0,0,1-7.7417,8.84814,20.94666,20.94666,0,0,1-11.45508,3.23877c-5.58691,0-9.74561-1.80713-12.32373-5.37207a14.21234,14.21234,0,0,1-2.44922-8.61084c0-.53076.02734-1.103.0791-1.65918a28.53222,28.53222,0,0,1,.63184-4.10742c1.36523-6.14307,4.01025-11.09814,7.979-14.53613a20.63138,20.63138,0,0,1,12.166-5.13477h.00049c.55127-.042,1.09473,0,1.6582,0,5.15771,0,9.06006,1.80713,11.61328,5.37207a14.65258,14.65258,0,0,1,2.44873,8.53223A27.802,27.802,0,0,1,329.30713,591.77344ZM315.689,526.98438c-4.37354-3.00879-6.03857-6.85059-4.97705-11.61377l41.15918-186.04346c1.06152-4.75781,4.373-8.66846,10.11133-11.69238.20215-.10889.43018-.1333.63232-.23682a43.101,43.101,0,0,1,18.48584-4.26611c.47314-.01172.93994,0,1.42188,0H475.979q11.98242,0,18.56494,4.50293c4.373,3.02344,6.01318,6.93457,4.97656,11.69238l-11.13867,50.32227H455.439l10.82275-48.97949h-82.4751l-29.7832,134.61475-10.74414,48.74316h82.39648l.07959-.31592,16.51074-74.57617H403.53662l3.71289-16.82617h71.65234l-20.53955,93.061a13.16837,13.16837,0,0,1-1.42236,3.71338c-1.69385,3.084-4.64795,5.72559-8.76855,7.90039q-8.57007,4.51172-20.54053,4.50244h-93.377Q322.27148,531.48682,315.689,526.98438Zm86.21875,47.7251-.23682,1.18506h-9.24268l.07861-1.106a7.26748,7.26748,0,0,0-.86865-5.05566,5.4683,5.4683,0,0,0-.39551-.47412,5.10769,5.10769,0,0,0-.78955-.63184,11.40925,11.40925,0,0,0-5.9248-1.26416c-3.46387,0-6.05176.60352-7.82129,1.81689a6.95266,6.95266,0,0,0-3.16016,4.10791,3.04618,3.04618,0,0,0,.63184,2.92285c.01172.01172.064.06494.0791.0791.51221.436,2.291,1.46,7.8208,2.76514A53.28118,53.28118,0,0,1,392.27,582.29346a12.04922,12.04922,0,0,1,5.8457,5.60889,12.2824,12.2824,0,0,1,.63184,7.8208,17.81388,17.81388,0,0,1-4.187,7.82129,21.17945,21.17945,0,0,1-7.979,5.688,26.964,26.964,0,0,1-10.26953,2.05371,25.62648,25.62648,0,0,1-11.06006-2.05371,12.73868,12.73868,0,0,1-6.39893-6.55713,16.10362,16.10362,0,0,1-.79053-9.55908l.2373-1.10547h9.085l-.07861,1.10547a9.96326,9.96326,0,0,0,.55273,5.05615,6.13236,6.13236,0,0,0,3.16016,3.002,14.51457,14.51457,0,0,0,6.31982,1.26416,17.3839,17.3839,0,0,0,6.00391-1.02686,10.59411,10.59411,0,0,0,4.187-2.52832,7.01426,7.01426,0,0,0,1.81689-3.397,3.74057,3.74057,0,0,0-.23682-2.76514,5.77236,5.77236,0,0,0-2.92285-2.13232l-7.74219-2.2915c-4.32275-1.08691-7.23291-2.12354-8.92676-3.16016a11.07046,11.07046,0,0,1-4.81934-5.21338,11.24234,11.24234,0,0,1-.39453-6.873,16.72332,16.72332,0,0,1,3.87109-7.50488,19.41887,19.41887,0,0,1,7.7417-5.293,27.20338,27.20338,0,0,1,8.68994-1.73779v-.00049c.31543-.01123.63037,0,.94824,0a22.66189,22.66189,0,0,1,9.6377,1.896,11.4336,11.4336,0,0,1,5.9248,5.84619A14.2832,14.2832,0,0,1,401.90771,574.70947Zm39.97412,16.66895a29.12679,29.12679,0,0,1-4.582,11.13916,21.78109,21.78109,0,0,1-17.30078,8.76855c-5.35986,0-9.35059-1.83252-11.9292-5.37158a14.13992,14.13992,0,0,1-2.52783-8.61084,27.11923,27.11923,0,0,1,.71094-6.083c1.5166-6.77539,4.61328-11.93555,9.16357-15.24707a21.34869,21.34869,0,0,1,10.981-4.10791h0c.56445-.04346,1.084,0,1.65918,0,5.25879,0,9.2998,1.77881,11.92871,5.293Q443.89209,582.4292,441.88184,591.37842Zm20.69727-10.98047c-.50537,2.27539-6.71484,30.09863-6.71484,30.09863H446.7002s5.95654-26.73633,6.71484-30.09863h-5.29248l1.73779-7.8208h5.21387c.25244-1.08691.63184-2.44922.63184-2.44922a19.31154,19.31154,0,0,1,1.896-5.60937,11.92625,11.92625,0,0,1,4.34521-4.26562,13.24011,13.24011,0,0,1,5.60889-1.58008h.00049c.5-.03857.97021,0,1.501,0l5.6875.63184,1.896.15771-2.76465,7.03125-.55322,1.106-4.34473-.395a4.99615,4.99615,0,0,0-2.84424.63184c-.04053.03076-.12012.125-.15771.1582a2.7536,2.7536,0,0,0-.31592.31641,7.44705,7.44705,0,0,0-1.18506,3.002s-.16455.68213-.31641,1.26416h6.79395l-1.73779,7.8208Zm28.04541,0h-5.92529c-.48,2.17334-4.26562,19.03857-4.26562,19.03857s-.31641,2.02588-.31641,2.60693c.001.019-.00146.06445,0,.0791.00146.00781-.00146.07373,0,.07861h.07861l.94824.07861,4.34521-.31592-.47412,7.03076.07861,1.26416-6.24072.71094a10.12967,10.12967,0,0,1-5.60937-1.26416,5.58819,5.58819,0,0,1-2.52783-3.6333,6.02128,6.02128,0,0,1-.1582-1.26465,32.27036,32.27036,0,0,1,.94824-6.39893s3.3208-14.877,4.02881-18.01123h-4.34473l1.73779-7.82129h4.34521c.40479-1.81982,1.81689-8.05811,1.81689-8.05811L486.437,560.647l3.002-1.57959h.00049s-2.39551,10.7793-3.002,13.50928h5.9248ZM517.168,610.49658s-.81836-20.56152-.86865-21.72461c-3.48877,7.1543-10.58643,21.72461-10.58643,21.72461h-8.68994l-3.00146-37.91943v-.00049h9.40088s1.15967,22.50244,1.18506,22.83105c.37891-.80615.67334-1.48389.71094-1.58008l10.34912-21.25049h8.61084s.79,22.23.79,22.35645c.25244-.45459,11.77051-22.35645,11.77051-22.35645h9.32178l-20.53955,37.91943Zm62.09424-23.62109-1.73828,7.8208a86.23307,86.23307,0,0,0-1.896,10.1123,10.18358,10.18358,0,0,0,.395,3.63379l.63184,2.05371H567.333l-.395-1.18457a11.23319,11.23319,0,0,1-.15771-1.896A28.09186,28.09186,0,0,1,561.645,610.022a22.2965,22.2965,0,0,1-7.26807,1.26416c-4.29736,0-7.47949-1.11865-9.40088-3.31738a8.39678,8.39678,0,0,1-2.13281-5.84619,12.73415,12.73415,0,0,1,.31592-2.686,13.16136,13.16136,0,0,1,2.44922-5.293,14.79224,14.79224,0,0,1,4.26563-3.792,18.98073,18.98073,0,0,1,5.13525-2.05371l5.60889-.94775a61.57643,61.57643,0,0,0,9.875-1.81738,4.63918,4.63918,0,0,1,.1582-.55273c.36621-1.62646.32031-2.84961-.0791-3.47607-.03076-.04053-.12451-.12354-.1582-.1582a4.103,4.103,0,0,0-.31592-.31592c-.95068-.75244-2.57227-1.106-4.74023-1.106a10.51117,10.51117,0,0,0-5.5293,1.18506,10.3109,10.3109,0,0,0-3.39746,4.26611h-9.55859l.86865-1.896a20.191,20.191,0,0,1,4.187-6.478,17.45613,17.45613,0,0,1,6.63623-3.87109,26.31355,26.31355,0,0,1,6.63574-1.26367v-.00049c.6665-.041,1.2832,0,1.9751,0a20.28259,20.28259,0,0,1,7.5835,1.106,8.38851,8.38851,0,0,1,4.26611,3.31787A9.07424,9.07424,0,0,1,580.21,581.1084Zm28.51855-4.89795a5.58267,5.58267,0,0,0-3.08057-.94775,5.23508,5.23508,0,0,0-2.84424.94775,7.01327,7.01327,0,0,0-2.291,2.60693,25.92808,25.92808,0,0,0-2.37012,6.478l-4.34473,19.43359h-9.16455l8.45361-37.91943h8.53174s-.21484,1.1499-.31592,1.57959c.4043-.30322.80566-.71973,1.18506-.94727a7.35162,7.35162,0,0,1,4.81836-1.34326,10.92448,10.92448,0,0,1,6.47852,2.13281l1.18506.86914-4.89844,8.05762Zm39.49951,9.875-.63184,2.76514H620.89453c-.05029.53076-.1582,1.09961-.1582,1.57959a7.72831,7.72831,0,0,0,1.26416,4.66113c.13037.17725.33105.39551.47412.55322.083.08838.22852.23389.31592.31592a6.59083,6.59083,0,0,0,4.582,1.58008,9.12643,9.12643,0,0,0,5.05615-1.501,13.59558,13.59558,0,0,0,4.10791-4.50293h9.875l-.94824,1.89551a21.89654,21.89654,0,0,1-7.7417,8.84863,20.94925,20.94925,0,0,1-11.45508,3.23828c-5.58691,0-9.6665-1.80664-12.24463-5.37158-2.55322-3.48877-3.15674-8.311-1.81738-14.37793,1.36523-6.16846,4.01025-11.09814,7.979-14.53613a20.70153,20.70153,0,0,1,12.166-5.13477c.55127-.042,1.09521,0,1.65869,0,5.15771,0,9.085,1.80713,11.61328,5.37207a14.47326,14.47326,0,0,1,2.44873,8.53223A28.90648,28.90648,0,0,1,647.28027,591.85254Zm-5.56006-60.36572,9.16357-41.39551,39.18359-176.95947h32.23193L685.80176,478.00391l-7.97949,36.02441h77.104c.80908,5.9126,1.75342,11.72021,2.76514,17.4585Zm132.48193-60.67187q-1.59229-14.66309-2.44873-28.99268c-4.0957-69.37549,4.96094-132.26465,23.5415-177.90723v.00049c-2.47754,37.811,4.854,93.19287,21.48779,154.68066q4.437,16.41138,9.71729,33.33838,3.29883,10.43115,6.79395,20.53955c-1.36523,2.00684-2.73975,4.002-4.0293,6.00439-20.75439,31.80664-32.88574,61.86572-35.94482,88.00488A541.88324,541.88324,0,0,1,774.20215,470.81494Zm425.5083-88.76465-13.40771,10.06006,16.71289,1.29492c9.52.73877,16.28955,3.68164,20.12012,8.75244,6.44824,8.52051,4.85449,23.5542-4.48779,42.33105-9.52588,19.1499-26.78857,41.27539-48.53076,62.229-8.10889,7.561-16.665,15.09375-25.43359,22.38867-9.89551,8.24316-20.05127,16.20313-30.188,23.66016a598.55752,598.55752,0,0,1-95.58643,57.85254c-13.99268,6.728-28.22217,12.74023-42.291,17.87109a347.862,347.862,0,0,1-51.96387,14.75537,240.20292,240.20292,0,0,1-27.042,3.77832H869.874c-.127-.01123-.248-.02832-.37451-.04h2.66211c-25.2041-2.19971-45.10254-11.04736-56.959-27.17529a57.43265,57.43265,0,0,1-5.6084-9.55908c-1.01172-2.47754-1.9624-4.97705-2.92334-7.50488a76.04319,76.04319,0,0,1-3.08105-26.46484c1.26416-26.49365,13.6958-58.00732,35.23389-91.00781,22.87842-35.07031,56.03613-71.82812,97.09033-105.938,9.20215-7.63965,18.7168-15.18359,28.67676-22.51562,12.31152-9.05713,24.71777-17.39941,37.12988-25.20068,45.73145-28.791,91.34912-48.937,131.77148-59.17041-38.62793,12.60205-82.02344,33.99561-124.89844,63.12061-1.542,1.0415-3.06494,2.10791-4.582,3.15967a558.08841,558.08841,0,0,0-64.14746,51.66553c-60.52051,56.90527-92.5083,115.87061-77.97266,150.41553a43.22109,43.22109,0,0,0,3.71289,6.79395c15.623,22.97949,54.34229,26.95166,103.41064,14.61475,3.33691-.834,6.67383-1.7793,10.11182-2.76465a399.1568,399.1568,0,0,0,49.4541-18.16992c4.12012-1.82031,8.28516-3.69092,12.48193-5.688.42969-.20215.834-.4043,1.26367-.63184,54.09912-26.87988,95.67481-57.80957,104.67432-76.39258,1.97168-4.04248,2.4458-7.48877,1.106-10.19092-6.42139-13.01953-51.35254-4.22412-105.78027,19.35449-4.373,1.89648-8.79736,3.84717-13.272,5.9248,3.64014-3.37939,7.4292-6.77246,11.29688-10.11182,6.16846-5.314,12.55469-10.50977,19.355-15.6416a386.29946,386.29946,0,0,1,31.99463-21.8042c49.59912-37.41943,74.67383-72.81592,69.44092-85.95166-.98633-2.4751-3.084-4.17725-6.32031-5.21387-10.33936-3.28906-29.21094.63672-52.13916,10.0332-18.90967,7.75586-40.62842,19.2583-62.647,33.57471l-3.002,1.9751-.55322.31592-10.58545,7.03125,6.083-11.13916c9.0249-16.52051,23.7251-33.75732,42.02734-49.76953a298.4645,298.4645,0,0,1,45.26709-32.39014c6.24365-3.65576,12.47852-7.05078,18.72266-10.11182,6.396-3.125,12.79492-5.90186,19.03857-8.374,5.16553-2.043,10.4751-4.23584,15.77734-6.35889,18.45068-5.96143,35.71338-9.06348,47.38477-9.92822H1234.958a54.52767,54.52767,0,0,1,13.60742,2.81738c8.5791,3.09424,14.50488,8.56445,17.13672,15.82715C1274.814,303.45166,1247.67627,346.05811,1199.71045,382.05029Z"/><path d="M632.98145,579.76514c-.07227.001-.08545-.002-.15771,0v.00049a10.21174,10.21174,0,0,0-6.24121,2.37012,12.18942,12.18942,0,0,0-3.23877,4.50244h15.48389c.02686-.27734.0791-.61621.0791-.86865a6.28359,6.28359,0,0,0-.71094-3.31836A5.61761,5.61761,0,0,0,632.98145,579.76514Z"/><polygon points="36.251 703.534 68.988 703.534 72.931 685.838 21.235 685.838 0 776.845 18.858 776.845 27.327 741.454 57.966 741.454 61.91 726.286 31.145 726.286 36.251 703.534"/><path d="M157.9209,711.11816c-23.15576,0-38.32373,20.42578-39.30957,40.09326-.85937,17.16455,8.03906,25.6333,26.3916,25.6333,7.05322,0,16.40674-.80908,24.06641-3.10937l-.60693-13.9541c-5.23291,2.55322-11.19873,1.896-18.15039,1.896-5.48584,0-9.73291-.96094-12.05859-2.83154a14.67877,14.67877,0,0,1-1.61768-7.28027c25.60791.68262,41.76172-5.23291,42.5708-21.41211C179.813,717.94336,170.88965,711.11816,157.9209,711.11816Zm-18.75732,25.2793c1.59277-5.2832,6.95166-10.11182,15.72412-10.11182,4.32275,0,6.7998,1.64307,6.64844,3.86768C161.23242,736.16992,153.80029,736.52393,139.16357,736.39746Z"/><path d="M115.376,711.11816c-8.77246,0-16.12842,6.168-21.03271,15.01611H93.8374c.7334-4.32275,1.36523-8.41846,1.8457-12.48828H79.42822c-.93555,5.2583-2.37646,15.54688-4.57568,24.82471l-9.25244,38.374H84.585L90.248,753.082c2.98291-12.86719,9.27734-24.26855,21.18408-24.26855a15.75139,15.75139,0,0,1,2.88184.65723l4.60107-18.22607C117.853,711.24463,116.69043,711.11816,115.376,711.11816Z"/></svg>