<svg xmlns="http://www.w3.org/2000/svg" viewBox="0 0 1232 1024"><title>lic-lgpl-v3</title><path d="M157.93018,711.11426c-23.15723,0-38.32568,20.42725-39.312,40.0957-.85937,17.166,8.03955,25.63477,26.39355,25.63477,7.05322,0,16.40723-.80859,24.06738-3.10937l-.60645-13.95508c-5.2334,2.55322-11.19971,1.896-18.15186,1.896-5.48633,0-9.7334-.96045-12.05908-2.83154a14.68,14.68,0,0,1-1.61816-7.28076c25.60986.68262,41.76416-5.2334,42.57324-21.41309C179.82373,717.94043,170.89941,711.11426,157.93018,711.11426Zm-18.7583,25.28125c1.59277-5.28369,6.95215-10.1123,15.72461-10.1123,4.32324,0,6.80078,1.64307,6.64893,3.86768C161.24219,736.168,153.80957,736.52148,139.17188,736.39551Z"/><path d="M224.97559,711.11426c-23.18262,0-38.35156,20.42725-39.3374,40.0957-.83447,17.166,8.06445,25.63477,26.39355,25.63477,7.07861,0,16.43262-.80859,24.09277-3.10937l-.63232-13.95508c-5.23291,2.55322-11.19922,1.896-18.12646,1.896-5.51123,0-9.73291-.96045-12.05908-2.83154a14.71118,14.71118,0,0,1-1.64307-7.28076c25.63477.68262,41.76416-5.2334,42.59863-21.41309C246.86865,717.94043,237.94434,711.11426,224.97559,711.11426Zm-18.78369,25.28125c1.61768-5.28369,6.95215-10.1123,15.72461-10.1123,4.32275,0,6.82568,1.64307,6.67432,3.86768C228.28711,736.168,220.85449,736.52148,206.19189,736.39551Z"/><path d="M115.38232,711.11426c-8.77246,0-16.12939,6.16895-21.03369,15.01709h-.50586c.7334-4.32324,1.36523-8.41846,1.8457-12.48877H79.43311c-.93555,5.2583-2.37646,15.54785-4.57617,24.82568L65.604,776.84473H84.59033l5.6626-23.76367c2.9834-12.86816,9.27832-24.27,21.18555-24.27a15.70752,15.70752,0,0,1,2.88232.65723l4.60107-18.22754C117.85986,711.24072,116.69727,711.11426,115.38232,711.11426Z"/><polygon points="427.476 776.845 446.311 776.845 461.605 713.643 442.872 713.643 427.476 776.845"/><path d="M572.85547,579.78418c-.07275.001-.08594-.002-.1582,0h.00049a10.21663,10.21663,0,0,0-6.2417,2.37061,12.19454,12.19454,0,0,0-3.23926,4.50244h15.48535c.02686-.27734.07813-.61572.07813-.86865a6.28476,6.28476,0,0,0-.71094-3.31836A5.61639,5.61639,0,0,0,572.85547,579.78418Z"/><polygon points="36.253 703.53 68.992 703.53 72.936 685.833 21.236 685.833 0 776.845 18.859 776.845 27.329 741.452 57.969 741.452 61.913 726.283 31.146 726.283 36.253 703.53"/><path d="M1217.49365,274.12256c-3.95215-10.8999-12.50293-18.9917-24.73437-23.40332a67.41071,67.41071,0,0,0-17.08838-3.54346l-15.79736-.02246-.45459.0166c-19.97656,1.44092-44.59668,7.55273-66.24316,16.19336H114.74219l-84.9668,383.644h735.8584c11.8042,6.87158,26.38428,11.18164,43.30127,12.65527l29.06055.02295.24463-.01855a252.91266,252.91266,0,0,0,28.73193-3.99316,360.14317,360.14317,0,0,0,53.86865-15.2876c14.45361-5.27,29.06934-11.44482,43.436-18.35254a611.09426,611.09426,0,0,0,97.61182-59.06934c10.3374-7.60205,20.69629-15.72168,30.78613-24.12744,8.94629-7.44336,17.68213-15.13428,26.04346-22.93066,23.1665-22.32617,40.85449-45.07031,51.1543-65.77588,11.76025-23.63916,12.88525-42.8623,3.25439-55.58789a32.37586,32.37586,0,0,0-15.13818-10.84619C1204.17383,345.68945,1227.88623,302.65186,1217.49365,274.12256Zm-632.42334,39.0127c7.8877,0,14.08789,1.49756,18.48682,4.50342,4.4248,3.02344,6.11816,6.93457,5.05615,11.69287L586.65039,428.561c-1.03613,4.72754-4.42773,8.58447-10.19189,11.61328-5.76416,3.03906-12.54883,4.582-20.46143,4.582H470.51416l-16.51221,74.501-2.686,12.24561h-32.2334l2.44873-11.06055,45.90186-207.30713ZM141.17627,588.791c-.48,2.19971-4.81885,21.72607-4.81885,21.72607h-9.55957l11.37646-51.11572h35.55225L171.751,568.25H145.75879c-.4043,1.79492-2.02539,9.06348-2.60693,11.69287H165.668l-1.9751,8.84814Zm47.166-6.79443a5.77609,5.77609,0,0,0-3.16016-.94775,4.9312,4.9312,0,0,0-2.76514.94775,6.97951,6.97951,0,0,0-2.37012,2.60742,24.94455,24.94455,0,0,0-2.37012,6.478l-4.2666,19.43506h-9.16406l8.45313-37.92187h8.53271s-.29395,1.1499-.395,1.58008c.4043-.30322.83105-.72021,1.18506-.94775a9.75928,9.75928,0,0,1,3.792-1.34326v-.00049a9.3901,9.3901,0,0,1,1.106,0,10.74548,10.74548,0,0,1,6.39941,2.13379l1.26416.86865-4.89844,8.05859Zm39.65967,9.87549-.71094,2.76563H201.53613c-.05078.53076-.07959,1.09961-.07959,1.58008a7.5591,7.5591,0,0,0,1.26416,4.66113,5.93825,5.93825,0,0,0,1.42188,1.42188,7.014,7.014,0,0,0,3.87109,1.02734,9.12685,9.12685,0,0,0,5.05664-1.501,13.33761,13.33761,0,0,0,4.1084-4.50342h9.79639l-.86914,1.896a21.70866,21.70866,0,0,1-7.74219,8.84863,20.94911,20.94911,0,0,1-11.45605,3.23926c-5.58691,0-9.74609-1.80762-12.32422-5.37256-2.55371-3.48877-3.104-8.311-1.73877-14.37842,1.36523-6.16895,4.08984-11.09863,8.05908-14.53711a20.41967,20.41967,0,0,1,12.0874-5.13525l.00049-.00049c.55127-.042,1.09521,0,1.65869,0,5.15771,0,9.06006,1.80762,11.61377,5.373a14.65258,14.65258,0,0,1,2.44873,8.53223A28.49569,28.49569,0,0,1,228.002,591.87207Zm-1.34473-64.04492H83.20947L133.15088,308.9082h29.37891L118.2959,503.03809H232.36475ZM269.16357,591.793l-.71094,2.84424H242.69678c-.02295.354-.05322.67334-.07812,1.02686-.01953.13281.00781.335,0,.47461-.001.02295,0,.05664,0,.07861,0,.37939.05322.75244.07813,1.106a6.831,6.831,0,0,0,1.186,3.55518c.12939.17725.25146.39551.39453.55322a6.40738,6.40738,0,0,0,4.89844,1.896,9.06062,9.06062,0,0,0,5.05615-1.501,13.32689,13.32689,0,0,0,4.10791-4.50342h9.876l-.94775,1.896a21.70725,21.70725,0,0,1-7.74316,8.84863,20.94547,20.94547,0,0,1-11.45508,3.23877c-5.5874,0-9.74609-1.80713-12.3252-5.37207a14.21387,14.21387,0,0,1-2.44922-8.61133c0-.53076.02686-1.10254.0791-1.65918a28.61071,28.61071,0,0,1,.63232-4.10791c1.36523-6.14355,4.00977-11.09863,7.979-14.53711a20.63894,20.63894,0,0,1,12.1665-5.13525h0c.55225-.042,1.09521,0,1.65967,0,5.15723,0,9.06006,1.80762,11.61328,5.373a14.65279,14.65279,0,0,1,2.44922,8.53223A27.80275,27.80275,0,0,1,269.16357,591.793Zm-13.61914-64.79346c-4.374-3.0083-6.03955-6.85059-4.97705-11.61377L291.728,329.33105c1.062-4.75781,4.374-8.66895,10.11279-11.69238.20215-.1084.42969-.13379.63184-.23682a43.08248,43.08248,0,0,1,18.48682-4.2666h0c.47363-.01123.94043,0,1.42188,0h93.4624q11.98242,0,18.56592,4.50342c4.37354,3.02344,6.01367,6.93457,4.97705,11.69287l-11.13965,50.3252H395.30273L406.126,330.67432H323.64551L293.86133,465.29785,283.1167,514.043h82.40137l.0791-.31641L382.1084,439.147H343.397l3.71289-16.82764h71.65723l-20.5415,93.06689a13.16719,13.16719,0,0,1-1.42187,3.71338c-1.69385,3.084-4.64893,5.72559-8.76953,7.8999q-8.5708,4.51245-20.541,4.50342h-93.3833Q262.12671,531.50293,255.54443,526.99951ZM341.76855,574.728l-.2373,1.18506h-9.24316l.07861-1.10547a7.27029,7.27029,0,0,0-.86865-5.05664,5.31343,5.31343,0,0,0-.395-.47363,5.10635,5.10635,0,0,0-.79-.63184,11.41074,11.41074,0,0,0-5.92529-1.26465c-3.46338,0-6.05176.604-7.82178,1.81738a6.95737,6.95737,0,0,0-3.16016,4.1084,3.04478,3.04478,0,0,0,.63232,2.92285c.01123.01172.064.06494.07813.07959.5127.43652,2.2915,1.46,7.82227,2.76514a53.22853,53.22853,0,0,1,10.19092,3.23926,12.0462,12.0462,0,0,1,5.84619,5.60889,12.28833,12.28833,0,0,1,.63232,7.82178,17.8276,17.8276,0,0,1-4.1875,7.82129,21.18819,21.18819,0,0,1-7.979,5.68848,26.99183,26.99183,0,0,1-10.271,2.05371,25.63522,25.63522,0,0,1-11.06006-2.05371,12.74145,12.74145,0,0,1-6.39941-6.55811,16.10057,16.10057,0,0,1-.79-9.55908l.23682-1.106h9.08545l-.0791,1.106a9.96807,9.96807,0,0,0,.55322,5.05615,6.13051,6.13051,0,0,0,3.16064,3.00244,14.51532,14.51532,0,0,0,6.32031,1.26416,17.38594,17.38594,0,0,0,6.00391-1.02686,10.59118,10.59118,0,0,0,4.1875-2.52881,7.00791,7.00791,0,0,0,1.81689-3.397,3.743,3.743,0,0,0-.23682-2.76514,5.77756,5.77756,0,0,0-2.92285-2.1333l-7.74268-2.291c-4.32324-1.0874-7.2334-2.124-8.92725-3.16064a11.069,11.069,0,0,1-4.81934-5.21387,11.24332,11.24332,0,0,1-.395-6.87354,16.73068,16.73068,0,0,1,3.87109-7.50488,19.41839,19.41839,0,0,1,7.74268-5.29346,27.1904,27.1904,0,0,1,8.69043-1.73779l-.00049-.00049c.31592-.01172.63086,0,.94824,0a22.6607,22.6607,0,0,1,9.63867,1.896,11.43638,11.43638,0,0,1,5.92529,5.84619A14.29294,14.29294,0,0,1,341.76855,574.728Zm39.97607,16.66992a29.12422,29.12422,0,0,1-4.58252,11.14014,21.77731,21.77731,0,0,1-17.30176,8.76855c-5.35937,0-9.35107-1.83252-11.92969-5.37207a14.1386,14.1386,0,0,1-2.52832-8.61133,27.124,27.124,0,0,1,.71191-6.083c1.5166-6.77588,4.61328-11.936,9.16406-15.248a21.3435,21.3435,0,0,1,10.98145-4.1084h0c.56445-.043,1.084,0,1.65918,0,5.2583,0,9.2998,1.7793,11.92969,5.29395Q383.75391,582.44824,381.74463,591.39795Zm20.69873-10.98145c-.50537,2.27588-6.71582,30.10059-6.71582,30.10059h-9.16406s5.95654-26.73779,6.71533-30.10059h-5.29346l1.73828-7.8208H394.938c.25293-1.08691.63184-2.44922.63184-2.44922a19.3209,19.3209,0,0,1,1.896-5.60937,11.92872,11.92872,0,0,1,4.34521-4.2666,13.24732,13.24732,0,0,1,5.60938-1.58008h0c.5-.03857.97021,0,1.50146,0l5.68848.63232,1.89551.15771-2.76465,7.03174-.55322,1.10547-4.34521-.395a4.99684,4.99684,0,0,0-2.84424.63232c-.04053.03076-.12012.125-.1582.1582a2.91139,2.91139,0,0,0-.31592.31592,7.46215,7.46215,0,0,0-1.18457,3.00244c-.00049,0-.16455.68213-.31641,1.26416h6.79443l-1.73828,7.8208Zm28.0459,0H424.564c-.48047,2.17432-4.26562,19.04053-4.26562,19.04053s-.31641,2.02539-.31641,2.60645c.00049.01953-.00146.06494,0,.0791.00146.00391-.002.07422,0,.0791h.0791l.94824.07861,4.34521-.31592-.47363,7.03125.0791,1.26416-6.24121.71094a10.12747,10.12747,0,0,1-5.60937-1.26416,5.59172,5.59172,0,0,1-2.52881-3.63379,6.02831,6.02831,0,0,1-.15771-1.26465,32.30257,32.30257,0,0,1,.94775-6.39941s3.32129-14.87793,4.0293-18.0127h-4.34521l1.73828-7.82129h4.34473c.40479-1.82031,1.81738-8.05908,1.81738-8.05908l7.34766-3.87109,3.002-1.57959v.00049s-2.39551,10.7793-3.002,13.50977H432.228Zm26.5459,30.10059s-.81836-20.563-.86914-21.72607c-3.48877,7.15479-10.58643,21.72607-10.58643,21.72607h-8.69043l-3.002-37.92187h9.40137s1.15967,22.50342,1.18506,22.832c.37891-.80566.67334-1.48389.71143-1.58008l10.34912-21.252h8.61133s.79,22.23193.79,22.35791c.25293-.45508,11.772-22.35791,11.772-22.35791h9.32227l-20.541,37.92188ZM519.13281,586.895l-1.73828,7.8208a86.12546,86.12546,0,0,0-1.896,10.11279,10.18506,10.18506,0,0,0,.395,3.63428l.63184,2.05371h-9.32227l-.395-1.18506a11.22754,11.22754,0,0,1-.1582-1.896,28.08491,28.08491,0,0,1-5.13525,2.60742,22.30665,22.30665,0,0,1-7.26807,1.26367c-4.29785,0-7.48-1.11865-9.40186-3.31738a8.39964,8.39964,0,0,1-2.13281-5.84668,12.73218,12.73218,0,0,1,.31641-2.686,13.16236,13.16236,0,0,1,2.44873-5.29346,14.77592,14.77592,0,0,1,4.2666-3.792,18.985,18.985,0,0,1,5.13477-2.0542l5.60986-.94775a61.57359,61.57359,0,0,0,9.87549-1.81738,4.68306,4.68306,0,0,1,.15771-.55273c.3667-1.627.3208-2.84961-.07861-3.47607-.03076-.04053-.125-.12354-.15771-.1582a4.19936,4.19936,0,0,0-.31641-.31592c-.95068-.75293-2.57227-1.106-4.74023-1.106a10.51625,10.51625,0,0,0-5.53027,1.18506,10.31476,10.31476,0,0,0-3.397,4.26611H486.7417l.86914-1.896a20.21248,20.21248,0,0,1,4.187-6.47852,17.44823,17.44823,0,0,1,6.63672-3.87109,26.32148,26.32148,0,0,1,6.63623-1.26465h-.001c.6665-.04053,1.28418,0,1.9751,0a20.30093,20.30093,0,0,1,7.585,1.106,8.39167,8.39167,0,0,1,4.26611,3.31836,9.076,9.076,0,0,1,1.18506,4.81934Zm28.52-4.89844a5.58185,5.58185,0,0,0-3.08105-.94775,5.23764,5.23764,0,0,0-2.84424.94775,7.01917,7.01917,0,0,0-2.291,2.60742,25.9395,25.9395,0,0,0-2.36963,6.478l-4.3457,19.43506h-9.16406l8.45313-37.92187H540.543s-.21484,1.1499-.31592,1.58008c.40479-.30322.80566-.72021,1.18506-.94775a9.31917,9.31917,0,0,1,3.71289-1.34326v-.00049a9.3901,9.3901,0,0,1,1.106,0,10.91863,10.91863,0,0,1,6.478,2.13379l1.18555.86865-4.89844,8.05859Zm39.50244,9.87549-.63184,2.76563H560.76807c-.05078.53076-.1582,1.09961-.1582,1.58008a7.726,7.726,0,0,0,1.26416,4.66113c.12988.17725.33057.39551.47363.55322.0835.08887.229.23389.31641.31592a6.59041,6.59041,0,0,0,4.58252,1.58008,9.12761,9.12761,0,0,0,5.05615-1.501,13.58773,13.58773,0,0,0,4.10791-4.50342h9.87549l-.94775,1.896a21.89147,21.89147,0,0,1-7.74268,8.84863,20.94745,20.94745,0,0,1-11.45557,3.23926c-5.58691,0-9.667-1.80762-12.24561-5.37256-2.55322-3.48877-3.15674-8.311-1.81689-14.37842,1.36523-6.16895,4.01025-11.09863,7.979-14.53711a20.7105,20.7105,0,0,1,12.167-5.13525v-.00049c.55127-.042,1.09473,0,1.65918,0,5.15723,0,9.08545,1.80762,11.61328,5.373a14.47,14.47,0,0,1,2.44922,8.53223A28.90678,28.90678,0,0,1,587.15527,591.87207Zm-5.56152-60.36865,9.165-41.39844,39.18555-176.96973h32.23389L625.67871,478.01709l-7.97949,36.02637h77.10791c.80908,5.91309,1.75391,11.7207,2.76514,17.46Zm132.49072-60.67578q-1.593-14.66455-2.44922-28.99414c-4.09619-69.37988,4.96143-132.27246,23.543-177.91748h0c-2.47705,37.813,4.85449,93.19824,21.48926,154.68994q4.43628,16.41284,9.71729,33.33984,3.29956,10.43262,6.79492,20.541c-1.36523,2.00732-2.74023,4.002-4.0293,6.00439-20.75635,31.80908-32.8877,61.87012-35.94727,88.01025A541.89113,541.89113,0,0,1,714.08447,470.82764Zm425.53272-88.76953-13.40967,10.06152,16.71533,1.29492c9.51953.73682,16.28906,3.68115,20.12158,8.75293,6.44873,8.51953,4.85449,23.55371-4.48828,42.33252-9.52637,19.14893-26.78857,41.2749-48.53369,62.23193-8.11182,7.56348-16.66846,15.0957-25.43506,22.39014-9.89893,8.24658-20.05664,16.20654-30.19141,23.66309a598.86472,598.86472,0,0,1-95.58887,57.85449c-14.00049,6.731-28.231,12.74365-42.29492,17.87158A347.73,347.73,0,0,1,864.5459,643.269a241.0488,241.0488,0,0,1-27.04395,3.77734H809.76172c-.12451-.01123-.24268-.02783-.36719-.03906h2.65479c-25.20557-2.19971-45.105-11.04834-56.96191-27.17725a57.40836,57.40836,0,0,1-5.60937-9.55957c-1.01123-2.47754-1.9624-4.97705-2.92285-7.50586a76.02564,76.02564,0,0,1-3.08105-26.46582c1.26367-26.49512,13.6958-58.01074,35.23584-91.01318,22.87939-35.07227,56.03906-71.832,97.09619-105.94434,9.20166-7.63965,18.71729-15.18408,28.67822-22.5166,12.312-9.05811,24.71875-17.40039,37.13184-25.20215,45.73389-28.793,91.354-48.93994,131.77881-59.17383-38.62939,12.60254-82.02832,33.99756-124.90576,63.124-1.542,1.0415-3.06543,2.1084-4.582,3.16016a558.009,558.009,0,0,0-64.15137,51.66846c-60.52344,56.90869-92.51367,115.877-77.97705,150.42432a43.17066,43.17066,0,0,0,3.71338,6.79443c15.623,22.98047,54.34521,26.95264,103.416,14.61572,3.3374-.83447,6.67383-1.7793,10.1123-2.76514a399.21853,399.21853,0,0,0,49.45654-18.1709c4.12061-1.82031,8.28613-3.69092,12.48291-5.68848.42969-.20215.834-.4043,1.26416-.63184,54.10156-26.88184,95.68018-57.8125,104.68018-76.397,1.97168-4.04248,2.4458-7.48926,1.106-10.19141-6.42139-13.02-51.356-4.22412-105.78662,19.356-4.37354,1.896-8.79785,3.84717-13.27246,5.92529,3.64014-3.37988,7.4292-6.77295,11.29736-10.11279,6.16846-5.314,12.55518-10.51074,19.356-15.64258a386.42249,386.42249,0,0,1,31.99658-21.80518c49.60205-37.42187,74.67773-72.8208,69.44434-85.95654-.98535-2.4751-3.084-4.17773-6.32031-5.21436-10.33984-3.28955-29.2124.63623-52.14258,10.03369-18.91016,7.75635-40.63037,19.25977-62.6499,33.57666l-3.00244,1.9751-.55322.31592L965.79053,387.874l6.083-11.14014c9.02588-16.521,23.72656-33.75879,42.03076-49.77246a298.49052,298.49052,0,0,1,45.269-32.3916c6.24463-3.65576,12.48-7.05127,18.72412-10.1123,6.396-3.125,12.7959-5.90234,19.04-8.375,5.16553-2.04248,10.47607-4.23584,15.77881-6.35889,18.45215-5.96191,35.71631-9.06445,47.3877-9.9292h14.76318a54.52,54.52,0,0,1,13.6084,2.81738c8.57959,3.09375,14.50391,8.56445,17.13769,15.82813C1214.72559,303.45459,1187.58643,346.064,1139.61719,382.05811Z"/><path d="M276.27051,756.165c-.68262,13.67725,6.72461,20.67969,18.25293,20.67969,7.458,0,15.87646-3.61523,22.42432-14.48584h.27783c-.50537,5.2334-1.1123,10.31494-1.44092,14.48584h17.292c.15186-8.01367,2.07324-20.60352,4.07031-28.87061l8.11523-34.33154c-5.15723-1.74463-13.19678-2.52832-20.93262-2.52832C292.93066,711.11426,277.35742,734.373,276.27051,756.165Zm43.8374-15.42139c-3.69141,16.07861-11.2251,20.93262-16.8374,20.93262-5.23291,0-7.5083-3.71631-7.20508-9.12646.60693-12.21045,10.26416-26.2666,22.44971-26.2666a19.60726,19.60726,0,0,0,4.95508-.708Z"/><path d="M213.624,579.78418c-.14648,0-.3291-.00781-.47412,0h0a10.01735,10.01735,0,0,0-6.00439,2.37061,11.65794,11.65794,0,0,0-3.23926,4.50244h15.564c.02686-.27734.0791-.61572.0791-.86865a6.538,6.538,0,0,0-.71143-3.31836A5.548,5.548,0,0,0,213.624,579.78418Z"/><path d="M467.57178,691.64795c.30322-6.16846-3.69141-8.34277-9.58154-8.34277-6.14355,0-11.75586,3.99463-12.08447,9.96094-.30322,6.0166,3.69092,12.792,9.17725,12.792C461.50391,706.05811,467.21777,700.749,467.57178,691.64795Z"/><path d="M931.30029,711.11426c-22.80322,0-39.16016,18.45508-40.29736,40.75293-.78418,16.23047,9.68262,24.97754,26.03906,24.97754,21.99463,0,38.958-16.66016,40.14648-39.33691C957.92139,722.49072,948.56738,711.11426,931.30029,711.11426Zm6.24463,26.54492c-.55615,11.124-7.33154,24.01709-17.54492,24.01709-6.42139,0-9.96094-4.09521-9.58154-10.21338.50537-10.18848,6.80078-25.17969,17.646-25.17969C935.54785,726.2832,937.84814,732.02148,937.54492,737.65918Z"/><path d="M1051.48633,711.11426c-8.39355,0-16.55908,3.792-22.75293,11.78125-.22754-5.76416-4.34863-11.78125-14.562-11.78125-8.2666,0-16.1543,3.7417-22.47461,12.21094h-.25293l1.69385-9.68262H976.90723c-1.06152,5.41016-2.35107,11.958-4.32275,19.59277l-10.16309,43.60938h18.20215l6.82617-28.87061c2.85645-12.86816,9.98584-21.69092,16.38184-21.69092,4.60107,0,5.86523,3.3623,5.6377,7.76123a51.33224,51.33224,0,0,1-1.16309,7.35645l-8.44385,35.44385h18.20264l6.82568-28.99707c3.13477-13.27246,9.85938-21.56445,16.12939-21.56445,4.32275,0,6.11767,3.084,5.91553,7.48291a41.022,41.022,0,0,1-1.31445,7.91309l-8.19092,35.16553h18.32861l8.82324-37.44092a94.69788,94.69788,0,0,0,1.59229-11.27539C1066.73047,717.00488,1061.29541,711.11426,1051.48633,711.11426Z"/><path d="M355.29883,733.0835c-.4043,8.19092,5.48584,13.70215,12.61523,17.44385,5.76416,2.958,7.73584,5.2334,7.584,8.44385-.17676,3.23584-3.05859,2.70508-8.292,2.70508a118.63755,118.63755,0,0,1-16.53369-1.36523l-5.23291,13.55078c3.64014,2.83154,11.2749,2.85693,19.23877,2.98291,17.01416.12646,29.85645-7.30615,30.61523-20.958.42969-9.10107-6.62354-14.48584-13.52539-18.10107-4.98047-2.40137-7.4834-4.70215-7.35693-7.38184.17676-3.61523,3.56445-4.12061,8.54492-4.12061a66.92614,66.92614,0,0,1,12.69141,1.188l5.10645-13.70215c-2.90723-1.74463-8.72168-2.65479-16.17969-2.65479C368.06543,711.11426,355.98145,719.83643,355.29883,733.0835Z"/><path d="M516.541,712.85889c-8.39355,0-16.55908,3.89307-23.00586,12.33691h-.25293l1.71924-11.55322H478.3667c-1.0874,5.41016-2.47754,11.958-4.44971,19.59277l-10.31445,43.60938h18.85938l6.67432-28.46631c3.46338-14.48584,10.92139-19.56738,17.06494-19.56738,4.85352,0,6.26953,2.07324,6.042,5.08154a45.22691,45.22691,0,0,1-1.01123,7.25586l-8.49463,35.69629h18.85986l8.94922-37.44092a85.45687,85.45687,0,0,0,1.59277-10.99707C532.69531,717.00488,527.00732,712.85889,516.541,712.85889Z"/><path d="M874.03906,683.30518l-7.104,28.71924c-2.57861-1.06152-5.94092-.91016-8.57031-.91016-24.21924,0-41.35937,20.73047-42.49707,43.18018-.7583,15.82568,7.68506,22.55029,18.55615,22.55029,7.60938,0,15.62354-3.3623,21.69092-12.05859h.25293l-1.44092,12.05859h17.14063a226.66321,226.66321,0,0,1,4.27246-24.85107l16.40723-68.68848ZM859.2749,745.0415c-2.958,12.46338-9.93506,16.63477-15.44678,16.63477-5.48584,0-8.54492-3.81738-8.16553-10.61768.63184-12.59033,9.27832-24.77539,20.52832-24.77539a18.91248,18.91248,0,0,1,7.35645,1.188Z"/><path d="M788.58936,711.11426c-23.18262,0-38.35107,20.42725-39.3374,40.0957-.834,17.166,8.06494,25.63477,26.39355,25.63477,7.07861,0,16.43262-.80859,24.09277-3.10937l-.63184-13.95508c-5.2334,2.55322-11.19971,1.896-18.12646,1.896-5.51123,0-9.7334-.96045-12.05908-2.83154a14.71179,14.71179,0,0,1-1.64355-7.28076c25.63525.68262,41.76416-5.2334,42.59863-21.41309C810.48291,717.94043,801.55859,711.11426,788.58936,711.11426Zm-18.78369,25.28125c1.61816-5.28369,6.95215-10.1123,15.72461-10.1123,4.32324,0,6.82617,1.64307,6.67432,3.86768C791.90137,736.168,784.46875,736.52148,769.80566,736.39551Z"/><polygon points="599.867 703.53 632.606 703.53 636.55 685.833 584.85 685.833 563.614 776.845 582.474 776.845 590.968 741.452 621.583 741.452 625.527 726.283 594.76 726.283 599.867 703.53"/><path d="M678.99658,711.11426c-8.77295,0-16.12939,6.16895-21.03369,15.01709H657.457c.73291-4.32324,1.36523-8.41846,1.8457-12.48877H643.04688c-.91016,5.2583-2.37646,15.54785-4.57617,24.82568l-9.25244,38.37646H648.2041l5.66309-23.76367c2.98291-12.86816,9.27832-24.27,21.18555-24.27a15.71111,15.71111,0,0,1,2.88184.65723l4.60107-18.22754C681.47412,711.24072,680.311,711.11426,678.99658,711.11426Z"/><polygon points="508.467 593.768 508.467 593.768 508.467 593.768 508.467 593.768"/><polygon points="114.741 263.363 114.742 263.363 114.742 263.363 114.741 263.363"/><path d="M495.66846,596.37549a5.63026,5.63026,0,0,0-2.13281,1.501,4.66393,4.66393,0,0,0-1.106,2.0542,5.51412,5.51412,0,0,0-.0791.86914c0,.019-.00049.05859,0,.07861.00293.06006-.00781.1792,0,.23682a3.21264,3.21264,0,0,0,.0791.395c.01172.03467.06592.124.07861.1582.02686.06787.04443.17188.07861.23682.03467.06445.11572.17578.1582.23682a3.503,3.503,0,0,0,.23682.31592c.63232.708,1.89307,1.02734,3.71338,1.02734a12.56575,12.56575,0,0,0,5.688-1.26416,11.061,11.061,0,0,0,4.1875-3.63428,14.74892,14.74892,0,0,0,1.896-4.81885,59.373,59.373,0,0,1-7.74219,1.501A26.7242,26.7242,0,0,0,495.66846,596.37549Z"/><path d="M721.54443,711.11426c-23.15771,0-38.32617,20.42725-39.312,40.0957-.85937,17.166,8.06445,25.63477,26.39355,25.63477,7.05322,0,16.43262-.80859,24.06738-3.10937l-.60693-13.95508c-5.23291,2.55322-11.19922,1.896-18.15186,1.896-5.48584,0-9.73291-.96045-12.05908-2.83154a14.67944,14.67944,0,0,1-1.61768-7.28076c25.60938.68262,41.76416-5.2334,42.57324-21.41309C743.4375,717.94043,734.51367,711.11426,721.54443,711.11426Zm-18.75879,25.28125c1.59277-5.28369,6.95264-10.1123,15.7251-10.1123,4.32275,0,6.80029,1.64307,6.64893,3.86768C724.856,736.168,717.42334,736.52148,702.78564,736.39551Z"/><path d="M366.8916,579.94238a10.09986,10.09986,0,0,0-1.18506,0h0a10.49061,10.49061,0,0,0-5.84619,2.84375c-2.17432,1.97217-3.75049,5.06934-4.66113,9.165a20.91147,20.91147,0,0,0-.55273,4.50293,7.77429,7.77429,0,0,0,1.02686,4.26611,7.0943,7.0943,0,0,0,.63135.79,6.13428,6.13428,0,0,0,4.66162,1.81738,9.96117,9.96117,0,0,0,6.95264-2.92334c2.17432-1.99707,3.72559-5.126,4.66113-9.32275.85938-3.84229.73975-6.71191-.47412-8.53223A5.74958,5.74958,0,0,0,366.8916,579.94238Z"/><polygon points="576.064 330.674 495.796 330.674 474.386 427.217 554.733 427.217 576.064 330.674"/><path d="M259.209,581.44336a5.8489,5.8489,0,0,0-4.4248-1.65918c-.14648,0-.32861-.00781-.47363,0h.00049a10.01735,10.01735,0,0,0-6.00439,2.37061,11.91472,11.91472,0,0,0-3.23926,4.50244h15.564c.02295-.27734.07861-.61572.07861-.86865a6.28476,6.28476,0,0,0-.71094-3.31836A6.35067,6.35067,0,0,0,259.209,581.44336Z"/></svg>