<svg xmlns="http://www.w3.org/2000/svg" viewBox="0 0 1232 1024" role="img"><path d="M157.93 711.114c-23.157 0-38.325 20.428-39.312 40.096-.86 17.166 8.04 25.635 26.394 25.635 7.053 0 16.407-.809 24.067-3.11l-.606-13.955c-5.234 2.553-11.2 1.896-18.152 1.896-5.487 0-9.734-.96-12.06-2.831a14.68 14.68 0 01-1.617-7.281c25.61.683 41.764-5.233 42.573-21.413.607-12.21-8.318-19.037-21.287-19.037zm-18.758 25.282c1.593-5.284 6.952-10.113 15.724-10.113 4.324 0 6.801 1.643 6.65 3.868-.304 6.017-7.736 6.37-22.374 6.245zm85.804-25.282c-23.183 0-38.352 20.428-39.338 40.096-.834 17.166 8.065 25.635 26.394 25.635 7.078 0 16.432-.809 24.093-3.11l-.633-13.955c-5.233 2.553-11.199 1.896-18.126 1.896-5.512 0-9.733-.96-12.06-2.831a14.711 14.711 0 01-1.642-7.281c25.634.683 41.764-5.233 42.598-21.413.607-12.21-8.318-19.037-21.286-19.037zm-18.784 25.282c1.618-5.284 6.952-10.113 15.725-10.113 4.322 0 6.825 1.643 6.674 3.868-.304 6.017-7.737 6.37-22.4 6.245zm-90.81-25.282c-8.772 0-16.13 6.17-21.033 15.017h-.506c.733-4.323 1.365-8.418 1.845-12.488H79.433c-.935 5.258-2.376 15.547-4.576 24.825l-9.253 38.377H84.59l5.663-23.764c2.983-12.868 9.278-24.27 21.185-24.27a15.708 15.708 0 012.883.657l4.6-18.227c-1.061 0-2.224-.127-3.539-.127zm312.094 65.731h18.835l15.294-63.202h-18.733l-15.396 63.202zm145.379-197.061c-.072.001-.085-.002-.158 0a10.217 10.217 0 00-6.24 2.37 12.195 12.195 0 00-3.24 4.503h15.485c.027-.277.078-.615.078-.868a6.285 6.285 0 00-.71-3.319 5.616 5.616 0 00-5.215-2.686zM36.253 703.53h32.739l3.944-17.697h-51.7L0 776.845h18.859l8.47-35.393h30.64l3.944-15.169H31.146l5.107-22.753z"/><path d="M1217.494 274.123c-3.953-10.9-12.503-18.992-24.735-23.404a67.41 67.41 0 00-17.088-3.543l-15.797-.023-.455.017c-19.977 1.44-44.597 7.553-66.243 16.193H114.742L29.775 647.007h735.859c11.804 6.872 26.384 11.182 43.301 12.656l29.06.022.245-.018a252.913 252.913 0 0028.732-3.993 360.143 360.143 0 0053.869-15.288c14.453-5.27 29.07-11.445 43.436-18.352a611.094 611.094 0 0097.612-59.07 649.53 649.53 0 0030.786-24.127 616.151 616.151 0 0026.043-22.93c23.167-22.327 40.855-45.071 51.155-65.777 11.76-23.639 12.885-42.862 3.254-55.588a32.376 32.376 0 00-15.138-10.846c46.185-38.007 69.897-81.044 59.505-109.573zM585.07 313.135c7.888 0 14.088 1.498 18.487 4.504 4.425 3.023 6.118 6.934 5.056 11.693L586.65 428.56c-1.036 4.728-4.427 8.584-10.191 11.613-5.765 3.04-12.55 4.582-20.462 4.582h-85.483l-16.512 74.501-2.686 12.246h-32.233l2.448-11.06 45.902-207.308zM141.176 588.791c-.48 2.2-4.819 21.726-4.819 21.726h-9.56l11.377-51.116h35.553l-1.976 8.849h-25.992a5550.51 5550.51 0 00-2.607 11.693h22.516l-1.975 8.848zm47.166-6.794a5.776 5.776 0 00-3.16-.948 4.931 4.931 0 00-2.765.948 6.98 6.98 0 00-2.37 2.607 24.945 24.945 0 00-2.37 6.478l-4.267 19.435h-9.164l8.453-37.922h8.533s-.294 1.15-.395 1.58c.404-.303.831-.72 1.185-.947a9.76 9.76 0 013.792-1.344 9.39 9.39 0 011.106 0 10.745 10.745 0 016.4 2.134l1.264.868-4.899 8.059zm39.66 9.875l-.711 2.766h-25.755c-.05.53-.08 1.1-.08 1.58a7.56 7.56 0 001.265 4.66 5.938 5.938 0 001.422 1.423 7.014 7.014 0 003.87 1.027 9.127 9.127 0 005.057-1.5 13.338 13.338 0 004.109-4.504h9.796l-.869 1.896a21.709 21.709 0 01-7.742 8.848 20.95 20.95 0 01-11.456 3.24c-5.587 0-9.746-1.808-12.324-5.373-2.554-3.489-3.104-8.311-1.74-14.378 1.366-6.17 4.09-11.099 8.06-14.538a20.42 20.42 0 0112.087-5.135c.552-.042 1.096 0 1.66 0 5.157 0 9.06 1.807 11.613 5.373a14.653 14.653 0 012.449 8.532 28.496 28.496 0 01-.711 6.083zm-1.345-64.045H83.21l49.942-218.919h29.379l-44.234 194.13h114.069zm42.507 63.966l-.711 2.844h-25.756c-.023.354-.053.674-.078 1.027-.02.133.007.335 0 .475v.078c0 .38.053.753.078 1.106a6.831 6.831 0 001.186 3.556c.13.177.251.395.394.553a6.407 6.407 0 004.899 1.896 9.06 9.06 0 005.056-1.501 13.327 13.327 0 004.108-4.504h9.876l-.948 1.896a21.707 21.707 0 01-7.743 8.849 20.945 20.945 0 01-11.455 3.239c-5.588 0-9.746-1.807-12.325-5.372a14.214 14.214 0 01-2.45-8.612c0-.53.027-1.102.08-1.659a28.61 28.61 0 01.632-4.108c1.365-6.143 4.01-11.098 7.979-14.537a20.639 20.639 0 0112.166-5.135c.553-.042 1.096 0 1.66 0 5.157 0 9.06 1.807 11.613 5.373a14.653 14.653 0 012.45 8.532 27.803 27.803 0 01-.711 6.004zM255.544 527c-4.374-3.009-6.04-6.851-4.977-11.614l41.161-186.055c1.062-4.758 4.374-8.669 10.113-11.692.202-.109.43-.134.632-.237a43.082 43.082 0 0118.486-4.267c.474-.011.94 0 1.422 0h93.463q11.982 0 18.566 4.504c4.373 3.023 6.013 6.934 4.977 11.693l-11.14 50.325h-32.944l10.823-48.983h-82.48L293.86 465.298l-10.744 48.745h82.401l.08-.316 16.51-74.58h-38.711l3.713-16.828h71.657l-20.541 93.067a13.167 13.167 0 01-1.422 3.714c-1.694 3.084-4.65 5.725-8.77 7.9q-8.57 4.512-20.54 4.503H274.11q-11.983 0-18.566-4.503zm86.225 47.728l-.238 1.185h-9.243l.079-1.105a7.27 7.27 0 00-.869-5.057 5.313 5.313 0 00-.395-.474 5.106 5.106 0 00-.79-.632 11.41 11.41 0 00-5.925-1.264c-3.464 0-6.052.604-7.822 1.817a6.957 6.957 0 00-3.16 4.109 3.045 3.045 0 00.632 2.922l.078.08c.513.437 2.292 1.46 7.823 2.765a53.229 53.229 0 0110.19 3.24 12.046 12.046 0 015.847 5.608 12.288 12.288 0 01.632 7.822 17.828 17.828 0 01-4.188 7.821 21.188 21.188 0 01-7.979 5.689 26.992 26.992 0 01-10.27 2.054 25.635 25.635 0 01-11.06-2.054 12.741 12.741 0 01-6.4-6.558 16.1 16.1 0 01-.79-9.56l.237-1.105h9.085l-.079 1.106a9.968 9.968 0 00.553 5.056 6.13 6.13 0 003.161 3.002 14.515 14.515 0 006.32 1.264 17.386 17.386 0 006.004-1.026 10.591 10.591 0 004.188-2.53 7.008 7.008 0 001.817-3.396 3.743 3.743 0 00-.237-2.765 5.778 5.778 0 00-2.923-2.134l-7.743-2.29c-4.323-1.088-7.233-2.125-8.927-3.161a11.069 11.069 0 01-4.82-5.214 11.243 11.243 0 01-.394-6.874 16.73 16.73 0 013.87-7.505 19.418 19.418 0 017.743-5.293 27.19 27.19 0 018.69-1.738c.316-.012.631 0 .949 0a22.66 22.66 0 019.638 1.896 11.436 11.436 0 015.926 5.846 14.293 14.293 0 01.79 8.453zm39.976 16.67a29.124 29.124 0 01-4.583 11.14 21.777 21.777 0 01-17.302 8.769c-5.359 0-9.35-1.833-11.93-5.372a14.139 14.139 0 01-2.528-8.612 27.124 27.124 0 01.712-6.083c1.517-6.776 4.614-11.936 9.164-15.248a21.343 21.343 0 0110.982-4.108c.564-.043 1.084 0 1.659 0 5.258 0 9.3 1.78 11.93 5.294q3.905 5.27 1.896 14.22zm20.698-10.982c-.505 2.276-6.715 30.101-6.715 30.101h-9.165s5.957-26.738 6.716-30.1h-5.294l1.739-7.821h5.214c.253-1.087.632-2.45.632-2.45a19.32 19.32 0 011.896-5.609 11.929 11.929 0 014.345-4.267 13.247 13.247 0 015.61-1.58c.5-.038.97 0 1.5 0l5.69.633 1.895.157-2.765 7.032-.553 1.106-4.345-.395a4.997 4.997 0 00-2.844.632c-.041.03-.12.125-.159.158a2.911 2.911 0 00-.316.316 7.462 7.462 0 00-1.184 3.003s-.165.682-.317 1.264h6.795l-1.738 7.82zm28.046 0h-5.925c-.48 2.175-4.266 19.041-4.266 19.041s-.316 2.025-.316 2.606v.08c.001.003-.002.074 0 .079h.08l.947.078 4.346-.316-.474 7.032.079 1.264-6.241.71a10.127 10.127 0 01-5.61-1.263 5.592 5.592 0 01-2.528-3.634 6.028 6.028 0 01-.158-1.265 32.303 32.303 0 01.948-6.4s3.32-14.877 4.029-18.012h-4.345l1.738-7.821h4.345c.405-1.82 1.817-8.06 1.817-8.06l7.348-3.87 3.002-1.58-3.002 13.51h5.925zm26.546 30.101s-.818-20.563-.869-21.726c-3.489 7.155-10.586 21.726-10.586 21.726h-8.69l-3.003-37.922h9.402s1.16 22.504 1.185 22.832a45.39 45.39 0 00.711-1.58l10.35-21.252h8.61s.79 22.232.79 22.358c.253-.455 11.772-22.358 11.772-22.358h9.323l-20.541 37.922zm62.098-23.622l-1.738 7.82a86.125 86.125 0 00-1.896 10.114 10.185 10.185 0 00.395 3.634l.631 2.054h-9.322l-.395-1.185a11.228 11.228 0 01-.158-1.896 28.085 28.085 0 01-5.135 2.607 22.307 22.307 0 01-7.268 1.264c-4.298 0-7.48-1.119-9.402-3.318a8.4 8.4 0 01-2.133-5.846 12.732 12.732 0 01.316-2.686 13.162 13.162 0 012.449-5.294 14.776 14.776 0 014.267-3.792 18.985 18.985 0 015.134-2.054l5.61-.948a61.574 61.574 0 009.876-1.817 4.683 4.683 0 01.157-.553c.367-1.627.321-2.85-.078-3.476-.03-.04-.125-.124-.158-.158a4.2 4.2 0 00-.316-.316c-.95-.753-2.573-1.106-4.74-1.106a10.516 10.516 0 00-5.53 1.185 10.315 10.315 0 00-3.398 4.266h-9.56l.87-1.896a20.212 20.212 0 014.187-6.479 17.448 17.448 0 016.637-3.87 26.321 26.321 0 016.636-1.265h-.001c.666-.04 1.284 0 1.975 0a20.3 20.3 0 017.585 1.106 8.392 8.392 0 014.266 3.318 9.076 9.076 0 011.185 4.82zm28.52-4.898a5.582 5.582 0 00-3.081-.948 5.238 5.238 0 00-2.844.948 7.02 7.02 0 00-2.291 2.607 25.94 25.94 0 00-2.37 6.478l-4.346 19.435h-9.164l8.453-37.922h8.533s-.215 1.15-.316 1.58c.405-.303.806-.72 1.185-.948a9.32 9.32 0 013.713-1.343 9.39 9.39 0 011.106 0 10.919 10.919 0 016.478 2.134l1.186.868-4.899 8.059zm39.502 9.875l-.632 2.766h-25.755c-.05.53-.158 1.1-.158 1.58a7.726 7.726 0 001.264 4.66c.13.178.33.396.474.554.083.089.229.234.316.316a6.59 6.59 0 004.583 1.58 9.128 9.128 0 005.056-1.5 13.588 13.588 0 004.108-4.504h9.875l-.948 1.896a21.891 21.891 0 01-7.742 8.848 20.947 20.947 0 01-11.456 3.24c-5.587 0-9.667-1.808-12.245-5.373-2.554-3.489-3.157-8.311-1.817-14.378 1.365-6.17 4.01-11.099 7.979-14.538a20.71 20.71 0 0112.167-5.135c.55-.042 1.094 0 1.659 0 5.157 0 9.085 1.807 11.613 5.373a14.47 14.47 0 012.45 8.532 28.907 28.907 0 01-.79 6.083zm-5.561-60.369l9.165-41.398 39.185-176.97h32.234l-36.5 164.882-7.979 36.026h77.108c.81 5.914 1.754 11.721 2.765 17.46zm132.49-60.675q-1.593-14.665-2.449-28.995c-4.096-69.38 4.962-132.272 23.543-177.917-2.477 37.813 4.855 93.198 21.49 154.69q4.436 16.413 9.717 33.34 3.3 10.432 6.795 20.54c-1.366 2.008-2.74 4.003-4.03 6.005-20.756 31.81-32.887 61.87-35.947 88.01a541.891 541.891 0 01-19.119-95.673zm425.533-88.77l-13.41 10.062 16.716 1.295c9.52.736 16.289 3.68 20.121 8.752 6.45 8.52 4.855 23.554-4.488 42.333-9.526 19.149-26.788 41.275-48.534 62.232a603.242 603.242 0 01-25.435 22.39 639.372 639.372 0 01-30.191 23.663 598.865 598.865 0 01-95.589 57.855c-14 6.73-28.23 12.743-42.295 17.871a347.73 347.73 0 01-51.966 14.758 241.049 241.049 0 01-27.044 3.777h-27.74c-.125-.01-.243-.027-.367-.039h2.654c-25.205-2.2-45.105-11.048-56.962-27.177a57.408 57.408 0 01-5.609-9.56c-1.011-2.477-1.962-4.977-2.923-7.505a76.026 76.026 0 01-3.08-26.466c1.263-26.495 13.695-58.011 35.235-91.013 22.88-35.073 56.039-71.832 97.096-105.945 9.202-7.64 18.717-15.184 28.678-22.516 12.312-9.058 24.72-17.4 37.132-25.202 45.734-28.793 91.354-48.94 131.779-59.174-38.63 12.602-82.028 33.997-124.906 63.124-1.542 1.041-3.065 2.108-4.582 3.16a558.009 558.009 0 00-64.151 51.668c-60.524 56.909-92.514 115.877-77.977 150.425a43.17 43.17 0 003.713 6.794c15.623 22.98 54.345 26.953 103.416 14.616 3.338-.835 6.674-1.78 10.113-2.765a399.219 399.219 0 0049.456-18.171c4.12-1.82 8.286-3.691 12.483-5.689.43-.202.834-.404 1.264-.632 54.102-26.881 95.68-57.812 104.68-76.397 1.972-4.042 2.446-7.489 1.106-10.191-6.421-13.02-51.356-4.224-105.786 19.356-4.374 1.896-8.798 3.847-13.273 5.925a421.27 421.27 0 0111.298-10.112 382.966 382.966 0 0119.356-15.643 386.422 386.422 0 0131.996-21.805c49.602-37.422 74.678-72.821 69.445-85.957-.986-2.475-3.084-4.178-6.32-5.214-10.34-3.29-29.213.636-52.143 10.034-18.91 7.756-40.63 19.26-62.65 33.576l-3.003 1.975-.553.316-10.586 7.032 6.083-11.14c9.025-16.521 23.726-33.759 42.03-49.773a298.49 298.49 0 0145.27-32.391c6.244-3.656 12.48-7.051 18.723-10.112 6.396-3.125 12.796-5.903 19.04-8.375 5.166-2.043 10.476-4.236 15.78-6.36 18.451-5.961 35.716-9.064 47.387-9.929h14.763a54.52 54.52 0 0113.608 2.818c8.58 3.094 14.504 8.564 17.138 15.828 9.113 25.015-18.027 67.624-65.996 103.618zM276.27 756.165c-.682 13.677 6.725 20.68 18.253 20.68 7.458 0 15.877-3.616 22.425-14.486h.278c-.506 5.233-1.113 10.315-1.441 14.486h17.292c.152-8.014 2.073-20.604 4.07-28.87l8.115-34.332c-5.157-1.745-13.197-2.529-20.932-2.529-31.4 0-46.973 23.259-48.06 45.051zm43.838-15.421c-3.692 16.078-11.225 20.932-16.837 20.932-5.233 0-7.509-3.716-7.206-9.126.607-12.21 10.265-26.267 22.45-26.267a19.607 19.607 0 004.955-.708z"/><path d="M213.624 579.784c-.146 0-.33-.008-.474 0a10.017 10.017 0 00-6.005 2.37 11.658 11.658 0 00-3.239 4.503h15.564c.027-.277.08-.615.08-.868a6.538 6.538 0 00-.712-3.319 5.548 5.548 0 00-5.214-2.686zm253.948 111.864c.303-6.169-3.692-8.343-9.582-8.343-6.143 0-11.756 3.995-12.084 9.961-.303 6.017 3.69 12.792 9.177 12.792 6.42 0 12.135-5.309 12.489-14.41zM931.3 711.114c-22.803 0-39.16 18.455-40.297 40.753-.784 16.23 9.683 24.978 26.039 24.978 21.995 0 38.958-16.66 40.146-39.337.733-15.017-8.62-26.394-25.888-26.394zm6.245 26.545c-.556 11.124-7.332 24.017-17.545 24.017-6.421 0-9.96-4.095-9.582-10.213.506-10.189 6.801-25.18 17.646-25.18 7.484 0 9.784 5.738 9.48 11.376zm113.941-26.545c-8.393 0-16.559 3.792-22.753 11.782-.227-5.765-4.348-11.782-14.562-11.782-8.266 0-16.154 3.742-22.474 12.211h-.253l1.694-9.682h-16.23c-1.062 5.41-2.352 11.958-4.324 19.592l-10.163 43.61h18.203l6.826-28.87c2.856-12.869 9.986-21.692 16.382-21.692 4.6 0 5.865 3.362 5.637 7.761a51.332 51.332 0 01-1.163 7.357l-8.444 35.444h18.203l6.826-28.997c3.134-13.273 9.859-21.565 16.129-21.565 4.323 0 6.118 3.084 5.916 7.483a41.022 41.022 0 01-1.315 7.913l-8.19 35.166h18.328l8.823-37.441a94.698 94.698 0 001.592-11.276c.556-11.123-4.879-17.014-14.688-17.014zm-696.187 21.969c-.404 8.191 5.486 13.703 12.615 17.444 5.764 2.958 7.736 5.234 7.584 8.444-.177 3.236-3.059 2.705-8.292 2.705a118.638 118.638 0 01-16.534-1.365l-5.233 13.55c3.64 2.832 11.275 2.858 19.24 2.984 17.013.126 29.856-7.306 30.614-20.958.43-9.101-6.623-14.486-13.525-18.101-4.98-2.402-7.483-4.702-7.357-7.382.177-3.615 3.565-4.12 8.545-4.12a66.926 66.926 0 0112.691 1.187l5.107-13.702c-2.907-1.745-8.722-2.655-16.18-2.655-16.509 0-28.593 8.722-29.275 21.97zm161.242-20.224c-8.394 0-16.56 3.893-23.006 12.337h-.253l1.72-11.553h-16.635c-1.088 5.41-2.478 11.958-4.45 19.592l-10.314 43.61h18.859l6.674-28.467c3.464-14.485 10.922-19.567 17.065-19.567 4.854 0 6.27 2.073 6.042 5.082a45.227 45.227 0 01-1.011 7.255l-8.495 35.697h18.86l8.95-37.441a85.457 85.457 0 001.592-10.997c.556-11.402-5.132-15.548-15.598-15.548zm357.499-29.554l-7.105 28.72c-2.579-1.062-5.94-.91-8.57-.91-24.22 0-41.36 20.73-42.497 43.18-.759 15.825 7.685 22.55 18.556 22.55 7.61 0 15.623-3.363 21.69-12.059h.254l-1.441 12.059h17.14a226.663 226.663 0 014.273-24.851l16.407-68.689zm-14.765 61.737c-2.958 12.463-9.935 16.634-15.447 16.634-5.486 0-8.545-3.817-8.165-10.617.631-12.59 9.278-24.776 20.528-24.776a18.912 18.912 0 017.356 1.188zm-70.685-33.928c-23.183 0-38.352 20.428-39.338 40.096-.834 17.166 8.065 25.635 26.394 25.635 7.078 0 16.432-.809 24.092-3.11l-.632-13.955c-5.233 2.553-11.2 1.896-18.126 1.896-5.511 0-9.733-.96-12.06-2.831a14.712 14.712 0 01-1.643-7.281c25.636.683 41.765-5.233 42.599-21.413.607-12.21-8.317-19.037-21.287-19.037zm-18.784 25.282c1.618-5.284 6.952-10.113 15.724-10.113 4.324 0 6.826 1.643 6.675 3.868-.304 6.017-7.736 6.37-22.4 6.245zM599.867 703.53h32.739l3.944-17.697h-51.7l-21.236 91.012h18.86l8.494-35.393h30.615l3.944-15.169H594.76l5.107-22.753zm79.13 7.584c-8.773 0-16.13 6.17-21.034 15.017h-.506c.733-4.323 1.365-8.418 1.846-12.488h-16.256c-.91 5.258-2.377 15.547-4.576 24.825l-9.253 38.377h18.986l5.663-23.764c2.983-12.868 9.279-24.27 21.186-24.27a15.711 15.711 0 012.882.657l4.6-18.227c-1.06 0-2.224-.127-3.538-.127zm-170.53-117.346zM114.741 263.363h.001-.001zm380.927 333.012a5.63 5.63 0 00-2.132 1.501 4.664 4.664 0 00-1.106 2.055 5.514 5.514 0 00-.08.869v.078c.003.06-.007.18 0 .237a3.213 3.213 0 00.08.395c.011.035.066.124.078.158.027.068.045.172.079.237.035.065.116.176.158.237a3.503 3.503 0 00.237.316c.632.708 1.893 1.027 3.713 1.027a12.566 12.566 0 005.688-1.264 11.061 11.061 0 004.188-3.634 14.749 14.749 0 001.896-4.819 59.373 59.373 0 01-7.742 1.501 26.724 26.724 0 00-5.057 1.106zm225.876 114.739c-23.157 0-38.326 20.428-39.312 40.096-.859 17.166 8.065 25.635 26.394 25.635 7.053 0 16.433-.809 24.067-3.11l-.607-13.955c-5.232 2.553-11.199 1.896-18.151 1.896-5.486 0-9.733-.96-12.06-2.831a14.68 14.68 0 01-1.617-7.281c25.61.683 41.764-5.233 42.573-21.413.606-12.21-8.317-19.037-21.287-19.037zm-18.758 25.282c1.592-5.284 6.952-10.113 15.725-10.113 4.322 0 6.8 1.643 6.649 3.868-.304 6.017-7.737 6.37-22.374 6.245zM366.892 579.942a10.1 10.1 0 00-1.185 0 10.49 10.49 0 00-5.847 2.844c-2.174 1.972-3.75 5.07-4.66 9.165a20.911 20.911 0 00-.554 4.503 7.774 7.774 0 001.027 4.266 7.094 7.094 0 00.632.79 6.134 6.134 0 004.661 1.818 9.961 9.961 0 006.953-2.924c2.174-1.997 3.726-5.126 4.661-9.323.86-3.842.74-6.711-.474-8.532a5.75 5.75 0 00-5.214-2.607zm209.172-249.268h-80.268l-21.41 96.543h80.347l21.331-96.543zM259.209 581.443a5.849 5.849 0 00-4.425-1.659c-.146 0-.328-.008-.473 0a10.017 10.017 0 00-6.004 2.37 11.915 11.915 0 00-3.24 4.503h15.564c.023-.277.079-.615.079-.868a6.285 6.285 0 00-.71-3.319 6.35 6.35 0 00-.791-1.027z"/></svg>