<svg xmlns="http://www.w3.org/2000/svg" viewBox="0 0 1072 1024"><title>lic-gpl-v3</title><path d="M1051.43408,711.11768c-8.39258,0-16.55811,3.792-22.75171,11.78027-.2273-5.76367-4.3479-11.78027-14.561-11.78027-8.26636,0-16.15381,3.74121-22.47363,12.21h-.25293l1.69385-9.68213H976.85913c-1.06177,5.41016-2.35107,11.95752-4.323,19.5918l-10.16235,43.60742H980.5752l6.82544-28.86914c2.85669-12.86768,9.9856-21.68994,16.38135-21.68994,4.60083,0,5.86475,3.36182,5.63745,7.76074a51.36652,51.36652,0,0,1-1.16309,7.35645L999.813,776.84473h18.20142l6.82544-28.99561c3.13477-13.272,9.85913-21.56348,16.12866-21.56348,4.32275,0,6.11743,3.084,5.91528,7.48242a41.05463,41.05463,0,0,1-1.31445,7.9126l-8.19067,35.16406h18.32788l8.82251-37.439a94.745,94.745,0,0,0,1.59253-11.2749C1066.678,717.00781,1061.24268,711.11768,1051.43408,711.11768Z"/><path d="M308.43018,568.061a10.2071,10.2071,0,0,0-1.18506,0,10.48864,10.48864,0,0,0-5.8457,2.84424c-2.17432,1.97168-3.751,5.06836-4.66113,9.16406a20.90441,20.90441,0,0,0-.55273,4.50293,7.77364,7.77364,0,0,0,1.02686,4.26563,7.031,7.031,0,0,0,.63184.79,6.13212,6.13212,0,0,0,4.66113,1.81689A9.95753,9.95753,0,0,0,309.457,588.522c2.17432-1.99707,3.72559-5.12549,4.66113-9.32178.85938-3.84277.73926-6.71191-.47412-8.53223A5.74823,5.74823,0,0,0,308.43018,568.061Z"/><polygon points="427.455 776.845 446.288 776.845 461.583 713.646 442.85 713.646 427.455 776.845"/><path d="M467.54834,691.65234c.30322-6.16846-3.69092-8.34229-9.58105-8.34229-6.14258,0-11.75488,3.99414-12.0835,9.96-.30322,6.0166,3.69092,12.7915,9.17676,12.7915C461.48145,706.06152,467.19434,700.75293,467.54834,691.65234Z"/><path d="M1010.83984,394.5332a32.37465,32.37465,0,0,0-15.1377-10.84668c46.18457-38.00488,69.894-81.03955,59.50073-109.56543-3.94946-10.89746-12.49976-18.98975-24.73169-23.40234a67.40131,67.40131,0,0,0-17.08789-3.543l-15.79614-.02246-.45459.0166c-19.97412,1.44043-44.593,7.55078-66.23853,16.19141H119.30615L31.38037,646.98145h571.9917c11.80371,6.87109,26.3833,11.18164,43.2998,12.65479l29.05908.02344.24463-.019a252.86034,252.86034,0,0,0,28.729-3.99268,360.12667,360.12667,0,0,0,53.86475-15.28662c14.4541-5.27,29.06885-11.44434,43.43359-18.35156a610.9875,610.9875,0,0,0,97.60522-59.06543c10.32544-7.59326,20.68262-15.71094,30.78491-24.12646,8.94263-7.44141,17.67969-15.13184,26.042-22.9292,23.16235-22.32227,40.85107-45.06641,51.15015-65.772C1019.34522,426.48047,1020.47022,407.25781,1010.83984,394.5332ZM305.19141,313.13086H422.8208c7.88721,0,14.0874,1.49756,18.48584,4.50293,4.42383,3.02393,6.11768,6.93457,5.05615,11.69238l-21.96191,99.22266c-1.03662,4.72754-4.42725,8.58447-10.19092,11.61279-5.76367,3.03857-12.54834,4.582-20.46094,4.582H308.272l-16.51074,74.49609-2.686,12.24463H256.84375L259.293,520.4248l45.89844-207.29395ZM82.72949,576.90918c-.48,2.19922-4.81885,21.72461-4.81885,21.72461H68.35205l11.37549-51.1123h35.5498l-1.9751,8.84766H87.31152c-.4043,1.79492-2.02539,9.063-2.60693,11.69189h22.51514l-1.9751,8.84814Zm47.1626-6.79395a5.77386,5.77386,0,0,0-3.15967-.94824,4.927,4.927,0,0,0-2.76514.94824,6.9823,6.9823,0,0,0-2.37012,2.60693,24.99246,24.99246,0,0,0-2.36963,6.478l-4.26611,19.43359h-9.16406l8.45313-37.91943h8.53174s-.29395,1.1499-.395,1.58008c.40479-.30371.83105-.7207,1.18506-.94824a9.76611,9.76611,0,0,1,3.792-1.34277h0a9.286,9.286,0,0,1,1.106,0,10.74725,10.74725,0,0,1,6.39893,2.13281l1.26416.86914-4.89795,8.05811Zm39.65771,9.875-.71094,2.76465H143.085c-.05029.53125-.0791,1.09961-.0791,1.58008a7.5591,7.5591,0,0,0,1.26416,4.66113,5.94708,5.94708,0,0,0,1.42188,1.42188,7.01568,7.01568,0,0,0,3.87109,1.02686,9.12367,9.12367,0,0,0,5.05615-1.501,13.33,13.33,0,0,0,4.10791-4.50293h9.7959l-.86914,1.896a21.7097,21.7097,0,0,1-7.7417,8.84814,20.94666,20.94666,0,0,1-11.45508,3.23877c-5.58691,0-9.74512-1.80762-12.32373-5.37207-2.55322-3.48828-3.103-8.31055-1.73828-14.37744,1.36523-6.16846,4.08936-11.09814,8.05811-14.53613A20.41343,20.41343,0,0,1,154.54,560.00342c.55176-.042,1.09473,0,1.65918,0,5.15674,0,9.05957,1.80713,11.6123,5.37207a14.6512,14.6512,0,0,1,2.44922,8.53174A28.4957,28.4957,0,0,1,169.5498,579.99023Zm41.15869-.0791-.71094,2.84375H184.24365c-.02539.354-.05371.67334-.0791,1.02734-.019.13232.00879.334,0,.47363-.00049.02295,0,.05713,0,.0791,0,.37939.05371.752.0791,1.106a6.83372,6.83372,0,0,0,1.18506,3.55518c.12988.17676.252.39551.395.55273a6.40553,6.40553,0,0,0,4.89795,1.896,9.06019,9.06019,0,0,0,5.05566-1.501,13.32508,13.32508,0,0,0,4.10791-4.50293h9.875l-.94775,1.896a21.71077,21.71077,0,0,1-7.74219,8.84814,20.94547,20.94547,0,0,1-11.45508,3.23877c-5.58643,0-9.74512-1.80762-12.32373-5.37207a14.21216,14.21216,0,0,1-2.44873-8.61084c0-.53076.02832-1.10254.0791-1.65869a28.5281,28.5281,0,0,1,.63184-4.10791c1.36523-6.14307,4.00977-11.09814,7.979-14.53613a20.6313,20.6313,0,0,1,12.16553-5.13477c.55176-.042,1.09521,0,1.65918,0,5.15723,0,9.05957,1.80713,11.61279,5.37207a14.6512,14.6512,0,0,1,2.44922,8.53174A27.8403,27.8403,0,0,1,210.7085,579.91113Zm23.85742-60.8291c-1.69385,3.084-4.64795,5.72559-8.769,7.89941q-8.56934,4.51318-20.53955,4.50293h-93.377q-11.98242,0-18.56494-4.50293c-4.373-3.00781-6.03857-6.8501-4.97656-11.61279l41.1582-186.04248c1.062-4.75781,4.37354-8.66846,10.1123-11.69238.20215-.1084.42969-.13281.63184-.23682a43.09214,43.09214,0,0,1,18.48584-4.26611c.47314-.01074.93994,0,1.42188,0h93.45557q11.98315,0,18.56494,4.50293c4.37354,3.02393,6.01367,6.93457,4.97705,11.69238l-11.13867,50.32227H233.06494l10.82275-48.97949H161.41309L131.62988,465.2832l-10.74365,48.74268h82.396l.0791-.31592,16.51074-74.5752H181.1626l3.71289-16.82666h71.65234l-20.54,93.06055A13.15246,13.15246,0,0,1,234.56592,519.082Zm48.74268,43.76514-.2373,1.18506h-9.24268l.0791-1.106a7.26929,7.26929,0,0,0-.86914-5.05615,5.38384,5.38384,0,0,0-.395-.47363,5.13542,5.13542,0,0,0-.79-.63184,11.408,11.408,0,0,0-5.9248-1.26416c-3.46338,0-6.05127.60352-7.8208,1.81689a6.95266,6.95266,0,0,0-3.16016,4.10791,3.04478,3.04478,0,0,0,.63232,2.92285c.01172.01221.06348.06494.07861.0791.51221.43652,2.291,1.46,7.8208,2.76514a53.26084,53.26084,0,0,1,10.19092,3.23877A12.0483,12.0483,0,0,1,279.5166,576.04a12.28689,12.28689,0,0,1,.63184,7.82129,17.82252,17.82252,0,0,1-4.187,7.8208,21.18533,21.18533,0,0,1-7.97852,5.688,26.97763,26.97763,0,0,1-10.27,2.05371,25.63672,25.63672,0,0,1-11.06006-2.05371,12.74229,12.74229,0,0,1-6.39893-6.55713,16.10021,16.10021,0,0,1-.79-9.55908l.2373-1.106h9.085l-.0791,1.106a9.96788,9.96788,0,0,0,.55273,5.05615,6.13049,6.13049,0,0,0,3.16016,3.002,14.51306,14.51306,0,0,0,6.31982,1.26416,17.38587,17.38587,0,0,0,6.00391-1.02734,10.58789,10.58789,0,0,0,4.187-2.52783,7.01409,7.01409,0,0,0,1.81689-3.397,3.74057,3.74057,0,0,0-.23682-2.76514,5.77992,5.77992,0,0,0-2.92285-2.13281l-7.74219-2.291c-4.32275-1.08691-7.2334-2.12354-8.92676-3.15967a11.07,11.07,0,0,1-4.81885-5.21387,11.23863,11.23863,0,0,1-.395-6.873,16.71981,16.71981,0,0,1,3.87061-7.50488,19.41567,19.41567,0,0,1,7.74219-5.293,27.18787,27.18787,0,0,1,8.68994-1.73828h0c.31494-.01025.63037,0,.94775,0a22.66421,22.66421,0,0,1,9.63818,1.896,11.43713,11.43713,0,0,1,5.9248,5.84619A14.29092,14.29092,0,0,1,283.30859,562.84717Zm39.97363,16.66895a29.12094,29.12094,0,0,1-4.582,11.13867,21.77971,21.77971,0,0,1-17.30078,8.769c-5.35937,0-9.35059-1.83252-11.9292-5.37207a14.13891,14.13891,0,0,1-2.52783-8.61084,27.1476,27.1476,0,0,1,.71094-6.083c1.51709-6.7749,4.61377-11.93506,9.16406-15.24658a21.34551,21.34551,0,0,1,10.981-4.10791h0c.56445-.04346,1.0835,0,1.65869,0,5.2583,0,9.2998,1.77881,11.9292,5.293Q325.2915,570.56689,323.28223,579.51611Zm20.69775-10.981c-.50586,2.27539-6.71484,30.09863-6.71484,30.09863h-9.16406s5.95654-26.73633,6.71484-30.09863h-5.293l1.73779-7.8208h5.21436c.25244-1.08691.63184-2.44922.63184-2.44922a19.31286,19.31286,0,0,1,1.896-5.60889,11.9248,11.9248,0,0,1,4.34473-4.26562,13.2333,13.2333,0,0,1,5.60938-1.58008h-.00049c.5-.03906.97021,0,1.501,0l5.688.63184,1.896.1582-2.76514,7.03076-.55273,1.106-4.34473-.395a4.99181,4.99181,0,0,0-2.84424.63232c-.041.03076-.12012.12451-.15771.15771a2.86953,2.86953,0,0,0-.31641.31592,7.46236,7.46236,0,0,0-1.18457,3.002s-.16455.68262-.31641,1.26416h6.79395l-1.73779,7.8208Zm28.04443,0h-5.9248c-.48047,2.17383-4.26611,19.03906-4.26611,19.03906s-.31592,2.02539-.31592,2.60645c.00049.01953-.00146.06494,0,.0791.00146.00586-.00146.07422,0,.0791.00293.00439.07617-.00293.0791,0l.94775.0791,4.34521-.31592-.47412,7.03076.0791,1.26416-6.24121.71094a10.12675,10.12675,0,0,1-5.60889-1.26416A5.59029,5.59029,0,0,1,352.1167,594.21a6.017,6.017,0,0,1-.15771-1.26367,32.2932,32.2932,0,0,1,.94775-6.39941s3.32129-14.877,4.02881-18.01172h-4.34473l1.73779-7.8208h4.34521c.4043-1.82031,1.81689-8.05811,1.81689-8.05811l7.34668-3.87061,3.002-1.58008c0,.00049-2.395,10.77881-3.002,13.50879h5.9248Zm26.54395,30.09863s-.81836-20.56152-.86914-21.72461c-3.48877,7.1543-10.58594,21.72461-10.58594,21.72461h-8.68994l-3.002-37.91943h9.40088s1.15967,22.502,1.18506,22.83057c.37939-.80566.67334-1.4834.71094-1.58008l10.34912-21.25049h8.61084s.79,22.23047.79,22.35693c.25293-.45508,11.77051-22.35693,11.77051-22.35693H427.561l-20.54,37.91943Zm62.09326-23.62061-1.73828,7.8208a86.38106,86.38106,0,0,0-1.896,10.11182,10.18506,10.18506,0,0,0,.395,3.63428l.63232,2.05371h-9.32227l-.395-1.18506a11.28408,11.28408,0,0,1-.15771-1.896,28.093,28.093,0,0,1-5.13477,2.60693,22.31391,22.31391,0,0,1-7.26807,1.26416c-4.29785,0-7.48-1.11865-9.40088-3.31787a8.39577,8.39577,0,0,1-2.1333-5.84619,12.72605,12.72605,0,0,1,.31592-2.68555,13.16488,13.16488,0,0,1,2.44922-5.293,14.7805,14.7805,0,0,1,4.26611-3.792,18.97865,18.97865,0,0,1,5.13477-2.0542l5.60889-.94775a61.64089,61.64089,0,0,0,9.875-1.81689,4.62929,4.62929,0,0,1,.1582-.55322c.36621-1.62646.32031-2.84912-.0791-3.47607-.0293-.04053-.125-.123-.1582-.15771a4.02331,4.02331,0,0,0-.31592-.31641c-.95068-.752-2.57227-1.106-4.73975-1.106a10.51506,10.51506,0,0,0-5.53027,1.18506,10.31418,10.31418,0,0,0-3.397,4.26611h-9.55908l.86914-1.896a20.20183,20.20183,0,0,1,4.187-6.478,17.44538,17.44538,0,0,1,6.63623-3.87061,26.29611,26.29611,0,0,1,6.63574-1.26416h0c.6665-.041,1.28369,0,1.9751,0a20.28538,20.28538,0,0,1,7.584,1.106,8.38712,8.38712,0,0,1,4.26563,3.31787,9.07424,9.07424,0,0,1,1.18506,4.81885Zm28.51855-4.89795a5.58363,5.58363,0,0,0-3.08105-.94824,5.23159,5.23159,0,0,0-2.84375.94824,7.00947,7.00947,0,0,0-2.291,2.60693,25.93516,25.93516,0,0,0-2.37012,6.478L474.249,598.63379h-9.16357l8.45264-37.91943h8.53223s-.21484,1.1499-.31641,1.58008c.40479-.30371.80615-.7207,1.18506-.94824a9.325,9.325,0,0,1,3.71338-1.34277h0a9.28594,9.28594,0,0,1,1.106,0,10.92082,10.92082,0,0,1,6.478,2.13281l1.18457.86914-4.89795,8.05811Zm39.49951,9.875-.63184,2.76465H502.29395c-.05078.53125-.1582,1.09961-.1582,1.58008a7.72932,7.72932,0,0,0,1.26416,4.66113c.12988.17676.33057.39551.47412.55273.083.08887.22852.23389.31592.31641a6.59059,6.59059,0,0,0,4.582,1.57959,9.12367,9.12367,0,0,0,5.05615-1.501,13.591,13.591,0,0,0,4.10791-4.50293h9.87451l-.94775,1.896a21.89509,21.89509,0,0,1-7.7417,8.84814,20.94666,20.94666,0,0,1-11.45508,3.23877c-5.58691,0-9.6665-1.80762-12.24512-5.37207-2.55322-3.48828-3.15674-8.31055-1.81689-14.37744,1.36523-6.16846,4.01025-11.09814,7.979-14.53613a20.70281,20.70281,0,0,1,12.166-5.13477c.55127-.042,1.09473,0,1.65869,0,5.15723,0,9.085,1.80713,11.61279,5.37207a14.46843,14.46843,0,0,1,2.44922,8.53174A28.90678,28.90678,0,0,1,528.67969,579.99023Zm-109.335-48.50586,9.16406-41.395,39.18359-176.958v-.00049h32.23145L463.42627,478.002l-7.979,36.02393h77.10352c.80859,5.91309,1.75342,11.72021,2.76465,17.4585Zm132.48145-60.6709q-1.59229-14.66382-2.44873-28.99268c-4.09521-69.37549,4.96094-132.26367,23.5415-177.90625-2.47705,37.811,4.854,93.19238,21.48779,154.68018q4.437,16.41211,9.71729,33.33789,3.29883,10.43115,6.79395,20.53955c-1.36523,2.00732-2.74023,4.002-4.0293,6.00391-20.75439,31.80713-32.88574,61.86572-35.94434,88.00537A541.84186,541.84186,0,0,1,551.82617,470.81348Zm444.44336-26.32666c-9.52588,19.14893-26.78735,41.2749-48.52979,62.229-8.113,7.56445-16.66919,15.0957-25.43384,22.3877-9.90967,8.25635-20.06567,16.21631-30.18823,23.66064a598.43281,598.43281,0,0,1-95.58594,57.85156c-13.998,6.73047-28.22656,12.74316-42.293,17.87109a347.65765,347.65765,0,0,1-51.96094,14.75684,240.92175,240.92175,0,0,1-27.04053,3.77686H647.49854c-.12549-.01074-.24463-.02783-.36963-.03906h2.65625c-25.20361-2.19922-45.10205-11.04736-56.958-27.17578a57.3645,57.3645,0,0,1-5.60937-9.55908c-1.01074-2.47705-1.96191-4.97656-2.92285-7.50488a76.052,76.052,0,0,1-3.08105-26.46436c1.26416-26.49316,13.69531-58.00684,35.23389-91.00732,22.87793-35.07031,56.03564-71.82764,97.08984-105.9375,9.20166-7.63965,18.71631-15.18359,28.67676-22.51514,12.311-9.05762,24.71729-17.39941,37.12939-25.20068,45.731-28.791,91.34814-48.937,131.77051-59.17041-38.62744,12.60205-82.02344,33.99561-124.89746,63.12061-1.542,1.0415-3.06543,2.1084-4.582,3.15967a557.98424,557.98424,0,0,0-64.14746,51.66553c-60.51953,56.90479-92.50781,115.86963-77.97168,150.41455a43.1416,43.1416,0,0,0,3.71289,6.79395c15.62256,22.979,54.3418,26.95117,103.40967,14.61475,3.33691-.83447,6.67383-1.7793,10.11182-2.76514a399.04364,399.04364,0,0,0,49.45361-18.16992c4.12061-1.81982,8.28516-3.69043,12.48193-5.6875.42969-.20215.834-.40479,1.26367-.63232,54.09863-26.87988,95.67432-57.80908,104.67383-76.39209,1.97192-4.042,2.4458-7.48828,1.106-10.19092-6.4209-13.019-51.35254-4.22363-105.77979,19.355-4.373,1.896-8.79736,3.84668-13.27148,5.9248,3.64014-3.37988,7.42871-6.77246,11.29688-10.11182,6.168-5.314,12.5542-10.51025,19.35449-15.64209a386.37292,386.37292,0,0,1,31.99463-21.80371c49.59888-37.41895,74.67334-72.81543,69.44019-85.95068-.98584-2.4751-3.08423-4.17773-6.31982-5.21436-10.3396-3.28857-29.21069.63672-52.1394,10.0332-18.90918,7.75586-40.62793,19.25879-62.64648,33.57471l-3.002,1.97461-.55273.31641-10.58594,7.03076,6.083-11.13867c9.0249-16.52051,23.72461-33.75732,42.02734-49.76953a298.51586,298.51586,0,0,1,45.2666-32.38965c6.24414-3.65527,12.47852-7.05078,18.72266-10.11182,6.39575-3.12451,12.79468-5.90186,19.03882-8.374,18.14087-7.17432,35.45776-11.53369,50.55933-12.71924H974.17041a181.22578,181.22578,0,0,1,23.647-3.56738h14.7627a54.48559,54.48559,0,0,1,13.60718,2.81641c8.57935,3.09473,14.50342,8.56494,17.1355,15.82813,9.11352,25.01172-18.02295,67.61816-65.991,103.61035l-13.40894,10.06152,16.71411,1.29492c9.52026.73682,16.29,3.68018,20.12085,8.75146C1007.20606,410.67578,1005.61182,425.70947,996.26953,444.48682Z"/><path d="M514.38086,567.90332c-.07275.00049-.08594-.00146-.1582,0a10.21151,10.21151,0,0,0-6.24072,2.37012,12.17773,12.17773,0,0,0-3.23877,4.50293h15.4834c.02539-.27832.0791-.61621.0791-.86914a6.28284,6.28284,0,0,0-.71094-3.31787A5.61639,5.61639,0,0,0,514.38086,567.90332Z"/><path d="M516.51514,712.86182c-8.39258,0-16.55811,3.89307-23.00439,12.33643h-.25293l1.71924-11.55273H478.34277c-1.08691,5.41016-2.47705,11.95752-4.44922,19.5918l-10.314,43.60742H482.438l6.67432-28.46484c3.46289-14.48535,10.92041-19.56641,17.06348-19.56641,4.854,0,6.26953,2.07275,6.042,5.08105a45.21312,45.21312,0,0,1-1.01123,7.25537l-8.49414,35.69482h18.85889l8.94922-37.439a85.45814,85.45814,0,0,0,1.59229-10.99658C532.66895,717.00781,526.981,712.86182,516.51514,712.86182Z"/><path d="M157.92236,711.11768c-23.15625,0-38.32373,20.42627-39.31006,40.09375-.85937,17.16455,8.03906,25.6333,26.39209,25.6333,7.05322,0,16.40674-.80859,24.06641-3.10937l-.60645-13.9541c-5.23291,2.55322-11.19922,1.896-18.15088,1.896-5.48584,0-9.73291-.96094-12.05859-2.83154a14.67937,14.67937,0,0,1-1.61816-7.28027c25.6084.68213,41.76221-5.2334,42.57129-21.41211C179.81445,717.94336,170.89111,711.11768,157.92236,711.11768ZM139.165,736.39746c1.59229-5.28369,6.95166-10.11182,15.72363-10.11182,4.32324,0,6.80029,1.64307,6.64893,3.86768C161.23438,736.16992,153.80176,736.52393,139.165,736.39746Z"/><path d="M873.99561,683.31006l-7.10352,28.71777c-2.57861-1.062-5.94043-.91016-8.56982-.91016-24.21777,0-41.35742,20.72949-42.49512,43.17773-.7583,15.8252,7.68506,22.54932,18.55518,22.54932,7.60938,0,15.623-3.36182,21.68994-12.05811h.25293l-1.44092,12.05811h17.13965a226.61939,226.61939,0,0,1,4.27246-24.84961l16.40625-68.68506ZM859.23242,745.043c-2.95752,12.46289-9.93506,16.63428-15.4458,16.63428-5.48584,0-8.54443-3.81738-8.16553-10.61768.63232-12.58936,9.27783-24.77393,20.52734-24.77393a18.91425,18.91425,0,0,1,7.35645,1.188Z"/><polygon points="413.815 330.669 333.552 330.669 333.552 330.669 312.143 427.206 392.485 427.206 413.815 330.669"/><path d="M115.377,711.11768c-8.77246,0-16.12891,6.168-21.0332,15.01611h-.50537c.73291-4.32275,1.36523-8.418,1.84521-12.48828H79.42871c-.93506,5.2583-2.376,15.54688-4.5752,24.82471l-9.25244,38.37451H84.58594l5.6626-23.7627c2.98291-12.86768,9.27783-24.26855,21.18457-24.26855a15.71111,15.71111,0,0,1,2.88184.65723l4.60107-18.22656C117.854,711.24414,116.69141,711.11768,115.377,711.11768Z"/><path d="M931.25439,711.11768c-22.80225,0-39.1582,18.4541-40.2959,40.751-.78369,16.22949,9.68213,24.97607,26.03809,24.97607,21.99341,0,38.95605-16.65918,40.14429-39.335C957.874,722.49365,948.52051,711.11768,931.25439,711.11768Zm6.24414,26.54346c-.55615,11.123-7.33105,24.01611-17.54419,24.01611-6.42114,0-9.96021-4.09521-9.58105-10.21338.50562-10.1875,6.80029-25.17822,17.64526-25.17822C935.50146,726.28564,937.80176,732.02393,937.49854,737.66113Z"/><path d="M442.25488,583.38721a26.73332,26.73332,0,0,0-5.05615,1.106,5.63048,5.63048,0,0,0-2.1333,1.501,4.67872,4.67872,0,0,0-1.10547,2.05371,5.51919,5.51919,0,0,0-.0791.86914c0,.02051-.00049.05859,0,.0791.00293.06006-.00586.17871,0,.23682a3.1241,3.1241,0,0,0,.0791.395c.01172.03516.06592.12354.0791.1582.02734.06787.04443.17188.07861.23682.03613.064.11572.17578.1582.23682a3.41935,3.41935,0,0,0,.23682.31641c.63184.70752,1.89307,1.02686,3.71289,1.02686a12.56575,12.56575,0,0,0,5.688-1.26416,11.05465,11.05465,0,0,0,4.187-3.63379,14.74261,14.74261,0,0,0,1.896-4.81885h0A59.56087,59.56087,0,0,1,442.25488,583.38721Z"/><path d="M276.25684,756.166c-.68262,13.67627,6.72461,20.67871,18.252,20.67871,7.45752,0,15.87549-3.61475,22.42285-14.48535H317.21c-.50537,5.2334-1.1123,10.31445-1.44092,14.48535h17.2915c.15137-8.01367,2.07275-20.603,4.06982-28.86914l8.11475-34.33008c-5.15674-1.74414-13.1958-2.52783-20.93164-2.52783C292.916,711.11768,277.34375,734.375,276.25684,756.166Zm43.835-15.42041c-3.69092,16.07764-11.22412,20.93164-16.83594,20.93164-5.2334,0-7.5083-3.71631-7.20508-9.12646.60693-12.21,10.26367-26.26514,22.44824-26.26514a19.60391,19.60391,0,0,0,4.95508-.708Z"/><path d="M721.50879,711.11768c-23.15625,0-38.32422,20.42627-39.31006,40.09375-.85986,17.16455,8.064,25.6333,26.39209,25.6333,7.05273,0,16.43164-.80859,24.06592-3.10937l-.60645-13.9541c-5.23291,2.55322-11.19922,1.896-18.15088,1.896-5.48584,0-9.73291-.96094-12.05859-2.83154a14.67877,14.67877,0,0,1-1.61768-7.28027c25.6084.68213,41.76221-5.2334,42.5708-21.41211C743.40088,717.94336,734.47705,711.11768,721.50879,711.11768ZM702.751,736.39746c1.59277-5.28369,6.95215-10.11182,15.72412-10.11182,4.32275,0,6.80029,1.64307,6.64844,3.86768C724.82031,736.16992,717.3877,736.52393,702.751,736.39746Z"/><path d="M355.28125,733.08594c-.4043,8.19043,5.48584,13.70117,12.61475,17.44287,5.76367,2.95752,7.73535,5.23291,7.584,8.44336-.17725,3.23584-3.05908,2.70508-8.292,2.70508a118.61477,118.61477,0,0,1-16.53271-1.36523l-5.23291,13.5498c3.64014,2.83154,11.27441,2.85693,19.23779,2.98291,17.01318.12646,29.85547-7.30566,30.61377-20.95654.42969-9.10107-6.62354-14.48535-13.5249-18.10059-4.98-2.40137-7.48291-4.70166-7.35645-7.38135.17725-3.61523,3.56445-4.12061,8.54492-4.12061a66.91384,66.91384,0,0,1,12.69043,1.188l5.10645-13.70166c-2.90723-1.74414-8.72168-2.6543-16.1792-2.6543C368.04736,711.11768,355.96387,719.83887,355.28125,733.08594Z"/><path d="M788.55029,711.11768c-23.18164,0-38.34912,20.42627-39.33545,40.09375-.834,17.16455,8.06445,25.6333,26.39209,25.6333,7.07861,0,16.43213-.80859,24.0918-3.10937l-.63232-13.9541c-5.23242,2.55322-11.19873,1.896-18.12549,1.896-5.51074,0-9.73242-.96094-12.05811-2.83154a14.71053,14.71053,0,0,1-1.64307-7.28027c25.6333.68213,41.76172-5.2334,42.59619-21.41211C810.44238,717.94336,801.519,711.11768,788.55029,711.11768Zm-18.78271,25.27979c1.61768-5.28369,6.95166-10.11182,15.72363-10.11182,4.32324,0,6.82568,1.64307,6.67432,3.86768C791.86182,736.16992,784.42969,736.52393,769.76758,736.39746Z"/><path d="M155.17188,567.90332c-.147,0-.32861-.00586-.47363,0h-.00049a10.01352,10.01352,0,0,0-6.00391,2.37012,11.64262,11.64262,0,0,0-3.23877,4.50293h15.563c.0249-.27832.07861-.61621.07861-.86914a6.53645,6.53645,0,0,0-.71094-3.31787A5.54707,5.54707,0,0,0,155.17188,567.90332Z"/><path d="M678.96289,711.11768c-8.77246,0-16.12842,6.168-21.03271,15.01611h-.50586c.7334-4.32275,1.36523-8.418,1.8457-12.48828H643.01514c-.91016,5.2583-2.37646,15.54688-4.57568,24.82471L629.187,776.84473h18.98486L653.835,753.082c2.98291-12.86768,9.27734-24.26855,21.18408-24.26855a15.70171,15.70171,0,0,1,2.88184.65723l4.60107-18.22656C681.44043,711.24414,680.27734,711.11768,678.96289,711.11768Z"/><polygon points="599.837 703.534 632.574 703.534 636.518 685.838 584.821 685.838 563.586 776.845 582.445 776.845 590.939 741.453 621.553 741.453 625.496 726.286 594.73 726.286 599.837 703.534"/><polygon points="36.251 703.534 68.988 703.534 72.932 685.838 21.235 685.838 0 776.845 18.859 776.845 27.328 741.453 57.966 741.453 61.91 726.286 31.145 726.286 36.251 703.534"/><path d="M200.75439,569.562a5.84967,5.84967,0,0,0-4.42383-1.65869c-.147,0-.3291-.00586-.47412,0h0a10.01235,10.01235,0,0,0-6.00391,2.37012,11.8987,11.8987,0,0,0-3.23877,4.50293h15.5625c.02539-.27832.0791-.61621.0791-.86914a5.34573,5.34573,0,0,0-1.501-4.34521Z"/><path d="M224.96436,711.11768c-23.18164,0-38.34961,20.42627-39.33545,40.09375-.834,17.16455,8.06445,25.6333,26.39209,25.6333,7.07861,0,16.43213-.80859,24.0918-3.10937l-.63232-13.9541c-5.23291,2.55322-11.19873,1.896-18.12549,1.896-5.51074,0-9.73242-.96094-12.05811-2.83154a14.70585,14.70585,0,0,1-1.64355-7.28027c25.63379.68213,41.76221-5.2334,42.59668-21.41211C246.85645,717.94336,237.93262,711.11768,224.96436,711.11768Zm-18.78271,25.27979c1.61768-5.28369,6.95166-10.11182,15.72363-10.11182,4.32324,0,6.82568,1.64307,6.67383,3.86768C228.27588,736.16992,220.84375,736.52393,206.18164,736.39746Z"/></svg>