<svg xmlns="http://www.w3.org/2000/svg" viewBox="0 0 1024 1024"><rect x="689.83235" y="456.97633" width="57.23447" height="243.78904" transform="translate(-1.983 2.46981) rotate(-0.19669)"/><rect x="306.56055" y="329.64111" width="57.23486" height="242.94824"/><rect x="434.31707" y="328.80129" width="57.235" height="371.12472" transform="translate(-1.15943 1.04587) rotate(-0.12928)"/><rect x="178.3833" y="328.80176" width="57.23682" height="371.96289"/><path d="M512.00488,0C228.87158,0-1.47461,229.68018-1.47852,511.99609c-.002,282.31592,230.34229,512,513.47363,512.00391,283.1333,0,513.48145-229.68018,513.4834-511.99609v-.00781C1025.47656,229.68408,795.13428.00391,512.00488,0ZM963.55957,512v.00391c-.002,248.17236-202.57275,450.0752-451.5625,450.0752-248.9917-.00391-451.55859-201.91064-451.55469-450.083.00244-248.17236,202.57275-450.0752,451.5625-450.0752,248.98584.00391,451.55273,201.90674,451.55469,450.0752Z"/><rect x="753.50233" y="265.13379" width="57.23363" height="206.92553" transform="translate(410.35309 1149.21412) rotate(-89.76759)"/><rect x="562.07373" y="456.97705" width="57.23486" height="242.94873"/><rect x="561.65564" y="328.80151" width="57.23511" height="79.5862" transform="translate(-3.84343 6.22757) rotate(-0.60252)"/></svg>