<svg xmlns="http://www.w3.org/2000/svg" viewBox="0 0 512 1024" role="img"><path d="M210.744 813.253q1.121 1.122 2.298 2.185c.363.33.737.639 1.106.958.418.363.833.731 1.261 1.083.48.395.971.769 1.46 1.148.33.255.654.517.988.765.543.404 1.096.787 1.648 1.171.298.207.59.42.893.623a63.3 63.3 0 001.731 1.11c.302.188.6.382.905.566.572.344 1.152.67 1.732.995.334.187.666.379 1.005.56a64.69 64.69 0 001.657.85c.39.194.779.392 1.173.58.506.239 1.017.464 1.528.69.459.203.917.408 1.381.6.454.188.91.363 1.368.54.532.206 1.064.412 1.603.604.4.143.804.274 1.207.408.598.2 1.196.399 1.801.582.36.108.721.205 1.081.307.649.183 1.298.364 1.954.527.336.083.673.155 1.01.233.677.157 1.355.311 2.04.446.345.068.693.123 1.04.186.671.12 1.343.241 2.022.341.402.06.805.102 1.209.154.623.08 1.245.163 1.874.224.537.053 1.076.084 1.614.123.501.036.999.083 1.503.108q1.581.078 3.164.08 1.583 0 3.164-.08c.504-.024 1.002-.072 1.502-.108.54-.039 1.078-.07 1.615-.123.629-.06 1.25-.145 1.874-.224.404-.052.807-.095 1.21-.154.678-.1 1.35-.22 2.022-.341.346-.063.694-.118 1.04-.186.684-.135 1.362-.29 2.039-.446.337-.078.674-.15 1.01-.233a63.952 63.952 0 001.954-.527c.36-.102.722-.2 1.08-.307a63.751 63.751 0 001.802-.582c.403-.134.807-.265 1.207-.408.54-.192 1.07-.398 1.603-.605.457-.177.914-.351 1.368-.539.464-.192.922-.397 1.381-.6.51-.226 1.022-.451 1.528-.69.394-.188.783-.386 1.173-.58a64.642 64.642 0 001.657-.85c.339-.181.67-.373 1.005-.56a63.85 63.85 0 001.732-.995c.305-.184.603-.378.905-.567a63.3 63.3 0 001.731-1.11c.302-.202.595-.414.893-.622.552-.384 1.105-.767 1.648-1.17.334-.25.658-.511.987-.766.49-.379.98-.753 1.46-1.148.43-.352.844-.72 1.262-1.083.37-.32.743-.629 1.106-.958q1.175-1.065 2.298-2.185l191.999-191.998a64 64 0 00-90.51-90.51L320 613.49V256a64 64 0 00-128 0v357.49l-82.745-82.745a64 64 0 00-90.51 90.51z"/></svg>