<svg xmlns="http://www.w3.org/2000/svg" viewBox="0 0 640 1024" role="img"><path d="M64 576h357.49l-82.745 82.745a64 64 0 0090.51 90.51l191.999-191.999q1.12-1.12 2.183-2.297c.332-.366.644-.743.965-1.114.36-.416.727-.827 1.076-1.253.397-.482.772-.976 1.153-1.467.253-.327.513-.65.76-.982.405-.543.79-1.097 1.174-1.65.206-.297.419-.59.62-.89.384-.571.748-1.152 1.11-1.732.19-.302.383-.6.566-.905.345-.572.672-1.152.996-1.733.188-.334.379-.666.56-1.003a63.21 63.21 0 00.85-1.66c.195-.39.392-.777.579-1.17.24-.507.465-1.018.69-1.529.204-.46.409-.917.602-1.382.187-.453.361-.908.537-1.364.207-.534.414-1.067.607-1.607.141-.398.272-.8.405-1.2.202-.601.4-1.202.584-1.81.107-.355.203-.711.303-1.067a64.88 64.88 0 00.532-1.97c.081-.33.152-.661.229-.992.158-.683.314-1.366.45-2.057.066-.338.12-.677.18-1.015.123-.68.246-1.36.347-2.048.057-.39.099-.781.149-1.172.081-.636.166-1.27.229-1.912.05-.517.08-1.036.118-1.554.038-.52.087-1.038.112-1.562q.073-1.493.076-2.987c0-.058.004-.114.004-.172s-.004-.114-.004-.172q-.004-1.494-.076-2.987c-.025-.524-.074-1.041-.112-1.562-.038-.518-.067-1.037-.118-1.554-.063-.642-.148-1.276-.23-1.912-.05-.39-.09-.782-.148-1.172-.101-.688-.224-1.368-.346-2.048-.06-.338-.115-.677-.181-1.015a62.318 62.318 0 00-.45-2.057c-.077-.331-.148-.663-.23-.992a62.996 62.996 0 00-.53-1.97c-.1-.356-.197-.712-.304-1.066a63.008 63.008 0 00-.584-1.81c-.133-.402-.264-.803-.405-1.2-.193-.541-.4-1.074-.607-1.608-.176-.456-.35-.911-.537-1.364-.193-.465-.398-.923-.601-1.382-.226-.511-.452-1.022-.691-1.529-.187-.394-.384-.781-.579-1.17a63.21 63.21 0 00-.85-1.66c-.181-.337-.372-.67-.56-1.003a60.011 60.011 0 00-.996-1.733c-.183-.305-.377-.603-.565-.905-.363-.58-.727-1.16-1.11-1.732-.202-.3-.415-.593-.621-.89-.385-.553-.77-1.107-1.173-1.65-.248-.333-.508-.655-.761-.983-.38-.49-.756-.984-1.153-1.466-.35-.426-.715-.837-1.076-1.253-.321-.371-.633-.748-.965-1.114q-1.064-1.175-2.183-2.297l-192-191.999a64 64 0 00-90.509 90.51L421.49 448H64a64 64 0 000 128z"/></svg>