<svg xmlns="http://www.w3.org/2000/svg" viewBox="0 0 512 1024"><path d="M109.25488,493.25488,192,410.50977V768a64,64,0,0,0,128,0V410.50977l82.74512,82.74512a64.00007,64.00007,0,0,0,90.50977-90.50977l-191.999-191.99854q-1.12061-1.12134-2.29785-2.18457c-.3623-.32935-.7373-.63867-1.10547-.958-.41895-.36279-.833-.7312-1.26172-1.083-.47949-.39429-.96973-.76758-1.458-1.14575-.33008-.2561-.65527-.51831-.99121-.76807-.541-.40234-1.0918-.78442-1.6416-1.16748-.2998-.2085-.59473-.42261-.89844-.626-.56934-.38208-1.14746-.74487-1.72656-1.10669-.30371-.18994-.60352-.38428-.91016-.56934-.57129-.34326-1.14844-.6687-1.72656-.99268-.33691-.18848-.66992-.38062-1.01074-.56323-.54687-.29321-1.09863-.57031-1.65234-.84644-.3916-.1958-.78125-.394-1.17773-.582-.50391-.23877-1.0127-.46338-1.52148-.68823-.46191-.20435-.92187-.40967-1.38965-.60327-.4502-.18628-.90332-.35986-1.35742-.53516-.53516-.20776-1.07031-.415-1.61328-.60889-.39648-.14111-.7959-.271-1.19434-.4043-.60254-.20142-1.20508-.40137-1.81445-.58545-.35352-.1062-.71-.2019-1.06445-.302-.6543-.18506-1.30957-.36768-1.97168-.532-.32812-.08154-.65918-.15186-.98828-.22827-.68457-.15845-1.36914-.3147-2.06152-.45093-.33594-.06592-.67285-.11938-1.00879-.18018-.68262-.1228-1.36426-.24561-2.05371-.34668-.38867-.05713-.7793-.09839-1.16895-.14844-.63672-.08154-1.27148-.167-1.91406-.22949-.5166-.05054-1.03516-.08008-1.55273-.11816-.52148-.03809-1.03906-.08643-1.56348-.11206q-1.49268-.07324-2.9873-.07544C256.11426,192.00415,256.05762,192,256,192s-.11426.00415-.17187.00439q-1.49414.00366-2.9873.07544c-.52441.02563-1.042.074-1.56348.11206-.51758.03809-1.03613.06763-1.55273.11816-.64258.0625-1.27734.14795-1.91406.22949-.38965.05-.78027.09131-1.16895.14844-.68945.10107-1.37109.22388-2.05371.34668-.33594.06079-.67285.11426-1.00879.18018-.69238.13623-1.377.29248-2.06152.45093-.3291.07642-.66016.14673-.98828.22827-.66211.16431-1.31738.34692-1.97168.532-.35449.1001-.71094.1958-1.06445.302-.60937.18408-1.21191.384-1.81445.58545-.39844.1333-.79785.26318-1.19434.4043-.543.19385-1.07812.40112-1.61328.60889-.4541.17529-.90723.34888-1.35742.53516-.46777.1936-.92773.39893-1.38965.60327-.50879.22485-1.01758.44946-1.52148.68823-.39648.188-.78613.38623-1.17773.582-.55371.27612-1.10547.55322-1.65234.84644-.34082.18262-.67383.37476-1.01074.56323-.57812.324-1.15527.64941-1.72656.99268-.30664.18506-.60645.37939-.91016.56934-.5791.36182-1.15723.72461-1.72656,1.10669-.30371.20337-.59863.41748-.89844.626-.5498.38306-1.10059.76514-1.6416,1.16748-.33594.24976-.66113.512-.99121.76807-.48828.37817-.97852.75146-1.458,1.14575-.42871.35181-.84277.72021-1.26172,1.083-.36816.31934-.74316.62866-1.10547.958q-1.17627,1.06458-2.29785,2.18457L18.74512,402.74512a64.00007,64.00007,0,0,0,90.50977,90.50977Z"/></svg>