<svg xmlns="http://www.w3.org/2000/svg" viewBox="0 0 640 1024" role="img"><path d="M14.521 471.408c-.396.482-.772.976-1.152 1.467-.253.327-.514.65-.76.982-.405.543-.79 1.097-1.174 1.65-.206.297-.419.59-.62.89a63.365 63.365 0 00-1.11 1.732c-.19.302-.383.6-.566.905a61.517 61.517 0 00-.996 1.733c-.188.334-.379.666-.56 1.003a63.21 63.21 0 00-.85 1.66c-.195.39-.392.777-.579 1.17-.24.507-.465 1.018-.69 1.529-.204.46-.409.917-.602 1.382-.187.453-.361.908-.537 1.364-.207.534-.414 1.067-.607 1.607-.141.398-.272.8-.406 1.2-.2.601-.4 1.202-.584 1.81-.106.355-.202.711-.302 1.067a62.989 62.989 0 00-.532 1.97c-.082.33-.152.661-.229.992a62.267 62.267 0 00-.45 2.057c-.066.338-.12.677-.18 1.015-.123.68-.246 1.36-.347 2.048-.057.39-.099.781-.149 1.172-.081.636-.166 1.27-.229 1.912-.05.517-.08 1.036-.118 1.554-.038.52-.087 1.038-.112 1.562q-.073 1.493-.076 2.987c0 .058-.004.114-.004.172s.004.114.004.172q.004 1.494.076 2.987c.025.524.074 1.041.112 1.562.038.518.067 1.037.118 1.554.063.642.148 1.276.229 1.912.05.39.092.782.149 1.172.101.688.224 1.368.346 2.048.06.338.115.677.181 1.015.136.691.292 1.374.45 2.057.077.331.147.663.229.992.165.662.347 1.316.532 1.97.1.356.196.712.302 1.066.184.609.383 1.21.584 1.81.134.402.265.803.406 1.2.193.541.4 1.074.607 1.608.176.456.35.911.537 1.364.193.465.398.923.601 1.382.226.511.452 1.022.691 1.529.187.394.384.781.579 1.17.277.556.555 1.11.85 1.66.181.337.372.67.56 1.003.324.581.65 1.16.996 1.733.183.305.377.603.565.905.363.58.727 1.16 1.11 1.732.202.3.415.593.621.89.385.553.77 1.107 1.173 1.65.247.333.508.655.761.983.38.49.756.984 1.152 1.466.35.426.716.837 1.077 1.253.321.371.632.748.964 1.114q1.065 1.175 2.184 2.297l192 191.999a64 64 0 0090.509-90.51L218.51 576H576a64 64 0 000-128H218.51l82.745-82.745a64 64 0 00-90.51-90.51L18.746 466.744q-1.12 1.12-2.183 2.297c-.332.366-.644.743-.965 1.114-.36.416-.727.827-1.077 1.253z"/></svg>