<svg xmlns="http://www.w3.org/2000/svg" viewBox="0 0 512 1024"><path d="M210.74365,813.25342q1.12134,1.12134,2.29785,2.18457c.36328.32935.7373.63867,1.106.958.41895.36279.833.7312,1.26172,1.083.48.395.97119.769,1.46045,1.14795.3291.25488.65332.5166.98779.76514.543.40381,1.09521.78711,1.64746,1.17139.29785.207.59082.41992.89258.62207.57129.3833,1.15088.74707,1.73145,1.10986.30176.189.6001.38232.90527.56616.57227.34424,1.15137.67065,1.73145.99536.33447.1875.6665.37891,1.00488.56055.54883.29395,1.103.572,1.65771.84888.39014.19507.77832.39258,1.17236.57983.50684.23975,1.01758.46509,1.52832.69092.459.20313.917.40747,1.38135.6001.45361.1875.91064.3623,1.36768.53906.53223.20654,1.064.41235,1.603.60474.40039.14282.8042.27393,1.20654.40845.59814.2,1.19629.39844,1.80176.58105.35889.1084.7207.20532,1.08105.30713.64844.18311,1.29785.36426,1.9541.52734.33594.08325.67285.15527,1.00977.23291.67676.15674,1.35449.31128,2.03906.44629.3457.06787.69336.123,1.04.18555.67188.12061,1.34326.2417,2.02246.34131.40234.05933.80566.10229,1.209.15381.62354.07935,1.24561.16357,1.87451.22461.53711.05273,1.07568.08374,1.61426.1228.50049.03613.99854.08325,1.50244.10767q1.5813.078,3.16406.08008,1.58276,0,3.16406-.08008c.50391-.02441,1.002-.07153,1.50244-.10767.53857-.03906,1.07715-.07007,1.61426-.1228.62891-.061,1.251-.14526,1.87451-.22461.40332-.05151.80664-.09448,1.209-.15381.6792-.09961,1.35059-.2207,2.02246-.34131.34668-.0625.69434-.11768,1.04-.18555.68457-.135,1.3623-.28955,2.03906-.44629.33691-.07764.67383-.14966,1.00977-.23291.65625-.16309,1.30566-.34424,1.9541-.52734.36035-.10181.72217-.19873,1.08105-.30713.60547-.18262,1.20361-.3811,1.80176-.58105.40234-.13452.80615-.26562,1.20654-.40845.53906-.19238,1.0708-.39819,1.603-.60474.457-.17676.91406-.35156,1.36768-.53906.46436-.19263.92236-.397,1.38135-.6001.51074-.22583,1.02148-.45117,1.52832-.69092.394-.18726.78223-.38477,1.17236-.57983.55469-.27686,1.10889-.55493,1.65771-.84888.33838-.18164.67041-.373,1.00488-.56055.58008-.32471,1.15918-.65112,1.73145-.99536.30518-.18384.60352-.3772.90527-.56616.58057-.36279,1.16016-.72656,1.73145-1.10986.30176-.20215.59473-.415.89258-.62207.55225-.38428,1.10449-.76758,1.64746-1.17139.33447-.24854.65869-.51025.98779-.76514.48926-.37891.98047-.75293,1.46045-1.14795.42871-.35181.84277-.72021,1.26172-1.083.36865-.31934.74268-.62866,1.106-.958q1.1748-1.06458,2.29785-2.18457L493.25488,621.25488a64.00007,64.00007,0,0,0-90.50977-90.50977L320,613.49023V256a64,64,0,0,0-128,0V613.49023l-82.74512-82.74512a64.00007,64.00007,0,0,0-90.50977,90.50977Z"/></svg>