<svg xmlns="http://www.w3.org/2000/svg" viewBox="0 0 640 1024"><path d="M14.52148,471.4082c-.39648.48218-.772.97559-1.15234,1.46631-.25342.32764-.51367.6499-.76074.98242-.4043.54346-.78857,1.09668-1.17334,1.6499-.20654.29712-.41895.5896-.62061.89014-.3833.57153-.74756,1.15161-1.11035,1.73242-.18848.30176-.38184.59985-.56543.905-.34473.572-.67139,1.15161-.99609,1.73218-.1875.33423-.37842.666-.56006,1.00391-.29443.54883-.57227,1.10352-.84961,1.65918-.19482.3894-.39209.77686-.57861,1.17065-.23975.50635-.46533,1.01733-.69092,1.52832-.20361.45947-.4082.91772-.60107,1.38281-.187.45215-.36133.908-.5376,1.36353-.20654.53369-.41357,1.06689-.60645,1.60718-.1416.39819-.272.79932-.40576,1.2-.20117.60083-.40039,1.2019-.584,1.81055-.10693.35425-.20264.71069-.30273,1.06641-.18506.65356-.36719,1.30762-.53174,1.96973-.08154.32959-.15234.66113-.229.99194-.1582.68286-.314,1.36621-.44971,2.05737-.06641.3374-.12061.67651-.18115,1.01465-.12256.68042-.24512,1.36035-.34619,2.0481-.05713.39014-.09863.78149-.14893,1.17236-.08105.63574-.1665,1.26978-.229,1.91138-.05078.51733-.08008,1.03613-.11816,1.55444-.03809.52051-.08643,1.03809-.11182,1.562q-.07324,1.49268-.07568,2.98706C.00439,511.88574,0,511.94238,0,512s.00439.11426.00439.17188q.00366,1.49414.07568,2.98706c.02539.52393.07373,1.0415.11182,1.562.03809.51831.06738,1.03711.11816,1.55444.0625.6416.14795,1.27563.229,1.91138.05029.39087.0918.78223.14893,1.17236.10107.68774.22363,1.36768.34619,2.0481.06055.33813.11475.67725.18115,1.01465.13574.69116.2915,1.37451.44971,2.05737.07666.33081.14746.66235.229.99194.16455.66211.34668,1.31616.53174,1.96973.1001.35571.1958.71216.30273,1.06641.18359.60864.38281,1.20972.584,1.81055.13379.40063.26416.80176.40576,1.2.19287.54028.3999,1.07349.60645,1.60718.17627.45557.35059.91138.5376,1.36353.19287.46509.39746.92334.60107,1.38281.22559.511.45117,1.022.69092,1.52832.18652.3938.38379.78125.57861,1.17065.27734.55566.55518,1.11035.84961,1.65918.18164.33789.37256.66968.56006,1.00391.32471.58057.65137,1.16016.99609,1.73218.18359.30518.377.60327.56543.905.36279.58081.72705,1.16089,1.11035,1.73242.20166.30054.41406.593.62061.89014.38477.55322.769,1.10645,1.17334,1.6499.24707.33252.50732.65479.76074.98242.38037.49072.75586.98413,1.15234,1.46631.34961.42578.71582.83691,1.07617,1.25342.32178.37109.63281.748.96484,1.11353q1.06421,1.1748,2.18359,2.29736l191.999,191.99878a64.00007,64.00007,0,0,0,90.50977-90.50977L218.50977,576H576a64,64,0,0,0,0-128H218.50977l82.74512-82.74512a64.00007,64.00007,0,0,0-90.50977-90.50977L18.74609,466.7439q-1.12061,1.121-2.18359,2.29736c-.332.36548-.64307.74243-.96484,1.11353C15.2373,470.57129,14.87109,470.98242,14.52148,471.4082Z"/></svg>