<svg xmlns="http://www.w3.org/2000/svg" viewBox="0 0 512 1024" role="img"><path d="M109.255 493.255L192 410.51V768a64 64 0 00128 0V410.51l82.745 82.745a64 64 0 0090.51-90.51l-192-191.998q-1.12-1.122-2.297-2.185c-.362-.33-.737-.639-1.105-.958-.42-.363-.833-.731-1.262-1.083-.48-.394-.97-.768-1.458-1.146-.33-.256-.655-.518-.991-.768-.541-.402-1.092-.784-1.642-1.167-.3-.209-.595-.423-.898-.626a62.804 62.804 0 00-1.727-1.107c-.304-.19-.603-.384-.91-.57a65.72 65.72 0 00-1.727-.992c-.337-.188-.67-.38-1.01-.563a62.716 62.716 0 00-1.653-.847c-.391-.195-.781-.394-1.177-.582a66.879 66.879 0 00-1.522-.688c-.462-.204-.922-.41-1.39-.603-.45-.186-.903-.36-1.357-.535a62.995 62.995 0 00-1.613-.61c-.397-.14-.796-.27-1.195-.404a65.148 65.148 0 00-1.814-.585c-.354-.106-.71-.202-1.065-.302a63.027 63.027 0 00-1.971-.532c-.328-.082-.66-.152-.989-.228a63.506 63.506 0 00-2.061-.451c-.336-.066-.673-.12-1.009-.18-.682-.123-1.364-.246-2.054-.347-.388-.057-.779-.098-1.168-.148-.637-.082-1.272-.167-1.915-.23-.516-.05-1.035-.08-1.552-.118-.522-.038-1.04-.087-1.564-.112q-1.492-.073-2.987-.076c-.058 0-.114-.004-.172-.004s-.114.004-.172.004q-1.494.004-2.987.076c-.525.025-1.042.074-1.564.112-.517.038-1.036.068-1.552.118-.643.063-1.278.148-1.914.23-.39.05-.78.09-1.17.148-.689.101-1.37.224-2.053.347-.336.06-.673.114-1.009.18-.692.136-1.377.292-2.061.45-.33.077-.66.147-.989.229a62.14 62.14 0 00-1.971.532c-.355.1-.711.196-1.065.302-.61.184-1.212.384-1.814.585-.399.134-.798.264-1.195.405-.543.194-1.078.4-1.613.609-.454.175-.907.349-1.357.535-.468.193-.928.399-1.39.603-.509.225-1.018.45-1.521.688-.397.188-.787.387-1.178.582-.554.276-1.106.554-1.653.847-.34.182-.673.375-1.01.563a65.75 65.75 0 00-1.727.993c-.306.185-.606.38-.91.569a63.09 63.09 0 00-1.727 1.107c-.303.203-.598.417-.898.626-.55.383-1.1.765-1.642 1.167-.336.25-.66.512-.99.768-.49.378-.98.752-1.459 1.146-.428.352-.843.72-1.261 1.083-.369.32-.744.629-1.106.958q-1.176 1.065-2.298 2.185L18.745 402.745a64 64 0 0090.51 90.51z"/></svg>