<svg xmlns="http://www.w3.org/2000/svg" viewBox="0 0 1024 1024" role="img"><path d="M896 543v358.929A57.171 57.171 0 01838.857 959H121.143A57.171 57.171 0 0164 901.929V184.07A57.171 57.171 0 01121.143 127H608a32 32 0 010 64H128v704h704V543a32 32 0 0164 0zM256 655v160a16 16 0 0016 16h160a16 16 0 0011.313-27.313l-160-160A16 16 0 00256 655zm475.352-459.351a16 16 0 00-22.627 0l-384 384.037a15.998 15.998 0 000 22.627l160 160a15.999 15.999 0 0022.627 0l384-384.037a15.998 15.998 0 000-22.627zm269.254-39.765l-69.49-69.49a80.09 80.09 0 00-113.137 0l-45.254 45.255a15.999 15.999 0 000 22.627l160 160a15.999 15.999 0 0022.627 0l45.254-45.255a80.091 80.091 0 000-113.137z"/></svg>