<svg xmlns="http://www.w3.org/2000/svg" viewBox="0 0 512 1024"><title>move-up</title><path d="M109.25488,365.25488,192,282.50977V704a64,64,0,0,0,128,0V282.50977l82.74512,82.74512a64.00007,64.00007,0,0,0,90.50977-90.50977l-192-192c-.03467-.03467-.07178-.06641-.10645-.10107q-1.0686-1.06421-2.18555-2.07788c-.38086-.34521-.77246-.66968-1.15918-1.00415-.40186-.34692-.79785-.7002-1.208-1.03711-.49072-.40356-.99219-.78589-1.49219-1.17236-.31934-.24707-.6333-.50049-.957-.7417-.5498-.40869-1.10889-.79712-1.66846-1.186-.29053-.20215-.57715-.41016-.87158-.60767-.57666-.387-1.16211-.75464-1.74854-1.12085-.29639-.18506-.58887-.375-.88867-.55542-.57666-.34717-1.16064-.67627-1.74561-1.00366-.33008-.18481-.65723-.37354-.99072-.55273-.55273-.29639-1.11084-.57617-1.66992-.85522-.38623-.19287-.77051-.38843-1.16064-.57373-.50928-.24121-1.02295-.46777-1.53662-.69458-.457-.20239-.9126-.40576-1.37549-.59766-.4541-.188-.9126-.36328-1.37061-.54028-.53076-.20581-1.062-.41162-1.6001-.60376-.40039-.14258-.8042-.27393-1.207-.40845-.59863-.2002-1.19727-.39893-1.80371-.58179-.35645-.10742-.71484-.20386-1.07275-.30469-.65186-.18433-1.30371-.366-1.96338-.52979-.33105-.08228-.66406-.15332-.99609-.23-.68213-.15771-1.36475-.31348-2.05469-.44922-.3374-.06665-.67676-.12036-1.01514-.1814-.68018-.12231-1.35986-.24487-2.04736-.3457-.39062-.05737-.78271-.09888-1.17383-.14917-.63525-.08105-1.269-.1665-1.91016-.229-.51758-.05078-1.03613-.08008-1.55469-.11816-.52051-.03809-1.03809-.08667-1.562-.11206q-1.49268-.07324-2.98682-.07544C256.11426,64.00415,256.05762,64,256,64s-.11426.00415-.17187.00439q-1.49414.00366-2.98682.07544c-.52393.02539-1.0415.074-1.562.11206-.51855.03809-1.03711.06738-1.55469.11816-.64111.0625-1.2749.14795-1.91016.229-.39111.05029-.7832.0918-1.17383.14917-.6875.10083-1.36719.22339-2.04736.3457-.33838.061-.67773.11475-1.01514.1814-.68994.13574-1.37256.2915-2.05469.44922-.332.07666-.665.14771-.99609.23-.65967.16382-1.31152.34546-1.96338.52979-.35791.10083-.71631.19727-1.07275.30469-.60645.18286-1.20508.38159-1.80371.58179-.40283.13452-.80664.26587-1.207.40845-.53809.19189-1.06885.39771-1.59961.60352-.4585.17725-.917.35278-1.37207.541-.46191.19141-.917.39453-1.37354.59668-.51416.22705-1.02832.45386-1.5376.69507-.39014.1853-.77441.38086-1.16064.57373-.55908.27905-1.11719.55884-1.66992.85522-.3335.1792-.66064.36792-.99072.55273-.585.32739-1.16895.65649-1.74561,1.00366-.2998.18042-.59229.37036-.88867.55542-.58643.36621-1.17187.73389-1.74854,1.12085-.29443.19751-.58105.40552-.87158.60767-.55957.38892-1.11865.77734-1.66846,1.186-.32373.24121-.6377.49463-.957.7417-.5.38647-1.00146.7688-1.49219,1.17236-.41016.33691-.80615.69019-1.208,1.03711-.38672.33447-.77832.65894-1.15918,1.00415q-1.11768,1.01257-2.18555,2.07788c-.03467.03467-.07178.06641-.10645.10107l-192,192a64.00007,64.00007,0,0,0,90.50977,90.50977Z"/><circle cx="256" cy="896" r="64"/></svg>