<svg xmlns="http://www.w3.org/2000/svg" viewBox="0 0 896 1024"><title>move-right</title><path d="M256,576H677.49023l-82.74512,82.74512a64.00007,64.00007,0,0,0,90.50977,90.50977l192-192c.03589-.03589.06836-.07349.104-.10937q1.06238-1.06714,2.07471-2.18237c.34741-.38281.67383-.77734,1.01025-1.1665.34473-.39893.69531-.79224,1.03027-1.19971.40479-.49219.78833-.99536,1.17627-1.49658.24585-.31812.49829-.63062.73828-.95337.4104-.55151.80029-1.11279,1.19043-1.67432.20068-.28833.40674-.57239.60254-.86426.38818-.57861.75708-1.16577,1.12451-1.75391.18408-.2948.373-.58606.55225-.884.3479-.57764.67749-1.16248,1.00537-1.74854.18457-.3291.37256-.65576.55127-.98853.29663-.55273.5769-1.11145.856-1.6709.19287-.38586.38818-.76978.57349-1.15991.24121-.50952.46826-1.02368.69531-1.53809.2019-.45618.405-.91138.59644-1.373.18848-.45557.36426-.91467.5415-1.37366.20557-.53015.41089-1.06006.60254-1.59692.14331-.40186.2749-.80652.40967-1.21057.2-.59741.39819-1.19507.58081-1.80029.10767-.35718.20435-.7168.30542-1.07544.18408-.651.36572-1.30249.5293-1.96167.08252-.332.15356-.66577.23047-.99878.15747-.68079.313-1.36194.44873-2.0509.06665-.339.12061-.67957.18188-1.01941.12231-.6792.24463-1.35815.34521-2.04468.05737-.39014.09888-.78149.14893-1.17236.0813-.63574.16675-1.2699.22925-1.91125.05078-.51746.08008-1.03625.11816-1.55457.03809-.52051.08667-1.03809.11206-1.562q.07324-1.49268.07544-2.98718c.00024-.0575.00439-.11414.00439-.17175s-.00415-.11426-.00439-.17175q-.00366-1.49414-.07544-2.98718c-.02539-.52393-.074-1.0415-.11206-1.562-.03809-.51831-.06738-1.03711-.11816-1.55457-.0625-.64136-.14795-1.27551-.22925-1.91125-.05-.39087-.09155-.78223-.14893-1.17236-.10059-.68652-.2229-1.36548-.34521-2.04468-.06128-.33984-.11523-.68042-.18188-1.01941-.13574-.689-.29126-1.37012-.44873-2.0509-.0769-.333-.14795-.66675-.23047-.99878-.16357-.65918-.34521-1.31067-.5293-1.96167-.10107-.35864-.19775-.71826-.30542-1.07544-.18262-.60522-.38086-1.20288-.58081-1.80029-.13477-.40405-.26636-.80872-.40967-1.21057-.19165-.53687-.397-1.06677-.60254-1.59692-.17725-.459-.353-.91809-.5415-1.37366-.19141-.46167-.39453-.91687-.59644-1.373-.22705-.5144-.4541-1.02856-.69531-1.53809-.1853-.39014-.38062-.774-.57349-1.15991-.27905-.55945-.55933-1.11816-.856-1.6709-.17871-.33276-.3667-.65942-.55127-.98853-.32788-.58606-.65747-1.1709-1.00537-1.74854-.1792-.298-.36816-.58923-.55225-.884-.36743-.58813-.73633-1.17529-1.12451-1.75391-.1958-.29187-.40186-.57593-.60254-.86426-.39014-.56152-.78-1.1228-1.19043-1.67432-.24-.32275-.49243-.63525-.73828-.95337-.38794-.50122-.77148-1.00439-1.17627-1.49658-.335-.40747-.68555-.80078-1.03027-1.19971-.33643-.38916-.66284-.78369-1.01025-1.1665q-1.01147-1.11584-2.07471-2.18237c-.03564-.03589-.06812-.07349-.104-.10937l-192-192a64.00007,64.00007,0,0,0-90.50977,90.50977L677.49023,448H256a64,64,0,0,0,0,128Z"/><circle cx="64" cy="512" r="64"/></svg>