<svg xmlns="http://www.w3.org/2000/svg" viewBox="0 0 512 1024"><path d="M210.74512,941.25488c.03467.03479.07178.06641.10645.1012q1.0686,1.06384,2.18555,2.07776c.38086.34521.77246.6698,1.15918,1.00415.40186.34692.79785.70007,1.208,1.03711.4917.4043.99414.78723,1.49463,1.17456.31836.24609.63086.49866.9541.73877.55078.41016,1.11182.7998,1.67285,1.18994.28955.20093.57422.40747.8667.60376.57813.38818,1.165.75684,1.75293,1.124.29492.18408.58594.3728.88379.55225.57813.34814,1.16406.67822,1.75049,1.00635.32861.18408.6543.37183.98633.55.55371.29712,1.11377.57813,1.67432.85767.38477.19214.76709.387,1.15576.57129.51123.24231,1.02783.47021,1.54395.698.4541.20093.90674.40308,1.36621.59351.458.1897.91992.36633,1.38135.5448.52783.20447,1.05518.40881,1.58936.59973.40479.144.812.27661,1.21924.41235.59375.19873,1.18848.396,1.79.57764.3623.10913.72705.207,1.09082.30969.64551.18225,1.292.36255,1.9458.525.33789.084.67773.15649,1.01709.23474.67432.15588,1.34961.31018,2.03223.44446.34766.0686.69727.12415,1.0459.18689.66992.12024,1.33984.24109,2.0166.34045.40381.05945.80908.10254,1.21387.15417.62207.07922,1.24268.16321,1.87012.22424.53809.05286,1.07764.08386,1.6167.123.5.036.99707.083,1.50049.10754q1.5813.07782,3.16406.08,1.58276,0,3.16406-.08c.50342-.02454,1.00049-.07153,1.50049-.10754.53906-.03918,1.07861-.07019,1.6167-.123.62744-.061,1.248-.145,1.87012-.22424.40479-.05164.81006-.09473,1.21387-.15417.67676-.09937,1.34668-.22021,2.0166-.34045.34863-.06274.69824-.11829,1.0459-.18689.68262-.13428,1.35791-.28857,2.03223-.44446.33936-.07825.6792-.15076,1.01709-.23474.65381-.16248,1.30029-.34277,1.9458-.525.36377-.10266.72852-.20056,1.09082-.30969.60156-.18164,1.19629-.37891,1.79-.57764.40723-.13574.81445-.26831,1.21924-.41235.53418-.19092,1.062-.39539,1.58984-.59985.46094-.17847.92236-.3551,1.38037-.54443.46-.19067.91309-.39307,1.36768-.59424.51611-.22778,1.03174-.45532,1.543-.69739.38867-.18445.771-.37927,1.15576-.57141.56055-.27954,1.12061-.56055,1.67432-.85767.332-.17822.65771-.366.98633-.55.58643-.32812,1.17236-.6582,1.75049-1.00635.29785-.17944.58887-.36816.88379-.55225.58789-.36719,1.1748-.73584,1.75293-1.124.29248-.19629.57715-.40283.8667-.60376.561-.39014,1.12207-.77979,1.67285-1.18994.32324-.24011.63574-.49268.9541-.73877.50049-.38733,1.00293-.77026,1.49463-1.17456.41016-.337.80615-.69019,1.208-1.03711.38672-.33435.77832-.65894,1.15918-1.00415q1.11768-1.01276,2.18555-2.07776c.03467-.03479.07178-.06641.10645-.1012l192-192a64.00007,64.00007,0,0,0-90.50977-90.50977L320,741.49023V320a64,64,0,0,0-128,0V741.49023l-82.74512-82.74512a64.00007,64.00007,0,0,0-90.50977,90.50977Z"/><circle cx="256" cy="128" r="64"/></svg>