<svg xmlns="http://www.w3.org/2000/svg" viewBox="0 0 1024 1024"><path d="M960,192H64A64.00012,64.00012,0,0,0,0,256V768a64.00012,64.00012,0,0,0,64,64H960a64.00008,64.00008,0,0,0,64-64V256A64.00008,64.00008,0,0,0,960,192Zm-64.0351,80L512.00049,582.8291,128.03662,272l-19.765-16H915.72986ZM960,768H64V302.50342l252.67871,204.5498L140.12939,646.917a32,32,0,1,0,39.74121,50.166L211.53284,672l156.1217-123.68066L491.86621,648.87207a32.00063,32.00063,0,0,0,40.26855,0L656.34637,548.31982,812.46722,672l31.66217,25.083a32,32,0,1,0,39.74121-50.166L707.32214,507.05371,960,302.50488V768Z"/></svg>