<svg xmlns="http://www.w3.org/2000/svg" viewBox="0 0 1024 1024"><title>debug-block</title><rect x="480" y="544" width="64" height="352"/><polygon points="128 544 0 544 0 1024 480 1024 480 896 128 896 128 544"/><rect x="128" y="480" width="352" height="64"/><polygon points="544 896 544 1024 1024 1024 1024 544 896 544 896 896 544 896"/><rect x="544" y="480" width="352" height="64"/><polygon points="480 128 480 0 0 0 0 480 128 480 128 128 480 128"/><polygon points="896 480 1024 480 1024 0 544 0 544 128 896 128 896 480"/><rect x="480" y="128" width="64" height="352"/></svg>