<svg xmlns="http://www.w3.org/2000/svg" viewBox="0 0 1024 1024" role="img"><path d="M960 927a32 32 0 01-32 32H96a32 32 0 010-64h832a32 32 0 0132 32zm-784-96h160a16 16 0 0011.313-27.313l-160-160A16 16 0 00160 655v160a16 16 0 0016 16zm212.687-68.687a15.999 15.999 0 0022.627 0l384.038-384.037a15.998 15.998 0 000-22.627l-160-160a16 16 0 00-22.627 0L228.687 579.687a15.998 15.998 0 000 22.627zm448.038-448.037a15.999 15.999 0 0022.627 0l45.254-45.255a80.091 80.091 0 000-113.137l-69.49-69.49a80.09 80.09 0 00-113.137 0l-45.254 45.255a15.999 15.999 0 000 22.627z"/></svg>