<svg xmlns="http://www.w3.org/2000/svg" viewBox="0 0 896 1024"><title>move-left</title><path d="M15.55615,470.20337c-.34473.39893-.69531.79224-1.03027,1.19971-.40479.49219-.78857.99536-1.17627,1.49658-.24561.31812-.498.63062-.73828.95337-.41016.55151-.80029,1.11279-1.19043,1.67432-.20068.28833-.40674.57239-.60254.86426-.38818.57861-.75684,1.16577-1.12451,1.75391-.18408.2948-.373.58606-.55225.884-.34766.57764-.67773,1.16248-1.00537,1.74854-.18457.3291-.37256.65576-.55127.98853-.29639.55273-.57666,1.11145-.856,1.6709-.19287.38574-.38818.76965-.57324,1.15979-.2417.51038-.46924,1.02527-.69678,1.54065-.20117.45483-.40381.90869-.59473,1.36914-.18848.45654-.36475.91675-.54248,1.37646-.20557.52979-.41064,1.0592-.60205,1.59558-.14307.40186-.2749.80652-.40967,1.21057-.19971.59741-.39844,1.19507-.58057,1.80029-.10791.35718-.20459.7168-.30566,1.07544-.18408.651-.36572,1.30249-.5293,1.96167-.08252.332-.15332.66577-.23047.99878-.15771.68079-.313,1.36194-.44873,2.0509-.06689.339-.12061.67957-.18213,1.01941-.12207.6792-.24414,1.35815-.34521,2.04468-.05713.39014-.09863.78149-.14893,1.17236-.08105.63574-.1665,1.2699-.229,1.91125-.05078.51746-.08008,1.03625-.11816,1.55457-.03809.52051-.08643,1.03809-.11182,1.562q-.07324,1.49268-.07568,2.98718c0,.0575-.00439.11414-.00439.17175s.00439.11426.00439.17175q.00366,1.49414.07568,2.98718c.02539.52393.07373,1.0415.11182,1.562.03809.51831.06738,1.03711.11816,1.55457.0625.64136.14795,1.27551.229,1.91125.05029.39087.0918.78223.14893,1.17236.10107.68652.22314,1.36548.34521,2.04468.06152.33984.11523.68042.18213,1.01941.13574.689.291,1.37012.44873,2.0509.07715.333.14795.66675.23047.99878.16357.65918.34521,1.31067.5293,1.96167.10107.35864.19775.71826.30566,1.07544.18213.60522.38086,1.20288.58057,1.80029.13477.40405.2666.80872.40967,1.21057.19141.53638.39648,1.0658.60205,1.59558.17773.45972.354.91992.54248,1.37646.19092.46045.39355.91431.59473,1.36914.22754.51538.45508,1.03027.69678,1.54065.18506.39014.38037.774.57324,1.15979.2793.55945.55957,1.11816.856,1.6709.17871.33276.3667.65942.55127.98853.32764.58606.65771,1.1709,1.00537,1.74854.1792.298.36816.58923.55225.884.36768.58813.73633,1.17529,1.12451,1.75391.1958.29187.40186.57593.60254.86426.39014.56152.78027,1.1228,1.19043,1.67432.24023.32275.49268.63525.73828.95337.3877.50122.77148,1.00439,1.17627,1.49658.335.40747.68555.80078,1.03027,1.19971.33643.38916.66309.78369,1.01025,1.1665q1.01147,1.11584,2.07471,2.18237c.03564.03589.06836.07349.104.10938l192,192a64.00007,64.00007,0,0,0,90.50977-90.50977L218.50977,576H640a64,64,0,0,0,0-128H218.50977l82.74512-82.74512a64.00007,64.00007,0,0,0-90.50977-90.50977l-192,192c-.03564.03589-.06836.07349-.104.10938q-1.062,1.06714-2.07471,2.18237C16.21924,469.41968,15.89258,469.81421,15.55615,470.20337Z"/><circle cx="832" cy="512" r="64"/></svg>