<svg xmlns="http://www.w3.org/2000/svg" viewBox="0 0 1024 1024"><title>zoom-out</title><path d="M28.11719,995.88281a96.00271,96.00271,0,0,0,135.76563,0l240-240a95.54166,95.54166,0,0,0,26.45776-50.12439A382.1985,382.1985,0,0,0,640,768c212.07715,0,384-171.92261,384-384S852.07715,0,640,0C427.92261,0,256,171.92261,256,384a382.19759,382.19759,0,0,0,62.2417,209.65942,95.54467,95.54467,0,0,0-50.12451,26.45776l-240,240A96.00153,96.00153,0,0,0,28.11719,995.88281ZM640,128c141.38477,0,256,114.61511,256,256S781.38477,640,640,640,384,525.38489,384,384,498.61523,128,640,128Z"/><path d="M512,432H768a48,48,0,0,0,0-96H512a48,48,0,0,0,0,96Z"/></svg>