<svg xmlns="http://www.w3.org/2000/svg" viewBox="0 0 1024 1024"><title>squircle-s</title><polygon points="1024 517.703 1024 531.7 1024 545.696 1023.999 559.692 1023.997 573.688 1023.993 587.685 1023.983 601.681 1023.965 615.677 1023.935 629.674 1023.885 643.67 1023.81 657.666 1023.699 671.663 1023.542 685.659 1023.325 699.655 1023.032 713.652 1022.646 727.648 1022.146 741.644 1021.508 755.64 1020.705 769.637 1019.707 783.633 1018.48 797.629 1018.224 800.033 1016.865 811.626 1014.886 825.622 1012.522 839.618 1009.716 853.615 1006.16 868.52 1002.172 881.607 997.21 895.604 994.096 903.192 991.191 909.6 983.885 923.596 982.033 926.693 974.809 937.592 969.969 943.996 963.592 951.589 957.905 957.55 949.365 965.585 945.842 968.515 933.778 977.491 930.627 979.581 921.714 984.829 909.65 991.142 904.396 993.578 897.587 996.388 885.523 1000.78 873.459 1004.641 862.983 1007.574 861.395 1007.971 849.332 1010.599 837.268 1012.877 825.204 1014.841 813.14 1016.524 801.077 1017.959 789.013 1019.172 776.949 1020.192 764.886 1021.042 755.818 1021.57 752.822 1021.727 740.758 1022.242 728.694 1022.659 716.631 1022.993 704.567 1023.257 692.503 1023.462 680.439 1023.619 668.376 1023.738 656.312 1023.824 644.248 1023.886 632.184 1023.93 620.121 1023.959 608.057 1023.977 595.993 1023.988 583.93 1023.995 571.866 1023.998 559.802 1023.999 547.738 1024 535.674 1024 523.611 1024 511.547 1024 499.483 1024 487.42 1024 475.356 1024 463.292 1023.999 451.228 1023.998 439.165 1023.994 427.101 1023.988 415.037 1023.976 402.973 1023.957 390.91 1023.927 378.846 1023.882 366.782 1023.819 354.719 1023.73 342.655 1023.609 330.591 1023.448 318.527 1023.239 306.464 1022.97 294.4 1022.631 282.336 1022.207 270.272 1021.683 268.137 1021.57 258.209 1020.984 246.145 1020.122 234.081 1019.088 222.017 1017.858 209.954 1016.406 197.89 1014.703 185.826 1012.716 173.762 1010.413 161.699 1007.757 149.635 1004.367 137.571 1000.468 125.508 996.033 119.613 993.578 113.444 990.692 101.38 984.321 93.399 979.581 89.316 976.848 77.253 967.796 74.616 965.585 65.189 956.643 53.125 942.849 49.183 937.592 41.061 925.241 40.085 923.596 28.998 901.073 26.77 895.604 21.845 881.607 16.934 864.99 14.267 853.615 11.482 839.618 9.135 825.622 7.171 811.626 5.542 797.629 4.87 790.611 4.263 783.633 3.272 769.637 2.475 755.64 1.841 741.644 1.344 727.648 0.961 713.652 0.671 699.655 0.455 685.659 0.299 671.663 0.189 657.666 0.114 643.67 0.065 629.674 0.035 615.677 0.017 601.681 0.007 587.685 0.003 573.688 0.001 559.692 0 545.696 0 531.7 0 517.703 0 503.707 0 489.711 0 475.714 0.001 461.718 0.003 447.722 0.009 433.725 0.019 419.729 0.039 405.733 0.073 391.736 0.126 377.74 0.207 363.744 0.325 349.748 0.491 335.751 0.72 321.755 1.027 307.759 1.43 293.762 1.951 279.766 2.615 265.77 3.447 251.773 4.479 237.777 4.87 233.447 5.831 223.781 7.521 209.784 9.555 195.788 11.983 181.792 14.858 167.796 16.934 159.209 18.376 153.799 22.736 139.803 27.804 125.807 28.998 122.955 34.153 111.81 41.061 98.823 51.098 83.818 53.125 81.181 62.827 69.821 65.189 67.385 77.253 56.213 89.316 47.325 97.72 41.829 101.38 39.704 113.444 33.476 125.508 27.958 137.571 23.606 149.635 19.792 161.699 16.453 172.552 13.836 185.826 11.321 197.89 9.377 209.954 7.709 222.017 6.288 234.081 5.084 246.145 4.073 258.209 3.229 270.272 2.531 282.336 1.959 294.4 1.496 306.464 1.125 318.527 0.831 330.591 0.602 342.655 0.427 354.719 0.295 366.782 0.198 378.846 0.128 390.91 0.08 402.973 0.047 415.037 0.026 427.101 0.014 439.165 0.006 451.228 0.003 463.292 0.001 475.356 0 487.42 0 499.483 0 511.547 0 523.611 0 535.674 0 547.738 0 559.802 0.001 571.866 0.002 583.93 0.006 595.993 0.013 608.057 0.025 620.121 0.045 632.184 0.077 644.248 0.124 656.312 0.192 668.376 0.287 680.439 0.416 692.503 0.588 704.567 0.812 716.631 1.1 728.694 1.465 740.758 1.921 752.822 2.484 764.886 3.171 776.949 4.003 789.013 5.002 801.077 6.19 813.14 7.594 825.204 9.242 837.268 11.164 849.332 13.394 851.407 13.836 861.395 16.219 873.459 19.524 885.523 23.3 897.587 27.597 909.65 33.035 921.714 39.207 926.269 41.829 933.778 46.697 945.842 55.466 957.905 66.499 961.152 69.821 969.969 80.062 972.879 83.818 982.033 97.28 989.863 111.81 994.096 120.894 1001.274 139.803 1005.667 153.799 1006.16 155.635 1012.018 181.792 1014.463 195.788 1016.512 209.784 1018.214 223.781 1019.489 237.777 1020.529 251.773 1021.367 265.77 1022.035 279.766 1022.56 293.762 1022.966 307.759 1023.275 321.755 1023.505 335.751 1023.673 349.748 1023.792 363.744 1023.873 377.74 1023.927 391.736 1023.961 405.733 1023.981 419.729 1023.991 433.725 1023.997 447.722 1023.999 461.718 1024 475.714 1024 489.711 1024 503.707 1024 517.703"/></svg>