<svg xmlns="http://www.w3.org/2000/svg" viewBox="0 0 960 1024" role="img"><path d="M717.255 255H704V127a63.995 63.995 0 00-64-64H474.53a96.028 96.028 0 00-181.06 0H128a63.995 63.995 0 00-64 64v640a63.995 63.995 0 0064 64h192v64a64 64 0 0064 64h448a64 64 0 0064-64V433.745zM384 63a32 32 0 11-32 32 32 32 0 0132-32zm-64 256v448H128V127h165.47a96.028 96.028 0 00181.06 0H640v128H384a64 64 0 00-64 64zm512 576H384V319h256v96a96.109 96.109 0 0096 96h96zm-96-448a32 32 0 01-32-32v-82.745L818.745 447zm32 224a32 32 0 01-32 32H480a32 32 0 010-64h256a32 32 0 0132 32zm0 128a32 32 0 01-32 32H480a32 32 0 010-64h256a32 32 0 0132 32zM448 543a32 32 0 0132-32h128a32 32 0 010 64H480a32 32 0 01-32-32z"/></svg>