<svg xmlns="http://www.w3.org/2000/svg" viewBox="0 0 896 1024" role="img"><path d="M256 576h421.49l-82.745 82.745a64 64 0 0090.51 90.51l192-192c.036-.036.068-.074.104-.11q1.062-1.067 2.075-2.182c.347-.383.673-.777 1.01-1.166.345-.4.695-.793 1.03-1.2.405-.492.788-.995 1.176-1.497.246-.318.499-.63.739-.953.41-.552.8-1.113 1.19-1.674.2-.289.407-.573.603-.865.388-.578.757-1.165 1.124-1.753.184-.295.373-.587.552-.884.348-.578.678-1.163 1.006-1.749.184-.33.372-.656.551-.989.297-.552.577-1.111.856-1.67.193-.386.388-.77.574-1.16.24-.51.468-1.024.695-1.538.202-.457.405-.912.596-1.373.189-.456.365-.915.542-1.374.205-.53.41-1.06.602-1.597.144-.402.275-.807.41-1.21.2-.598.398-1.196.58-1.8.108-.358.205-.718.306-1.076.184-.651.366-1.303.53-1.962.082-.332.153-.666.23-.999.157-.68.313-1.362.449-2.05.066-.34.12-.68.182-1.02.122-.68.244-1.358.345-2.045.057-.39.099-.781.149-1.172.081-.636.166-1.27.229-1.911.05-.518.08-1.037.118-1.555.038-.52.087-1.038.112-1.562q.073-1.493.076-2.987c0-.058.004-.114.004-.172s-.004-.114-.004-.172q-.004-1.494-.076-2.987c-.025-.524-.074-1.041-.112-1.562-.038-.518-.067-1.037-.118-1.554-.063-.642-.148-1.276-.23-1.912-.05-.39-.09-.782-.148-1.172-.1-.687-.223-1.365-.345-2.045-.062-.34-.116-.68-.182-1.02a63.924 63.924 0 00-.449-2.05c-.077-.333-.148-.667-.23-.999a64.295 64.295 0 00-.53-1.961c-.1-.36-.198-.719-.305-1.076a63.145 63.145 0 00-.581-1.8c-.135-.404-.266-.809-.41-1.21a63.19 63.19 0 00-.602-1.598c-.177-.459-.353-.918-.542-1.373-.191-.462-.394-.917-.596-1.373a63.705 63.705 0 00-.695-1.538c-.186-.39-.381-.774-.574-1.16-.279-.56-.56-1.118-.856-1.671-.179-.333-.367-.66-.551-.989a62.922 62.922 0 00-1.006-1.748c-.179-.298-.368-.59-.552-.884a64.024 64.024 0 00-1.124-1.754c-.196-.292-.402-.576-.603-.864-.39-.562-.78-1.123-1.19-1.675-.24-.323-.493-.635-.739-.953-.388-.501-.771-1.005-1.176-1.497-.335-.407-.685-.8-1.03-1.2-.337-.389-.663-.783-1.01-1.166q-1.012-1.116-2.075-2.182c-.036-.036-.068-.074-.104-.11l-192-192a64 64 0 00-90.51 90.51L677.49 448H256a64 64 0 000 128z"/><circle cx="64" cy="512" r="64"/></svg>