<svg xmlns="http://www.w3.org/2000/svg" viewBox="0 0 1024 1024"><path d="M630.80176,729.31445c0,35.25977-25.41895,59.44922-57.39844,59.44922-31.56885,0-58.62793-22.96-58.62793-59.44922,0-35.25879,27.05908-59.03809,58.62793-59.03809C605.38281,670.27637,630.80176,692.82617,630.80176,729.31445ZM879.4613,960H144.5387a64.0001,64.0001,0,0,1-62.34576-78.457l98.31885-424A64.00012,64.00012,0,0,1,242.85754,408h176.167A96.201,96.201,0,0,1,480,341.47021V289.73047H448A97.84138,97.84138,0,0,1,350.269,192V160A97.84138,97.84138,0,0,1,448,62.26953H576A97.84138,97.84138,0,0,1,673.731,160v32A97.84138,97.84138,0,0,1,576,289.73047H544v51.73975A96.201,96.201,0,0,1,604.97546,408h176.167a64.00012,64.00012,0,0,1,62.34576,49.543l98.31885,424A64,64,0,0,1,879.4613,960ZM448,222.26953h32.048a31.99879,31.99879,0,0,1,63.90405,0H576A30.30371,30.30371,0,0,0,606.269,192V160A30.30371,30.30371,0,0,0,576,129.73047H448A30.30371,30.30371,0,0,0,417.731,160v32A30.30371,30.30371,0,0,0,448,222.26953ZM416,544H368V832h48ZM680.82031,729.31445c0-69.69727-43.86865-105.77637-102.90674-105.77637-21.31934,0-54.02393,11.47949-65.91357,32.38867V544H464V832h48V802.70313c15.57959,24.18945,40.084,32.38867,64.68359,32.38867C636.13184,835.0918,680.82031,795.7334,680.82031,729.31445Z"/></svg>
