<svg xmlns="http://www.w3.org/2000/svg" viewBox="0 0 512 1024" role="img"><path d="M210.745 941.255c.035.035.072.066.107.101q1.068 1.064 2.185 2.078c.381.345.773.67 1.16 1.004.401.347.797.7 1.207 1.037.492.404.994.787 1.495 1.175.318.246.63.498.954.738.55.41 1.112.8 1.673 1.19.29.201.574.408.867.604.578.388 1.165.757 1.753 1.124.294.184.585.373.883.552.578.349 1.164.679 1.75 1.007.33.184.655.372.987.55.554.297 1.114.578 1.674.857.385.193.768.387 1.156.572.511.242 1.028.47 1.544.698.454.2.907.403 1.366.593.458.19.92.367 1.382.545.528.204 1.055.409 1.59.6.404.144.811.276 1.218.412.594.199 1.189.396 1.79.578.363.109.727.207 1.091.31a63.64 63.64 0 001.946.524c.338.084.678.157 1.017.235a64.9 64.9 0 002.032.445c.348.068.698.124 1.046.186.67.12 1.34.242 2.017.34.404.06.809.103 1.214.155.622.08 1.242.163 1.87.224.538.053 1.077.084 1.616.123.5.036.998.083 1.5.108q1.582.078 3.165.08 1.583 0 3.164-.08c.503-.025 1-.072 1.5-.108.54-.039 1.08-.07 1.617-.123.628-.06 1.248-.145 1.87-.224.405-.052.81-.095 1.214-.154.677-.1 1.347-.22 2.017-.34.348-.063.698-.119 1.046-.187a63.039 63.039 0 002.032-.445c.34-.078.68-.15 1.017-.235a60.57 60.57 0 001.946-.525c.364-.102.728-.2 1.09-.31a63.15 63.15 0 001.79-.577c.408-.136.815-.268 1.22-.412.534-.191 1.062-.396 1.59-.6.46-.179.922-.355 1.38-.545.46-.19.913-.393 1.368-.594.516-.228 1.032-.455 1.543-.697.388-.185.77-.38 1.156-.572.56-.28 1.12-.56 1.674-.857.332-.178.658-.366.986-.55a63.208 63.208 0 001.75-1.007c.299-.18.59-.368.884-.552a63.064 63.064 0 001.753-1.124c.293-.196.578-.403.867-.604.561-.39 1.122-.78 1.673-1.19.323-.24.636-.492.954-.738.5-.388 1.003-.77 1.495-1.175.41-.337.806-.69 1.208-1.037.386-.334.778-.659 1.159-1.004q1.118-1.013 2.185-2.078c.035-.035.072-.066.107-.101l192-192a64 64 0 00-90.51-90.51L320 741.49V320a64 64 0 00-128 0v421.49l-82.745-82.745a64 64 0 00-90.51 90.51z"/><circle cx="256" cy="128" r="64"/></svg>