<svg xmlns="http://www.w3.org/2000/svg" viewBox="0 0 896 1024" role="img"><path d="M15.556 470.203c-.345.4-.695.793-1.03 1.2-.405.492-.789.995-1.176 1.497-.246.318-.498.63-.739.953-.41.552-.8 1.113-1.19 1.674-.2.289-.407.573-.603.865a64.57 64.57 0 00-1.124 1.754c-.184.294-.373.586-.552.884a62.922 62.922 0 00-1.006 1.748c-.184.33-.372.656-.551.989a64.42 64.42 0 00-.856 1.67c-.193.386-.388.77-.573 1.16-.242.51-.47 1.026-.697 1.54-.201.456-.404.91-.595 1.37-.188.457-.365.917-.542 1.377a63.67 63.67 0 00-.602 1.595c-.143.402-.275.807-.41 1.21-.2.598-.398 1.196-.58 1.801-.108.357-.205.717-.306 1.075a62.774 62.774 0 00-.53 1.962c-.082.332-.153.666-.23.999-.158.68-.313 1.362-.449 2.05-.067.34-.12.68-.182 1.02-.122.68-.244 1.358-.345 2.045-.057.39-.099.781-.149 1.172-.081.636-.166 1.27-.229 1.911-.05.518-.08 1.037-.118 1.555-.038.52-.087 1.038-.112 1.562q-.073 1.493-.076 2.987c0 .058-.004.114-.004.172s.004.114.004.172q.004 1.494.076 2.987c.025.524.074 1.041.112 1.562.038.518.067 1.037.118 1.554.063.642.148 1.276.229 1.912.05.39.092.782.149 1.172.101.687.223 1.366.345 2.045.062.34.115.68.182 1.02.136.688.291 1.37.449 2.05.077.333.148.667.23.999.164.659.346 1.31.53 1.962.1.358.198.718.305 1.075.183.605.381 1.203.581 1.8.135.404.267.809.41 1.21.191.537.396 1.067.602 1.596.177.46.354.92.542 1.377.191.46.394.914.595 1.369.227.515.455 1.03.697 1.54.185.39.38.775.573 1.16.28.56.56 1.119.856 1.671.179.333.367.66.551.989.328.586.658 1.17 1.006 1.748.179.298.368.59.552.884.368.589.736 1.176 1.124 1.754.196.292.402.576.603.865.39.561.78 1.122 1.19 1.674.24.323.493.635.739.953.387.501.771 1.005 1.176 1.497.335.407.685.8 1.03 1.2.337.389.663.783 1.01 1.166q1.012 1.116 2.075 2.182c.036.036.068.074.104.11l192 192a64 64 0 0090.51-90.51L218.51 576H640a64 64 0 000-128H218.51l82.745-82.745a64 64 0 00-90.51-90.51l-192 192c-.036.036-.068.074-.104.11q-1.062 1.067-2.075 2.182c-.347.383-.673.777-1.01 1.166z"/><circle cx="832" cy="512" r="64"/></svg>