<svg xmlns="http://www.w3.org/2000/svg" viewBox="0 0 1024 1024"><title>squircle</title><path d="M1024,475.71436V461.71777l-.00293-13.99609-.00488-13.99609-.01074-13.99658-.02051-13.99609-.03418-13.99658-.05372-13.99609-.08107-13.99658-.11916-13.99609-.167-13.99658-.2305-13.99609-.30864-13.99609-.40631-13.99658-.52547-13.99609-.6671-13.99658-.839-13.99609-1.03922-13.99609-1.27461-13.99658-1.70241-13.99658-2.04915-13.99609-2.44472-13.99609-5.85834-26.15674-.49226-1.83594-4.39326-13.99658-7.17788-18.90918-4.23406-9.083L982.0335,97.28027l-9.15377-13.4624L969.96911,80.062l-8.8168-10.24072-3.2466-3.32275-12.0634-11.03271-12.06438-8.769-7.509-4.86816L921.71452,39.207l-12.0634-6.17187-12.06438-5.4375-12.0634-4.29736-12.0634-3.77637-12.06438-3.30469-9.98789-2.3833-2.07552-.44238-12.06438-2.22949L825.20435,9.2417l-12.0634-1.64795L801.07657,6.18994l-12.0634-1.18848-12.0634-.998-12.06438-.832-12.0634-.688-12.0634-.5625-12.06438-.45605-12.0634-.36475L704.56738.812,692.50349.5874,680.43959.41553,668.3757.28662,656.3123.19189,644.2484.124,632.18451.07666,620.12111.04541,608.05721.0249,595.99332.0127,583.92992.00586,571.866.00244,559.80213.001,547.73824,0H475.35586l-12.0634.001L451.22856.00244,439.16467.00635l-12.0634.00732-12.06389.0127-12.06389.021-12.0634.03271L378.84618.12842,366.78229.19824l-12.0634.09668L342.655.42725,330.5911.60254l-12.0634.22852L306.4638,1.125l-12.06389.37109-12.0634.46338-12.06389.57129-12.06389.69775-12.06389.84424-12.0634,1.01172L222.01753,6.28809,209.95364,7.709l-12.0634,1.668L185.82634,11.3208l-13.274,2.51514L161.699,16.45313,149.63515,19.792l-12.06389,3.814L125.50736,27.958,113.444,33.47559l-12.06389,6.228-3.66024,2.125-8.40365,5.49609-12.0634,8.88867L65.18888,67.38477l-2.3617,2.43652L53.125,81.18115,51.0983,83.81787,41.06158,98.82275l-6.90879,12.98779-5.1551,11.14453-1.19355,2.85156-5.06768,13.99609-4.361,13.99658-1.44163,5.41016-2.07552,8.58594L11.98283,181.792,9.5552,195.78809l-2.034,13.99609L5.83148,223.78076l-.96109,9.6665-.39166,4.33008-1.0319,13.99609-.83216,13.99609-.66319,13.99658L1.4304,293.76221,1.027,307.75879.72033,321.75488.49178,335.751l-.167,13.99658L.20706,363.74365.126,377.74023.07277,391.73633l-.0337,13.99658L.01953,419.729.0083,433.72559.00342,447.72168.001,461.71777,0,475.71436V545.6958l.001,13.99658.00147,13.99609.00488,13.99609L.0166,601.68115l.01807,13.99609L.065,629.67383l.04884,13.99609L.189,657.666.29887,671.6626l.15627,13.99658.21537,13.99609.29057,13.99609L1.344,727.64795,1.84062,741.644l.63389,13.99658L3.272,769.63672l.99088,13.99658.60752,6.97754.67149,7.01855L7.171,811.626l1.96369,13.99609,2.34753,13.99609,2.7851,13.99658,2.66643,11.375,4.91092,16.61768,4.92557,13.99609,2.2274,5.46973,11.08767,22.52295.97623,1.645L49.183,937.59229l3.942,5.25635,12.06389,13.79395,9.42725,8.94238,2.63664,2.21094,12.0634,9.05225,4.08316,2.7334,7.98074,4.73975,12.06389,6.37012,6.16893,2.88623,5.89447,2.45508,12.06389,4.43506,12.06389,3.89893,12.06389,3.39063,12.0634,2.65625,12.06389,2.30273,12.06389,1.98633,12.0634,1.70361,12.06389,1.45215,12.06389,1.22949,12.0634,1.03369,12.06389.86182,9.92879.58692,2.1351.11328,12.06389.52295,12.0634.42383,12.06389.33984,12.06389.269,12.0634.209,12.06389.16064,12.06389.12109,12.0634.08887,12.06389.06348,12.06389.04443,12.0634.02979,12.06389.01953,12.06389.01123,12.0634.00684,12.06389.00342,12.06389.00146,12.0634.001h72.38238l12.06389-.001,12.06389-.00146,12.06389-.00293,12.0634-.00635,12.06389-.01123,12.06389-.01855,12.0634-.02881,12.06389-.043,12.06389-.0625,12.0634-.08691,12.06389-.11816,12.06389-.15723,12.06389-.20508,12.0634-.26367,12.0634-.334,12.06438-.41748,12.0634-.51514,2.99656-.15625,9.06684-.52783,12.06438-.8501,12.0634-1.02,12.0634-1.21387,12.06438-1.43408,12.0634-1.68359,12.0634-1.96387,12.06438-2.27783,12.0634-2.62793,1.58814-.397,10.47624-2.93359,12.0634-3.86035,12.0634-4.39258,6.80966-2.81006,5.25473-2.43555,12.0634-6.31348,8.9135-5.24707,3.14991-2.09082,12.06438-8.97559,3.523-2.93018,8.54039-8.03467,5.68741-5.96143,6.376-7.59277,4.8406-6.40381,7.22378-10.89941,1.85185-3.09668,7.30583-13.99609,2.90573-6.40771,3.11377-7.58887,4.96171-13.99609,3.98793-13.08691,3.55622-14.90576,2.8061-13.99658,2.36463-13.99609,1.97785-13.99609,1.35959-11.59277.2559-2.40381,1.22675-13.99609.9982-13.99658.80286-13.99609.63779-13.99658.50105-13.99609.3858-13.99658.292-13.99609.21683-13.99609.15725-13.99658.11135-13.99658.07521-13.99609.04981-13.99609.03028-13.99658.01758-13.99609.00977-13.99658.00488-13.99609.002-13.99609v-83.978Zm-64.01,0v83.96924l-.002,13.98242-.00488,13.97412-.00977,13.96094-.01758,13.99609-.03028,13.84814-.04981,13.96387-.07423,13.832-.11037,13.87207-.15334,13.68066-.21195,13.67578-.28422,13.623-.37311,13.55664-.47957,13.38477-.60752,13.31836-.756,13.18213-.92788,13.02246-1.13006,12.89111-.15627,1.46826-1.23261,10.50439-1.75027,12.38916-2.05891,12.18506-2.38709,11.90527-2.82759,11.85107-2.99461,9.82959-3.96253,11.17578-2.07845,5.06689-1.69265,3.731-5.63271,10.792-.13479.2251-5.31333,8.01611L919.89,904.10156l-4.01332,4.77979-3.09423,3.24316-5.85541,5.5083-.68858.57275-9.29344,6.91455-.28129.187-6.04782,3.55957-9.28367,4.85889-2.61467,1.21191-4.30731,1.77734-9.60208,3.49658-9.74175,3.11719-8.36166,2.34131-10.12463,2.20557-10.39908,1.96338-10.53875,1.71582-10.71456,1.49561-10.83177,1.2876-10.97339,1.104-11.12967.94141-11.20585.78955-8.50523.49463-2.50723.13086-11.48324.49023-11.577.40088-11.67272.32324-11.701.25586-11.86074.20215-11.73083.15283-11.92911.1167-11.88369.085-12.01652.06152v.00049l-11.892.043-12.00382.02832-12.02727.01855-12.037.01123-12.04436.00635-12.05657.00293-12.06243.00146L547.73873,960h-72.377l-12.06194-.001-12.05364-.00146-12.04729-.00342-12.03557-.00635-12.02287-.01172-12.06389-.01953v.00049l-12.00334-.03027-11.891-.04395-11.98527-.0625-11.9882-.08838-11.73816-.11816-11.95206-.15869-11.68932-.20264-11.73865-.26172-11.6859-.32959-11.56235-.40576-11.492-.499-1.64283-.08691-9.33007-.55127-11.21562-.80127-11.10476-.95166L229.09529,954.248l-10.83519-1.3042-10.69405-1.51025-10.53436-1.73437-10.38394-1.98193-9.39062-2.06787-9.11568-2.562-9.67-3.125-9.60159-3.52979-3.3726-1.40479-3.524-1.64893-9.28465-4.90283-5.116-3.03809-1.21064-.81055-9.19626-6.90039-5.75578-5.46-8.51646-9.73779-1.31026-1.74707-5.51062-8.38037-8.64441-17.56055-.79065-1.94141-3.86926-10.99414-3.92981-13.29785-2.00324-8.5459-2.38416-11.981-2.04671-12.20068-1.74051-12.40625-1.46458-12.585-.58456-6.10742-.5367-6.16943L67.153,765.54883l-.75158-13.186-.60214-13.29395-.47615-13.42432-.37066-13.55273-.28178-13.561-.211-13.71289-.15383-13.78857L64.198,657.272l-.07472-13.875-.04884-13.94678-.02979-13.85547-.01807-13.95557-.00928-13.97754-.00488-13.97949L64.011,559.68848,64.01,545.6958V475.71826l.001-13.98877.00244-13.98389.00537-13.9707.01074-13.957.01953-13.99609.03321-13.88477.05274-13.8623.08009-13.84131.11672-13.834.1636-13.77148.22269-13.62451.29936-13.64893.38873-13.48291.49812-13.38525.63047-13.30664.78186-13.147.96011-13.02783.316-3.49023.8683-8.73291,1.51684-12.564,1.79569-12.35547,2.1097-12.16553,2.453-11.93945,1.64088-6.78662.90834-3.40869,3.53131-11.33643,4.04067-11.1582.13479-.32129,3.91028-8.4541,4.55882-8.56982,6.96837-10.418,7.06018-8.26611,8.02518-7.43164,7.73753-5.70117,5.48279-3.58594.81556-.47363,9.3076-4.80518,8.26447-3.77979,8.37142-3.02,9.7315-3.07666,9.921-2.74561,8.27863-1.99658,10.8557-2.05664,10.48552-1.68994L218.076,71.19482l10.87181-1.28027,10.97632-1.09521,11.13064-.93359,11.25127-.78711,11.31524-.65479,11.46614-.543,11.51937-.44238,11.60337-.35693,11.703-.28516,11.75232-.22266,11.84364-.17187,11.764-.12939,12.016-.09619,11.87588-.06885,11.96183-.04785,11.95841-.03223,12.01994-.021,12.0341-.0127,12.04582-.00732,12.05071-.00391,12.06243-.00146L475.35586,64h72.377l12.06194.001,12.05315.00146,12.04485.00342,12.03557.00684,12.02141.01221,12.06389.02051v-.00049l11.96573.03125,11.97892.04688,11.86757.06689,11.95157.09424,11.84462.12646,11.86415.16895,11.73181.21826,11.65563.27832,11.67077.353,11.495.43457,11.47445.53516,11.34259.64648,11.25859.77637,11.1072.91895,11.0193,1.08594,10.86888,1.26465,10.72335,1.46484,10.57782,1.68555,10.42936,1.92773.46882.09961,8.18975,1.95459,9.93807,2.72217,9.77105,3.05859,8.44468,3.0083,8.25226,3.71924,9.24656,4.731,1.71511.9873,4.65112,3.01514,7.77563,5.65234,8.08036,7.38965.58212.5957,6.42483,7.46289.68077.87891,6.1826,9.09131,5.38658,9.99756,2.45448,5.2666,5.67764,14.95557,3.312,10.55029,5.14826,22.99023,2.03254,11.63574,1.80692,12.34229,1.4934,12.27441,1.13885,12.50146.966,13.01318.78723,13.13574.63291,13.28711.504,13.41553.39166,13.48779.29985,13.58447.22464,13.67773.16409,13.75244.11818,13.84668.08009,13.82227.05274,13.86523.03419,13.88818.02051,13.95166.01074,13.96875.00488,13.98828.00293,13.98291Z"/></svg>