<svg xmlns="http://www.w3.org/2000/svg" viewBox="0 0 1024 1024" role="img"><path d="M570.767 959.01a64.056 64.056 0 01-63.196-74.595A323.941 323.941 0 00512 831c0-176.449-143.551-320-320-320a323.868 323.868 0 00-53.414 4.429 64 64 0 01-21.172-126.237A452.232 452.232 0 01192 383a447.678 447.678 0 01448 448 452.29 452.29 0 01-6.191 74.585 64.019 64.019 0 01-63.042 53.425zm386.105-58.264A780.166 780.166 0 00960 831a763.253 763.253 0 00-60.38-298.96A767.412 767.412 0 00192 63a780.036 780.036 0 00-69.746 3.128 64 64 0 1011.492 127.484A651.6 651.6 0 01192 191c352.897 0 640 287.103 640 640 0 19.432-.879 39.031-2.611 58.254a64 64 0 0057.994 69.488q2.934.264 5.821.262a64.01 64.01 0 0063.668-58.258zM320 831a128 128 0 10-128 128 128 128 0 00128-128z"/></svg>