<svg xmlns="http://www.w3.org/2000/svg" viewBox="0 0 1024 1024"><path d="M640,0C427.92285,0,256,171.92261,256,384a382.19558,382.19558,0,0,0,62.2417,209.65942,95.54467,95.54467,0,0,0-50.12451,26.45776l-240,240A96.00079,96.00079,0,0,0,163.88281,995.88281l240-240a95.54552,95.54552,0,0,0,26.458-50.12439A382.19647,382.19647,0,0,0,640,768c212.07715,0,384-171.92261,384-384S852.07715,0,640,0Zm0,640c-141.38477,0-256-114.61511-256-256S498.61523,128,640,128,896,242.61511,896,384,781.38477,640,640,640Z"/><path d="M768,336H688V256a48,48,0,0,0-96,0v80H512a48,48,0,0,0,0,96h80v80a48,48,0,0,0,96,0V432h80a48,48,0,0,0,0-96Z"/></svg>