<svg xmlns="http://www.w3.org/2000/svg" viewBox="0 0 512 1024" role="img"><path d="M109.255 365.255L192 282.51V704a64 64 0 00128 0V282.51l82.745 82.745a64 64 0 0090.51-90.51l-192-192c-.035-.035-.072-.066-.107-.101q-1.068-1.064-2.185-2.078c-.381-.345-.773-.67-1.16-1.004-.401-.347-.797-.7-1.207-1.037-.491-.404-.992-.786-1.492-1.172-.32-.248-.634-.5-.957-.742-.55-.409-1.11-.797-1.669-1.186-.29-.202-.577-.41-.872-.608a63.139 63.139 0 00-1.748-1.12c-.296-.186-.589-.376-.889-.556a63.485 63.485 0 00-1.745-1.004c-.33-.185-.658-.373-.991-.552a64.022 64.022 0 00-1.67-.856c-.386-.193-.77-.388-1.16-.573-.51-.242-1.024-.468-1.537-.695-.457-.202-.913-.406-1.376-.598-.454-.188-.912-.363-1.37-.54a63.39 63.39 0 00-1.6-.604c-.4-.142-.805-.274-1.207-.408a63.35 63.35 0 00-1.804-.582c-.357-.107-.715-.204-1.073-.305a63.05 63.05 0 00-1.963-.53c-.331-.082-.664-.153-.996-.23a63.75 63.75 0 00-2.055-.449c-.337-.066-.677-.12-1.015-.181-.68-.122-1.36-.245-2.048-.346-.39-.057-.782-.099-1.173-.149-.636-.081-1.27-.166-1.91-.229-.518-.05-1.037-.08-1.555-.118-.52-.038-1.038-.087-1.562-.112q-1.493-.073-2.987-.076c-.058 0-.114-.004-.172-.004s-.114.004-.172.004q-1.494.004-2.987.076c-.524.025-1.041.074-1.562.112-.518.038-1.037.067-1.554.118-.641.063-1.275.148-1.91.23-.392.05-.784.09-1.174.148-.688.101-1.368.224-2.048.346-.338.06-.677.115-1.015.181-.69.136-1.372.292-2.055.45-.332.076-.665.147-.996.23-.66.163-1.311.345-1.963.53-.358.1-.716.197-1.073.304a63.34 63.34 0 00-1.803.582c-.403.134-.807.266-1.207.408-.539.192-1.07.398-1.6.604-.459.177-.917.353-1.372.54-.462.192-.917.395-1.374.597-.514.228-1.028.454-1.537.696-.39.185-.775.38-1.161.573-.559.28-1.117.56-1.67.855-.333.18-.66.368-.99.553a63.44 63.44 0 00-1.746 1.004c-.3.18-.592.37-.889.555-.586.366-1.172.734-1.748 1.121-.295.198-.581.406-.872.608-.56.389-1.119.777-1.668 1.186-.324.241-.638.494-.957.742-.5.386-1.002.768-1.493 1.172-.41.337-.806.69-1.208 1.037-.386.334-.778.659-1.159 1.004q-1.117 1.013-2.185 2.078c-.035.035-.072.066-.107.101l-192 192a64 64 0 0090.51 90.51z"/><circle cx="256" cy="896" r="64"/></svg>