<svg xmlns="http://www.w3.org/2000/svg" viewBox="0 0 1024 1024" role="img"><path d="M28.117 995.883a96.003 96.003 0 00135.766 0l240-240a95.542 95.542 0 0026.458-50.125A382.199 382.199 0 00640 768c212.077 0 384-171.923 384-384S852.077 0 640 0 256 171.923 256 384a382.198 382.198 0 0062.242 209.66 95.545 95.545 0 00-50.125 26.457l-240 240a96.002 96.002 0 000 135.766zM640 128c141.385 0 256 114.615 256 256S781.385 640 640 640 384 525.385 384 384s114.615-256 256-256z"/><path d="M512 432h256a48 48 0 000-96H512a48 48 0 000 96z"/></svg>