<svg xmlns="http://www.w3.org/2000/svg" viewBox="0 0 1024 1024" role="img"><path d="M1024 517.703v27.993l-.001 13.996-.002 13.996-.004 13.997-.01 13.996-.018 13.996-.03 13.997-.05 13.996-.075 13.996-.111 13.997-.157 13.996-.217 13.996-.293 13.997-.386 13.996-.5 13.996-.638 13.996-.803 13.997-.998 13.996-1.227 13.996-.256 2.404-1.359 11.593-1.979 13.996-2.364 13.996-2.806 13.997-3.556 14.905-3.988 13.087-4.962 13.997-3.114 7.588-2.905 6.408-7.306 13.996-1.852 3.097-7.224 10.899-4.84 6.404-6.377 7.593-5.687 5.961-8.54 8.035-3.523 2.93-12.064 8.976-3.151 2.09-8.913 5.248-12.064 6.313-5.254 2.436-6.809 2.81-12.064 4.392-12.064 3.861-10.476 2.933-1.588.397-12.063 2.628-12.064 2.278-12.064 1.964-12.064 1.683-12.063 1.435-12.064 1.213-12.064 1.02-12.063.85-9.068.528-2.996.157-12.064.515-12.064.417-12.063.334-12.064.264-12.064.205-12.064.157-12.063.119-12.064.086-12.064.062-12.064.044-12.063.029-12.064.018-12.064.011-12.063.007-12.064.003-12.064.001-12.064.001h-72.382l-12.064-.001-12.064-.001-12.063-.004-12.064-.006-12.064-.012-12.064-.019-12.063-.03-12.064-.045-12.064-.063-12.063-.089-12.064-.121-12.064-.161-12.064-.209-12.063-.269-12.064-.339-12.064-.424-12.064-.524-2.135-.113-9.928-.586-12.064-.862-12.064-1.034-12.064-1.23-12.063-1.452-12.064-1.703-12.064-1.987-12.064-2.303-12.063-2.656-12.064-3.39-12.064-3.899-12.063-4.435-5.895-2.455-6.169-2.886-12.064-6.371-7.981-4.74-4.083-2.733-12.063-9.052-2.637-2.211-9.427-8.942-12.064-13.794-3.942-5.257-8.122-12.351-.976-1.645-11.087-22.523-2.228-5.469-4.925-13.997-4.911-16.617-2.667-11.375-2.785-13.997-2.347-13.996-1.964-13.996-1.629-13.997-.672-7.018-.607-6.978-.991-13.996-.797-13.997-.634-13.996-.497-13.996-.383-13.996-.29-13.997-.216-13.996-.156-13.996-.11-13.997-.075-13.996-.049-13.996-.03-13.997-.018-13.996-.01-13.996-.004-13.997-.002-13.996L0 545.696v-69.982l.001-13.996.002-13.996.006-13.997.01-13.996.02-13.996.034-13.997.053-13.996.081-13.996.118-13.996.166-13.997.229-13.996.307-13.996.403-13.997.521-13.996.664-13.996.832-13.997 1.032-13.996.391-4.33.961-9.666 1.69-13.997 2.034-13.996 2.428-13.996 2.875-13.996 2.076-8.587 1.442-5.41 4.36-13.996 5.068-13.996 1.194-2.852 5.155-11.145 6.908-12.987 10.037-15.005 2.027-2.637 9.702-11.36 2.362-2.436 12.064-11.172 12.063-8.888 8.404-5.496 3.66-2.125 12.064-6.228 12.064-5.518 12.063-4.352 12.064-3.814 12.064-3.339 10.853-2.617 13.274-2.515 12.064-1.944 12.064-1.668 12.063-1.421 12.064-1.204 12.064-1.011 12.064-.844 12.063-.698 12.064-.572 12.064-.463 12.064-.371 12.063-.294 12.064-.229 12.064-.175 12.064-.132 12.063-.097 12.064-.07L390.91.08l12.063-.033 12.064-.021 12.064-.012 12.064-.008 12.063-.003 12.064-.002L475.356 0h72.382l12.064.001 12.064.001 12.064.004 12.063.007 12.064.012 12.064.02 12.063.032 12.064.047 12.064.068 12.064.095 12.063.129 12.064.172 12.064.224 12.064.288 12.063.365 12.064.456 12.064.563 12.064.687 12.063.832 12.064.999 12.064 1.188 12.063 1.404 12.064 1.648 12.064 1.922 12.064 2.23 2.075.442 9.988 2.383 12.064 3.305 12.064 3.776 12.064 4.297 12.063 5.438 12.064 6.172 4.555 2.622 7.509 4.868 12.064 8.769 12.063 11.033 3.247 3.322 8.817 10.241 2.91 3.756 9.154 13.462 7.83 14.53 4.233 9.084 7.178 18.909 4.393 13.996.493 1.836 5.858 26.157 2.445 13.996 2.049 13.996 1.702 13.997 1.275 13.996 1.04 13.996.838 13.997.668 13.996.525 13.996.406 13.997.309 13.996.23 13.996.168 13.997.119 13.996.081 13.996.054 13.996.034 13.997.02 13.996.01 13.996.006 13.997.002 13.996.001 13.996v41.989z"/></svg>