<svg xmlns="http://www.w3.org/2000/svg" viewBox="0 0 1024 1024" role="img"><path d="M630.802 729.314c0 35.26-25.42 59.45-57.399 59.45-31.569 0-58.628-22.96-58.628-59.45 0-35.258 27.06-59.038 58.628-59.038 31.98 0 57.399 22.55 57.399 59.038zM879.462 960H144.538a64 64 0 01-62.346-78.457l98.319-424A64 64 0 01242.858 408h176.167A96.201 96.201 0 01480 341.47v-51.74h-32A97.841 97.841 0 01350.269 192v-32A97.841 97.841 0 01448 62.27h128A97.841 97.841 0 01673.731 160v32A97.841 97.841 0 01576 289.73h-32v51.74A96.201 96.201 0 01604.975 408h176.167a64 64 0 0162.346 49.543l98.32 424A64 64 0 01879.46 960zM448 222.27h32.048a31.999 31.999 0 0163.904 0H576A30.304 30.304 0 00606.269 192v-32A30.304 30.304 0 00576 129.73H448A30.304 30.304 0 00417.731 160v32A30.304 30.304 0 00448 222.27zM416 544h-48v288h48zm264.82 185.314c0-69.697-43.868-105.776-102.906-105.776-21.32 0-54.024 11.48-65.914 32.389V544h-48v288h48v-29.297c15.58 24.19 40.084 32.389 64.684 32.389 59.448 0 104.136-39.359 104.136-105.778z"/></svg>