<svg xmlns="http://www.w3.org/2000/svg" viewBox="0 0 1024 1024" role="img"><path d="M998.94 353.78c-6.12-18.85-18.59-34.74-36.05-45.96-12.88-8.27-28.12-13.73-45.31-16.23l-222-32.26-99.29-201.17c-7.68-15.58-17.59-28.39-29.44-38.08C550.79 6.94 531.82 0 512 0s-38.79 6.94-54.85 20.08c-11.85 9.69-21.76 22.5-29.44 38.08l-99.29 201.17-222 32.26c-17.19 2.5-32.43 7.96-45.31 16.23-17.46 11.22-29.93 27.11-36.05 45.96-6.13 18.86-5.38 39.04 2.15 58.38 5.55 14.26 14.68 27.64 27.12 39.77l160.64 156.58-37.92 221.11c-5.52 32.16 1.32 61.59 19.26 82.87a82.644 82.644 0 0030.68 22.81 87.258 87.258 0 0034.82 7.07c17.02 0 34.39-4.6 51.63-13.66L512 824.32l198.56 104.39c17.24 9.06 34.61 13.66 51.63 13.66a87.258 87.258 0 0034.82-7.07 82.644 82.644 0 0030.68-22.81c17.94-21.28 24.78-50.71 19.26-82.87l-37.92-221.11 160.64-156.58c12.44-12.13 21.57-25.51 27.12-39.77 7.53-19.34 8.28-39.52 2.15-58.38zM925 406.1L751.56 575.16a29.992 29.992 0 00-8.63 26.55l40.95 238.72c4.09 23.89-5.07 37.94-21.69 37.94-6.31 0-13.7-2.03-21.84-6.31L525.96 759.35a30.053 30.053 0 00-13.96-3.44V64c9.75 0 19.51 7.5 26.9 22.49l107.2 217.19a29.974 29.974 0 0022.59 16.41l239.68 34.83c33.09 4.81 40.57 27.84 16.63 51.18z"/></svg>