<svg xmlns="http://www.w3.org/2000/svg" viewBox="0 0 1024 1024" role="img"><path d="M1024 475.714v-13.996l-.003-13.996-.005-13.996-.01-13.997-.021-13.996-.034-13.997-.054-13.996-.081-13.996-.12-13.996-.166-13.997-.23-13.996-.31-13.996-.406-13.997-.525-13.996-.667-13.996-.84-13.997-1.038-13.996-1.275-13.996-1.702-13.997-2.05-13.996-2.444-13.996-5.859-26.157-.492-1.836-4.393-13.996-7.178-18.91-4.234-9.082-7.83-14.53-9.153-13.463-2.91-3.756-8.818-10.24-3.246-3.323-12.064-11.033-12.064-8.77-7.51-4.867-4.553-2.622-12.064-6.172-12.064-5.437-12.064-4.298-12.063-3.776-12.064-3.305-9.988-2.383-2.076-.442-12.064-2.23-12.064-1.922-12.063-1.648-12.064-1.404L789.013 5l-12.063-.998-12.065-.832-12.063-.688-12.063-.562-12.065-.456-12.063-.365-12.064-.288-12.064-.225-12.063-.17-12.064-.13-12.064-.094-12.064-.068-12.063-.047L620.12.045l-12.064-.02-12.064-.012L583.93.006 571.866.002 559.802.001 547.738 0h-72.382l-12.064.001-12.063.001-12.064.004L427.1.014l-12.064.012-12.064.021L390.91.08l-12.064.048-12.064.07-12.063.097-12.064.132-12.064.176-12.063.228-12.064.294-12.064.371-12.063.463-12.064.572-12.064.698-12.064.844-12.064 1.011-12.063 1.204-12.064 1.421-12.064 1.668-12.064 1.944-13.274 2.515-10.853 2.617-12.064 3.339-12.064 3.814-12.064 4.352-12.063 5.518-12.064 6.228-3.66 2.125-8.404 5.496-12.063 8.888-12.064 11.172-2.362 2.436-9.702 11.36-2.027 2.637-10.036 15.005-6.91 12.988-5.154 11.144-1.194 2.852-5.068 13.996-4.36 13.996-1.442 5.41-2.076 8.586-2.875 13.997-2.428 13.996-2.034 13.996-1.69 13.997-.96 9.666-.392 4.33-1.032 13.996-.832 13.997-.664 13.996-.52 13.996-.404 13.997-.307 13.996-.228 13.996-.167 13.997-.118 13.996-.081 13.996-.053 13.996-.034 13.997-.02 13.996-.01 13.997-.006 13.996-.002 13.996L0 475.714v69.982l.001 13.996.001 13.996.005 13.997.01 13.996.018 13.996.03 13.997.049 13.996.075 13.996.11 13.997.156 13.996.216 13.996.29 13.996.383 13.997.497 13.996.634 13.997.797 13.996.99 13.996.608 6.978.672 7.018 1.629 13.997 1.964 13.996 2.347 13.996 2.785 13.997 2.667 11.375 4.91 16.617 4.926 13.997 2.228 5.47 11.087 22.522.977 1.645 8.121 12.351 3.942 5.257 12.064 13.794 9.427 8.942 2.637 2.21 12.063 9.053 4.083 2.734 7.981 4.74 12.064 6.37 6.169 2.886 5.894 2.455 12.064 4.435 12.064 3.899 12.064 3.39 12.063 2.657 12.064 2.302 12.064 1.987 12.064 1.703 12.064 1.452 12.063 1.23 12.064 1.034 12.064.861 9.928.587 2.136.114 12.063.523 12.064.423 12.064.34 12.064.27 12.063.208 12.064.16 12.064.122 12.063.089 12.064.063 12.064.045 12.063.03 12.064.02 12.064.01 12.064.007 12.063.004 12.064.001 12.064.001h72.382l12.064-.001 12.064-.001 12.064-.003 12.063-.007 12.064-.01 12.064-.02 12.063-.028 12.064-.043 12.064-.063 12.064-.087 12.063-.118 12.064-.157 12.064-.205 12.064-.264 12.063-.334 12.064-.417 12.064-.515 2.996-.157 9.067-.528 12.065-.85 12.063-1.02 12.063-1.214 12.065-1.434 12.063-1.683 12.064-1.964 12.064-2.278 12.063-2.628 1.589-.397 10.476-2.933 12.063-3.86 12.064-4.393 6.81-2.81 5.254-2.436 12.063-6.313 8.914-5.248 3.15-2.09 12.064-8.976 3.523-2.93 8.54-8.035 5.688-5.961 6.376-7.593 4.84-6.404 7.224-10.9 1.852-3.096 7.306-13.996 2.906-6.408 3.113-7.589 4.962-13.996 3.988-13.087 3.556-14.905 2.806-13.997 2.365-13.996 1.978-13.996 1.36-11.593.255-2.404 1.227-13.996.998-13.996.803-13.996.638-13.997.501-13.996.386-13.997.292-13.996.217-13.996.157-13.996.111-13.997.076-13.996.05-13.996.03-13.997.017-13.996.01-13.996.005-13.996.002-13.997v-83.978zm-64.01 0v83.97l-.002 13.982-.005 13.974-.01 13.961-.017 13.996-.03 13.848-.05 13.964-.075 13.832-.11 13.872-.153 13.68-.212 13.677-.284 13.623-.374 13.556-.48 13.385-.607 13.318-.756 13.183-.928 13.022-1.13 12.891-.156 1.468-1.232 10.505-1.75 12.389-2.06 12.185-2.387 11.905-2.827 11.851-2.995 9.83-3.962 11.176-2.079 5.067-1.693 3.73-5.632 10.793-.135.225-5.313 8.016-2.656 3.514-4.013 4.78-3.095 3.243-5.855 5.508-.689.573-9.293 6.914-.281.187-6.048 3.56-9.284 4.859-2.614 1.211-4.308 1.778-9.602 3.496-9.742 3.118-8.361 2.34-10.125 2.206-10.399 1.964-10.539 1.716-10.714 1.495-10.832 1.288-10.973 1.104-11.13.941-11.206.79-8.505.494-2.507.131-11.484.49-11.577.401-11.672.324-11.701.256-11.861.202-11.73.153-11.93.116-11.884.085-12.016.062-11.892.043-12.004.029-12.027.018-12.037.011-12.045.007-12.056.003-12.063.001-12.057.001h-72.377l-12.062-.001-12.054-.001-12.047-.004-12.036-.006-12.023-.012-12.063-.02v.001l-12.004-.03-11.89-.044-11.986-.063-11.988-.088-11.738-.118-11.952-.159-11.69-.203-11.738-.261-11.686-.33-11.563-.406-11.492-.499-1.643-.087-9.33-.55-11.215-.802-11.105-.952-10.962-1.117-10.835-1.304-10.694-1.51-10.534-1.735-10.384-1.982-9.39-2.068-9.117-2.562-9.67-3.125-9.601-3.53-3.373-1.404-3.524-1.65-9.284-4.902-5.116-3.038-1.211-.81-9.196-6.901-5.756-5.46-8.517-9.738-1.31-1.747-5.51-8.38-8.645-17.56-.79-1.942-3.87-10.994-3.93-13.298-2.003-8.546-2.384-11.981-2.047-12.2-1.74-12.407-1.465-12.585-.584-6.107-.537-6.17-.925-13.063-.752-13.186-.602-13.294-.476-13.424-.37-13.553-.282-13.561-.211-13.713-.154-13.789-.108-13.757-.075-13.875-.049-13.947-.03-13.855-.017-13.956-.01-13.977-.005-13.98-.001-13.994-.001-13.992v-69.978l.001-13.989.002-13.983.006-13.971.01-13.957.02-13.996.033-13.885.053-13.862.08-13.842.117-13.834.163-13.771.223-13.625.3-13.648.388-13.483.498-13.386.63-13.306.783-13.147.96-13.028.316-3.49.868-8.733 1.517-12.564 1.796-12.356 2.11-12.165 2.452-11.94 1.641-6.786.909-3.409 3.53-11.336 4.042-11.159.134-.32 3.91-8.455 4.56-8.57 6.968-10.418 7.06-8.266 8.025-7.432 7.738-5.7 5.482-3.587.816-.473 9.308-4.806 8.264-3.78 8.371-3.02 9.732-3.076 9.921-2.746 8.279-1.996 10.855-2.057 10.486-1.69 10.709-1.48 10.872-1.28 10.976-1.096 11.13-.933 11.252-.787 11.315-.655 11.466-.543 11.52-.443 11.603-.356 11.703-.286 11.752-.222 11.844-.172 11.764-.13 12.016-.096 11.876-.069 11.962-.047 11.958-.033 12.02-.02 12.034-.013 12.046-.008 12.05-.004 12.063-.001L475.356 64h72.377l12.062.001 12.053.001 12.045.004 12.035.007 12.022.012 12.064.02 11.965.031 11.98.047 11.867.067 11.951.094 11.845.127 11.864.169 11.732.218 11.656.278 11.67.353 11.495.435 11.475.535 11.342.646 11.26.777 11.106.919 11.02 1.086 10.868 1.264 10.724 1.465 10.578 1.686 10.429 1.927.469.1 8.19 1.955 9.938 2.722 9.77 3.058 8.445 3.009 8.253 3.719 9.246 4.73 1.715.988 4.651 3.015 7.776 5.653 8.08 7.39.583.595 6.424 7.463.681.879 6.183 9.091 5.386 9.998 2.455 5.266 5.677 14.956 3.312 10.55 5.149 22.99 2.032 11.636 1.807 12.342 1.494 12.275 1.138 12.501.966 13.014.788 13.135.633 13.287.504 13.416.391 13.488.3 13.584.225 13.678.164 13.752.118 13.847.08 13.822.053 13.865.034 13.889.02 13.951.011 13.97.005 13.987.003 13.983z"/></svg>