<svg xmlns="http://www.w3.org/2000/svg" viewBox="0 0 1024 1024" role="img"><path d="M640 0C427.923 0 256 171.923 256 384a382.196 382.196 0 0062.242 209.66 95.545 95.545 0 00-50.125 26.457l-240 240a96 96 0 00135.766 135.766l240-240a95.546 95.546 0 0026.458-50.125A382.196 382.196 0 00640 768c212.077 0 384-171.923 384-384S852.077 0 640 0zm0 640c-141.385 0-256-114.615-256-256s114.615-256 256-256 256 114.615 256 256-114.615 256-256 256z"/><path d="M768 336h-80v-80a48 48 0 00-96 0v80h-80a48 48 0 000 96h80v80a48 48 0 0096 0v-80h80a48 48 0 000-96z"/></svg>