<svg xmlns="http://www.w3.org/2000/svg" viewBox="0 0 1024 1024" role="img"><path d="M704 768h-32a63.988 63.988 0 01-63.947-61.896C656.151 673.227 688 616.433 688 552c0-101.458-78.953-184-176-184s-176 82.542-176 184c0 64.433 31.85 121.227 79.947 154.104A63.988 63.988 0 01352 768h-32a128 128 0 00-128 128v64h640v-64a128 128 0 00-128-128zM422.772 479.56c30.037-2.2 55.751-12.497 70.53-27.024 18.79 16.599 50.026 27.464 85.39 27.464a167.282 167.282 0 0021.827-1.43A124.942 124.942 0 01624 552c0 66.168-50.243 120-112 120s-112-53.832-112-120a125.014 125.014 0 0122.772-72.44zM256 896a64.073 64.073 0 0164-64h32c60.854 0 111.92-42.688 124.84-99.691a169.296 169.296 0 0070.32 0C560.08 789.312 611.146 832 672 832h32a64.073 64.073 0 0164 64z"/></svg>