<svg xmlns="http://www.w3.org/2000/svg" viewBox="0 0 1024 1024" role="img"><path d="M704 768h-32a63.988 63.988 0 01-63.947-61.896 183.312 183.312 0 0065.56-81.275 455.852 455.852 0 0028.875 43.288 355.604 355.604 0 0023.325 27.82c4.112 4.378 8.328 8.62 12.67 12.672A151.93 151.93 0 00752 720a147.353 147.353 0 01-4.923-16.503 258.095 258.095 0 01-3.444-16.641 325.607 325.607 0 01-3.882-33.281c-.734-11.055-.943-22.06-.742-32.978.175-10.907.854-21.766 1.862-32.512a503.52 503.52 0 0110.123-63.294A603.58 603.58 0 01768 464a84.29 84.29 0 00-155.918-63.266 169.364 169.364 0 00-200.16-.003A84.294 84.294 0 00256 464a603.58 603.58 0 0117.006 60.791 503.52 503.52 0 0110.123 63.294c1.008 10.746 1.687 21.605 1.862 32.512.201 10.918-.008 21.923-.742 32.978a325.607 325.607 0 01-3.882 33.281 258.06 258.06 0 01-3.444 16.641A147.353 147.353 0 01272 720a151.93 151.93 0 0013.518-11.39c4.341-4.054 8.557-8.295 12.669-12.673a355.604 355.604 0 0023.325-27.82 455.852 455.852 0 0028.876-43.288 183.311 183.311 0 0065.559 81.276A63.988 63.988 0 01352 768h-32a128 128 0 00-128 128v64h640v-64a128 128 0 00-128-128zM411.49 499.1a398.45 398.45 0 00201.02 0A126.307 126.307 0 01624 552c0 66.168-50.243 120-112 120s-112-53.832-112-120a126.307 126.307 0 0111.49-52.9zM256 896a64.073 64.073 0 0164-64h32c60.854 0 111.92-42.688 124.84-99.691a169.296 169.296 0 0070.32 0C560.08 789.312 611.146 832 672 832h32a64.073 64.073 0 0164 64z"/></svg>