<svg xmlns="http://www.w3.org/2000/svg" viewBox="0 0 1024 1024" role="img"><path d="M875.743 801.36L697.98 736.72a127.997 127.997 0 01-83.818-109.952 268.144 268.144 0 0035.038-37.046q5.234-6.687 10.096-13.722H736a32 32 0 0030.136-21.237c3.544-9.924 85.64-244.67-14.926-387.372C702.863 98.786 622.381 64 512 64S321.137 98.786 272.79 167.39c-100.565 142.703-18.47 377.45-14.926 387.373A32 32 0 00288 576h76.704q4.874 7.02 10.096 13.722a268.144 268.144 0 0035.038 37.046A127.997 127.997 0 01326.02 736.72l-177.763 64.641A128 128 0 0064 921.655V960h896v-38.345a128 128 0 00-84.257-120.294zM496.01 192.692S512 320 623.999 320a31.536 31.536 0 0131.514 29.772q.486 8.889.487 18.228c0 90.246-31.106 148.936-57.2 182.278C567.762 589.937 532.048 608 512 608s-55.762-18.063-86.8-57.722C399.106 516.936 368 458.246 368 368c0-26.274 21.506-48 47.78-48H432c61.278 0 64.009-127.309 64.009-127.309zM133.402 896a64.156 64.156 0 0136.726-34.492l177.764-64.641c60.566-22.024 105.064-73.225 120.474-133.696C483.241 668.931 497.993 672 512 672s28.759-3.068 43.634-8.829c15.41 60.471 59.909 111.672 120.475 133.696l177.762 64.64A64.16 64.16 0 01890.598 896z"/></svg>